G04 #@! TF.GenerationSoftware,KiCad,Pcbnew,(2017-01-15 revision 8ac4790)-makepkg*
G04 #@! TF.CreationDate,2017-10-15T11:46:17+02:00*
G04 #@! TF.ProjectId,Fallblatt-Controller,46616C6C626C6174742D436F6E74726F,1.1*
G04 #@! TF.FileFunction,Copper,L2,Bot,Signal*
G04 #@! TF.FilePolarity,Positive*
%FSLAX46Y46*%
G04 Gerber Fmt 4.6, Leading zero omitted, Abs format (unit mm)*
G04 Created by KiCad (PCBNEW (2017-01-15 revision 8ac4790)-makepkg) date 10/15/17 11:46:17*
%MOMM*%
%LPD*%
G01*
G04 APERTURE LIST*
%ADD10C,0.100000*%
%ADD11C,1.000000*%
%ADD12C,1.800000*%
%ADD13C,3.000000*%
%ADD14C,0.800000*%
%ADD15C,1.600000*%
%ADD16C,1.000000*%
%ADD17C,0.250000*%
%ADD18C,0.254000*%
G04 APERTURE END LIST*
D10*
D11*
X122977801Y-100486969D03*
D10*
G36*
X123963487Y-101723263D02*
X121447476Y-100089346D01*
X121992115Y-99250675D01*
X124508126Y-100884592D01*
X123963487Y-101723263D01*
X123963487Y-101723263D01*
G37*
D11*
X123958152Y-98977362D03*
D10*
G36*
X124943838Y-100213656D02*
X122427827Y-98579739D01*
X122972466Y-97741068D01*
X125488477Y-99374985D01*
X124943838Y-100213656D01*
X124943838Y-100213656D01*
G37*
D11*
X134022199Y-105513031D03*
D10*
G36*
X135007885Y-106749325D02*
X132491874Y-105115408D01*
X133036513Y-104276737D01*
X135552524Y-105910654D01*
X135007885Y-106749325D01*
X135007885Y-106749325D01*
G37*
D11*
X133041848Y-107022638D03*
D10*
G36*
X134027534Y-108258932D02*
X131511523Y-106625015D01*
X132056162Y-105786344D01*
X134572173Y-107420261D01*
X134027534Y-108258932D01*
X134027534Y-108258932D01*
G37*
D12*
X76100000Y-116500000D03*
X76100000Y-113960000D03*
X76100000Y-111420000D03*
X78640000Y-116500000D03*
X78640000Y-113960000D03*
X78640000Y-111420000D03*
D13*
X75250000Y-84750000D03*
X75250000Y-89750000D03*
D14*
X115824000Y-120904000D03*
D15*
X76750000Y-94000000D03*
X73200000Y-80400000D03*
D14*
X102870000Y-120904000D03*
X95377000Y-118999000D03*
D15*
X121412000Y-101981000D03*
D14*
X101000000Y-83000000D03*
X94500000Y-86500000D03*
X95500000Y-85000000D03*
D15*
X115443000Y-114935000D03*
D14*
X95123000Y-87503000D03*
X93498998Y-91821000D03*
D15*
X87630000Y-80899000D03*
X83185000Y-80899000D03*
X123952000Y-96393000D03*
X95123000Y-117221000D03*
D14*
X117856000Y-102235000D03*
D15*
X136779000Y-105537000D03*
D14*
X86106000Y-74676000D03*
X78232000Y-74676000D03*
D15*
X81788000Y-101854000D03*
X80645000Y-84709000D03*
D14*
X99060000Y-121031000D03*
X94615000Y-119888000D03*
X105664000Y-117856000D03*
X103886000Y-116078000D03*
X100076000Y-88551021D03*
X103632000Y-72390000D03*
X96647000Y-87503000D03*
X101092000Y-72390000D03*
X93599000Y-87503000D03*
X98552000Y-72390000D03*
X92837000Y-86614000D03*
X96012000Y-72390000D03*
X91948000Y-87503000D03*
X93472000Y-72390000D03*
X91186000Y-91440000D03*
X90932000Y-72390000D03*
X86741000Y-88265000D03*
X88392000Y-72390000D03*
X86614000Y-79121000D03*
X85852000Y-72390000D03*
X96647000Y-98298000D03*
X96647000Y-107061000D03*
X95123000Y-96774000D03*
X99187000Y-107061000D03*
X97917000Y-98298000D03*
X97917000Y-107061000D03*
X117221000Y-116967000D03*
X103124000Y-98552000D03*
D16*
X122977801Y-100486969D02*
X122906031Y-100486969D01*
X122906031Y-100486969D02*
X121412000Y-101981000D01*
X76100000Y-113960000D02*
X74827208Y-113960000D01*
X74827208Y-113960000D02*
X73533000Y-115254208D01*
X73533000Y-115254208D02*
X73533000Y-118745000D01*
X73533000Y-118745000D02*
X74676000Y-119888000D01*
X92456000Y-119888000D02*
X95123000Y-117221000D01*
X74676000Y-119888000D02*
X92456000Y-119888000D01*
X115443000Y-101727000D02*
X115443000Y-114935000D01*
X120777000Y-96393000D02*
X115443000Y-101727000D01*
X122820630Y-96393000D02*
X120777000Y-96393000D01*
X123952000Y-96393000D02*
X122820630Y-96393000D01*
D17*
X93498998Y-91821000D02*
X93498998Y-89127002D01*
X93498998Y-89127002D02*
X95123000Y-87503000D01*
D16*
X83185000Y-80899000D02*
X87630000Y-80899000D01*
X123958152Y-98977362D02*
X123958152Y-96399152D01*
X123958152Y-96399152D02*
X123952000Y-96393000D01*
D17*
X129286000Y-110744000D02*
X126365000Y-110744000D01*
X126365000Y-110744000D02*
X117856000Y-102235000D01*
X132575200Y-107454800D02*
X129286000Y-110744000D01*
X133041848Y-107022638D02*
X132609686Y-107454800D01*
X132609686Y-107454800D02*
X132575200Y-107454800D01*
D16*
X134022199Y-105513031D02*
X136755031Y-105513031D01*
X136755031Y-105513031D02*
X136779000Y-105537000D01*
D17*
X78232000Y-74676000D02*
X86106000Y-74676000D01*
D16*
X80645000Y-84709000D02*
X81788000Y-85852000D01*
X81788000Y-85852000D02*
X81788000Y-101854000D01*
D17*
X94615000Y-119888000D02*
X97917000Y-119888000D01*
X97917000Y-119888000D02*
X99060000Y-121031000D01*
X103886000Y-116078000D02*
X105664000Y-117856000D01*
X100076000Y-75946000D02*
X100076000Y-87985336D01*
X100076000Y-87985336D02*
X100076000Y-88551021D01*
X103632000Y-72390000D02*
X100076000Y-75946000D01*
X101092000Y-72390000D02*
X96647000Y-76835000D01*
X96647000Y-76835000D02*
X96647000Y-87503000D01*
X98552000Y-72390000D02*
X93599000Y-77343000D01*
X93599000Y-77343000D02*
X93599000Y-87503000D01*
X96012000Y-72390000D02*
X92837000Y-75565000D01*
X92837000Y-75565000D02*
X92837000Y-86614000D01*
X93472000Y-72390000D02*
X91948000Y-73914000D01*
X91948000Y-73914000D02*
X91948000Y-87503000D01*
X90932000Y-72390000D02*
X90932000Y-91186000D01*
X90932000Y-91186000D02*
X91186000Y-91440000D01*
X87140999Y-87865001D02*
X86741000Y-88265000D01*
X88392000Y-72390000D02*
X88882002Y-72880002D01*
X88882002Y-72880002D02*
X88882002Y-86123998D01*
X88882002Y-86123998D02*
X87140999Y-87865001D01*
X87376000Y-73914000D02*
X87376000Y-78359000D01*
X87376000Y-78359000D02*
X86614000Y-79121000D01*
X85852000Y-72390000D02*
X87376000Y-73914000D01*
X96647000Y-107061000D02*
X96647000Y-98298000D01*
X99187000Y-97536000D02*
X98425000Y-96774000D01*
X98425000Y-96774000D02*
X95123000Y-96774000D01*
X99187000Y-98298000D02*
X99187000Y-97536000D01*
X99187000Y-107061000D02*
X99187000Y-98298000D01*
X97917000Y-107061000D02*
X97917000Y-98298000D01*
X103124000Y-109474000D02*
X110617000Y-116967000D01*
X110617000Y-116967000D02*
X117221000Y-116967000D01*
X103124000Y-107061000D02*
X103124000Y-109474000D01*
X103124000Y-98552000D02*
X103124000Y-106680000D01*
X103124000Y-106680000D02*
X103124000Y-106807000D01*
X103124000Y-107061000D02*
X103124000Y-106680000D01*
D18*
G36*
X164290000Y-105600225D02*
X163681653Y-104127913D01*
X162378945Y-102822929D01*
X160676003Y-102115806D01*
X158832086Y-102114197D01*
X157127913Y-102818347D01*
X155822929Y-104121055D01*
X155115806Y-105823997D01*
X155114197Y-107667914D01*
X155818347Y-109372087D01*
X157121055Y-110677071D01*
X158823997Y-111384194D01*
X160667914Y-111385803D01*
X162372087Y-110681653D01*
X163677071Y-109378945D01*
X164290000Y-107902847D01*
X164290000Y-121290000D01*
X100073135Y-121290000D01*
X100094820Y-121237777D01*
X100095179Y-120826029D01*
X99937942Y-120445485D01*
X99647046Y-120154081D01*
X99266777Y-119996180D01*
X99099836Y-119996034D01*
X98454401Y-119350599D01*
X98207839Y-119185852D01*
X97917000Y-119128000D01*
X95318761Y-119128000D01*
X95202046Y-119011081D01*
X95015509Y-118933624D01*
X95292984Y-118656148D01*
X95407187Y-118656248D01*
X95934800Y-118438243D01*
X96338824Y-118034923D01*
X96557750Y-117507691D01*
X96558248Y-116936813D01*
X96340243Y-116409200D01*
X96214234Y-116282971D01*
X102850821Y-116282971D01*
X103008058Y-116663515D01*
X103298954Y-116954919D01*
X103679223Y-117112820D01*
X103846164Y-117112966D01*
X104628965Y-117895767D01*
X104628821Y-118060971D01*
X104786058Y-118441515D01*
X105076954Y-118732919D01*
X105457223Y-118890820D01*
X105868971Y-118891179D01*
X106249515Y-118733942D01*
X106540919Y-118443046D01*
X106698820Y-118062777D01*
X106699179Y-117651029D01*
X106541942Y-117270485D01*
X106251046Y-116979081D01*
X105870777Y-116821180D01*
X105703836Y-116821034D01*
X104921035Y-116038233D01*
X104921179Y-115873029D01*
X104763942Y-115492485D01*
X104473046Y-115201081D01*
X104092777Y-115043180D01*
X103681029Y-115042821D01*
X103300485Y-115200058D01*
X103009081Y-115490954D01*
X102851180Y-115871223D01*
X102850821Y-116282971D01*
X96214234Y-116282971D01*
X95936923Y-116005176D01*
X95409691Y-115786250D01*
X94838813Y-115785752D01*
X94311200Y-116003757D01*
X93907176Y-116407077D01*
X93688250Y-116934309D01*
X93688148Y-117050719D01*
X93508446Y-117230422D01*
X93634628Y-116926541D01*
X93635370Y-116077185D01*
X93311020Y-115292200D01*
X92710959Y-114691091D01*
X91926541Y-114365372D01*
X91077185Y-114364630D01*
X90292200Y-114688980D01*
X89691091Y-115289041D01*
X89365372Y-116073459D01*
X89364630Y-116922815D01*
X89688980Y-117707800D01*
X90289041Y-118308909D01*
X91073459Y-118634628D01*
X91922815Y-118635370D01*
X92230723Y-118508145D01*
X91985868Y-118753000D01*
X75146132Y-118753000D01*
X74668000Y-118274868D01*
X74668000Y-117053911D01*
X74797932Y-117368371D01*
X75229357Y-117800551D01*
X75793330Y-118034733D01*
X76403991Y-118035265D01*
X76968371Y-117802068D01*
X77370323Y-117400818D01*
X77769357Y-117800551D01*
X78333330Y-118034733D01*
X78943991Y-118035265D01*
X79508371Y-117802068D01*
X79940551Y-117370643D01*
X80174733Y-116806670D01*
X80175265Y-116196009D01*
X79942068Y-115631629D01*
X79510643Y-115199449D01*
X78946670Y-114965267D01*
X78336009Y-114964735D01*
X77771629Y-115197932D01*
X77369677Y-115599182D01*
X77000818Y-115229677D01*
X77308217Y-114922815D01*
X82364630Y-114922815D01*
X82688980Y-115707800D01*
X83289041Y-116308909D01*
X84073459Y-116634628D01*
X84922815Y-116635370D01*
X85707800Y-116311020D01*
X86308909Y-115710959D01*
X86634628Y-114926541D01*
X86635370Y-114077185D01*
X86311020Y-113292200D01*
X85710959Y-112691091D01*
X84926541Y-112365372D01*
X84077185Y-112364630D01*
X83292200Y-112688980D01*
X82691091Y-113289041D01*
X82365372Y-114073459D01*
X82364630Y-114922815D01*
X77308217Y-114922815D01*
X77400551Y-114830643D01*
X77634733Y-114266670D01*
X77635265Y-113656009D01*
X77402068Y-113091629D01*
X77000818Y-112689677D01*
X77400551Y-112290643D01*
X77634733Y-111726670D01*
X77635265Y-111116009D01*
X77402068Y-110551629D01*
X76970643Y-110119449D01*
X76406670Y-109885267D01*
X75796009Y-109884735D01*
X75231629Y-110117932D01*
X74799449Y-110549357D01*
X74565267Y-111113330D01*
X74564735Y-111723991D01*
X74797932Y-112288371D01*
X75199182Y-112690323D01*
X75064269Y-112825000D01*
X74827208Y-112825000D01*
X74392863Y-112911396D01*
X74024642Y-113157433D01*
X72730434Y-114451642D01*
X72484397Y-114819862D01*
X72398000Y-115254208D01*
X72398000Y-118745000D01*
X72484397Y-119179346D01*
X72565653Y-119300954D01*
X72730434Y-119547566D01*
X73873434Y-120690566D01*
X74241654Y-120936603D01*
X74676000Y-121023000D01*
X92456000Y-121023000D01*
X92890346Y-120936603D01*
X93258566Y-120690566D01*
X93660618Y-120288515D01*
X93737058Y-120473515D01*
X94027954Y-120764919D01*
X94408223Y-120922820D01*
X94819971Y-120923179D01*
X95200515Y-120765942D01*
X95318663Y-120648000D01*
X97602198Y-120648000D01*
X98024965Y-121070767D01*
X98024821Y-121235971D01*
X98047145Y-121290000D01*
X65710000Y-121290000D01*
X65710000Y-106710000D01*
X70000000Y-106710000D01*
X70271705Y-106655954D01*
X70502046Y-106502046D01*
X73502046Y-103502046D01*
X73655954Y-103271705D01*
X73710000Y-103000000D01*
X73710000Y-96000000D01*
X73655954Y-95728295D01*
X73502046Y-95497954D01*
X70502046Y-92497954D01*
X70271705Y-92344046D01*
X70000000Y-92290000D01*
X65710000Y-92290000D01*
X65710000Y-90172815D01*
X73114630Y-90172815D01*
X73438980Y-90957800D01*
X74039041Y-91558909D01*
X74823459Y-91884628D01*
X75672815Y-91885370D01*
X76457800Y-91561020D01*
X77058909Y-90960959D01*
X77384628Y-90176541D01*
X77385370Y-89327185D01*
X77061020Y-88542200D01*
X76460959Y-87941091D01*
X75676541Y-87615372D01*
X74827185Y-87614630D01*
X74042200Y-87938980D01*
X73441091Y-88539041D01*
X73115372Y-89323459D01*
X73114630Y-90172815D01*
X65710000Y-90172815D01*
X65710000Y-85172815D01*
X73114630Y-85172815D01*
X73438980Y-85957800D01*
X74039041Y-86558909D01*
X74823459Y-86884628D01*
X75672815Y-86885370D01*
X76457800Y-86561020D01*
X77058909Y-85960959D01*
X77384628Y-85176541D01*
X77384788Y-84993187D01*
X79209752Y-84993187D01*
X79427757Y-85520800D01*
X79831077Y-85924824D01*
X80358309Y-86143750D01*
X80474720Y-86143852D01*
X80653000Y-86322132D01*
X80653000Y-100959394D01*
X80572176Y-101040077D01*
X80353250Y-101567309D01*
X80352752Y-102138187D01*
X80570757Y-102665800D01*
X80974077Y-103069824D01*
X81501309Y-103288750D01*
X82072187Y-103289248D01*
X82599800Y-103071243D01*
X83003824Y-102667923D01*
X83222750Y-102140691D01*
X83223248Y-101569813D01*
X83005243Y-101042200D01*
X82923000Y-100959813D01*
X82923000Y-96922815D01*
X83364630Y-96922815D01*
X83688980Y-97707800D01*
X84289041Y-98308909D01*
X85073459Y-98634628D01*
X85922815Y-98635370D01*
X86707800Y-98311020D01*
X87308909Y-97710959D01*
X87612857Y-96978971D01*
X94087821Y-96978971D01*
X94245058Y-97359515D01*
X94535954Y-97650919D01*
X94916223Y-97808820D01*
X95327971Y-97809179D01*
X95708515Y-97651942D01*
X95826663Y-97534000D01*
X95947344Y-97534000D01*
X95770081Y-97710954D01*
X95612180Y-98091223D01*
X95611821Y-98502971D01*
X95769058Y-98883515D01*
X95887000Y-99001663D01*
X95887000Y-106357239D01*
X95770081Y-106473954D01*
X95612180Y-106854223D01*
X95611821Y-107265971D01*
X95769058Y-107646515D01*
X96059954Y-107937919D01*
X96440223Y-108095820D01*
X96851971Y-108096179D01*
X97232515Y-107938942D01*
X97281831Y-107889712D01*
X97329954Y-107937919D01*
X97710223Y-108095820D01*
X98121971Y-108096179D01*
X98502515Y-107938942D01*
X98551831Y-107889712D01*
X98599954Y-107937919D01*
X98980223Y-108095820D01*
X99391971Y-108096179D01*
X99772515Y-107938942D01*
X100063919Y-107648046D01*
X100221820Y-107267777D01*
X100222179Y-106856029D01*
X100064942Y-106475485D01*
X99947000Y-106357337D01*
X99947000Y-98756971D01*
X102088821Y-98756971D01*
X102246058Y-99137515D01*
X102364000Y-99255663D01*
X102364000Y-109474000D01*
X102421852Y-109764839D01*
X102586599Y-110011401D01*
X110079599Y-117504401D01*
X110326160Y-117669148D01*
X110617000Y-117727000D01*
X116517239Y-117727000D01*
X116633954Y-117843919D01*
X117014223Y-118001820D01*
X117425971Y-118002179D01*
X117806515Y-117844942D01*
X118097919Y-117554046D01*
X118255820Y-117173777D01*
X118256038Y-116922815D01*
X128864630Y-116922815D01*
X129188980Y-117707800D01*
X129789041Y-118308909D01*
X130573459Y-118634628D01*
X131422815Y-118635370D01*
X132207800Y-118311020D01*
X132808909Y-117710959D01*
X133134628Y-116926541D01*
X133135370Y-116077185D01*
X132811020Y-115292200D01*
X132210959Y-114691091D01*
X131426541Y-114365372D01*
X130577185Y-114364630D01*
X129792200Y-114688980D01*
X129191091Y-115289041D01*
X128865372Y-116073459D01*
X128864630Y-116922815D01*
X118256038Y-116922815D01*
X118256179Y-116762029D01*
X118098942Y-116381485D01*
X117808046Y-116090081D01*
X117427777Y-115932180D01*
X117016029Y-115931821D01*
X116635485Y-116089058D01*
X116517337Y-116207000D01*
X116122278Y-116207000D01*
X116254800Y-116152243D01*
X116658824Y-115748923D01*
X116877750Y-115221691D01*
X116878248Y-114650813D01*
X116660243Y-114123200D01*
X116578000Y-114040813D01*
X116578000Y-102197132D01*
X116873919Y-101901213D01*
X116821180Y-102028223D01*
X116820821Y-102439971D01*
X116978058Y-102820515D01*
X117268954Y-103111919D01*
X117649223Y-103269820D01*
X117816164Y-103269966D01*
X125827599Y-111281401D01*
X126074160Y-111446148D01*
X126365000Y-111504000D01*
X129286000Y-111504000D01*
X129576839Y-111446148D01*
X129823401Y-111281401D01*
X132843080Y-108261722D01*
X133674913Y-108801921D01*
X133909548Y-108895531D01*
X134162145Y-108892224D01*
X134394248Y-108792504D01*
X134570523Y-108611553D01*
X135115162Y-107772882D01*
X135208772Y-107538248D01*
X135206375Y-107355172D01*
X135374599Y-107282897D01*
X135550874Y-107101946D01*
X135845650Y-106648031D01*
X135860467Y-106648031D01*
X135965077Y-106752824D01*
X136492309Y-106971750D01*
X137063187Y-106972248D01*
X137590800Y-106754243D01*
X137994824Y-106350923D01*
X138213750Y-105823691D01*
X138214248Y-105252813D01*
X137996243Y-104725200D01*
X137592923Y-104321176D01*
X137065691Y-104102250D01*
X136494813Y-104101752D01*
X135967200Y-104319757D01*
X135908824Y-104378031D01*
X134381243Y-104378031D01*
X133389134Y-103733748D01*
X133154499Y-103640138D01*
X133134443Y-103640401D01*
X133135803Y-102082086D01*
X132656802Y-100922815D01*
X139864630Y-100922815D01*
X140188980Y-101707800D01*
X140789041Y-102308909D01*
X141573459Y-102634628D01*
X142422815Y-102635370D01*
X143207800Y-102311020D01*
X143808909Y-101710959D01*
X144134628Y-100926541D01*
X144135370Y-100077185D01*
X143811020Y-99292200D01*
X143210959Y-98691091D01*
X142426541Y-98365372D01*
X141577185Y-98364630D01*
X140792200Y-98688980D01*
X140191091Y-99289041D01*
X139865372Y-100073459D01*
X139864630Y-100922815D01*
X132656802Y-100922815D01*
X132431653Y-100377913D01*
X131128945Y-99072929D01*
X129426003Y-98365806D01*
X127582086Y-98364197D01*
X126022239Y-99008713D01*
X126022049Y-99008271D01*
X125841098Y-98831996D01*
X125093152Y-98346274D01*
X125093152Y-97281465D01*
X125167824Y-97206923D01*
X125386750Y-96679691D01*
X125387248Y-96108813D01*
X125169243Y-95581200D01*
X124765923Y-95177176D01*
X124238691Y-94958250D01*
X123667813Y-94957752D01*
X123140200Y-95175757D01*
X123057813Y-95258000D01*
X120777000Y-95258000D01*
X120342654Y-95344397D01*
X120133067Y-95484439D01*
X119974434Y-95590434D01*
X114640434Y-100924434D01*
X114394397Y-101292654D01*
X114308000Y-101727000D01*
X114308000Y-114040394D01*
X114227176Y-114121077D01*
X114008250Y-114648309D01*
X114007752Y-115219187D01*
X114225757Y-115746800D01*
X114629077Y-116150824D01*
X114764364Y-116207000D01*
X110931802Y-116207000D01*
X103884000Y-109159198D01*
X103884000Y-99255761D01*
X104000919Y-99139046D01*
X104158820Y-98758777D01*
X104159179Y-98347029D01*
X104001942Y-97966485D01*
X103711046Y-97675081D01*
X103330777Y-97517180D01*
X102919029Y-97516821D01*
X102538485Y-97674058D01*
X102247081Y-97964954D01*
X102089180Y-98345223D01*
X102088821Y-98756971D01*
X99947000Y-98756971D01*
X99947000Y-97536000D01*
X99889148Y-97245161D01*
X99724401Y-96998599D01*
X98962401Y-96236599D01*
X98715839Y-96071852D01*
X98425000Y-96014000D01*
X95826761Y-96014000D01*
X95710046Y-95897081D01*
X95329777Y-95739180D01*
X94918029Y-95738821D01*
X94537485Y-95896058D01*
X94246081Y-96186954D01*
X94088180Y-96567223D01*
X94087821Y-96978971D01*
X87612857Y-96978971D01*
X87634628Y-96926541D01*
X87635370Y-96077185D01*
X87311020Y-95292200D01*
X86710959Y-94691091D01*
X85926541Y-94365372D01*
X85077185Y-94364630D01*
X84292200Y-94688980D01*
X83691091Y-95289041D01*
X83365372Y-96073459D01*
X83364630Y-96922815D01*
X82923000Y-96922815D01*
X82923000Y-85852000D01*
X82836603Y-85417654D01*
X82590566Y-85049434D01*
X82080148Y-84539016D01*
X82080248Y-84424813D01*
X81862243Y-83897200D01*
X81458923Y-83493176D01*
X80931691Y-83274250D01*
X80360813Y-83273752D01*
X79833200Y-83491757D01*
X79429176Y-83895077D01*
X79210250Y-84422309D01*
X79209752Y-84993187D01*
X77384788Y-84993187D01*
X77385370Y-84327185D01*
X77061020Y-83542200D01*
X76460959Y-82941091D01*
X75676541Y-82615372D01*
X74827185Y-82614630D01*
X74042200Y-82938980D01*
X73441091Y-83539041D01*
X73115372Y-84323459D01*
X73114630Y-85172815D01*
X65710000Y-85172815D01*
X65710000Y-82210000D01*
X70000000Y-82210000D01*
X70271705Y-82155954D01*
X70502046Y-82002046D01*
X73502046Y-79002046D01*
X73655954Y-78771705D01*
X73710000Y-78500000D01*
X73710000Y-74880971D01*
X77196821Y-74880971D01*
X77354058Y-75261515D01*
X77644954Y-75552919D01*
X78025223Y-75710820D01*
X78436971Y-75711179D01*
X78817515Y-75553942D01*
X78935663Y-75436000D01*
X85402239Y-75436000D01*
X85518954Y-75552919D01*
X85899223Y-75710820D01*
X86310971Y-75711179D01*
X86616000Y-75585144D01*
X86616000Y-78044198D01*
X86574233Y-78085965D01*
X86409029Y-78085821D01*
X86028485Y-78243058D01*
X85737081Y-78533954D01*
X85579180Y-78914223D01*
X85578821Y-79325971D01*
X85736058Y-79706515D01*
X85793443Y-79764000D01*
X84079606Y-79764000D01*
X83998923Y-79683176D01*
X83471691Y-79464250D01*
X82900813Y-79463752D01*
X82373200Y-79681757D01*
X81969176Y-80085077D01*
X81750250Y-80612309D01*
X81749752Y-81183187D01*
X81967757Y-81710800D01*
X82371077Y-82114824D01*
X82898309Y-82333750D01*
X83469187Y-82334248D01*
X83996800Y-82116243D01*
X84079187Y-82034000D01*
X86735394Y-82034000D01*
X86816077Y-82114824D01*
X87343309Y-82333750D01*
X87914187Y-82334248D01*
X88122002Y-82248381D01*
X88122002Y-85809196D01*
X86701233Y-87229965D01*
X86536029Y-87229821D01*
X86155485Y-87387058D01*
X85864081Y-87677954D01*
X85706180Y-88058223D01*
X85705821Y-88469971D01*
X85863058Y-88850515D01*
X86153954Y-89141919D01*
X86534223Y-89299820D01*
X86945971Y-89300179D01*
X87326515Y-89142942D01*
X87617919Y-88852046D01*
X87775820Y-88471777D01*
X87775966Y-88304836D01*
X89419403Y-86661399D01*
X89584150Y-86414837D01*
X89642002Y-86123998D01*
X89642002Y-72880002D01*
X89585306Y-72594971D01*
X89896821Y-72594971D01*
X90054058Y-72975515D01*
X90172000Y-73093663D01*
X90172000Y-91183083D01*
X90151180Y-91233223D01*
X90150821Y-91644971D01*
X90308058Y-92025515D01*
X90598954Y-92316919D01*
X90979223Y-92474820D01*
X91390971Y-92475179D01*
X91771515Y-92317942D01*
X92062919Y-92027046D01*
X92220820Y-91646777D01*
X92221179Y-91235029D01*
X92063942Y-90854485D01*
X91773046Y-90563081D01*
X91692000Y-90529428D01*
X91692000Y-88517381D01*
X91741223Y-88537820D01*
X92152971Y-88538179D01*
X92533515Y-88380942D01*
X92773663Y-88141212D01*
X93011954Y-88379919D01*
X93124532Y-88426666D01*
X92961597Y-88589601D01*
X92796850Y-88836163D01*
X92738998Y-89127002D01*
X92738998Y-91117239D01*
X92622079Y-91233954D01*
X92464178Y-91614223D01*
X92463819Y-92025971D01*
X92621056Y-92406515D01*
X92911952Y-92697919D01*
X93292221Y-92855820D01*
X93703969Y-92856179D01*
X94084513Y-92698942D01*
X94375917Y-92408046D01*
X94533818Y-92027777D01*
X94534177Y-91616029D01*
X94376940Y-91235485D01*
X94258998Y-91117337D01*
X94258998Y-89441804D01*
X94944810Y-88755992D01*
X99040821Y-88755992D01*
X99198058Y-89136536D01*
X99488954Y-89427940D01*
X99869223Y-89585841D01*
X100280971Y-89586200D01*
X100661515Y-89428963D01*
X100952919Y-89138067D01*
X101110820Y-88757798D01*
X101111179Y-88346050D01*
X100953942Y-87965506D01*
X100836000Y-87847358D01*
X100836000Y-87021834D01*
X115364543Y-87021834D01*
X115764853Y-87990658D01*
X116505443Y-88732542D01*
X117473567Y-89134542D01*
X118521834Y-89135457D01*
X119490658Y-88735147D01*
X120232542Y-87994557D01*
X120634542Y-87026433D01*
X120635457Y-85978166D01*
X120624450Y-85951526D01*
X128270909Y-85951526D01*
X128967524Y-89803312D01*
X129040367Y-89988219D01*
X129069062Y-90061062D01*
X131186666Y-93353065D01*
X131379111Y-93552337D01*
X134595317Y-95783380D01*
X134772385Y-95860366D01*
X134849371Y-95893838D01*
X138674540Y-96724263D01*
X138811837Y-96726656D01*
X138951526Y-96729091D01*
X142803312Y-96032476D01*
X142990705Y-95958654D01*
X143061062Y-95930938D01*
X146353065Y-93813334D01*
X146552337Y-93620889D01*
X148571585Y-90710000D01*
X152000000Y-90710000D01*
X152068584Y-90696358D01*
X152138514Y-90696358D01*
X153669248Y-90391876D01*
X153925189Y-90285861D01*
X155222882Y-89418771D01*
X155418770Y-89222882D01*
X156285861Y-87925189D01*
X156340268Y-87793839D01*
X156391876Y-87669248D01*
X156523737Y-87006340D01*
X156840727Y-87773515D01*
X157721847Y-88656174D01*
X158873674Y-89134454D01*
X160120854Y-89135543D01*
X161273515Y-88659273D01*
X162156174Y-87778153D01*
X162634454Y-86626326D01*
X162635543Y-85379146D01*
X162159273Y-84226485D01*
X161278153Y-83343826D01*
X160126326Y-82865546D01*
X158879146Y-82864457D01*
X157726485Y-83340727D01*
X156843826Y-84221847D01*
X156523609Y-84993017D01*
X156391876Y-84330752D01*
X156285861Y-84074811D01*
X155418770Y-82777118D01*
X155335489Y-82693837D01*
X155222882Y-82581229D01*
X153925189Y-81714139D01*
X153894835Y-81701566D01*
X153669248Y-81608124D01*
X152138514Y-81303642D01*
X152068584Y-81303642D01*
X152000000Y-81290000D01*
X148579503Y-81290000D01*
X146806549Y-78636587D01*
X146712884Y-78542922D01*
X146620889Y-78447663D01*
X143404683Y-76216621D01*
X143150629Y-76106162D01*
X139325460Y-75275737D01*
X139184553Y-75273281D01*
X139048473Y-75270909D01*
X135196688Y-75967524D01*
X135011781Y-76040367D01*
X134938938Y-76069062D01*
X131646935Y-78186666D01*
X131447663Y-78379111D01*
X129216621Y-81595317D01*
X129106162Y-81849371D01*
X128275737Y-85674540D01*
X128273324Y-85813033D01*
X128270909Y-85951526D01*
X120624450Y-85951526D01*
X120235147Y-85009342D01*
X119494557Y-84267458D01*
X118526433Y-83865458D01*
X117478166Y-83864543D01*
X116509342Y-84264853D01*
X115767458Y-85005443D01*
X115365458Y-85973567D01*
X115364543Y-87021834D01*
X100836000Y-87021834D01*
X100836000Y-76260802D01*
X103671767Y-73425035D01*
X103836971Y-73425179D01*
X104217515Y-73267942D01*
X104508919Y-72977046D01*
X104666820Y-72596777D01*
X104667179Y-72185029D01*
X104509942Y-71804485D01*
X104219046Y-71513081D01*
X103838777Y-71355180D01*
X103427029Y-71354821D01*
X103046485Y-71512058D01*
X102755081Y-71802954D01*
X102597180Y-72183223D01*
X102597034Y-72350164D01*
X99538599Y-75408599D01*
X99373852Y-75655161D01*
X99316000Y-75946000D01*
X99316000Y-87847260D01*
X99199081Y-87963975D01*
X99041180Y-88344244D01*
X99040821Y-88755992D01*
X94944810Y-88755992D01*
X95162767Y-88538035D01*
X95327971Y-88538179D01*
X95708515Y-88380942D01*
X95885053Y-88204712D01*
X96059954Y-88379919D01*
X96440223Y-88537820D01*
X96851971Y-88538179D01*
X97232515Y-88380942D01*
X97523919Y-88090046D01*
X97681820Y-87709777D01*
X97682179Y-87298029D01*
X97524942Y-86917485D01*
X97407000Y-86799337D01*
X97407000Y-77149802D01*
X101131767Y-73425035D01*
X101296971Y-73425179D01*
X101677515Y-73267942D01*
X101968919Y-72977046D01*
X102126820Y-72596777D01*
X102127179Y-72185029D01*
X101969942Y-71804485D01*
X101679046Y-71513081D01*
X101298777Y-71355180D01*
X100887029Y-71354821D01*
X100506485Y-71512058D01*
X100215081Y-71802954D01*
X100057180Y-72183223D01*
X100057034Y-72350164D01*
X96109599Y-76297599D01*
X95944852Y-76544161D01*
X95887000Y-76835000D01*
X95887000Y-86799239D01*
X95884947Y-86801288D01*
X95710046Y-86626081D01*
X95329777Y-86468180D01*
X94918029Y-86467821D01*
X94537485Y-86625058D01*
X94360947Y-86801288D01*
X94359000Y-86799337D01*
X94359000Y-77657802D01*
X98591767Y-73425035D01*
X98756971Y-73425179D01*
X99137515Y-73267942D01*
X99428919Y-72977046D01*
X99586820Y-72596777D01*
X99587179Y-72185029D01*
X99429942Y-71804485D01*
X99139046Y-71513081D01*
X98758777Y-71355180D01*
X98347029Y-71354821D01*
X97966485Y-71512058D01*
X97675081Y-71802954D01*
X97517180Y-72183223D01*
X97517034Y-72350164D01*
X93597000Y-76270198D01*
X93597000Y-75879802D01*
X96051767Y-73425035D01*
X96216971Y-73425179D01*
X96597515Y-73267942D01*
X96888919Y-72977046D01*
X97046820Y-72596777D01*
X97047179Y-72185029D01*
X96889942Y-71804485D01*
X96599046Y-71513081D01*
X96218777Y-71355180D01*
X95807029Y-71354821D01*
X95426485Y-71512058D01*
X95135081Y-71802954D01*
X94977180Y-72183223D01*
X94977034Y-72350164D01*
X92708000Y-74619198D01*
X92708000Y-74228802D01*
X93511767Y-73425035D01*
X93676971Y-73425179D01*
X94057515Y-73267942D01*
X94348919Y-72977046D01*
X94506820Y-72596777D01*
X94507179Y-72185029D01*
X94349942Y-71804485D01*
X94059046Y-71513081D01*
X93678777Y-71355180D01*
X93267029Y-71354821D01*
X92886485Y-71512058D01*
X92595081Y-71802954D01*
X92437180Y-72183223D01*
X92437034Y-72350164D01*
X91692000Y-73095198D01*
X91692000Y-73093761D01*
X91808919Y-72977046D01*
X91966820Y-72596777D01*
X91967179Y-72185029D01*
X91809942Y-71804485D01*
X91519046Y-71513081D01*
X91138777Y-71355180D01*
X90727029Y-71354821D01*
X90346485Y-71512058D01*
X90055081Y-71802954D01*
X89897180Y-72183223D01*
X89896821Y-72594971D01*
X89585306Y-72594971D01*
X89584150Y-72589163D01*
X89584150Y-72589162D01*
X89427032Y-72354018D01*
X89427179Y-72185029D01*
X89269942Y-71804485D01*
X88979046Y-71513081D01*
X88598777Y-71355180D01*
X88187029Y-71354821D01*
X87806485Y-71512058D01*
X87515081Y-71802954D01*
X87357180Y-72183223D01*
X87356821Y-72594971D01*
X87514058Y-72975515D01*
X87804954Y-73266919D01*
X88122002Y-73398568D01*
X88122002Y-73843628D01*
X88078148Y-73623161D01*
X88078148Y-73623160D01*
X87913401Y-73376599D01*
X86887035Y-72350233D01*
X86887179Y-72185029D01*
X86729942Y-71804485D01*
X86439046Y-71513081D01*
X86058777Y-71355180D01*
X85647029Y-71354821D01*
X85266485Y-71512058D01*
X84975081Y-71802954D01*
X84817180Y-72183223D01*
X84816821Y-72594971D01*
X84974058Y-72975515D01*
X85264954Y-73266919D01*
X85645223Y-73424820D01*
X85812164Y-73424966D01*
X86028130Y-73640932D01*
X85901029Y-73640821D01*
X85520485Y-73798058D01*
X85402337Y-73916000D01*
X78935761Y-73916000D01*
X78819046Y-73799081D01*
X78438777Y-73641180D01*
X78027029Y-73640821D01*
X77646485Y-73798058D01*
X77355081Y-74088954D01*
X77197180Y-74469223D01*
X77196821Y-74880971D01*
X73710000Y-74880971D01*
X73710000Y-66417914D01*
X113364197Y-66417914D01*
X114068347Y-68122087D01*
X115371055Y-69427071D01*
X117073997Y-70134194D01*
X118917914Y-70135803D01*
X120622087Y-69431653D01*
X121927071Y-68128945D01*
X122634194Y-66426003D01*
X122635803Y-64582086D01*
X121931653Y-62877913D01*
X120628945Y-61572929D01*
X118926003Y-60865806D01*
X117082086Y-60864197D01*
X115377913Y-61568347D01*
X114072929Y-62871055D01*
X113365806Y-64573997D01*
X113364197Y-66417914D01*
X73710000Y-66417914D01*
X73710000Y-63422815D01*
X74364630Y-63422815D01*
X74688980Y-64207800D01*
X75289041Y-64808909D01*
X76073459Y-65134628D01*
X76922815Y-65135370D01*
X77707800Y-64811020D01*
X78308909Y-64210959D01*
X78634628Y-63426541D01*
X78635370Y-62577185D01*
X78311020Y-61792200D01*
X77710959Y-61191091D01*
X76926541Y-60865372D01*
X76077185Y-60864630D01*
X75292200Y-61188980D01*
X74691091Y-61789041D01*
X74365372Y-62573459D01*
X74364630Y-63422815D01*
X73710000Y-63422815D01*
X73710000Y-60710000D01*
X164290000Y-60710000D01*
X164290000Y-105600225D01*
X164290000Y-105600225D01*
G37*
X164290000Y-105600225D02*
X163681653Y-104127913D01*
X162378945Y-102822929D01*
X160676003Y-102115806D01*
X158832086Y-102114197D01*
X157127913Y-102818347D01*
X155822929Y-104121055D01*
X155115806Y-105823997D01*
X155114197Y-107667914D01*
X155818347Y-109372087D01*
X157121055Y-110677071D01*
X158823997Y-111384194D01*
X160667914Y-111385803D01*
X162372087Y-110681653D01*
X163677071Y-109378945D01*
X164290000Y-107902847D01*
X164290000Y-121290000D01*
X100073135Y-121290000D01*
X100094820Y-121237777D01*
X100095179Y-120826029D01*
X99937942Y-120445485D01*
X99647046Y-120154081D01*
X99266777Y-119996180D01*
X99099836Y-119996034D01*
X98454401Y-119350599D01*
X98207839Y-119185852D01*
X97917000Y-119128000D01*
X95318761Y-119128000D01*
X95202046Y-119011081D01*
X95015509Y-118933624D01*
X95292984Y-118656148D01*
X95407187Y-118656248D01*
X95934800Y-118438243D01*
X96338824Y-118034923D01*
X96557750Y-117507691D01*
X96558248Y-116936813D01*
X96340243Y-116409200D01*
X96214234Y-116282971D01*
X102850821Y-116282971D01*
X103008058Y-116663515D01*
X103298954Y-116954919D01*
X103679223Y-117112820D01*
X103846164Y-117112966D01*
X104628965Y-117895767D01*
X104628821Y-118060971D01*
X104786058Y-118441515D01*
X105076954Y-118732919D01*
X105457223Y-118890820D01*
X105868971Y-118891179D01*
X106249515Y-118733942D01*
X106540919Y-118443046D01*
X106698820Y-118062777D01*
X106699179Y-117651029D01*
X106541942Y-117270485D01*
X106251046Y-116979081D01*
X105870777Y-116821180D01*
X105703836Y-116821034D01*
X104921035Y-116038233D01*
X104921179Y-115873029D01*
X104763942Y-115492485D01*
X104473046Y-115201081D01*
X104092777Y-115043180D01*
X103681029Y-115042821D01*
X103300485Y-115200058D01*
X103009081Y-115490954D01*
X102851180Y-115871223D01*
X102850821Y-116282971D01*
X96214234Y-116282971D01*
X95936923Y-116005176D01*
X95409691Y-115786250D01*
X94838813Y-115785752D01*
X94311200Y-116003757D01*
X93907176Y-116407077D01*
X93688250Y-116934309D01*
X93688148Y-117050719D01*
X93508446Y-117230422D01*
X93634628Y-116926541D01*
X93635370Y-116077185D01*
X93311020Y-115292200D01*
X92710959Y-114691091D01*
X91926541Y-114365372D01*
X91077185Y-114364630D01*
X90292200Y-114688980D01*
X89691091Y-115289041D01*
X89365372Y-116073459D01*
X89364630Y-116922815D01*
X89688980Y-117707800D01*
X90289041Y-118308909D01*
X91073459Y-118634628D01*
X91922815Y-118635370D01*
X92230723Y-118508145D01*
X91985868Y-118753000D01*
X75146132Y-118753000D01*
X74668000Y-118274868D01*
X74668000Y-117053911D01*
X74797932Y-117368371D01*
X75229357Y-117800551D01*
X75793330Y-118034733D01*
X76403991Y-118035265D01*
X76968371Y-117802068D01*
X77370323Y-117400818D01*
X77769357Y-117800551D01*
X78333330Y-118034733D01*
X78943991Y-118035265D01*
X79508371Y-117802068D01*
X79940551Y-117370643D01*
X80174733Y-116806670D01*
X80175265Y-116196009D01*
X79942068Y-115631629D01*
X79510643Y-115199449D01*
X78946670Y-114965267D01*
X78336009Y-114964735D01*
X77771629Y-115197932D01*
X77369677Y-115599182D01*
X77000818Y-115229677D01*
X77308217Y-114922815D01*
X82364630Y-114922815D01*
X82688980Y-115707800D01*
X83289041Y-116308909D01*
X84073459Y-116634628D01*
X84922815Y-116635370D01*
X85707800Y-116311020D01*
X86308909Y-115710959D01*
X86634628Y-114926541D01*
X86635370Y-114077185D01*
X86311020Y-113292200D01*
X85710959Y-112691091D01*
X84926541Y-112365372D01*
X84077185Y-112364630D01*
X83292200Y-112688980D01*
X82691091Y-113289041D01*
X82365372Y-114073459D01*
X82364630Y-114922815D01*
X77308217Y-114922815D01*
X77400551Y-114830643D01*
X77634733Y-114266670D01*
X77635265Y-113656009D01*
X77402068Y-113091629D01*
X77000818Y-112689677D01*
X77400551Y-112290643D01*
X77634733Y-111726670D01*
X77635265Y-111116009D01*
X77402068Y-110551629D01*
X76970643Y-110119449D01*
X76406670Y-109885267D01*
X75796009Y-109884735D01*
X75231629Y-110117932D01*
X74799449Y-110549357D01*
X74565267Y-111113330D01*
X74564735Y-111723991D01*
X74797932Y-112288371D01*
X75199182Y-112690323D01*
X75064269Y-112825000D01*
X74827208Y-112825000D01*
X74392863Y-112911396D01*
X74024642Y-113157433D01*
X72730434Y-114451642D01*
X72484397Y-114819862D01*
X72398000Y-115254208D01*
X72398000Y-118745000D01*
X72484397Y-119179346D01*
X72565653Y-119300954D01*
X72730434Y-119547566D01*
X73873434Y-120690566D01*
X74241654Y-120936603D01*
X74676000Y-121023000D01*
X92456000Y-121023000D01*
X92890346Y-120936603D01*
X93258566Y-120690566D01*
X93660618Y-120288515D01*
X93737058Y-120473515D01*
X94027954Y-120764919D01*
X94408223Y-120922820D01*
X94819971Y-120923179D01*
X95200515Y-120765942D01*
X95318663Y-120648000D01*
X97602198Y-120648000D01*
X98024965Y-121070767D01*
X98024821Y-121235971D01*
X98047145Y-121290000D01*
X65710000Y-121290000D01*
X65710000Y-106710000D01*
X70000000Y-106710000D01*
X70271705Y-106655954D01*
X70502046Y-106502046D01*
X73502046Y-103502046D01*
X73655954Y-103271705D01*
X73710000Y-103000000D01*
X73710000Y-96000000D01*
X73655954Y-95728295D01*
X73502046Y-95497954D01*
X70502046Y-92497954D01*
X70271705Y-92344046D01*
X70000000Y-92290000D01*
X65710000Y-92290000D01*
X65710000Y-90172815D01*
X73114630Y-90172815D01*
X73438980Y-90957800D01*
X74039041Y-91558909D01*
X74823459Y-91884628D01*
X75672815Y-91885370D01*
X76457800Y-91561020D01*
X77058909Y-90960959D01*
X77384628Y-90176541D01*
X77385370Y-89327185D01*
X77061020Y-88542200D01*
X76460959Y-87941091D01*
X75676541Y-87615372D01*
X74827185Y-87614630D01*
X74042200Y-87938980D01*
X73441091Y-88539041D01*
X73115372Y-89323459D01*
X73114630Y-90172815D01*
X65710000Y-90172815D01*
X65710000Y-85172815D01*
X73114630Y-85172815D01*
X73438980Y-85957800D01*
X74039041Y-86558909D01*
X74823459Y-86884628D01*
X75672815Y-86885370D01*
X76457800Y-86561020D01*
X77058909Y-85960959D01*
X77384628Y-85176541D01*
X77384788Y-84993187D01*
X79209752Y-84993187D01*
X79427757Y-85520800D01*
X79831077Y-85924824D01*
X80358309Y-86143750D01*
X80474720Y-86143852D01*
X80653000Y-86322132D01*
X80653000Y-100959394D01*
X80572176Y-101040077D01*
X80353250Y-101567309D01*
X80352752Y-102138187D01*
X80570757Y-102665800D01*
X80974077Y-103069824D01*
X81501309Y-103288750D01*
X82072187Y-103289248D01*
X82599800Y-103071243D01*
X83003824Y-102667923D01*
X83222750Y-102140691D01*
X83223248Y-101569813D01*
X83005243Y-101042200D01*
X82923000Y-100959813D01*
X82923000Y-96922815D01*
X83364630Y-96922815D01*
X83688980Y-97707800D01*
X84289041Y-98308909D01*
X85073459Y-98634628D01*
X85922815Y-98635370D01*
X86707800Y-98311020D01*
X87308909Y-97710959D01*
X87612857Y-96978971D01*
X94087821Y-96978971D01*
X94245058Y-97359515D01*
X94535954Y-97650919D01*
X94916223Y-97808820D01*
X95327971Y-97809179D01*
X95708515Y-97651942D01*
X95826663Y-97534000D01*
X95947344Y-97534000D01*
X95770081Y-97710954D01*
X95612180Y-98091223D01*
X95611821Y-98502971D01*
X95769058Y-98883515D01*
X95887000Y-99001663D01*
X95887000Y-106357239D01*
X95770081Y-106473954D01*
X95612180Y-106854223D01*
X95611821Y-107265971D01*
X95769058Y-107646515D01*
X96059954Y-107937919D01*
X96440223Y-108095820D01*
X96851971Y-108096179D01*
X97232515Y-107938942D01*
X97281831Y-107889712D01*
X97329954Y-107937919D01*
X97710223Y-108095820D01*
X98121971Y-108096179D01*
X98502515Y-107938942D01*
X98551831Y-107889712D01*
X98599954Y-107937919D01*
X98980223Y-108095820D01*
X99391971Y-108096179D01*
X99772515Y-107938942D01*
X100063919Y-107648046D01*
X100221820Y-107267777D01*
X100222179Y-106856029D01*
X100064942Y-106475485D01*
X99947000Y-106357337D01*
X99947000Y-98756971D01*
X102088821Y-98756971D01*
X102246058Y-99137515D01*
X102364000Y-99255663D01*
X102364000Y-109474000D01*
X102421852Y-109764839D01*
X102586599Y-110011401D01*
X110079599Y-117504401D01*
X110326160Y-117669148D01*
X110617000Y-117727000D01*
X116517239Y-117727000D01*
X116633954Y-117843919D01*
X117014223Y-118001820D01*
X117425971Y-118002179D01*
X117806515Y-117844942D01*
X118097919Y-117554046D01*
X118255820Y-117173777D01*
X118256038Y-116922815D01*
X128864630Y-116922815D01*
X129188980Y-117707800D01*
X129789041Y-118308909D01*
X130573459Y-118634628D01*
X131422815Y-118635370D01*
X132207800Y-118311020D01*
X132808909Y-117710959D01*
X133134628Y-116926541D01*
X133135370Y-116077185D01*
X132811020Y-115292200D01*
X132210959Y-114691091D01*
X131426541Y-114365372D01*
X130577185Y-114364630D01*
X129792200Y-114688980D01*
X129191091Y-115289041D01*
X128865372Y-116073459D01*
X128864630Y-116922815D01*
X118256038Y-116922815D01*
X118256179Y-116762029D01*
X118098942Y-116381485D01*
X117808046Y-116090081D01*
X117427777Y-115932180D01*
X117016029Y-115931821D01*
X116635485Y-116089058D01*
X116517337Y-116207000D01*
X116122278Y-116207000D01*
X116254800Y-116152243D01*
X116658824Y-115748923D01*
X116877750Y-115221691D01*
X116878248Y-114650813D01*
X116660243Y-114123200D01*
X116578000Y-114040813D01*
X116578000Y-102197132D01*
X116873919Y-101901213D01*
X116821180Y-102028223D01*
X116820821Y-102439971D01*
X116978058Y-102820515D01*
X117268954Y-103111919D01*
X117649223Y-103269820D01*
X117816164Y-103269966D01*
X125827599Y-111281401D01*
X126074160Y-111446148D01*
X126365000Y-111504000D01*
X129286000Y-111504000D01*
X129576839Y-111446148D01*
X129823401Y-111281401D01*
X132843080Y-108261722D01*
X133674913Y-108801921D01*
X133909548Y-108895531D01*
X134162145Y-108892224D01*
X134394248Y-108792504D01*
X134570523Y-108611553D01*
X135115162Y-107772882D01*
X135208772Y-107538248D01*
X135206375Y-107355172D01*
X135374599Y-107282897D01*
X135550874Y-107101946D01*
X135845650Y-106648031D01*
X135860467Y-106648031D01*
X135965077Y-106752824D01*
X136492309Y-106971750D01*
X137063187Y-106972248D01*
X137590800Y-106754243D01*
X137994824Y-106350923D01*
X138213750Y-105823691D01*
X138214248Y-105252813D01*
X137996243Y-104725200D01*
X137592923Y-104321176D01*
X137065691Y-104102250D01*
X136494813Y-104101752D01*
X135967200Y-104319757D01*
X135908824Y-104378031D01*
X134381243Y-104378031D01*
X133389134Y-103733748D01*
X133154499Y-103640138D01*
X133134443Y-103640401D01*
X133135803Y-102082086D01*
X132656802Y-100922815D01*
X139864630Y-100922815D01*
X140188980Y-101707800D01*
X140789041Y-102308909D01*
X141573459Y-102634628D01*
X142422815Y-102635370D01*
X143207800Y-102311020D01*
X143808909Y-101710959D01*
X144134628Y-100926541D01*
X144135370Y-100077185D01*
X143811020Y-99292200D01*
X143210959Y-98691091D01*
X142426541Y-98365372D01*
X141577185Y-98364630D01*
X140792200Y-98688980D01*
X140191091Y-99289041D01*
X139865372Y-100073459D01*
X139864630Y-100922815D01*
X132656802Y-100922815D01*
X132431653Y-100377913D01*
X131128945Y-99072929D01*
X129426003Y-98365806D01*
X127582086Y-98364197D01*
X126022239Y-99008713D01*
X126022049Y-99008271D01*
X125841098Y-98831996D01*
X125093152Y-98346274D01*
X125093152Y-97281465D01*
X125167824Y-97206923D01*
X125386750Y-96679691D01*
X125387248Y-96108813D01*
X125169243Y-95581200D01*
X124765923Y-95177176D01*
X124238691Y-94958250D01*
X123667813Y-94957752D01*
X123140200Y-95175757D01*
X123057813Y-95258000D01*
X120777000Y-95258000D01*
X120342654Y-95344397D01*
X120133067Y-95484439D01*
X119974434Y-95590434D01*
X114640434Y-100924434D01*
X114394397Y-101292654D01*
X114308000Y-101727000D01*
X114308000Y-114040394D01*
X114227176Y-114121077D01*
X114008250Y-114648309D01*
X114007752Y-115219187D01*
X114225757Y-115746800D01*
X114629077Y-116150824D01*
X114764364Y-116207000D01*
X110931802Y-116207000D01*
X103884000Y-109159198D01*
X103884000Y-99255761D01*
X104000919Y-99139046D01*
X104158820Y-98758777D01*
X104159179Y-98347029D01*
X104001942Y-97966485D01*
X103711046Y-97675081D01*
X103330777Y-97517180D01*
X102919029Y-97516821D01*
X102538485Y-97674058D01*
X102247081Y-97964954D01*
X102089180Y-98345223D01*
X102088821Y-98756971D01*
X99947000Y-98756971D01*
X99947000Y-97536000D01*
X99889148Y-97245161D01*
X99724401Y-96998599D01*
X98962401Y-96236599D01*
X98715839Y-96071852D01*
X98425000Y-96014000D01*
X95826761Y-96014000D01*
X95710046Y-95897081D01*
X95329777Y-95739180D01*
X94918029Y-95738821D01*
X94537485Y-95896058D01*
X94246081Y-96186954D01*
X94088180Y-96567223D01*
X94087821Y-96978971D01*
X87612857Y-96978971D01*
X87634628Y-96926541D01*
X87635370Y-96077185D01*
X87311020Y-95292200D01*
X86710959Y-94691091D01*
X85926541Y-94365372D01*
X85077185Y-94364630D01*
X84292200Y-94688980D01*
X83691091Y-95289041D01*
X83365372Y-96073459D01*
X83364630Y-96922815D01*
X82923000Y-96922815D01*
X82923000Y-85852000D01*
X82836603Y-85417654D01*
X82590566Y-85049434D01*
X82080148Y-84539016D01*
X82080248Y-84424813D01*
X81862243Y-83897200D01*
X81458923Y-83493176D01*
X80931691Y-83274250D01*
X80360813Y-83273752D01*
X79833200Y-83491757D01*
X79429176Y-83895077D01*
X79210250Y-84422309D01*
X79209752Y-84993187D01*
X77384788Y-84993187D01*
X77385370Y-84327185D01*
X77061020Y-83542200D01*
X76460959Y-82941091D01*
X75676541Y-82615372D01*
X74827185Y-82614630D01*
X74042200Y-82938980D01*
X73441091Y-83539041D01*
X73115372Y-84323459D01*
X73114630Y-85172815D01*
X65710000Y-85172815D01*
X65710000Y-82210000D01*
X70000000Y-82210000D01*
X70271705Y-82155954D01*
X70502046Y-82002046D01*
X73502046Y-79002046D01*
X73655954Y-78771705D01*
X73710000Y-78500000D01*
X73710000Y-74880971D01*
X77196821Y-74880971D01*
X77354058Y-75261515D01*
X77644954Y-75552919D01*
X78025223Y-75710820D01*
X78436971Y-75711179D01*
X78817515Y-75553942D01*
X78935663Y-75436000D01*
X85402239Y-75436000D01*
X85518954Y-75552919D01*
X85899223Y-75710820D01*
X86310971Y-75711179D01*
X86616000Y-75585144D01*
X86616000Y-78044198D01*
X86574233Y-78085965D01*
X86409029Y-78085821D01*
X86028485Y-78243058D01*
X85737081Y-78533954D01*
X85579180Y-78914223D01*
X85578821Y-79325971D01*
X85736058Y-79706515D01*
X85793443Y-79764000D01*
X84079606Y-79764000D01*
X83998923Y-79683176D01*
X83471691Y-79464250D01*
X82900813Y-79463752D01*
X82373200Y-79681757D01*
X81969176Y-80085077D01*
X81750250Y-80612309D01*
X81749752Y-81183187D01*
X81967757Y-81710800D01*
X82371077Y-82114824D01*
X82898309Y-82333750D01*
X83469187Y-82334248D01*
X83996800Y-82116243D01*
X84079187Y-82034000D01*
X86735394Y-82034000D01*
X86816077Y-82114824D01*
X87343309Y-82333750D01*
X87914187Y-82334248D01*
X88122002Y-82248381D01*
X88122002Y-85809196D01*
X86701233Y-87229965D01*
X86536029Y-87229821D01*
X86155485Y-87387058D01*
X85864081Y-87677954D01*
X85706180Y-88058223D01*
X85705821Y-88469971D01*
X85863058Y-88850515D01*
X86153954Y-89141919D01*
X86534223Y-89299820D01*
X86945971Y-89300179D01*
X87326515Y-89142942D01*
X87617919Y-88852046D01*
X87775820Y-88471777D01*
X87775966Y-88304836D01*
X89419403Y-86661399D01*
X89584150Y-86414837D01*
X89642002Y-86123998D01*
X89642002Y-72880002D01*
X89585306Y-72594971D01*
X89896821Y-72594971D01*
X90054058Y-72975515D01*
X90172000Y-73093663D01*
X90172000Y-91183083D01*
X90151180Y-91233223D01*
X90150821Y-91644971D01*
X90308058Y-92025515D01*
X90598954Y-92316919D01*
X90979223Y-92474820D01*
X91390971Y-92475179D01*
X91771515Y-92317942D01*
X92062919Y-92027046D01*
X92220820Y-91646777D01*
X92221179Y-91235029D01*
X92063942Y-90854485D01*
X91773046Y-90563081D01*
X91692000Y-90529428D01*
X91692000Y-88517381D01*
X91741223Y-88537820D01*
X92152971Y-88538179D01*
X92533515Y-88380942D01*
X92773663Y-88141212D01*
X93011954Y-88379919D01*
X93124532Y-88426666D01*
X92961597Y-88589601D01*
X92796850Y-88836163D01*
X92738998Y-89127002D01*
X92738998Y-91117239D01*
X92622079Y-91233954D01*
X92464178Y-91614223D01*
X92463819Y-92025971D01*
X92621056Y-92406515D01*
X92911952Y-92697919D01*
X93292221Y-92855820D01*
X93703969Y-92856179D01*
X94084513Y-92698942D01*
X94375917Y-92408046D01*
X94533818Y-92027777D01*
X94534177Y-91616029D01*
X94376940Y-91235485D01*
X94258998Y-91117337D01*
X94258998Y-89441804D01*
X94944810Y-88755992D01*
X99040821Y-88755992D01*
X99198058Y-89136536D01*
X99488954Y-89427940D01*
X99869223Y-89585841D01*
X100280971Y-89586200D01*
X100661515Y-89428963D01*
X100952919Y-89138067D01*
X101110820Y-88757798D01*
X101111179Y-88346050D01*
X100953942Y-87965506D01*
X100836000Y-87847358D01*
X100836000Y-87021834D01*
X115364543Y-87021834D01*
X115764853Y-87990658D01*
X116505443Y-88732542D01*
X117473567Y-89134542D01*
X118521834Y-89135457D01*
X119490658Y-88735147D01*
X120232542Y-87994557D01*
X120634542Y-87026433D01*
X120635457Y-85978166D01*
X120624450Y-85951526D01*
X128270909Y-85951526D01*
X128967524Y-89803312D01*
X129040367Y-89988219D01*
X129069062Y-90061062D01*
X131186666Y-93353065D01*
X131379111Y-93552337D01*
X134595317Y-95783380D01*
X134772385Y-95860366D01*
X134849371Y-95893838D01*
X138674540Y-96724263D01*
X138811837Y-96726656D01*
X138951526Y-96729091D01*
X142803312Y-96032476D01*
X142990705Y-95958654D01*
X143061062Y-95930938D01*
X146353065Y-93813334D01*
X146552337Y-93620889D01*
X148571585Y-90710000D01*
X152000000Y-90710000D01*
X152068584Y-90696358D01*
X152138514Y-90696358D01*
X153669248Y-90391876D01*
X153925189Y-90285861D01*
X155222882Y-89418771D01*
X155418770Y-89222882D01*
X156285861Y-87925189D01*
X156340268Y-87793839D01*
X156391876Y-87669248D01*
X156523737Y-87006340D01*
X156840727Y-87773515D01*
X157721847Y-88656174D01*
X158873674Y-89134454D01*
X160120854Y-89135543D01*
X161273515Y-88659273D01*
X162156174Y-87778153D01*
X162634454Y-86626326D01*
X162635543Y-85379146D01*
X162159273Y-84226485D01*
X161278153Y-83343826D01*
X160126326Y-82865546D01*
X158879146Y-82864457D01*
X157726485Y-83340727D01*
X156843826Y-84221847D01*
X156523609Y-84993017D01*
X156391876Y-84330752D01*
X156285861Y-84074811D01*
X155418770Y-82777118D01*
X155335489Y-82693837D01*
X155222882Y-82581229D01*
X153925189Y-81714139D01*
X153894835Y-81701566D01*
X153669248Y-81608124D01*
X152138514Y-81303642D01*
X152068584Y-81303642D01*
X152000000Y-81290000D01*
X148579503Y-81290000D01*
X146806549Y-78636587D01*
X146712884Y-78542922D01*
X146620889Y-78447663D01*
X143404683Y-76216621D01*
X143150629Y-76106162D01*
X139325460Y-75275737D01*
X139184553Y-75273281D01*
X139048473Y-75270909D01*
X135196688Y-75967524D01*
X135011781Y-76040367D01*
X134938938Y-76069062D01*
X131646935Y-78186666D01*
X131447663Y-78379111D01*
X129216621Y-81595317D01*
X129106162Y-81849371D01*
X128275737Y-85674540D01*
X128273324Y-85813033D01*
X128270909Y-85951526D01*
X120624450Y-85951526D01*
X120235147Y-85009342D01*
X119494557Y-84267458D01*
X118526433Y-83865458D01*
X117478166Y-83864543D01*
X116509342Y-84264853D01*
X115767458Y-85005443D01*
X115365458Y-85973567D01*
X115364543Y-87021834D01*
X100836000Y-87021834D01*
X100836000Y-76260802D01*
X103671767Y-73425035D01*
X103836971Y-73425179D01*
X104217515Y-73267942D01*
X104508919Y-72977046D01*
X104666820Y-72596777D01*
X104667179Y-72185029D01*
X104509942Y-71804485D01*
X104219046Y-71513081D01*
X103838777Y-71355180D01*
X103427029Y-71354821D01*
X103046485Y-71512058D01*
X102755081Y-71802954D01*
X102597180Y-72183223D01*
X102597034Y-72350164D01*
X99538599Y-75408599D01*
X99373852Y-75655161D01*
X99316000Y-75946000D01*
X99316000Y-87847260D01*
X99199081Y-87963975D01*
X99041180Y-88344244D01*
X99040821Y-88755992D01*
X94944810Y-88755992D01*
X95162767Y-88538035D01*
X95327971Y-88538179D01*
X95708515Y-88380942D01*
X95885053Y-88204712D01*
X96059954Y-88379919D01*
X96440223Y-88537820D01*
X96851971Y-88538179D01*
X97232515Y-88380942D01*
X97523919Y-88090046D01*
X97681820Y-87709777D01*
X97682179Y-87298029D01*
X97524942Y-86917485D01*
X97407000Y-86799337D01*
X97407000Y-77149802D01*
X101131767Y-73425035D01*
X101296971Y-73425179D01*
X101677515Y-73267942D01*
X101968919Y-72977046D01*
X102126820Y-72596777D01*
X102127179Y-72185029D01*
X101969942Y-71804485D01*
X101679046Y-71513081D01*
X101298777Y-71355180D01*
X100887029Y-71354821D01*
X100506485Y-71512058D01*
X100215081Y-71802954D01*
X100057180Y-72183223D01*
X100057034Y-72350164D01*
X96109599Y-76297599D01*
X95944852Y-76544161D01*
X95887000Y-76835000D01*
X95887000Y-86799239D01*
X95884947Y-86801288D01*
X95710046Y-86626081D01*
X95329777Y-86468180D01*
X94918029Y-86467821D01*
X94537485Y-86625058D01*
X94360947Y-86801288D01*
X94359000Y-86799337D01*
X94359000Y-77657802D01*
X98591767Y-73425035D01*
X98756971Y-73425179D01*
X99137515Y-73267942D01*
X99428919Y-72977046D01*
X99586820Y-72596777D01*
X99587179Y-72185029D01*
X99429942Y-71804485D01*
X99139046Y-71513081D01*
X98758777Y-71355180D01*
X98347029Y-71354821D01*
X97966485Y-71512058D01*
X97675081Y-71802954D01*
X97517180Y-72183223D01*
X97517034Y-72350164D01*
X93597000Y-76270198D01*
X93597000Y-75879802D01*
X96051767Y-73425035D01*
X96216971Y-73425179D01*
X96597515Y-73267942D01*
X96888919Y-72977046D01*
X97046820Y-72596777D01*
X97047179Y-72185029D01*
X96889942Y-71804485D01*
X96599046Y-71513081D01*
X96218777Y-71355180D01*
X95807029Y-71354821D01*
X95426485Y-71512058D01*
X95135081Y-71802954D01*
X94977180Y-72183223D01*
X94977034Y-72350164D01*
X92708000Y-74619198D01*
X92708000Y-74228802D01*
X93511767Y-73425035D01*
X93676971Y-73425179D01*
X94057515Y-73267942D01*
X94348919Y-72977046D01*
X94506820Y-72596777D01*
X94507179Y-72185029D01*
X94349942Y-71804485D01*
X94059046Y-71513081D01*
X93678777Y-71355180D01*
X93267029Y-71354821D01*
X92886485Y-71512058D01*
X92595081Y-71802954D01*
X92437180Y-72183223D01*
X92437034Y-72350164D01*
X91692000Y-73095198D01*
X91692000Y-73093761D01*
X91808919Y-72977046D01*
X91966820Y-72596777D01*
X91967179Y-72185029D01*
X91809942Y-71804485D01*
X91519046Y-71513081D01*
X91138777Y-71355180D01*
X90727029Y-71354821D01*
X90346485Y-71512058D01*
X90055081Y-71802954D01*
X89897180Y-72183223D01*
X89896821Y-72594971D01*
X89585306Y-72594971D01*
X89584150Y-72589163D01*
X89584150Y-72589162D01*
X89427032Y-72354018D01*
X89427179Y-72185029D01*
X89269942Y-71804485D01*
X88979046Y-71513081D01*
X88598777Y-71355180D01*
X88187029Y-71354821D01*
X87806485Y-71512058D01*
X87515081Y-71802954D01*
X87357180Y-72183223D01*
X87356821Y-72594971D01*
X87514058Y-72975515D01*
X87804954Y-73266919D01*
X88122002Y-73398568D01*
X88122002Y-73843628D01*
X88078148Y-73623161D01*
X88078148Y-73623160D01*
X87913401Y-73376599D01*
X86887035Y-72350233D01*
X86887179Y-72185029D01*
X86729942Y-71804485D01*
X86439046Y-71513081D01*
X86058777Y-71355180D01*
X85647029Y-71354821D01*
X85266485Y-71512058D01*
X84975081Y-71802954D01*
X84817180Y-72183223D01*
X84816821Y-72594971D01*
X84974058Y-72975515D01*
X85264954Y-73266919D01*
X85645223Y-73424820D01*
X85812164Y-73424966D01*
X86028130Y-73640932D01*
X85901029Y-73640821D01*
X85520485Y-73798058D01*
X85402337Y-73916000D01*
X78935761Y-73916000D01*
X78819046Y-73799081D01*
X78438777Y-73641180D01*
X78027029Y-73640821D01*
X77646485Y-73798058D01*
X77355081Y-74088954D01*
X77197180Y-74469223D01*
X77196821Y-74880971D01*
X73710000Y-74880971D01*
X73710000Y-66417914D01*
X113364197Y-66417914D01*
X114068347Y-68122087D01*
X115371055Y-69427071D01*
X117073997Y-70134194D01*
X118917914Y-70135803D01*
X120622087Y-69431653D01*
X121927071Y-68128945D01*
X122634194Y-66426003D01*
X122635803Y-64582086D01*
X121931653Y-62877913D01*
X120628945Y-61572929D01*
X118926003Y-60865806D01*
X117082086Y-60864197D01*
X115377913Y-61568347D01*
X114072929Y-62871055D01*
X113365806Y-64573997D01*
X113364197Y-66417914D01*
X73710000Y-66417914D01*
X73710000Y-63422815D01*
X74364630Y-63422815D01*
X74688980Y-64207800D01*
X75289041Y-64808909D01*
X76073459Y-65134628D01*
X76922815Y-65135370D01*
X77707800Y-64811020D01*
X78308909Y-64210959D01*
X78634628Y-63426541D01*
X78635370Y-62577185D01*
X78311020Y-61792200D01*
X77710959Y-61191091D01*
X76926541Y-60865372D01*
X76077185Y-60864630D01*
X75292200Y-61188980D01*
X74691091Y-61789041D01*
X74365372Y-62573459D01*
X74364630Y-63422815D01*
X73710000Y-63422815D01*
X73710000Y-60710000D01*
X164290000Y-60710000D01*
X164290000Y-105600225D01*
G36*
X121884838Y-98227118D02*
X121791228Y-98461752D01*
X121794535Y-98714349D01*
X121894255Y-98946453D01*
X122075206Y-99122728D01*
X124450708Y-100665397D01*
X123865806Y-102073997D01*
X123864197Y-103917914D01*
X124568347Y-105622087D01*
X125871055Y-106927071D01*
X127573997Y-107634194D01*
X129417914Y-107635803D01*
X130977761Y-106991287D01*
X130977951Y-106991729D01*
X131158902Y-107168004D01*
X131539822Y-107415376D01*
X128971198Y-109984000D01*
X126679802Y-109984000D01*
X118891035Y-102195233D01*
X118891179Y-102030029D01*
X118733942Y-101649485D01*
X118443046Y-101358081D01*
X118062777Y-101200180D01*
X117651029Y-101199821D01*
X117521996Y-101253136D01*
X121247132Y-97528000D01*
X122338850Y-97528000D01*
X121884838Y-98227118D01*
X121884838Y-98227118D01*
G37*
X121884838Y-98227118D02*
X121791228Y-98461752D01*
X121794535Y-98714349D01*
X121894255Y-98946453D01*
X122075206Y-99122728D01*
X124450708Y-100665397D01*
X123865806Y-102073997D01*
X123864197Y-103917914D01*
X124568347Y-105622087D01*
X125871055Y-106927071D01*
X127573997Y-107634194D01*
X129417914Y-107635803D01*
X130977761Y-106991287D01*
X130977951Y-106991729D01*
X131158902Y-107168004D01*
X131539822Y-107415376D01*
X128971198Y-109984000D01*
X126679802Y-109984000D01*
X118891035Y-102195233D01*
X118891179Y-102030029D01*
X118733942Y-101649485D01*
X118443046Y-101358081D01*
X118062777Y-101200180D01*
X117651029Y-101199821D01*
X117521996Y-101253136D01*
X121247132Y-97528000D01*
X122338850Y-97528000D01*
X121884838Y-98227118D01*
M02*
