G04 #@! TF.GenerationSoftware,KiCad,Pcbnew,(2017-01-15 revision 8ac4790)-makepkg*
G04 #@! TF.CreationDate,2017-09-14T17:44:39+02:00*
G04 #@! TF.ProjectId,Fallblatt-Controller,46616C6C626C6174742D436F6E74726F,1.0*
G04 #@! TF.FileFunction,Profile,NP*
%FSLAX46Y46*%
G04 Gerber Fmt 4.6, Leading zero omitted, Abs format (unit mm)*
G04 Created by KiCad (PCBNEW (2017-01-15 revision 8ac4790)-makepkg) date 09/14/17 17:44:39*
%MOMM*%
%LPD*%
G01*
G04 APERTURE LIST*
%ADD10C,0.100000*%
%ADD11C,0.150000*%
G04 APERTURE END LIST*
D10*
D11*
X73000000Y-103000000D02*
X73000000Y-103000000D01*
X73000000Y-96000000D02*
X73000000Y-103000000D01*
X73000000Y-78500000D02*
X73000000Y-78500000D01*
X70000000Y-81500000D02*
X73000000Y-78500000D01*
X65000000Y-81500000D02*
X70000000Y-81500000D01*
X65000000Y-93000000D02*
X65000000Y-81500000D01*
X70000000Y-93000000D02*
X70000000Y-93000000D01*
X65000000Y-93000000D02*
X70000000Y-93000000D01*
X73000000Y-96000000D02*
X73000000Y-96000000D01*
X70000000Y-93000000D02*
X73000000Y-96000000D01*
X148200000Y-90000000D02*
G75*
G02X148200000Y-82000000I-9200000J4000000D01*
G01*
X148200000Y-90000000D02*
X148200000Y-90000000D01*
X152000000Y-90000000D02*
X148200000Y-90000000D01*
X148200000Y-82000000D02*
X148200000Y-82000000D01*
X152000000Y-82000000D02*
X148200000Y-82000000D01*
X152000000Y-82000000D02*
G75*
G02X152000000Y-90000000I0J-4000000D01*
G01*
X73000000Y-103000000D02*
X73000000Y-103000000D01*
X70000000Y-106000000D02*
X73000000Y-103000000D01*
X165000000Y-60000000D02*
X73000000Y-60000000D01*
X73000000Y-78500000D02*
X73000000Y-60000000D01*
X70000000Y-106000000D02*
X65000000Y-106000000D01*
X65000000Y-122000000D02*
X65000000Y-106000000D01*
X65000000Y-122000000D02*
X165000000Y-122000000D01*
X165000000Y-60000000D02*
X165000000Y-122000000D01*
M02*
