M48
;DRILL file {KiCad (2017-01-15 revision 8ac4790)-makepkg} date 09/14/17 17:44:43
;FORMAT={-:-/ absolute / metric / decimal}
FMAT,2
METRIC,TZ
T1C0.400
T2C0.800
T3C1.020
T4C1.500
%
G90
G05
M71
T1
X78.232Y-74.676
X79.277Y-107.217
X85.852Y-72.39
X86.106Y-74.676
X86.614Y-79.121
X86.741Y-88.265
X88.392Y-72.39
X90.932Y-72.39
X91.186Y-91.44
X91.948Y-87.503
X92.837Y-86.614
X93.472Y-72.39
X93.499Y-91.821
X93.599Y-87.503
X94.5Y-86.5
X94.615Y-119.888
X95.123Y-87.503
X95.123Y-96.774
X95.377Y-118.999
X95.5Y-85.
X96.012Y-72.39
X96.647Y-87.503
X96.647Y-98.298
X96.647Y-107.061
X97.917Y-98.298
X97.917Y-107.061
X98.552Y-72.39
X99.06Y-121.031
X99.187Y-107.061
X100.076Y-88.551
X101.Y-83.
X101.092Y-72.39
X101.092Y-96.774
X102.108Y-97.663
X102.87Y-120.904
X103.124Y-98.552
X103.632Y-72.39
X103.886Y-116.078
X105.664Y-117.856
X115.824Y-120.904
X117.221Y-116.967
X117.856Y-102.235
T2
X73.2Y-80.4
X76.75Y-94.
X80.645Y-84.709
X81.788Y-101.854
X83.185Y-80.899
X87.63Y-80.899
X95.123Y-117.221
X115.443Y-114.935
X121.412Y-101.981
X123.952Y-96.393
X136.779Y-105.537
T3
X76.1Y-111.42
X76.1Y-113.96
X76.1Y-116.5
X78.64Y-111.42
X78.64Y-113.96
X78.64Y-116.5
T4
X75.25Y-84.75
X75.25Y-89.75
T0
M30
