G04 #@! TF.GenerationSoftware,KiCad,Pcbnew,(2017-01-15 revision 8ac4790)-makepkg*
G04 #@! TF.CreationDate,2017-10-15T11:46:17+02:00*
G04 #@! TF.ProjectId,Fallblatt-Controller,46616C6C626C6174742D436F6E74726F,1.1*
G04 #@! TF.FileFunction,Legend,Bot*
G04 #@! TF.FilePolarity,Positive*
%FSLAX46Y46*%
G04 Gerber Fmt 4.6, Leading zero omitted, Abs format (unit mm)*
G04 Created by KiCad (PCBNEW (2017-01-15 revision 8ac4790)-makepkg) date 10/15/17 11:46:17*
%MOMM*%
%LPD*%
G01*
G04 APERTURE LIST*
%ADD10C,0.100000*%
%ADD11C,0.300000*%
%ADD12C,0.500000*%
%ADD13C,0.010000*%
G04 APERTURE END LIST*
D10*
D11*
X149357142Y-62792857D02*
X149857142Y-62792857D01*
X149857142Y-63578571D02*
X149857142Y-62078571D01*
X149142857Y-62078571D01*
X147928571Y-63578571D02*
X147928571Y-62792857D01*
X148000000Y-62650000D01*
X148142857Y-62578571D01*
X148428571Y-62578571D01*
X148571428Y-62650000D01*
X147928571Y-63507142D02*
X148071428Y-63578571D01*
X148428571Y-63578571D01*
X148571428Y-63507142D01*
X148642857Y-63364285D01*
X148642857Y-63221428D01*
X148571428Y-63078571D01*
X148428571Y-63007142D01*
X148071428Y-63007142D01*
X147928571Y-62935714D01*
X147000000Y-63578571D02*
X147142857Y-63507142D01*
X147214285Y-63364285D01*
X147214285Y-62078571D01*
X146214285Y-63578571D02*
X146357142Y-63507142D01*
X146428571Y-63364285D01*
X146428571Y-62078571D01*
X145642857Y-63578571D02*
X145642857Y-62078571D01*
X145642857Y-62650000D02*
X145500000Y-62578571D01*
X145214285Y-62578571D01*
X145071428Y-62650000D01*
X145000000Y-62721428D01*
X144928571Y-62864285D01*
X144928571Y-63292857D01*
X145000000Y-63435714D01*
X145071428Y-63507142D01*
X145214285Y-63578571D01*
X145500000Y-63578571D01*
X145642857Y-63507142D01*
X144071428Y-63578571D02*
X144214285Y-63507142D01*
X144285714Y-63364285D01*
X144285714Y-62078571D01*
X142857142Y-63578571D02*
X142857142Y-62792857D01*
X142928571Y-62650000D01*
X143071428Y-62578571D01*
X143357142Y-62578571D01*
X143500000Y-62650000D01*
X142857142Y-63507142D02*
X143000000Y-63578571D01*
X143357142Y-63578571D01*
X143500000Y-63507142D01*
X143571428Y-63364285D01*
X143571428Y-63221428D01*
X143500000Y-63078571D01*
X143357142Y-63007142D01*
X143000000Y-63007142D01*
X142857142Y-62935714D01*
X142357142Y-62578571D02*
X141785714Y-62578571D01*
X142142857Y-62078571D02*
X142142857Y-63364285D01*
X142071428Y-63507142D01*
X141928571Y-63578571D01*
X141785714Y-63578571D01*
X141500000Y-62578571D02*
X140928571Y-62578571D01*
X141285714Y-62078571D02*
X141285714Y-63364285D01*
X141214285Y-63507142D01*
X141071428Y-63578571D01*
X140928571Y-63578571D01*
X140428571Y-63007142D02*
X139285714Y-63007142D01*
X137714285Y-63435714D02*
X137785714Y-63507142D01*
X138000000Y-63578571D01*
X138142857Y-63578571D01*
X138357142Y-63507142D01*
X138500000Y-63364285D01*
X138571428Y-63221428D01*
X138642857Y-62935714D01*
X138642857Y-62721428D01*
X138571428Y-62435714D01*
X138500000Y-62292857D01*
X138357142Y-62150000D01*
X138142857Y-62078571D01*
X138000000Y-62078571D01*
X137785714Y-62150000D01*
X137714285Y-62221428D01*
X136857142Y-63578571D02*
X137000000Y-63507142D01*
X137071428Y-63435714D01*
X137142857Y-63292857D01*
X137142857Y-62864285D01*
X137071428Y-62721428D01*
X137000000Y-62650000D01*
X136857142Y-62578571D01*
X136642857Y-62578571D01*
X136500000Y-62650000D01*
X136428571Y-62721428D01*
X136357142Y-62864285D01*
X136357142Y-63292857D01*
X136428571Y-63435714D01*
X136500000Y-63507142D01*
X136642857Y-63578571D01*
X136857142Y-63578571D01*
X135714285Y-62578571D02*
X135714285Y-63578571D01*
X135714285Y-62721428D02*
X135642857Y-62650000D01*
X135500000Y-62578571D01*
X135285714Y-62578571D01*
X135142857Y-62650000D01*
X135071428Y-62792857D01*
X135071428Y-63578571D01*
X134571428Y-62578571D02*
X133999999Y-62578571D01*
X134357142Y-62078571D02*
X134357142Y-63364285D01*
X134285714Y-63507142D01*
X134142857Y-63578571D01*
X133999999Y-63578571D01*
X133499999Y-63578571D02*
X133499999Y-62578571D01*
X133499999Y-62864285D02*
X133428571Y-62721428D01*
X133357142Y-62650000D01*
X133214285Y-62578571D01*
X133071428Y-62578571D01*
X132357142Y-63578571D02*
X132499999Y-63507142D01*
X132571428Y-63435714D01*
X132642857Y-63292857D01*
X132642857Y-62864285D01*
X132571428Y-62721428D01*
X132499999Y-62650000D01*
X132357142Y-62578571D01*
X132142857Y-62578571D01*
X131999999Y-62650000D01*
X131928571Y-62721428D01*
X131857142Y-62864285D01*
X131857142Y-63292857D01*
X131928571Y-63435714D01*
X131999999Y-63507142D01*
X132142857Y-63578571D01*
X132357142Y-63578571D01*
X130999999Y-63578571D02*
X131142857Y-63507142D01*
X131214285Y-63364285D01*
X131214285Y-62078571D01*
X130214285Y-63578571D02*
X130357142Y-63507142D01*
X130428571Y-63364285D01*
X130428571Y-62078571D01*
X129071428Y-63507142D02*
X129214285Y-63578571D01*
X129499999Y-63578571D01*
X129642857Y-63507142D01*
X129714285Y-63364285D01*
X129714285Y-62792857D01*
X129642857Y-62650000D01*
X129499999Y-62578571D01*
X129214285Y-62578571D01*
X129071428Y-62650000D01*
X128999999Y-62792857D01*
X128999999Y-62935714D01*
X129714285Y-63078571D01*
X128357142Y-63578571D02*
X128357142Y-62578571D01*
X128357142Y-62864285D02*
X128285714Y-62721428D01*
X128214285Y-62650000D01*
X128071428Y-62578571D01*
X127928571Y-62578571D01*
X152714285Y-65128571D02*
X152142857Y-65128571D01*
X152500000Y-66128571D02*
X152500000Y-64842857D01*
X152428571Y-64700000D01*
X152285714Y-64628571D01*
X152142857Y-64628571D01*
X151000000Y-65128571D02*
X151000000Y-66128571D01*
X151642857Y-65128571D02*
X151642857Y-65914285D01*
X151571428Y-66057142D01*
X151428571Y-66128571D01*
X151214285Y-66128571D01*
X151071428Y-66057142D01*
X151000000Y-65985714D01*
X151571428Y-64628571D02*
X151500000Y-64700000D01*
X151571428Y-64771428D01*
X151642857Y-64700000D01*
X151571428Y-64628571D01*
X151571428Y-64771428D01*
X151000000Y-64628571D02*
X150928571Y-64700000D01*
X151000000Y-64771428D01*
X151071428Y-64700000D01*
X151000000Y-64628571D01*
X151000000Y-64771428D01*
X150285714Y-66128571D02*
X150285714Y-65128571D01*
X150285714Y-65414285D02*
X150214285Y-65271428D01*
X150142857Y-65200000D01*
X150000000Y-65128571D01*
X149857142Y-65128571D01*
X148214285Y-66128571D02*
X148214285Y-64628571D01*
X147357142Y-66128571D02*
X148000000Y-65271428D01*
X147357142Y-64628571D02*
X148214285Y-65485714D01*
X145857142Y-66128571D02*
X146357142Y-65414285D01*
X146714285Y-66128571D02*
X146714285Y-64628571D01*
X146142857Y-64628571D01*
X146000000Y-64700000D01*
X145928571Y-64771428D01*
X145857142Y-64914285D01*
X145857142Y-65128571D01*
X145928571Y-65271428D01*
X146000000Y-65342857D01*
X146142857Y-65414285D01*
X146714285Y-65414285D01*
X144928571Y-64628571D02*
X144642857Y-64628571D01*
X144500000Y-64700000D01*
X144357142Y-64842857D01*
X144285714Y-65128571D01*
X144285714Y-65628571D01*
X144357142Y-65914285D01*
X144500000Y-66057142D01*
X144642857Y-66128571D01*
X144928571Y-66128571D01*
X145071428Y-66057142D01*
X145214285Y-65914285D01*
X145285714Y-65628571D01*
X145285714Y-65128571D01*
X145214285Y-64842857D01*
X145071428Y-64700000D01*
X144928571Y-64628571D01*
X143642857Y-66128571D02*
X143642857Y-64628571D01*
X142785714Y-66128571D01*
X142785714Y-64628571D01*
X142071428Y-65342857D02*
X141571428Y-65342857D01*
X141357142Y-66128571D02*
X142071428Y-66128571D01*
X142071428Y-64628571D01*
X141357142Y-64628571D01*
X139571428Y-66128571D02*
X139571428Y-64628571D01*
X139071428Y-65700000D01*
X138571428Y-64628571D01*
X138571428Y-66128571D01*
X137642857Y-66128571D02*
X137785714Y-66057142D01*
X137857142Y-65985714D01*
X137928571Y-65842857D01*
X137928571Y-65414285D01*
X137857142Y-65271428D01*
X137785714Y-65200000D01*
X137642857Y-65128571D01*
X137428571Y-65128571D01*
X137285714Y-65200000D01*
X137214285Y-65271428D01*
X137142857Y-65414285D01*
X137142857Y-65842857D01*
X137214285Y-65985714D01*
X137285714Y-66057142D01*
X137428571Y-66128571D01*
X137642857Y-66128571D01*
X135857142Y-66128571D02*
X135857142Y-64628571D01*
X135857142Y-66057142D02*
X136000000Y-66128571D01*
X136285714Y-66128571D01*
X136428571Y-66057142D01*
X136500000Y-65985714D01*
X136571428Y-65842857D01*
X136571428Y-65414285D01*
X136500000Y-65271428D01*
X136428571Y-65200000D01*
X136285714Y-65128571D01*
X136000000Y-65128571D01*
X135857142Y-65200000D01*
X134500000Y-65128571D02*
X134500000Y-66128571D01*
X135142857Y-65128571D02*
X135142857Y-65914285D01*
X135071428Y-66057142D01*
X134928571Y-66128571D01*
X134714285Y-66128571D01*
X134571428Y-66057142D01*
X134500000Y-65985714D01*
X133571428Y-66128571D02*
X133714285Y-66057142D01*
X133785714Y-65914285D01*
X133785714Y-64628571D01*
X133000000Y-66128571D02*
X133000000Y-65128571D01*
X133000000Y-65414285D02*
X132928571Y-65271428D01*
X132857142Y-65200000D01*
X132714285Y-65128571D01*
X132571428Y-65128571D01*
X131500000Y-66057142D02*
X131642857Y-66128571D01*
X131928571Y-66128571D01*
X132071428Y-66057142D01*
X132142857Y-65914285D01*
X132142857Y-65342857D01*
X132071428Y-65200000D01*
X131928571Y-65128571D01*
X131642857Y-65128571D01*
X131500000Y-65200000D01*
X131428571Y-65342857D01*
X131428571Y-65485714D01*
X132142857Y-65628571D01*
X130785714Y-66128571D02*
X130785714Y-65128571D01*
X130785714Y-64628571D02*
X130857142Y-64700000D01*
X130785714Y-64771428D01*
X130714285Y-64700000D01*
X130785714Y-64628571D01*
X130785714Y-64771428D01*
X130071428Y-66128571D02*
X130071428Y-64628571D01*
X129428571Y-66128571D02*
X129428571Y-65342857D01*
X129500000Y-65200000D01*
X129642857Y-65128571D01*
X129857142Y-65128571D01*
X130000000Y-65200000D01*
X130071428Y-65271428D01*
X128142857Y-66057142D02*
X128285714Y-66128571D01*
X128571428Y-66128571D01*
X128714285Y-66057142D01*
X128785714Y-65914285D01*
X128785714Y-65342857D01*
X128714285Y-65200000D01*
X128571428Y-65128571D01*
X128285714Y-65128571D01*
X128142857Y-65200000D01*
X128071428Y-65342857D01*
X128071428Y-65485714D01*
X128785714Y-65628571D01*
X126285714Y-66128571D02*
X126285714Y-64628571D01*
X125928571Y-64628571D01*
X125714285Y-64700000D01*
X125571428Y-64842857D01*
X125500000Y-64985714D01*
X125428571Y-65271428D01*
X125428571Y-65485714D01*
X125500000Y-65771428D01*
X125571428Y-65914285D01*
X125714285Y-66057142D01*
X125928571Y-66128571D01*
X126285714Y-66128571D01*
X149500000Y-67678571D02*
X149142857Y-68678571D01*
X148785714Y-67678571D01*
X147428571Y-68678571D02*
X148285714Y-68678571D01*
X147857142Y-68678571D02*
X147857142Y-67178571D01*
X148000000Y-67392857D01*
X148142857Y-67535714D01*
X148285714Y-67607142D01*
X146785714Y-68535714D02*
X146714285Y-68607142D01*
X146785714Y-68678571D01*
X146857142Y-68607142D01*
X146785714Y-68535714D01*
X146785714Y-68678571D01*
X145785714Y-67178571D02*
X145642857Y-67178571D01*
X145500000Y-67250000D01*
X145428571Y-67321428D01*
X145357142Y-67464285D01*
X145285714Y-67750000D01*
X145285714Y-68107142D01*
X145357142Y-68392857D01*
X145428571Y-68535714D01*
X145500000Y-68607142D01*
X145642857Y-68678571D01*
X145785714Y-68678571D01*
X145928571Y-68607142D01*
X146000000Y-68535714D01*
X146071428Y-68392857D01*
X146142857Y-68107142D01*
X146142857Y-67750000D01*
X146071428Y-67464285D01*
X146000000Y-67321428D01*
X145928571Y-67250000D01*
X145785714Y-67178571D01*
X142428571Y-67107142D02*
X143714285Y-69035714D01*
X140000000Y-68678571D02*
X140857142Y-68678571D01*
X140428571Y-68678571D02*
X140428571Y-67178571D01*
X140571428Y-67392857D01*
X140714285Y-67535714D01*
X140857142Y-67607142D01*
X138714285Y-67678571D02*
X138714285Y-68678571D01*
X139071428Y-67107142D02*
X139428571Y-68178571D01*
X138500000Y-68178571D01*
X137928571Y-68535714D02*
X137857142Y-68607142D01*
X137928571Y-68678571D01*
X138000000Y-68607142D01*
X137928571Y-68535714D01*
X137928571Y-68678571D01*
X136928571Y-67178571D02*
X136785714Y-67178571D01*
X136642857Y-67250000D01*
X136571428Y-67321428D01*
X136500000Y-67464285D01*
X136428571Y-67750000D01*
X136428571Y-68107142D01*
X136500000Y-68392857D01*
X136571428Y-68535714D01*
X136642857Y-68607142D01*
X136785714Y-68678571D01*
X136928571Y-68678571D01*
X137071428Y-68607142D01*
X137142857Y-68535714D01*
X137214285Y-68392857D01*
X137285714Y-68107142D01*
X137285714Y-67750000D01*
X137214285Y-67464285D01*
X137142857Y-67321428D01*
X137071428Y-67250000D01*
X136928571Y-67178571D01*
X135714285Y-68678571D02*
X135428571Y-68678571D01*
X135285714Y-68607142D01*
X135214285Y-68535714D01*
X135071428Y-68321428D01*
X135000000Y-68035714D01*
X135000000Y-67464285D01*
X135071428Y-67321428D01*
X135142857Y-67250000D01*
X135285714Y-67178571D01*
X135571428Y-67178571D01*
X135714285Y-67250000D01*
X135785714Y-67321428D01*
X135857142Y-67464285D01*
X135857142Y-67821428D01*
X135785714Y-67964285D01*
X135714285Y-68035714D01*
X135571428Y-68107142D01*
X135285714Y-68107142D01*
X135142857Y-68035714D01*
X135071428Y-67964285D01*
X135000000Y-67821428D01*
X134357142Y-68535714D02*
X134285714Y-68607142D01*
X134357142Y-68678571D01*
X134428571Y-68607142D01*
X134357142Y-68535714D01*
X134357142Y-68678571D01*
X133714285Y-67321428D02*
X133642857Y-67250000D01*
X133500000Y-67178571D01*
X133142857Y-67178571D01*
X133000000Y-67250000D01*
X132928571Y-67321428D01*
X132857142Y-67464285D01*
X132857142Y-67607142D01*
X132928571Y-67821428D01*
X133785714Y-68678571D01*
X132857142Y-68678571D01*
X131928571Y-67178571D02*
X131785714Y-67178571D01*
X131642857Y-67250000D01*
X131571428Y-67321428D01*
X131500000Y-67464285D01*
X131428571Y-67750000D01*
X131428571Y-68107142D01*
X131500000Y-68392857D01*
X131571428Y-68535714D01*
X131642857Y-68607142D01*
X131785714Y-68678571D01*
X131928571Y-68678571D01*
X132071428Y-68607142D01*
X132142857Y-68535714D01*
X132214285Y-68392857D01*
X132285714Y-68107142D01*
X132285714Y-67750000D01*
X132214285Y-67464285D01*
X132142857Y-67321428D01*
X132071428Y-67250000D01*
X131928571Y-67178571D01*
X130000000Y-68678571D02*
X130857142Y-68678571D01*
X130428571Y-68678571D02*
X130428571Y-67178571D01*
X130571428Y-67392857D01*
X130714285Y-67535714D01*
X130857142Y-67607142D01*
X129500000Y-67178571D02*
X128500000Y-67178571D01*
X129142857Y-68678571D01*
X146178571Y-69728571D02*
X146178571Y-70800000D01*
X146250000Y-71014285D01*
X146392857Y-71157142D01*
X146607142Y-71228571D01*
X146750000Y-71228571D01*
X144821428Y-70228571D02*
X144821428Y-71228571D01*
X145464285Y-70228571D02*
X145464285Y-71014285D01*
X145392857Y-71157142D01*
X145250000Y-71228571D01*
X145035714Y-71228571D01*
X144892857Y-71157142D01*
X144821428Y-71085714D01*
X143892857Y-71228571D02*
X144035714Y-71157142D01*
X144107142Y-71014285D01*
X144107142Y-69728571D01*
X143321428Y-71228571D02*
X143321428Y-70228571D01*
X143321428Y-69728571D02*
X143392857Y-69800000D01*
X143321428Y-69871428D01*
X143250000Y-69800000D01*
X143321428Y-69728571D01*
X143321428Y-69871428D01*
X141964285Y-71228571D02*
X141964285Y-70442857D01*
X142035714Y-70300000D01*
X142178571Y-70228571D01*
X142464285Y-70228571D01*
X142607142Y-70300000D01*
X141964285Y-71157142D02*
X142107142Y-71228571D01*
X142464285Y-71228571D01*
X142607142Y-71157142D01*
X142678571Y-71014285D01*
X142678571Y-70871428D01*
X142607142Y-70728571D01*
X142464285Y-70657142D01*
X142107142Y-70657142D01*
X141964285Y-70585714D01*
X141250000Y-70228571D02*
X141250000Y-71228571D01*
X141250000Y-70371428D02*
X141178571Y-70300000D01*
X141035714Y-70228571D01*
X140821428Y-70228571D01*
X140678571Y-70300000D01*
X140607142Y-70442857D01*
X140607142Y-71228571D01*
X138750000Y-71228571D02*
X138750000Y-69728571D01*
X138250000Y-70800000D01*
X137750000Y-69728571D01*
X137750000Y-71228571D01*
X136464285Y-71157142D02*
X136607142Y-71228571D01*
X136892857Y-71228571D01*
X137035714Y-71157142D01*
X137107142Y-71014285D01*
X137107142Y-70442857D01*
X137035714Y-70300000D01*
X136892857Y-70228571D01*
X136607142Y-70228571D01*
X136464285Y-70300000D01*
X136392857Y-70442857D01*
X136392857Y-70585714D01*
X137107142Y-70728571D01*
X135964285Y-70228571D02*
X135392857Y-70228571D01*
X135750000Y-69728571D02*
X135750000Y-71014285D01*
X135678571Y-71157142D01*
X135535714Y-71228571D01*
X135392857Y-71228571D01*
X135035714Y-70228571D02*
X134250000Y-70228571D01*
X135035714Y-71228571D01*
X134250000Y-71228571D01*
X133464285Y-71228571D02*
X133607142Y-71157142D01*
X133678571Y-71014285D01*
X133678571Y-69728571D01*
X132321428Y-71157142D02*
X132464285Y-71228571D01*
X132750000Y-71228571D01*
X132892857Y-71157142D01*
X132964285Y-71014285D01*
X132964285Y-70442857D01*
X132892857Y-70300000D01*
X132750000Y-70228571D01*
X132464285Y-70228571D01*
X132321428Y-70300000D01*
X132250000Y-70442857D01*
X132250000Y-70585714D01*
X132964285Y-70728571D01*
X131607142Y-71228571D02*
X131607142Y-70228571D01*
X131607142Y-70514285D02*
X131535714Y-70371428D01*
X131464285Y-70300000D01*
X131321428Y-70228571D01*
X131178571Y-70228571D01*
X146571428Y-72778571D02*
X146285714Y-73778571D01*
X146000000Y-73064285D01*
X145714285Y-73778571D01*
X145428571Y-72778571D01*
X145000000Y-72778571D02*
X144714285Y-73778571D01*
X144428571Y-73064285D01*
X144142857Y-73778571D01*
X143857142Y-72778571D01*
X143428571Y-72778571D02*
X143142857Y-73778571D01*
X142857142Y-73064285D01*
X142571428Y-73778571D01*
X142285714Y-72778571D01*
X141714285Y-73635714D02*
X141642857Y-73707142D01*
X141714285Y-73778571D01*
X141785714Y-73707142D01*
X141714285Y-73635714D01*
X141714285Y-73778571D01*
X141000000Y-73778571D02*
X141000000Y-72778571D01*
X141000000Y-72921428D02*
X140928571Y-72850000D01*
X140785714Y-72778571D01*
X140571428Y-72778571D01*
X140428571Y-72850000D01*
X140357142Y-72992857D01*
X140357142Y-73778571D01*
X140357142Y-72992857D02*
X140285714Y-72850000D01*
X140142857Y-72778571D01*
X139928571Y-72778571D01*
X139785714Y-72850000D01*
X139714285Y-72992857D01*
X139714285Y-73778571D01*
X138428571Y-73707142D02*
X138571428Y-73778571D01*
X138857142Y-73778571D01*
X139000000Y-73707142D01*
X139071428Y-73564285D01*
X139071428Y-72992857D01*
X139000000Y-72850000D01*
X138857142Y-72778571D01*
X138571428Y-72778571D01*
X138428571Y-72850000D01*
X138357142Y-72992857D01*
X138357142Y-73135714D01*
X139071428Y-73278571D01*
X137857142Y-72778571D02*
X137071428Y-72778571D01*
X137857142Y-73778571D01*
X137071428Y-73778571D01*
X135857142Y-72778571D02*
X135857142Y-73992857D01*
X135928571Y-74135714D01*
X136000000Y-74207142D01*
X136142857Y-74278571D01*
X136357142Y-74278571D01*
X136500000Y-74207142D01*
X135857142Y-73707142D02*
X136000000Y-73778571D01*
X136285714Y-73778571D01*
X136428571Y-73707142D01*
X136500000Y-73635714D01*
X136571428Y-73492857D01*
X136571428Y-73064285D01*
X136500000Y-72921428D01*
X136428571Y-72850000D01*
X136285714Y-72778571D01*
X136000000Y-72778571D01*
X135857142Y-72850000D01*
X135142857Y-73778571D02*
X135142857Y-72778571D01*
X135142857Y-73064285D02*
X135071428Y-72921428D01*
X135000000Y-72850000D01*
X134857142Y-72778571D01*
X134714285Y-72778571D01*
X134214285Y-73635714D02*
X134142857Y-73707142D01*
X134214285Y-73778571D01*
X134285714Y-73707142D01*
X134214285Y-73635714D01*
X134214285Y-73778571D01*
X132857142Y-73778571D02*
X132857142Y-72278571D01*
X132857142Y-73707142D02*
X133000000Y-73778571D01*
X133285714Y-73778571D01*
X133428571Y-73707142D01*
X133500000Y-73635714D01*
X133571428Y-73492857D01*
X133571428Y-73064285D01*
X133500000Y-72921428D01*
X133428571Y-72850000D01*
X133285714Y-72778571D01*
X133000000Y-72778571D01*
X132857142Y-72850000D01*
X131571428Y-73707142D02*
X131714285Y-73778571D01*
X132000000Y-73778571D01*
X132142857Y-73707142D01*
X132214285Y-73564285D01*
X132214285Y-72992857D01*
X132142857Y-72850000D01*
X132000000Y-72778571D01*
X131714285Y-72778571D01*
X131571428Y-72850000D01*
X131500000Y-72992857D01*
X131500000Y-73135714D01*
X132214285Y-73278571D01*
D12*
X152142857Y-120357142D02*
X150571428Y-118357142D01*
X152142857Y-118357142D02*
X150571428Y-120357142D01*
X148142857Y-120357142D02*
X148142857Y-118785714D01*
X148285714Y-118500000D01*
X148571428Y-118357142D01*
X149142857Y-118357142D01*
X149428571Y-118500000D01*
X148142857Y-120214285D02*
X148428571Y-120357142D01*
X149142857Y-120357142D01*
X149428571Y-120214285D01*
X149571428Y-119928571D01*
X149571428Y-119642857D01*
X149428571Y-119357142D01*
X149142857Y-119214285D01*
X148428571Y-119214285D01*
X148142857Y-119071428D01*
X147142857Y-118357142D02*
X146000000Y-118357142D01*
X146714285Y-117357142D02*
X146714285Y-119928571D01*
X146571428Y-120214285D01*
X146285714Y-120357142D01*
X146000000Y-120357142D01*
X143571428Y-120357142D02*
X145000000Y-120357142D01*
X145000000Y-117357142D01*
X141285714Y-120357142D02*
X141285714Y-118785714D01*
X141428571Y-118500000D01*
X141714285Y-118357142D01*
X142285714Y-118357142D01*
X142571428Y-118500000D01*
X141285714Y-120214285D02*
X141571428Y-120357142D01*
X142285714Y-120357142D01*
X142571428Y-120214285D01*
X142714285Y-119928571D01*
X142714285Y-119642857D01*
X142571428Y-119357142D01*
X142285714Y-119214285D01*
X141571428Y-119214285D01*
X141285714Y-119071428D01*
X139857142Y-120357142D02*
X139857142Y-117357142D01*
X139857142Y-118500000D02*
X139571428Y-118357142D01*
X139000000Y-118357142D01*
X138714285Y-118500000D01*
X138571428Y-118642857D01*
X138428571Y-118928571D01*
X138428571Y-119785714D01*
X138571428Y-120071428D01*
X138714285Y-120214285D01*
X139000000Y-120357142D01*
X139571428Y-120357142D01*
X139857142Y-120214285D01*
X137285714Y-120214285D02*
X137000000Y-120357142D01*
X136428571Y-120357142D01*
X136142857Y-120214285D01*
X136000000Y-119928571D01*
X136000000Y-119785714D01*
X136142857Y-119500000D01*
X136428571Y-119357142D01*
X136857142Y-119357142D01*
X137142857Y-119214285D01*
X137285714Y-118928571D01*
X137285714Y-118785714D01*
X137142857Y-118500000D01*
X136857142Y-118357142D01*
X136428571Y-118357142D01*
X136142857Y-118500000D01*
D13*
G36*
X146364429Y-101842824D02*
X146341517Y-101875145D01*
X146334459Y-101902068D01*
X146334989Y-101941167D01*
X146344258Y-101998865D01*
X146363416Y-102081584D01*
X146393614Y-102195747D01*
X146408819Y-102250854D01*
X146487417Y-102543771D01*
X146549570Y-102798047D01*
X146595347Y-103014021D01*
X146624817Y-103192030D01*
X146638046Y-103332415D01*
X146638635Y-103387073D01*
X146636915Y-103430063D01*
X146633132Y-103439418D01*
X146624736Y-103412449D01*
X146612098Y-103359083D01*
X146592429Y-103292151D01*
X146569420Y-103257755D01*
X146542250Y-103246775D01*
X146510522Y-103250684D01*
X146486286Y-103279332D01*
X146464871Y-103331441D01*
X146386748Y-103555133D01*
X146312584Y-103770234D01*
X146243599Y-103973023D01*
X146181015Y-104159775D01*
X146126050Y-104326767D01*
X146079927Y-104470275D01*
X146043864Y-104586577D01*
X146019083Y-104671948D01*
X146006804Y-104722665D01*
X146005667Y-104732454D01*
X145994521Y-104760244D01*
X145964900Y-104812818D01*
X145922525Y-104880225D01*
X145908717Y-104901052D01*
X145857616Y-104974011D01*
X145821043Y-105016437D01*
X145792405Y-105034488D01*
X145765842Y-105034502D01*
X145668224Y-105016941D01*
X145535181Y-105001738D01*
X145373559Y-104988996D01*
X145190208Y-104978817D01*
X144991975Y-104971305D01*
X144785708Y-104966562D01*
X144578255Y-104964691D01*
X144376463Y-104965795D01*
X144187180Y-104969976D01*
X144017255Y-104977337D01*
X143873534Y-104987981D01*
X143762866Y-105002011D01*
X143750369Y-105004257D01*
X143581781Y-105040966D01*
X143417807Y-105085626D01*
X143276404Y-105133297D01*
X143264583Y-105137887D01*
X143266913Y-105128770D01*
X143296237Y-105094200D01*
X143348944Y-105037966D01*
X143421419Y-104963860D01*
X143510051Y-104875674D01*
X143574171Y-104813028D01*
X143675224Y-104713605D01*
X143765925Y-104621789D01*
X143841799Y-104542322D01*
X143898368Y-104479947D01*
X143931156Y-104439405D01*
X143937412Y-104428207D01*
X143933089Y-104384102D01*
X143907785Y-104342387D01*
X143873514Y-104322270D01*
X143871078Y-104322166D01*
X143830488Y-104326387D01*
X143757018Y-104337945D01*
X143659159Y-104355190D01*
X143545397Y-104376467D01*
X143424223Y-104400125D01*
X143304124Y-104424510D01*
X143193589Y-104447969D01*
X143101107Y-104468851D01*
X143042333Y-104483527D01*
X142720244Y-104587389D01*
X142393405Y-104724082D01*
X142074072Y-104887666D01*
X141774495Y-105072202D01*
X141656607Y-105155191D01*
X141530297Y-105247888D01*
X141296773Y-105029700D01*
X141128864Y-104876524D01*
X140935051Y-104706055D01*
X140723913Y-104525554D01*
X140504028Y-104342285D01*
X140283977Y-104163510D01*
X140121333Y-104034667D01*
X140011515Y-103948199D01*
X139929358Y-103881324D01*
X139868892Y-103827922D01*
X139824147Y-103781877D01*
X139789152Y-103737071D01*
X139757938Y-103687386D01*
X139726148Y-103629722D01*
X139664564Y-103510039D01*
X139595802Y-103368655D01*
X139524703Y-103216252D01*
X139456108Y-103063514D01*
X139394856Y-102921123D01*
X139345788Y-102799764D01*
X139326015Y-102746604D01*
X139296848Y-102672832D01*
X139269735Y-102618761D01*
X139249367Y-102593333D01*
X139245194Y-102592652D01*
X139213876Y-102624425D01*
X139190774Y-102694394D01*
X139176486Y-102799113D01*
X139171611Y-102935137D01*
X139172768Y-103009833D01*
X139180009Y-103253250D01*
X139077921Y-103152865D01*
X138904875Y-103008190D01*
X138701721Y-102885476D01*
X138467078Y-102784261D01*
X138199568Y-102704085D01*
X137897810Y-102644488D01*
X137560426Y-102605007D01*
X137405152Y-102594164D01*
X137163015Y-102580335D01*
X137127062Y-102635206D01*
X137112966Y-102657399D01*
X137104992Y-102677686D01*
X137105629Y-102701377D01*
X137117371Y-102733782D01*
X137142707Y-102780212D01*
X137184130Y-102845977D01*
X137244129Y-102936388D01*
X137323943Y-103054896D01*
X137440266Y-103235825D01*
X137543101Y-103415269D01*
X137635908Y-103601002D01*
X137722147Y-103800800D01*
X137805277Y-104022437D01*
X137888758Y-104273687D01*
X137939062Y-104437248D01*
X137983952Y-104589716D01*
X138018611Y-104713627D01*
X138042686Y-104807162D01*
X138055824Y-104868502D01*
X138057675Y-104895830D01*
X138047884Y-104887327D01*
X138026100Y-104841175D01*
X138009496Y-104800641D01*
X137963598Y-104699766D01*
X137922057Y-104639945D01*
X137883962Y-104620227D01*
X137851791Y-104636065D01*
X137838540Y-104671329D01*
X137830141Y-104739403D01*
X137826556Y-104831048D01*
X137827748Y-104937024D01*
X137833681Y-105048091D01*
X137844317Y-105155010D01*
X137854130Y-105220142D01*
X137902764Y-105431326D01*
X137973043Y-105649533D01*
X138060592Y-105865135D01*
X138161038Y-106068504D01*
X138270007Y-106250011D01*
X138383127Y-106400029D01*
X138397407Y-106416161D01*
X138429438Y-106453910D01*
X138453416Y-106490935D01*
X138472442Y-106536062D01*
X138489618Y-106598120D01*
X138508046Y-106685939D01*
X138526106Y-106782491D01*
X138581210Y-107053090D01*
X138648197Y-107324368D01*
X138729391Y-107604005D01*
X138827113Y-107899682D01*
X138943687Y-108219078D01*
X139020733Y-108417917D01*
X139107101Y-108632445D01*
X139184699Y-108814643D01*
X139257568Y-108972529D01*
X139329746Y-109114121D01*
X139405273Y-109247438D01*
X139488189Y-109380499D01*
X139560026Y-109488436D01*
X139630821Y-109592170D01*
X139696351Y-109687654D01*
X139751634Y-109767672D01*
X139791691Y-109825007D01*
X139808191Y-109848033D01*
X139851391Y-109906465D01*
X139781855Y-110030024D01*
X139651965Y-110236848D01*
X139503643Y-110423882D01*
X139437511Y-110495977D01*
X139363683Y-110582238D01*
X139325652Y-110646740D01*
X139322442Y-110688693D01*
X139353073Y-110707308D01*
X139416570Y-110701796D01*
X139511955Y-110671366D01*
X139604923Y-110631206D01*
X139697811Y-110587994D01*
X139757816Y-110561336D01*
X139790240Y-110549514D01*
X139800384Y-110550809D01*
X139793553Y-110563502D01*
X139786437Y-110572373D01*
X139751976Y-110629517D01*
X139712312Y-110721118D01*
X139669638Y-110839952D01*
X139626148Y-110978796D01*
X139584036Y-111130424D01*
X139545494Y-111287613D01*
X139512718Y-111443138D01*
X139499038Y-111518841D01*
X139483857Y-111620020D01*
X139469381Y-111737126D01*
X139456288Y-111861830D01*
X139445255Y-111985800D01*
X139436958Y-112100709D01*
X139432076Y-112198225D01*
X139431286Y-112270018D01*
X139434958Y-112306856D01*
X139462860Y-112338670D01*
X139512199Y-112339399D01*
X139576848Y-112310087D01*
X139625398Y-112274396D01*
X139710638Y-112204472D01*
X139792323Y-112140548D01*
X139864619Y-112086821D01*
X139921694Y-112047490D01*
X139957712Y-112026753D01*
X139966913Y-112028635D01*
X139943960Y-112093871D01*
X139915970Y-112185455D01*
X139887150Y-112288425D01*
X139861709Y-112387817D01*
X139845395Y-112460750D01*
X139829710Y-112525662D01*
X139807649Y-112579799D01*
X139772438Y-112634815D01*
X139717303Y-112702369D01*
X139681187Y-112743325D01*
X139542238Y-112898901D01*
X139567364Y-113018492D01*
X139583806Y-113094244D01*
X139599000Y-113160138D01*
X139606190Y-113188802D01*
X139611785Y-113223541D01*
X139594682Y-113232581D01*
X139558403Y-113226823D01*
X139514460Y-113220132D01*
X139438514Y-113210960D01*
X139340738Y-113200452D01*
X139231306Y-113189750D01*
X139216458Y-113188377D01*
X138911157Y-113176292D01*
X138583464Y-113193005D01*
X138241227Y-113237693D01*
X137892294Y-113309528D01*
X137772426Y-113340286D01*
X137695705Y-113362288D01*
X137639016Y-113381052D01*
X137611168Y-113393555D01*
X137609994Y-113396050D01*
X137634369Y-113396999D01*
X137683662Y-113387863D01*
X137701556Y-113383325D01*
X137886807Y-113341416D01*
X138102807Y-113305797D01*
X138338306Y-113277424D01*
X138582057Y-113257258D01*
X138822811Y-113246256D01*
X139049320Y-113245376D01*
X139225058Y-113253516D01*
X139365474Y-113264632D01*
X139470399Y-113275163D01*
X139546563Y-113287578D01*
X139600699Y-113304348D01*
X139639537Y-113327943D01*
X139669809Y-113360834D01*
X139698246Y-113405491D01*
X139713816Y-113432889D01*
X139748902Y-113497514D01*
X139773704Y-113547437D01*
X139782666Y-113571152D01*
X139766211Y-113589204D01*
X139722271Y-113623874D01*
X139658985Y-113668907D01*
X139629768Y-113688626D01*
X139525742Y-113765804D01*
X139403442Y-113869690D01*
X139270158Y-113993249D01*
X139133185Y-114129449D01*
X138999813Y-114271257D01*
X138877336Y-114411639D01*
X138866097Y-114425172D01*
X138790149Y-114520049D01*
X138703235Y-114633477D01*
X138610749Y-114757927D01*
X138518082Y-114885869D01*
X138430628Y-115009776D01*
X138353778Y-115122118D01*
X138292926Y-115215367D01*
X138256746Y-115275917D01*
X138233331Y-115320593D01*
X138226995Y-115338766D01*
X138239064Y-115328879D01*
X138270863Y-115289378D01*
X138323718Y-115218707D01*
X138398955Y-115115311D01*
X138428137Y-115074833D01*
X138632104Y-114802154D01*
X138838583Y-114546620D01*
X139044031Y-114311994D01*
X139244902Y-114102037D01*
X139437651Y-113920512D01*
X139618734Y-113771179D01*
X139732760Y-113690358D01*
X139820436Y-113632894D01*
X140103176Y-113916433D01*
X140246782Y-114055281D01*
X140370883Y-114163058D01*
X140480603Y-114243127D01*
X140581064Y-114298850D01*
X140677388Y-114333589D01*
X140762964Y-114349491D01*
X140831516Y-114364138D01*
X140873947Y-114393971D01*
X140889435Y-114415773D01*
X140950029Y-114497661D01*
X141035958Y-114588360D01*
X141112727Y-114656884D01*
X141183135Y-114715186D01*
X141109847Y-114815634D01*
X141062590Y-114885600D01*
X141007055Y-114975754D01*
X140948627Y-115076390D01*
X140892696Y-115177802D01*
X140844647Y-115270283D01*
X140809869Y-115344127D01*
X140795645Y-115381750D01*
X140789443Y-115450338D01*
X140799144Y-115556161D01*
X140811135Y-115629102D01*
X140844899Y-115812955D01*
X140782239Y-115904269D01*
X140741141Y-115969557D01*
X140692072Y-116055257D01*
X140645217Y-116143538D01*
X140642440Y-116149042D01*
X140565301Y-116302500D01*
X140755749Y-116302500D01*
X140828290Y-116159625D01*
X140865859Y-116088528D01*
X140890342Y-116051320D01*
X140905922Y-116043241D01*
X140916615Y-116059083D01*
X140953542Y-116157888D01*
X140980098Y-116224029D01*
X141001269Y-116264294D01*
X141022038Y-116285471D01*
X141047390Y-116294346D01*
X141082310Y-116297706D01*
X141092387Y-116298425D01*
X141146272Y-116299832D01*
X141176961Y-116295570D01*
X141179666Y-116292771D01*
X141173324Y-116269138D01*
X141156024Y-116213534D01*
X141130358Y-116134094D01*
X141098917Y-116038952D01*
X141096683Y-116032262D01*
X141059550Y-115915083D01*
X141023876Y-115791955D01*
X140994289Y-115679413D01*
X140978568Y-115610373D01*
X140943437Y-115436829D01*
X141043745Y-115250540D01*
X141099968Y-115150641D01*
X141162519Y-115046508D01*
X141220542Y-114956025D01*
X141237662Y-114931048D01*
X141331271Y-114797846D01*
X141416919Y-114875225D01*
X141496922Y-114941011D01*
X141573380Y-114986415D01*
X141656466Y-115014325D01*
X141756349Y-115027633D01*
X141883201Y-115029228D01*
X141950841Y-115026935D01*
X142120825Y-115014885D01*
X142256511Y-114994345D01*
X142343833Y-114971583D01*
X142415076Y-114949219D01*
X142469766Y-114933184D01*
X142496099Y-114926940D01*
X142496127Y-114926940D01*
X142496325Y-114944160D01*
X142481775Y-114989070D01*
X142461735Y-115037792D01*
X142413643Y-115159104D01*
X142361293Y-115312761D01*
X142307356Y-115489347D01*
X142254508Y-115679445D01*
X142205421Y-115873638D01*
X142162768Y-116062509D01*
X142143228Y-116159625D01*
X142115918Y-116302500D01*
X142506673Y-116302500D01*
X142637645Y-116027581D01*
X142740285Y-115805129D01*
X142820250Y-115615973D01*
X142878272Y-115458133D01*
X142915081Y-115329629D01*
X142931057Y-115233045D01*
X142934103Y-115159546D01*
X142927148Y-115096948D01*
X142906882Y-115028495D01*
X142874914Y-114948955D01*
X142845822Y-114874425D01*
X142827567Y-114815151D01*
X142823133Y-114781320D01*
X142824773Y-114777797D01*
X142847265Y-114764440D01*
X142869920Y-114752005D01*
X142453875Y-114752005D01*
X142424035Y-114768650D01*
X142357862Y-114790001D01*
X142252778Y-114817457D01*
X142245074Y-114819355D01*
X142088500Y-114849077D01*
X141935859Y-114861944D01*
X141796776Y-114858017D01*
X141680876Y-114837354D01*
X141623643Y-114815542D01*
X141542234Y-114757732D01*
X141468336Y-114676540D01*
X141419763Y-114595193D01*
X141237804Y-114595193D01*
X141219611Y-114590565D01*
X141176868Y-114560096D01*
X141161560Y-114548090D01*
X141101202Y-114495084D01*
X141048618Y-114440274D01*
X141031901Y-114419230D01*
X141003180Y-114375284D01*
X140989381Y-114347072D01*
X140989166Y-114345386D01*
X141003930Y-114342330D01*
X141041345Y-114359053D01*
X141091101Y-114388774D01*
X141142883Y-114424712D01*
X141186380Y-114460087D01*
X141211279Y-114488117D01*
X141213273Y-114492750D01*
X141229609Y-114550185D01*
X141236922Y-114576010D01*
X141237804Y-114595193D01*
X141419763Y-114595193D01*
X141415410Y-114587903D01*
X141403347Y-114554714D01*
X141399001Y-114531875D01*
X141408110Y-114520377D01*
X141439084Y-114518561D01*
X141500335Y-114524770D01*
X141533974Y-114528974D01*
X141657944Y-114536254D01*
X141805031Y-114531237D01*
X141883193Y-114524043D01*
X142089302Y-114500981D01*
X142220557Y-114607185D01*
X142291616Y-114660056D01*
X142358879Y-114702261D01*
X142409363Y-114725778D01*
X142414876Y-114727240D01*
X142449963Y-114738669D01*
X142453875Y-114752005D01*
X142869920Y-114752005D01*
X142902213Y-114734281D01*
X142984513Y-114690044D01*
X143089062Y-114634458D01*
X143210757Y-114570249D01*
X143338666Y-114503190D01*
X143492622Y-114422186D01*
X143653103Y-114336809D01*
X143810442Y-114252271D01*
X143954968Y-114173782D01*
X144077013Y-114106551D01*
X144132416Y-114075489D01*
X144251642Y-114010904D01*
X144376233Y-113948328D01*
X144493769Y-113893692D01*
X144591830Y-113852925D01*
X144619250Y-113843031D01*
X144704663Y-113814921D01*
X144771413Y-113796981D01*
X144833047Y-113787576D01*
X144903107Y-113785071D01*
X144995140Y-113787831D01*
X145053166Y-113790651D01*
X145247379Y-113807034D01*
X145410338Y-113835831D01*
X145551817Y-113879013D01*
X145608791Y-113902633D01*
X145663504Y-113934275D01*
X145685999Y-113969861D01*
X145688166Y-113990974D01*
X145698919Y-114073655D01*
X145728571Y-114182355D01*
X145773212Y-114307427D01*
X145828934Y-114439228D01*
X145891828Y-114568110D01*
X145957984Y-114684430D01*
X145987662Y-114729939D01*
X146048745Y-114818961D01*
X145801545Y-114936464D01*
X145686691Y-114993457D01*
X145566083Y-115057285D01*
X145455464Y-115119417D01*
X145383130Y-115163194D01*
X145230475Y-115264603D01*
X145065335Y-115381335D01*
X144894266Y-115508183D01*
X144723825Y-115639941D01*
X144560565Y-115771401D01*
X144411044Y-115897357D01*
X144281816Y-116012603D01*
X144179436Y-116111931D01*
X144152097Y-116140944D01*
X144014136Y-116291917D01*
X144119986Y-116298283D01*
X144183709Y-116299641D01*
X144226429Y-116289070D01*
X144265560Y-116259035D01*
X144303178Y-116219040D01*
X144351722Y-116171035D01*
X144428391Y-116102289D01*
X144527487Y-116017517D01*
X144643307Y-115921433D01*
X144770153Y-115818750D01*
X144902324Y-115714183D01*
X145034120Y-115612447D01*
X145064686Y-115589258D01*
X145325950Y-115402693D01*
X145578792Y-115245453D01*
X145835514Y-115109953D01*
X145864694Y-115095966D01*
X146026883Y-115019928D01*
X146156042Y-114961802D01*
X146256662Y-114919901D01*
X146333239Y-114892540D01*
X146390264Y-114878033D01*
X146432231Y-114874694D01*
X146449061Y-114876704D01*
X146502379Y-114876327D01*
X146538794Y-114845032D01*
X146570078Y-114820761D01*
X146630169Y-114788418D01*
X146707556Y-114752841D01*
X146790727Y-114718865D01*
X146868172Y-114691326D01*
X146928381Y-114675063D01*
X146949027Y-114672667D01*
X146985436Y-114686630D01*
X147021666Y-114715000D01*
X147063267Y-114746951D01*
X147104203Y-114752226D01*
X147152256Y-114728534D01*
X147215207Y-114673583D01*
X147237333Y-114651500D01*
X147292627Y-114598763D01*
X147338841Y-114560842D01*
X147366269Y-114545671D01*
X147366797Y-114545650D01*
X147407312Y-114535146D01*
X147473723Y-114507040D01*
X147556167Y-114466397D01*
X147644784Y-114418277D01*
X147729713Y-114367744D01*
X147787147Y-114329844D01*
X147854360Y-114284163D01*
X147899009Y-114263441D01*
X147929232Y-114271263D01*
X147953166Y-114311214D01*
X147978952Y-114386881D01*
X147988752Y-114418667D01*
X148013832Y-114489644D01*
X148040095Y-114547789D01*
X148054834Y-114571336D01*
X148069597Y-114591553D01*
X148074989Y-114612159D01*
X148067955Y-114639243D01*
X148045440Y-114678893D01*
X148004389Y-114737196D01*
X147941747Y-114820243D01*
X147907506Y-114864953D01*
X147761933Y-115054639D01*
X147638691Y-115214524D01*
X147534360Y-115348405D01*
X147445521Y-115460081D01*
X147368754Y-115553351D01*
X147300641Y-115632013D01*
X147237761Y-115699868D01*
X147176695Y-115760712D01*
X147114023Y-115818345D01*
X147046326Y-115876566D01*
X146970185Y-115939173D01*
X146882179Y-116009966D01*
X146862916Y-116025390D01*
X146745828Y-116119062D01*
X146658705Y-116189242D01*
X146598696Y-116239181D01*
X146562951Y-116272129D01*
X146548617Y-116291336D01*
X146552843Y-116300053D01*
X146572779Y-116301530D01*
X146605572Y-116299018D01*
X146624294Y-116297410D01*
X146686881Y-116289110D01*
X146730884Y-116277276D01*
X146740711Y-116271381D01*
X146741031Y-116264116D01*
X146727354Y-116270627D01*
X146707846Y-116276675D01*
X146712942Y-116263092D01*
X146738341Y-116247722D01*
X146748084Y-116250562D01*
X146771216Y-116242720D01*
X146819547Y-116212309D01*
X146886007Y-116164168D01*
X146963531Y-116103132D01*
X146963580Y-116103092D01*
X147161658Y-115943265D01*
X147362245Y-115784870D01*
X147557705Y-115633777D01*
X147740403Y-115495857D01*
X147902703Y-115376977D01*
X147974166Y-115326268D01*
X148082159Y-115250157D01*
X148196054Y-115169014D01*
X148302264Y-115092564D01*
X148386916Y-115030749D01*
X148461258Y-114979181D01*
X148550709Y-114922279D01*
X148647859Y-114864147D01*
X148745300Y-114808888D01*
X148835622Y-114760605D01*
X148911415Y-114723403D01*
X148965271Y-114701384D01*
X148988316Y-114697689D01*
X149008210Y-114715346D01*
X149052379Y-114760531D01*
X149116998Y-114829108D01*
X149198245Y-114916939D01*
X149292295Y-115019890D01*
X149395325Y-115133822D01*
X149503512Y-115254601D01*
X149514468Y-115266898D01*
X149604853Y-115368389D01*
X149345135Y-115575235D01*
X149238081Y-115661109D01*
X149110813Y-115764166D01*
X148975585Y-115874425D01*
X148844653Y-115981907D01*
X148771591Y-116042290D01*
X148457765Y-116302500D01*
X150239000Y-116302500D01*
X150239000Y-115820243D01*
X150010256Y-115558663D01*
X149910743Y-115445978D01*
X149794623Y-115316247D01*
X149674313Y-115183244D01*
X149562229Y-115060742D01*
X149528715Y-115024485D01*
X149378354Y-114861628D01*
X149254969Y-114726348D01*
X149156061Y-114615833D01*
X149079130Y-114527275D01*
X149021678Y-114457864D01*
X148999694Y-114429746D01*
X148944957Y-114357983D01*
X149021919Y-114181950D01*
X149066953Y-114082700D01*
X149116322Y-113979713D01*
X149129892Y-113953000D01*
X148482166Y-113953000D01*
X148474422Y-113970422D01*
X148468055Y-113967111D01*
X148465522Y-113941991D01*
X148468055Y-113938889D01*
X148480639Y-113941794D01*
X148482166Y-113953000D01*
X149129892Y-113953000D01*
X149160634Y-113892486D01*
X149167916Y-113878917D01*
X149205716Y-113808808D01*
X149232193Y-113751948D01*
X149245141Y-113702735D01*
X149242354Y-113655569D01*
X149221626Y-113604851D01*
X149188646Y-113556546D01*
X148600768Y-113556546D01*
X148600308Y-113581048D01*
X148588085Y-113635425D01*
X148566510Y-113709663D01*
X148556250Y-113741333D01*
X148529809Y-113817911D01*
X148508191Y-113875306D01*
X148494776Y-113904754D01*
X148492434Y-113906717D01*
X148494397Y-113884672D01*
X148505327Y-113831777D01*
X148523084Y-113758030D01*
X148530096Y-113730750D01*
X148532920Y-113720071D01*
X148323964Y-113720071D01*
X148323172Y-113781214D01*
X148316022Y-113822750D01*
X148302984Y-113836421D01*
X148290314Y-113824535D01*
X148277400Y-113816865D01*
X148271454Y-113848046D01*
X148270824Y-113873142D01*
X148263072Y-113928809D01*
X148243235Y-114008486D01*
X148215964Y-114097298D01*
X148185910Y-114180369D01*
X148157724Y-114242826D01*
X148152291Y-114252233D01*
X148137138Y-114247316D01*
X148112339Y-114211713D01*
X148093051Y-114173898D01*
X148047147Y-114073984D01*
X148097414Y-113924108D01*
X148119897Y-113851512D01*
X148133866Y-113787232D01*
X148136356Y-113762083D01*
X147598113Y-113762083D01*
X147576814Y-113830718D01*
X147529113Y-113927385D01*
X147529019Y-113927560D01*
X147458613Y-114052572D01*
X147386791Y-114170213D01*
X147317445Y-114274984D01*
X147254468Y-114361389D01*
X147201754Y-114423930D01*
X147163194Y-114457110D01*
X147151253Y-114461000D01*
X147138534Y-114442016D01*
X147119168Y-114391361D01*
X147096588Y-114318477D01*
X147087736Y-114286375D01*
X147048907Y-114158132D01*
X146994899Y-114003793D01*
X146930265Y-113834717D01*
X146859557Y-113662262D01*
X146787327Y-113497785D01*
X146718128Y-113352646D01*
X146696807Y-113311068D01*
X146587750Y-113103054D01*
X146582755Y-113194652D01*
X146566455Y-113464060D01*
X146548052Y-113715379D01*
X146528003Y-113943972D01*
X146506763Y-114145200D01*
X146484786Y-114314426D01*
X146462528Y-114447012D01*
X146457471Y-114471583D01*
X146451695Y-114498146D01*
X146446661Y-114513327D01*
X146440984Y-114512558D01*
X146433276Y-114491274D01*
X146422153Y-114444909D01*
X146406228Y-114368896D01*
X146384114Y-114258668D01*
X146367486Y-114175153D01*
X146322724Y-113973677D01*
X146005666Y-113973677D01*
X145992556Y-113974882D01*
X145959236Y-113951098D01*
X145936875Y-113930683D01*
X145869590Y-113878882D01*
X145773156Y-113821987D01*
X145659366Y-113765668D01*
X145540014Y-113715594D01*
X145426892Y-113677436D01*
X145389824Y-113667674D01*
X145307692Y-113652187D01*
X145200752Y-113637700D01*
X145086512Y-113626415D01*
X145032000Y-113622655D01*
X144925520Y-113617799D01*
X144846250Y-113618533D01*
X144779255Y-113626444D01*
X144709602Y-113643124D01*
X144640416Y-113664334D01*
X144539527Y-113701510D01*
X144434628Y-113747797D01*
X144347632Y-113793488D01*
X144344083Y-113795620D01*
X144289259Y-113826943D01*
X144203596Y-113873523D01*
X144094105Y-113931658D01*
X143967799Y-113997646D01*
X143831689Y-114067787D01*
X143740833Y-114114080D01*
X143582235Y-114194672D01*
X143410369Y-114282292D01*
X143237084Y-114370880D01*
X143074229Y-114454376D01*
X142933651Y-114526720D01*
X142896563Y-114545876D01*
X142782144Y-114604557D01*
X142680262Y-114655896D01*
X142596984Y-114696909D01*
X142538375Y-114724616D01*
X142510501Y-114736033D01*
X142509527Y-114736167D01*
X142502904Y-114720953D01*
X142512422Y-114695225D01*
X142523663Y-114653638D01*
X142531567Y-114585086D01*
X142534333Y-114509909D01*
X142534333Y-114365534D01*
X142659915Y-114316839D01*
X142786992Y-114259000D01*
X142931415Y-114179199D01*
X143080415Y-114085222D01*
X143121349Y-114056044D01*
X142818360Y-114056044D01*
X142805680Y-114071546D01*
X142765946Y-114099185D01*
X142710212Y-114132671D01*
X142649534Y-114165710D01*
X142594969Y-114192014D01*
X142557573Y-114205289D01*
X142555500Y-114205620D01*
X142551564Y-114187188D01*
X142551739Y-114137720D01*
X142555500Y-114074711D01*
X142558159Y-114048224D01*
X142466665Y-114048224D01*
X142464928Y-114106297D01*
X142459819Y-114190727D01*
X142451753Y-114293630D01*
X142448396Y-114331589D01*
X142436521Y-114457297D01*
X142424968Y-114543610D01*
X142409913Y-114593264D01*
X142387535Y-114608995D01*
X142354012Y-114593540D01*
X142305521Y-114549632D01*
X142239374Y-114481195D01*
X142182305Y-114417737D01*
X142132667Y-114356104D01*
X142111344Y-114325084D01*
X141992294Y-114325084D01*
X141989691Y-114344794D01*
X141957092Y-114353755D01*
X141916308Y-114355167D01*
X141864566Y-114353598D01*
X141838314Y-114349655D01*
X141837597Y-114347726D01*
X141861795Y-114336519D01*
X141908818Y-114319261D01*
X141913583Y-114317643D01*
X141962355Y-114305463D01*
X141986178Y-114313866D01*
X141992294Y-114325084D01*
X142111344Y-114325084D01*
X142106367Y-114317845D01*
X142069985Y-114255616D01*
X142261924Y-114134629D01*
X142341030Y-114086294D01*
X142406394Y-114049229D01*
X142450248Y-114027659D01*
X142464613Y-114024391D01*
X142466665Y-114048224D01*
X142558159Y-114048224D01*
X142562763Y-114002387D01*
X142572309Y-113963519D01*
X142587857Y-113949252D01*
X142607966Y-113949748D01*
X142655585Y-113964599D01*
X142715777Y-113991267D01*
X142773022Y-114021910D01*
X142811799Y-114048686D01*
X142818360Y-114056044D01*
X143121349Y-114056044D01*
X143221222Y-113984856D01*
X143278811Y-113939435D01*
X143410723Y-113822556D01*
X143554623Y-113679706D01*
X143585773Y-113646083D01*
X143385815Y-113646083D01*
X143241513Y-113778375D01*
X143177147Y-113836200D01*
X143124601Y-113881202D01*
X143091469Y-113906982D01*
X143084466Y-113910667D01*
X143082726Y-113891529D01*
X143088771Y-113840283D01*
X143101362Y-113766180D01*
X143109315Y-113725458D01*
X143126807Y-113639597D01*
X143138866Y-113580879D01*
X143055687Y-113580879D01*
X143049140Y-113636772D01*
X143036193Y-113711757D01*
X143019158Y-113794941D01*
X143000348Y-113875435D01*
X142982073Y-113942348D01*
X142966646Y-113984788D01*
X142960411Y-113993637D01*
X142924553Y-113992891D01*
X142861502Y-113966370D01*
X142813989Y-113939639D01*
X142750571Y-113902995D01*
X142701140Y-113877264D01*
X142677650Y-113868333D01*
X142685769Y-113855818D01*
X142721063Y-113821717D01*
X142777899Y-113771200D01*
X142850643Y-113709434D01*
X142852697Y-113707723D01*
X142928246Y-113645980D01*
X142991293Y-113596598D01*
X143035250Y-113564590D01*
X143053524Y-113554968D01*
X143055687Y-113580879D01*
X143138866Y-113580879D01*
X143141445Y-113568325D01*
X143150938Y-113522777D01*
X143152829Y-113514040D01*
X143172020Y-113510048D01*
X143218943Y-113532375D01*
X143272282Y-113566956D01*
X143385815Y-113646083D01*
X143585773Y-113646083D01*
X143702602Y-113519982D01*
X143846755Y-113352481D01*
X143979173Y-113186301D01*
X144005541Y-113149881D01*
X143848213Y-113149881D01*
X143726546Y-113285908D01*
X143671165Y-113346202D01*
X143627196Y-113391024D01*
X143601445Y-113413566D01*
X143597722Y-113414778D01*
X143597450Y-113391942D01*
X143603645Y-113339019D01*
X143614795Y-113268482D01*
X143624614Y-113221864D01*
X143563346Y-113221864D01*
X143556285Y-113277699D01*
X143541909Y-113349540D01*
X143523080Y-113425253D01*
X143502659Y-113492702D01*
X143483506Y-113539753D01*
X143476110Y-113550987D01*
X143445647Y-113580398D01*
X143417755Y-113589218D01*
X143381444Y-113575720D01*
X143325722Y-113538176D01*
X143306852Y-113524375D01*
X143255081Y-113484365D01*
X143220755Y-113454138D01*
X143212492Y-113443415D01*
X143227921Y-113426749D01*
X143269118Y-113393294D01*
X143327193Y-113349420D01*
X143393256Y-113301500D01*
X143458420Y-113255904D01*
X143513794Y-113219003D01*
X143550491Y-113197169D01*
X143560233Y-113194171D01*
X143563346Y-113221864D01*
X143624614Y-113221864D01*
X143634090Y-113176877D01*
X143656591Y-113122340D01*
X143687662Y-113099658D01*
X143732672Y-113103621D01*
X143770413Y-113117374D01*
X143848213Y-113149881D01*
X144005541Y-113149881D01*
X144091949Y-113030538D01*
X144157142Y-112928950D01*
X144193791Y-112869082D01*
X144037166Y-112869082D01*
X144025377Y-112901148D01*
X143995863Y-112950550D01*
X143957407Y-113005176D01*
X143918792Y-113052916D01*
X143888802Y-113081658D01*
X143880467Y-113085167D01*
X143843904Y-113073531D01*
X143815568Y-113056510D01*
X143798309Y-113040042D01*
X143799580Y-113022633D01*
X143824436Y-112997788D01*
X143877930Y-112959012D01*
X143906772Y-112939305D01*
X143968900Y-112899343D01*
X144014953Y-112873967D01*
X144036528Y-112867702D01*
X144037166Y-112869082D01*
X144193791Y-112869082D01*
X144207657Y-112846432D01*
X144269501Y-112748336D01*
X144330345Y-112654188D01*
X144337698Y-112643015D01*
X144392292Y-112556558D01*
X144421989Y-112497842D01*
X144427966Y-112461257D01*
X144411400Y-112441191D01*
X144381719Y-112433115D01*
X144343832Y-112442434D01*
X144294234Y-112482730D01*
X144245794Y-112536285D01*
X144174576Y-112607588D01*
X144072096Y-112691149D01*
X143945442Y-112781301D01*
X143910166Y-112804639D01*
X143788903Y-112885118D01*
X143643039Y-112984217D01*
X143479111Y-113097304D01*
X143303653Y-113219750D01*
X143123202Y-113346923D01*
X142944293Y-113474194D01*
X142773461Y-113596932D01*
X142617244Y-113710506D01*
X142482175Y-113810287D01*
X142374791Y-113891642D01*
X142362879Y-113900878D01*
X142200155Y-114022151D01*
X142059039Y-114114126D01*
X141933008Y-114179138D01*
X141815535Y-114219523D01*
X141700096Y-114237616D01*
X141580167Y-114235751D01*
X141470282Y-114220304D01*
X141287336Y-114191223D01*
X141137389Y-114178310D01*
X141014419Y-114181317D01*
X140920904Y-114197673D01*
X140840754Y-114214107D01*
X140772308Y-114213857D01*
X140700421Y-114194645D01*
X140609950Y-114154195D01*
X140600546Y-114149519D01*
X140548833Y-114116536D01*
X140477747Y-114061779D01*
X140395302Y-113992510D01*
X140309512Y-113915990D01*
X140228389Y-113839482D01*
X140159946Y-113770248D01*
X140112197Y-113715550D01*
X140097085Y-113693242D01*
X140089785Y-113673446D01*
X140102628Y-113671430D01*
X140142231Y-113688243D01*
X140178258Y-113706119D01*
X140274104Y-113750511D01*
X140376799Y-113791425D01*
X140476655Y-113825715D01*
X140563981Y-113850235D01*
X140629088Y-113861840D01*
X140655049Y-113860930D01*
X140686527Y-113842761D01*
X140737154Y-113803186D01*
X140798657Y-113749911D01*
X140862768Y-113690644D01*
X140921213Y-113633093D01*
X140965722Y-113584965D01*
X140988025Y-113553968D01*
X140989166Y-113549570D01*
X140970642Y-113536282D01*
X140924774Y-113522525D01*
X140911376Y-113519784D01*
X140837347Y-113501914D01*
X140768732Y-113478683D01*
X140715230Y-113454288D01*
X140686536Y-113432929D01*
X140686159Y-113422265D01*
X140713023Y-113412836D01*
X140772692Y-113400275D01*
X140855921Y-113386326D01*
X140939204Y-113374559D01*
X141037162Y-113360608D01*
X141121343Y-113346381D01*
X141181766Y-113333706D01*
X141206754Y-113325651D01*
X141234713Y-113304011D01*
X141285132Y-113259971D01*
X141350075Y-113200600D01*
X141401452Y-113152251D01*
X141473477Y-113083008D01*
X141519256Y-113035513D01*
X141543371Y-113002500D01*
X141550401Y-112976702D01*
X141544929Y-112950854D01*
X141543638Y-112947583D01*
X141412584Y-112947583D01*
X141299140Y-113073778D01*
X141264157Y-113113635D01*
X141236474Y-113144286D01*
X141210203Y-113167823D01*
X141179456Y-113186339D01*
X141138345Y-113201927D01*
X141080983Y-113216679D01*
X141001481Y-113232688D01*
X140893952Y-113252047D01*
X140752508Y-113276848D01*
X140703416Y-113285514D01*
X140611394Y-113302736D01*
X140533767Y-113318964D01*
X140480876Y-113331946D01*
X140464700Y-113337553D01*
X140462717Y-113358530D01*
X140486887Y-113397210D01*
X140529808Y-113445484D01*
X140584082Y-113495239D01*
X140642309Y-113538365D01*
X140655128Y-113546284D01*
X140709876Y-113589745D01*
X140723623Y-113633762D01*
X140697496Y-113683067D01*
X140689742Y-113691707D01*
X140658875Y-113720309D01*
X140626364Y-113735528D01*
X140582308Y-113737969D01*
X140516802Y-113728238D01*
X140424272Y-113707943D01*
X140227586Y-113641474D01*
X140042616Y-113537772D01*
X139915842Y-113437288D01*
X139800450Y-113314296D01*
X139724765Y-113191278D01*
X139686359Y-113064131D01*
X139683768Y-113045340D01*
X139671017Y-112937676D01*
X139834124Y-112758016D01*
X139918978Y-112667970D01*
X139989030Y-112605984D01*
X140055688Y-112566876D01*
X140130359Y-112545461D01*
X140224450Y-112536556D01*
X140324994Y-112534951D01*
X140484592Y-112546313D01*
X140658465Y-112578249D01*
X140836211Y-112627231D01*
X141007427Y-112689730D01*
X141161713Y-112762215D01*
X141288664Y-112841157D01*
X141333167Y-112877013D01*
X141412584Y-112947583D01*
X141543638Y-112947583D01*
X141538564Y-112934739D01*
X141494080Y-112865790D01*
X141418055Y-112788895D01*
X141318667Y-112710759D01*
X141204093Y-112638089D01*
X141128540Y-112598490D01*
X140870868Y-112496695D01*
X140601939Y-112434572D01*
X140404919Y-112414055D01*
X140191089Y-112402073D01*
X140363083Y-112187995D01*
X140464691Y-112058632D01*
X140575989Y-111911907D01*
X140693065Y-111753414D01*
X140812008Y-111588746D01*
X140857008Y-111525132D01*
X140657356Y-111525132D01*
X140656823Y-111526815D01*
X140628249Y-111569947D01*
X140580823Y-111635612D01*
X140518786Y-111718446D01*
X140446376Y-111813082D01*
X140367830Y-111914156D01*
X140287388Y-112016303D01*
X140209289Y-112114157D01*
X140137770Y-112202353D01*
X140077071Y-112275525D01*
X140031429Y-112328310D01*
X140005084Y-112355340D01*
X140000519Y-112357575D01*
X140001168Y-112334067D01*
X140011559Y-112280349D01*
X140029585Y-112206849D01*
X140035179Y-112186088D01*
X140064585Y-112090849D01*
X140099263Y-111995792D01*
X140131776Y-111921279D01*
X140132196Y-111920448D01*
X140161242Y-111861456D01*
X140180360Y-111819424D01*
X140184833Y-111806572D01*
X140168077Y-111801442D01*
X140122642Y-111815216D01*
X140055777Y-111844410D01*
X139974730Y-111885538D01*
X139886749Y-111935116D01*
X139799084Y-111989657D01*
X139785970Y-111998345D01*
X139705561Y-112051584D01*
X139638734Y-112094844D01*
X139592871Y-112123411D01*
X139575571Y-112132667D01*
X139572462Y-112112926D01*
X139574648Y-112058568D01*
X139581463Y-111976886D01*
X139592240Y-111875172D01*
X139606313Y-111760722D01*
X139616176Y-111688167D01*
X139629548Y-111607991D01*
X139647359Y-111545255D01*
X139675754Y-111485824D01*
X139720879Y-111415563D01*
X139756766Y-111364799D01*
X139810755Y-111291043D01*
X139857711Y-111229495D01*
X139890790Y-111189005D01*
X139900375Y-111179094D01*
X139923016Y-111177830D01*
X139955082Y-111208498D01*
X139993298Y-111263220D01*
X140059159Y-111353066D01*
X140130830Y-111429864D01*
X140200450Y-111486575D01*
X140260157Y-111516164D01*
X140278847Y-111518833D01*
X140311539Y-111513410D01*
X140330288Y-111489845D01*
X140342561Y-111437193D01*
X140344936Y-111421941D01*
X140349232Y-111342063D01*
X140338439Y-111279357D01*
X140336298Y-111274201D01*
X140325179Y-111233737D01*
X140338846Y-111196587D01*
X140363926Y-111164718D01*
X140407054Y-111126124D01*
X140435775Y-111126797D01*
X140436248Y-111127250D01*
X140465166Y-111163713D01*
X140503719Y-111222812D01*
X140546660Y-111295039D01*
X140588742Y-111370890D01*
X140624716Y-111440860D01*
X140649337Y-111495442D01*
X140657356Y-111525132D01*
X140857008Y-111525132D01*
X140928906Y-111423496D01*
X140975589Y-111356070D01*
X140751781Y-111356070D01*
X140749607Y-111364897D01*
X140731193Y-111344725D01*
X140696756Y-111294932D01*
X140651052Y-111222783D01*
X140598832Y-111135540D01*
X140593282Y-111126002D01*
X140495635Y-110943219D01*
X140465663Y-110873250D01*
X140248333Y-110873250D01*
X140237750Y-110883833D01*
X140227166Y-110873250D01*
X140237750Y-110862667D01*
X140248333Y-110873250D01*
X140465663Y-110873250D01*
X140418969Y-110764245D01*
X140361025Y-110580234D01*
X140336332Y-110462430D01*
X140232752Y-110462430D01*
X140231882Y-110506958D01*
X140230520Y-110548447D01*
X140225414Y-110609772D01*
X140208591Y-110648265D01*
X140169800Y-110680674D01*
X140137208Y-110700884D01*
X140034047Y-110776154D01*
X139924653Y-110879456D01*
X139820159Y-111000214D01*
X139814416Y-111007617D01*
X139777125Y-111051928D01*
X139751415Y-111074866D01*
X139745007Y-111075026D01*
X139749027Y-111049763D01*
X139764696Y-110994308D01*
X139789177Y-110918246D01*
X139805267Y-110871396D01*
X139882701Y-110673838D01*
X139963032Y-110515462D01*
X140047908Y-110393132D01*
X140069734Y-110368137D01*
X140109461Y-110320147D01*
X140130937Y-110284719D01*
X140131755Y-110273366D01*
X140107631Y-110275414D01*
X140058416Y-110294031D01*
X140008923Y-110317961D01*
X139922212Y-110360683D01*
X139837653Y-110397650D01*
X139763464Y-110425836D01*
X139707860Y-110442216D01*
X139679060Y-110443761D01*
X139676833Y-110440273D01*
X139692222Y-110411967D01*
X139698339Y-110407373D01*
X139719306Y-110384702D01*
X139756743Y-110335646D01*
X139803892Y-110269214D01*
X139823256Y-110240834D01*
X139876878Y-110164334D01*
X139918020Y-110115816D01*
X139955926Y-110086927D01*
X139999837Y-110069312D01*
X140018709Y-110064169D01*
X140086615Y-110046288D01*
X140143973Y-110030185D01*
X140156314Y-110026446D01*
X140178196Y-110021981D01*
X140192603Y-110030223D01*
X140202152Y-110058671D01*
X140209460Y-110114828D01*
X140216599Y-110199278D01*
X140224478Y-110300289D01*
X140229498Y-110370329D01*
X140232107Y-110420632D01*
X140232752Y-110462430D01*
X140336332Y-110462430D01*
X140319544Y-110382339D01*
X140292266Y-110161714D01*
X140276933Y-109909511D01*
X140276020Y-109883708D01*
X140271152Y-109762911D01*
X140265370Y-109658241D01*
X140259173Y-109576422D01*
X140253061Y-109524177D01*
X140248068Y-109508000D01*
X140233284Y-109528030D01*
X140220904Y-109583631D01*
X140211805Y-109668067D01*
X140206865Y-109774603D01*
X140206233Y-109828749D01*
X140206000Y-109990747D01*
X140094875Y-109999368D01*
X140031040Y-110003199D01*
X139987128Y-110003729D01*
X139975687Y-110002168D01*
X139978471Y-109981406D01*
X139995630Y-109937582D01*
X140000616Y-109926798D01*
X140050758Y-109801025D01*
X140089197Y-109657059D01*
X140117250Y-109488031D01*
X140136236Y-109287069D01*
X140141873Y-109190500D01*
X140158311Y-108954427D01*
X140164403Y-108904750D01*
X140032364Y-108904750D01*
X140016491Y-109127000D01*
X140007162Y-109226925D01*
X139993521Y-109334288D01*
X139977059Y-109440954D01*
X139959265Y-109538787D01*
X139941631Y-109619652D01*
X139925644Y-109675414D01*
X139912797Y-109697938D01*
X139911896Y-109698059D01*
X139895023Y-109681425D01*
X139861932Y-109637776D01*
X139819138Y-109575811D01*
X139809717Y-109561573D01*
X139775089Y-109506219D01*
X139747570Y-109453623D01*
X139724228Y-109395147D01*
X139702129Y-109322151D01*
X139678340Y-109225994D01*
X139649930Y-109098038D01*
X139645675Y-109078295D01*
X139620935Y-108961937D01*
X139599766Y-108859851D01*
X139583631Y-108779295D01*
X139573991Y-108727528D01*
X139571896Y-108712073D01*
X139588751Y-108689642D01*
X139629583Y-108657304D01*
X139643868Y-108647834D01*
X139714944Y-108602586D01*
X139807014Y-108701399D01*
X139868392Y-108764108D01*
X139930096Y-108822166D01*
X139965723Y-108852481D01*
X140032364Y-108904750D01*
X140164403Y-108904750D01*
X140182500Y-108757194D01*
X140214919Y-108595934D01*
X140256048Y-108467783D01*
X140267394Y-108441360D01*
X140294542Y-108393887D01*
X140335835Y-108335043D01*
X140384245Y-108273211D01*
X140432748Y-108216771D01*
X140474316Y-108174106D01*
X140501923Y-108153595D01*
X140508188Y-108154124D01*
X140519267Y-108177989D01*
X140539291Y-108228676D01*
X140554595Y-108269750D01*
X140586829Y-108350416D01*
X140627643Y-108442566D01*
X140652837Y-108495175D01*
X140712472Y-108614767D01*
X140629968Y-108603700D01*
X140569403Y-108601165D01*
X140526695Y-108619442D01*
X140492701Y-108651724D01*
X140448898Y-108709417D01*
X140415807Y-108779533D01*
X140392307Y-108867965D01*
X140377278Y-108980604D01*
X140369601Y-109123343D01*
X140368156Y-109302073D01*
X140368189Y-109306917D01*
X140374492Y-109555324D01*
X140390730Y-109789746D01*
X140418414Y-110018921D01*
X140459056Y-110251582D01*
X140514167Y-110496467D01*
X140585257Y-110762310D01*
X140667675Y-111038062D01*
X140700827Y-111148305D01*
X140726970Y-111242339D01*
X140744492Y-111313736D01*
X140751781Y-111356070D01*
X140975589Y-111356070D01*
X141039849Y-111263258D01*
X141140924Y-111113624D01*
X141228220Y-110980189D01*
X141297827Y-110868546D01*
X141345832Y-110784287D01*
X141349081Y-110778000D01*
X141384824Y-110674213D01*
X141405313Y-110538745D01*
X141411345Y-110379088D01*
X141409832Y-110344083D01*
X141264333Y-110344083D01*
X141253750Y-110354667D01*
X141243166Y-110344083D01*
X141253750Y-110333500D01*
X141264333Y-110344083D01*
X141409832Y-110344083D01*
X141403856Y-110205903D01*
X141242523Y-110205903D01*
X141239889Y-110241030D01*
X141229902Y-110237691D01*
X141220304Y-110222375D01*
X141182104Y-110189938D01*
X141134293Y-110192518D01*
X141089037Y-110228828D01*
X141083382Y-110236859D01*
X141055276Y-110301247D01*
X141030890Y-110396565D01*
X141011371Y-110511486D01*
X140997867Y-110634684D01*
X140991526Y-110754834D01*
X140993494Y-110860609D01*
X141004921Y-110940684D01*
X141010316Y-110957871D01*
X141019697Y-111010633D01*
X140997230Y-111059120D01*
X140994441Y-111062902D01*
X140964210Y-111095703D01*
X140944429Y-111104438D01*
X140936955Y-111081500D01*
X140926564Y-111025258D01*
X140914708Y-110944515D01*
X140904294Y-110860880D01*
X140888606Y-110643477D01*
X140889069Y-110421412D01*
X140890847Y-110385312D01*
X140896384Y-110281404D01*
X140898183Y-110211450D01*
X140895216Y-110167153D01*
X140886451Y-110140220D01*
X140870860Y-110122356D01*
X140856899Y-110111906D01*
X140822229Y-110091226D01*
X140805793Y-110101417D01*
X140795879Y-110137147D01*
X140788628Y-110187435D01*
X140782236Y-110263928D01*
X140778035Y-110350502D01*
X140777911Y-110354667D01*
X140773528Y-110453661D01*
X140766636Y-110555084D01*
X140759494Y-110629833D01*
X140745675Y-110746250D01*
X140676910Y-110471083D01*
X140624399Y-110242765D01*
X140586006Y-110029721D01*
X140560027Y-109817879D01*
X140544755Y-109593165D01*
X140538484Y-109341507D01*
X140538377Y-109328083D01*
X140537855Y-109181838D01*
X140539025Y-109071121D01*
X140542363Y-108989146D01*
X140548342Y-108929125D01*
X140557438Y-108884270D01*
X140570125Y-108847794D01*
X140572316Y-108842742D01*
X140609182Y-108759567D01*
X140689806Y-108838294D01*
X140754409Y-108914237D01*
X140827508Y-109021317D01*
X140904266Y-109150490D01*
X140979846Y-109292716D01*
X141049414Y-109438951D01*
X141108131Y-109580153D01*
X141146968Y-109693005D01*
X141154478Y-109723817D01*
X141144398Y-109728710D01*
X141107932Y-109709834D01*
X141099001Y-109704717D01*
X141053484Y-109682206D01*
X141020699Y-109683077D01*
X140980386Y-109705956D01*
X140932999Y-109750554D01*
X140891885Y-109810610D01*
X140888202Y-109817961D01*
X140866578Y-109867531D01*
X140864959Y-109895017D01*
X140884073Y-109916025D01*
X140893084Y-109922758D01*
X140940968Y-109949648D01*
X140965299Y-109943954D01*
X140968000Y-109930588D01*
X140978733Y-109898348D01*
X141002427Y-109856135D01*
X141030738Y-109821537D01*
X141055008Y-109820443D01*
X141069253Y-109830421D01*
X141099142Y-109868327D01*
X141136557Y-109933463D01*
X141175546Y-110012928D01*
X141210155Y-110093823D01*
X141234431Y-110163248D01*
X141242523Y-110205903D01*
X141403856Y-110205903D01*
X141403718Y-110202731D01*
X141383231Y-110017167D01*
X141350681Y-109829885D01*
X141306865Y-109648378D01*
X141252582Y-109480135D01*
X141196908Y-109349250D01*
X141178021Y-109309234D01*
X141173880Y-109293243D01*
X141188000Y-109303337D01*
X141223894Y-109341576D01*
X141268142Y-109390999D01*
X141312908Y-109441143D01*
X141380815Y-109517063D01*
X141466730Y-109613027D01*
X141565522Y-109723305D01*
X141672056Y-109842166D01*
X141770473Y-109951916D01*
X141981554Y-110189489D01*
X142168337Y-110404851D01*
X142336847Y-110605329D01*
X142493114Y-110798247D01*
X142643163Y-110990933D01*
X142793024Y-111190712D01*
X142820784Y-111228455D01*
X142912657Y-111352848D01*
X142983654Y-111446144D01*
X143037323Y-111511820D01*
X143077215Y-111553354D01*
X143106877Y-111574225D01*
X143129859Y-111577912D01*
X143149709Y-111567893D01*
X143158719Y-111559686D01*
X143169282Y-111544765D01*
X143174287Y-111522224D01*
X143172888Y-111486219D01*
X143164236Y-111430904D01*
X143147483Y-111350434D01*
X143121782Y-111238965D01*
X143097377Y-111136711D01*
X143064714Y-110999212D01*
X142891697Y-110999212D01*
X142889213Y-111005884D01*
X142876225Y-110995407D01*
X142849439Y-110964088D01*
X142805563Y-110908232D01*
X142741303Y-110824146D01*
X142698268Y-110767417D01*
X142580211Y-110616534D01*
X142434062Y-110438454D01*
X142259338Y-110232609D01*
X142055558Y-109998436D01*
X141822238Y-109735369D01*
X141728747Y-109631065D01*
X141560000Y-109442328D01*
X141417077Y-109279957D01*
X141296676Y-109139594D01*
X141195496Y-109016882D01*
X141110237Y-108907465D01*
X141037597Y-108806984D01*
X140974276Y-108711084D01*
X140916973Y-108615406D01*
X140862386Y-108515594D01*
X140817971Y-108428873D01*
X140764623Y-108319882D01*
X140731179Y-108243165D01*
X140717191Y-108193873D01*
X140722209Y-108167161D01*
X140745786Y-108158181D01*
X140787473Y-108162087D01*
X140793375Y-108163138D01*
X140899794Y-108197933D01*
X141013737Y-108265943D01*
X141139037Y-108369620D01*
X141186073Y-108414579D01*
X141252270Y-108484138D01*
X141319539Y-108562089D01*
X141381698Y-108640353D01*
X141432568Y-108710847D01*
X141465965Y-108765491D01*
X141476000Y-108793626D01*
X141458941Y-108796770D01*
X141416297Y-108784689D01*
X141398667Y-108777756D01*
X141347490Y-108759557D01*
X141315176Y-108753985D01*
X141311447Y-108755331D01*
X141313203Y-108768299D01*
X141329453Y-108798511D01*
X141361642Y-108847949D01*
X141411217Y-108918596D01*
X141479627Y-109012434D01*
X141568316Y-109131446D01*
X141678734Y-109277616D01*
X141812326Y-109452924D01*
X141970539Y-109659355D01*
X141984349Y-109677333D01*
X142160370Y-109906738D01*
X142312033Y-110105092D01*
X142441031Y-110274712D01*
X142549057Y-110417916D01*
X142637807Y-110537021D01*
X142708972Y-110634343D01*
X142764247Y-110712200D01*
X142805326Y-110772909D01*
X142833902Y-110818786D01*
X142851669Y-110852148D01*
X142860321Y-110875313D01*
X142860449Y-110875840D01*
X142875527Y-110936269D01*
X142886967Y-110979083D01*
X142891697Y-110999212D01*
X143064714Y-110999212D01*
X143061410Y-110985308D01*
X143019994Y-110808083D01*
X142976717Y-110620572D01*
X142935168Y-110438312D01*
X142904477Y-110301750D01*
X142874461Y-110168745D01*
X142839871Y-110018317D01*
X142802062Y-109856096D01*
X142762387Y-109687708D01*
X142722202Y-109518784D01*
X142682860Y-109354951D01*
X142645716Y-109201838D01*
X142612124Y-109065072D01*
X142583439Y-108950284D01*
X142561014Y-108863100D01*
X142546205Y-108809149D01*
X142542561Y-108797694D01*
X142547194Y-108797152D01*
X142570929Y-108826805D01*
X142609800Y-108881351D01*
X142654274Y-108947083D01*
X142834547Y-109196315D01*
X143049804Y-109454538D01*
X143295304Y-109716110D01*
X143328936Y-109749810D01*
X143553234Y-109973023D01*
X143509711Y-110147970D01*
X143482833Y-110279758D01*
X143460121Y-110436256D01*
X143442904Y-110603064D01*
X143432508Y-110765782D01*
X143430264Y-110910009D01*
X143433129Y-110978259D01*
X143439119Y-111067145D01*
X143446104Y-111179679D01*
X143452945Y-111297227D01*
X143455784Y-111348876D01*
X143464013Y-111457902D01*
X143475014Y-111536818D01*
X143487978Y-111580475D01*
X143493136Y-111586676D01*
X143546990Y-111611743D01*
X143630489Y-111640191D01*
X143731494Y-111668605D01*
X143837867Y-111693571D01*
X143937333Y-111711652D01*
X144102462Y-111722136D01*
X144292115Y-111710865D01*
X144495589Y-111679557D01*
X144702178Y-111629933D01*
X144901178Y-111563711D01*
X144930452Y-111552154D01*
X145006807Y-111523974D01*
X145052949Y-111514360D01*
X145076033Y-111521988D01*
X145078107Y-111524787D01*
X145074449Y-111550705D01*
X145041905Y-111568222D01*
X145001810Y-111594116D01*
X144989713Y-111642828D01*
X144989666Y-111647597D01*
X144987204Y-111691455D01*
X144981400Y-111709333D01*
X144958694Y-111714317D01*
X144904311Y-111727725D01*
X144827525Y-111747245D01*
X144773625Y-111761170D01*
X144664725Y-111786502D01*
X144531665Y-111812923D01*
X144385259Y-111838734D01*
X144236318Y-111862235D01*
X144095657Y-111881723D01*
X143974087Y-111895499D01*
X143882423Y-111901863D01*
X143878416Y-111901965D01*
X143836669Y-111903863D01*
X143826833Y-111907634D01*
X143851693Y-111914190D01*
X143914034Y-111924443D01*
X143973666Y-111933192D01*
X144172373Y-111960433D01*
X144338575Y-111979926D01*
X144481285Y-111992193D01*
X144609517Y-111997754D01*
X144732284Y-111997131D01*
X144858600Y-111990845D01*
X144907774Y-111987209D01*
X145017645Y-111977860D01*
X145098350Y-111973008D01*
X145157325Y-111977281D01*
X145202005Y-111995303D01*
X145239828Y-112031701D01*
X145278230Y-112091101D01*
X145324647Y-112178129D01*
X145376866Y-112279018D01*
X145538392Y-112612272D01*
X145689949Y-112972856D01*
X145825712Y-113345972D01*
X145932949Y-113692146D01*
X145960588Y-113791902D01*
X145983397Y-113877645D01*
X145999148Y-113940753D01*
X146005616Y-113972606D01*
X146005666Y-113973677D01*
X146322724Y-113973677D01*
X146298296Y-113863731D01*
X146214453Y-113546841D01*
X146118531Y-113231689D01*
X146013105Y-112925479D01*
X145900748Y-112635418D01*
X145784034Y-112368711D01*
X145665539Y-112132564D01*
X145591788Y-112003809D01*
X145555313Y-111939225D01*
X145532144Y-111889135D01*
X145526923Y-111863691D01*
X145527396Y-111863048D01*
X145552963Y-111862880D01*
X145600230Y-111878756D01*
X145615067Y-111885456D01*
X145700367Y-111915241D01*
X145767238Y-111916408D01*
X145809578Y-111888983D01*
X145812230Y-111884665D01*
X145830582Y-111861614D01*
X145856629Y-111862571D01*
X145892657Y-111879373D01*
X145932222Y-111907787D01*
X145995115Y-111962492D01*
X146076323Y-112038329D01*
X146170832Y-112130143D01*
X146273629Y-112232777D01*
X146379702Y-112341073D01*
X146484037Y-112449875D01*
X146581621Y-112554026D01*
X146667441Y-112648369D01*
X146736483Y-112727748D01*
X146783735Y-112787005D01*
X146801347Y-112814113D01*
X146846425Y-112895092D01*
X146908238Y-112995524D01*
X146981292Y-113107513D01*
X147060092Y-113223164D01*
X147139146Y-113334580D01*
X147212958Y-113433867D01*
X147276035Y-113513128D01*
X147322883Y-113564468D01*
X147324566Y-113566037D01*
X147403695Y-113627210D01*
X147478205Y-113663703D01*
X147496590Y-113668397D01*
X147558701Y-113686521D01*
X147592308Y-113715883D01*
X147598113Y-113762083D01*
X148136356Y-113762083D01*
X148140698Y-113718245D01*
X148141768Y-113631526D01*
X148139039Y-113530242D01*
X148132584Y-113405720D01*
X148121695Y-113308392D01*
X148103880Y-113223163D01*
X148076648Y-113134938D01*
X148071222Y-113119455D01*
X148041652Y-113031470D01*
X148025793Y-112965484D01*
X148021449Y-112904264D01*
X148026425Y-112830577D01*
X148030147Y-112797053D01*
X148048250Y-112641447D01*
X148135652Y-112724883D01*
X148168101Y-112756931D01*
X148192761Y-112787049D01*
X148211174Y-112821752D01*
X148224886Y-112867555D01*
X148235438Y-112930975D01*
X148244374Y-113018526D01*
X148253238Y-113136723D01*
X148261101Y-113254500D01*
X148271022Y-113360712D01*
X148286067Y-113471914D01*
X148303131Y-113565440D01*
X148304610Y-113572000D01*
X148317933Y-113647580D01*
X148323964Y-113720071D01*
X148532920Y-113720071D01*
X148553845Y-113640961D01*
X148569953Y-113585393D01*
X148581187Y-113557231D01*
X148590309Y-113549662D01*
X148600086Y-113555869D01*
X148600768Y-113556546D01*
X149188646Y-113556546D01*
X149180748Y-113544978D01*
X149117516Y-113470352D01*
X149029723Y-113375371D01*
X148926658Y-113266561D01*
X148667133Y-112992872D01*
X148680483Y-112832644D01*
X148691283Y-112672745D01*
X148698850Y-112505203D01*
X148185833Y-112505203D01*
X148171556Y-112505875D01*
X148137081Y-112487991D01*
X148094940Y-112459844D01*
X148057666Y-112429726D01*
X148038664Y-112407833D01*
X148029454Y-112372888D01*
X148019412Y-112307893D01*
X148010322Y-112225051D01*
X148008015Y-112198138D01*
X147988737Y-112034702D01*
X147956894Y-111851757D01*
X147915814Y-111664304D01*
X147868824Y-111487342D01*
X147819251Y-111335872D01*
X147813203Y-111319905D01*
X147782756Y-111238138D01*
X147760369Y-111172487D01*
X147749002Y-111131949D01*
X147748620Y-111123490D01*
X147767370Y-111131359D01*
X147804521Y-111160797D01*
X147819297Y-111174252D01*
X147846012Y-111204287D01*
X147870143Y-111244689D01*
X147894508Y-111302509D01*
X147921923Y-111384797D01*
X147955207Y-111498601D01*
X147969705Y-111550583D01*
X147994417Y-111643796D01*
X148022840Y-111757234D01*
X148053303Y-111883519D01*
X148084135Y-112015270D01*
X148113665Y-112145109D01*
X148140223Y-112265655D01*
X148162137Y-112369530D01*
X148177738Y-112449354D01*
X148185355Y-112497748D01*
X148185833Y-112505203D01*
X148698850Y-112505203D01*
X148699632Y-112487902D01*
X148705360Y-112289438D01*
X148708294Y-112088672D01*
X148708265Y-111896928D01*
X148705101Y-111725525D01*
X148699195Y-111594310D01*
X148680180Y-111299369D01*
X148759450Y-111051846D01*
X148831417Y-110805550D01*
X148898832Y-110533031D01*
X148957840Y-110250395D01*
X148978462Y-110136758D01*
X149027722Y-109785930D01*
X149060329Y-109404555D01*
X149069512Y-109173914D01*
X148904137Y-109173914D01*
X148902911Y-109246992D01*
X148898533Y-109349250D01*
X148875749Y-109648679D01*
X148836888Y-109963822D01*
X148784516Y-110278127D01*
X148721202Y-110575042D01*
X148688385Y-110703917D01*
X148642630Y-110873250D01*
X148624439Y-110756833D01*
X148613696Y-110693829D01*
X148596622Y-110600355D01*
X148575280Y-110487434D01*
X148551735Y-110366088D01*
X148543206Y-110322917D01*
X148480605Y-110032874D01*
X148405616Y-109732881D01*
X148316123Y-109415254D01*
X148210013Y-109072312D01*
X148141769Y-108864013D01*
X148091045Y-108711394D01*
X148052658Y-108593799D01*
X148025402Y-108506143D01*
X148008073Y-108443340D01*
X147999466Y-108400306D01*
X147998377Y-108371956D01*
X148003601Y-108353203D01*
X148013932Y-108338964D01*
X148016679Y-108336028D01*
X148039829Y-108314944D01*
X148063007Y-108309611D01*
X148098245Y-108321630D01*
X148157573Y-108352600D01*
X148162841Y-108355466D01*
X148239751Y-108399596D01*
X148283587Y-108433485D01*
X148299622Y-108464834D01*
X148293126Y-108501342D01*
X148281026Y-108528087D01*
X148259883Y-108602299D01*
X148262823Y-108695300D01*
X148273005Y-108750687D01*
X148291566Y-108795368D01*
X148325812Y-108840841D01*
X148383049Y-108898603D01*
X148405412Y-108919688D01*
X148516981Y-109013634D01*
X148623987Y-109084149D01*
X148721329Y-109129072D01*
X148803903Y-109146244D01*
X148866607Y-109133507D01*
X148882783Y-109121708D01*
X148894455Y-109116789D01*
X148901446Y-109132352D01*
X148904137Y-109173914D01*
X149069512Y-109173914D01*
X149076400Y-109000955D01*
X149076052Y-108583452D01*
X149059401Y-108160371D01*
X149026562Y-107740034D01*
X148977654Y-107330762D01*
X148935464Y-107064100D01*
X148923530Y-106984192D01*
X148917998Y-106921136D01*
X148919693Y-106885746D01*
X148921583Y-106882260D01*
X148947851Y-106871472D01*
X149005187Y-106853699D01*
X149083525Y-106831960D01*
X149127750Y-106820463D01*
X149273825Y-106779012D01*
X149425553Y-106728410D01*
X149574263Y-106672212D01*
X149711283Y-106613972D01*
X149827942Y-106557245D01*
X149915568Y-106505587D01*
X149926160Y-106497773D01*
X149493119Y-106497773D01*
X149486749Y-106526098D01*
X149443154Y-106535982D01*
X149363180Y-106527505D01*
X149247671Y-106500742D01*
X149122553Y-106463793D01*
X148346143Y-106239580D01*
X147558125Y-106054715D01*
X146756702Y-105908866D01*
X145940074Y-105801697D01*
X145233083Y-105740796D01*
X145058151Y-105731513D01*
X144861463Y-105724990D01*
X144649428Y-105721125D01*
X144428453Y-105719815D01*
X144204946Y-105720959D01*
X143985316Y-105724456D01*
X143775970Y-105730203D01*
X143583317Y-105738098D01*
X143413765Y-105748040D01*
X143273721Y-105759926D01*
X143169953Y-105773593D01*
X143123683Y-105783334D01*
X143114311Y-105793479D01*
X143136766Y-105809973D01*
X143138203Y-105810818D01*
X143174837Y-105820063D01*
X143250469Y-105828823D01*
X143361764Y-105836853D01*
X143505388Y-105843906D01*
X143656166Y-105849117D01*
X143953954Y-105863847D01*
X144243352Y-105891341D01*
X144531972Y-105933059D01*
X144827426Y-105990462D01*
X145137325Y-106065010D01*
X145469280Y-106158165D01*
X145794000Y-106259383D01*
X146179245Y-106390418D01*
X146531127Y-106522893D01*
X146847539Y-106655909D01*
X147126372Y-106788568D01*
X147365516Y-106919972D01*
X147413250Y-106949032D01*
X147520025Y-107014658D01*
X147642887Y-107089096D01*
X147761292Y-107159932D01*
X147804833Y-107185670D01*
X147882513Y-107232869D01*
X147968223Y-107287374D01*
X148055438Y-107344711D01*
X148137632Y-107400408D01*
X148208278Y-107449992D01*
X148260851Y-107488990D01*
X148288824Y-107512930D01*
X148290206Y-107518333D01*
X148266874Y-107512881D01*
X148210828Y-107497972D01*
X148130061Y-107475779D01*
X148032565Y-107448474D01*
X148015621Y-107443684D01*
X147800496Y-107373007D01*
X147582214Y-107280583D01*
X147466166Y-107223869D01*
X146925743Y-106965458D01*
X146374114Y-106732883D01*
X145819844Y-106529380D01*
X145271495Y-106358185D01*
X144947333Y-106271936D01*
X144788597Y-106233889D01*
X144636132Y-106199764D01*
X144493470Y-106170074D01*
X144364140Y-106145333D01*
X144251673Y-106126054D01*
X144159601Y-106112751D01*
X144091452Y-106105938D01*
X144050758Y-106106128D01*
X144041050Y-106113836D01*
X144065857Y-106129574D01*
X144123686Y-106152108D01*
X144377258Y-106254899D01*
X144648620Y-106390995D01*
X144933753Y-106557414D01*
X145228638Y-106751178D01*
X145529256Y-106969307D01*
X145831588Y-107208822D01*
X146131616Y-107466744D01*
X146425320Y-107740092D01*
X146708681Y-108025887D01*
X146837376Y-108163917D01*
X147029084Y-108380663D01*
X147231182Y-108621569D01*
X147433385Y-108873856D01*
X147625407Y-109124741D01*
X147767463Y-109319625D01*
X147848238Y-109434983D01*
X147933031Y-109558866D01*
X148018132Y-109685566D01*
X148099828Y-109809373D01*
X148174407Y-109924577D01*
X148238157Y-110025468D01*
X148287366Y-110106337D01*
X148318321Y-110161472D01*
X148326482Y-110179506D01*
X148319683Y-110175021D01*
X148293086Y-110139844D01*
X148250041Y-110078731D01*
X148193897Y-109996432D01*
X148129245Y-109899583D01*
X147866851Y-109513789D01*
X147610873Y-109160840D01*
X147355138Y-108833164D01*
X147093470Y-108523186D01*
X146819695Y-108223336D01*
X146527638Y-107926040D01*
X146489609Y-107888750D01*
X146198733Y-107611550D01*
X145924719Y-107365268D01*
X145661693Y-107145109D01*
X145403780Y-106946281D01*
X145145106Y-106763992D01*
X144974673Y-106652670D01*
X144816162Y-106556614D01*
X144648550Y-106462954D01*
X144479207Y-106375213D01*
X144315503Y-106296914D01*
X144164807Y-106231583D01*
X144034491Y-106182743D01*
X143931923Y-106153918D01*
X143931333Y-106153797D01*
X143905190Y-106151140D01*
X143906400Y-106160557D01*
X143937749Y-106184415D01*
X144002022Y-106225080D01*
X144047750Y-106252678D01*
X144430841Y-106498154D01*
X144815609Y-106775960D01*
X145191671Y-107077844D01*
X145548650Y-107395557D01*
X145816386Y-107658532D01*
X146005513Y-107864829D01*
X146203912Y-108102267D01*
X146405462Y-108362549D01*
X146604045Y-108637380D01*
X146793542Y-108918464D01*
X146967832Y-109197506D01*
X147031197Y-109305436D01*
X147104757Y-109436794D01*
X147181782Y-109580702D01*
X147259743Y-109731806D01*
X147336107Y-109884751D01*
X147408345Y-110034182D01*
X147473924Y-110174744D01*
X147530314Y-110301082D01*
X147574984Y-110407841D01*
X147605402Y-110489666D01*
X147619038Y-110541203D01*
X147619473Y-110550034D01*
X147627652Y-110585951D01*
X147651483Y-110646396D01*
X147686002Y-110718925D01*
X147689764Y-110726197D01*
X147725233Y-110797853D01*
X147751126Y-110857041D01*
X147762374Y-110892070D01*
X147762500Y-110893973D01*
X147745622Y-110897469D01*
X147701319Y-110884449D01*
X147639087Y-110859108D01*
X147568421Y-110825644D01*
X147498817Y-110788251D01*
X147440723Y-110751794D01*
X147405817Y-110734771D01*
X147393828Y-110749543D01*
X147404679Y-110797468D01*
X147433953Y-110870172D01*
X147583195Y-111236597D01*
X147697870Y-111584236D01*
X147778908Y-111917373D01*
X147827241Y-112240289D01*
X147843799Y-112557266D01*
X147839428Y-112735917D01*
X147832920Y-112844580D01*
X147825292Y-112946093D01*
X147817553Y-113028230D01*
X147811485Y-113074583D01*
X147796720Y-113159250D01*
X147778409Y-113074583D01*
X147764175Y-113008101D01*
X147752456Y-112952275D01*
X147750847Y-112944421D01*
X147733879Y-112904879D01*
X147693963Y-112834751D01*
X147633461Y-112737382D01*
X147554740Y-112616117D01*
X147460164Y-112474301D01*
X147352098Y-112315278D01*
X147232907Y-112142394D01*
X147104955Y-111958992D01*
X147092906Y-111941899D01*
X146245555Y-111941899D01*
X146216897Y-111930624D01*
X146213805Y-111925956D01*
X146195395Y-111904406D01*
X146150986Y-111859667D01*
X146086043Y-111796874D01*
X146006032Y-111721161D01*
X145916418Y-111637661D01*
X145822666Y-111551508D01*
X145730243Y-111467835D01*
X145652285Y-111398517D01*
X145571236Y-111324657D01*
X145521744Y-111272919D01*
X145501272Y-111240334D01*
X145504404Y-111225786D01*
X145523504Y-111229198D01*
X145562920Y-111256298D01*
X145624486Y-111308698D01*
X145710036Y-111388011D01*
X145821404Y-111495849D01*
X145899833Y-111573376D01*
X146000409Y-111674318D01*
X146088641Y-111764718D01*
X146160796Y-111840594D01*
X146213138Y-111897966D01*
X146241933Y-111932853D01*
X146245555Y-111941899D01*
X147092906Y-111941899D01*
X146970609Y-111768419D01*
X146832231Y-111574018D01*
X146692189Y-111379135D01*
X146579744Y-111224180D01*
X145166342Y-111224180D01*
X145160120Y-111241664D01*
X145122056Y-111270921D01*
X145059613Y-111307990D01*
X144980249Y-111348915D01*
X144891428Y-111389735D01*
X144800609Y-111426493D01*
X144753547Y-111443198D01*
X144658473Y-111471662D01*
X144546009Y-111500345D01*
X144429711Y-111526280D01*
X144323136Y-111546498D01*
X144239842Y-111558034D01*
X144223248Y-111559267D01*
X144204620Y-111555995D01*
X144203225Y-111537657D01*
X144220370Y-111495691D01*
X144238616Y-111458561D01*
X144277967Y-111364191D01*
X144313218Y-111251407D01*
X144339887Y-111137340D01*
X144353492Y-111039120D01*
X144354354Y-111016186D01*
X144347653Y-110965402D01*
X144318793Y-110934936D01*
X144285875Y-110919260D01*
X144217083Y-110891064D01*
X144201301Y-111040464D01*
X144174621Y-111213373D01*
X144135233Y-111351307D01*
X144083935Y-111452726D01*
X144021526Y-111516089D01*
X143948805Y-111539855D01*
X143942265Y-111540000D01*
X143885434Y-111533674D01*
X143806742Y-111517182D01*
X143732479Y-111496816D01*
X143592666Y-111453632D01*
X143592732Y-111254250D01*
X143629741Y-111326748D01*
X143673576Y-111396527D01*
X143715695Y-111426223D01*
X143760500Y-111417642D01*
X143792107Y-111393376D01*
X143842807Y-111321859D01*
X143881969Y-111219392D01*
X143908392Y-111096075D01*
X143920877Y-110962010D01*
X143918226Y-110827297D01*
X143899239Y-110702038D01*
X143881435Y-110640935D01*
X143841262Y-110546782D01*
X143800888Y-110493674D01*
X143757574Y-110480401D01*
X143708582Y-110505751D01*
X143668631Y-110546791D01*
X143633837Y-110586523D01*
X143618303Y-110595656D01*
X143614530Y-110576393D01*
X143614611Y-110562666D01*
X143621191Y-110488258D01*
X143636739Y-110400729D01*
X143657975Y-110313253D01*
X143681621Y-110239004D01*
X143704397Y-110191157D01*
X143708331Y-110186165D01*
X143725969Y-110169013D01*
X143744400Y-110162927D01*
X143770641Y-110171046D01*
X143811712Y-110196508D01*
X143874631Y-110242453D01*
X143933027Y-110286655D01*
X144014826Y-110349501D01*
X144069504Y-110395327D01*
X144103806Y-110432517D01*
X144124473Y-110469457D01*
X144138250Y-110514530D01*
X144146754Y-110552392D01*
X144164932Y-110624475D01*
X144186230Y-110668410D01*
X144219550Y-110697989D01*
X144252624Y-110716434D01*
X144302998Y-110741398D01*
X144334439Y-110755595D01*
X144338508Y-110756833D01*
X144340831Y-110738089D01*
X144338703Y-110691015D01*
X144336775Y-110668473D01*
X144328349Y-110580113D01*
X144442049Y-110662175D01*
X144643644Y-110810795D01*
X144846849Y-110966327D01*
X145038021Y-111118184D01*
X145166342Y-111224180D01*
X146579744Y-111224180D01*
X146552846Y-111187114D01*
X146473482Y-111078902D01*
X145372102Y-111078902D01*
X145368409Y-111087636D01*
X145341273Y-111112287D01*
X145331033Y-111116160D01*
X145310776Y-111103417D01*
X145263577Y-111068588D01*
X145195399Y-111016223D01*
X145112202Y-110950871D01*
X145060635Y-110909785D01*
X144943325Y-110817264D01*
X144807414Y-110712285D01*
X144668759Y-110606981D01*
X144543218Y-110513484D01*
X144528693Y-110502833D01*
X144421447Y-110423292D01*
X144343192Y-110361976D01*
X144287950Y-110313250D01*
X144249745Y-110271476D01*
X144222601Y-110231019D01*
X144206149Y-110198679D01*
X144139069Y-110081050D01*
X144060365Y-109987881D01*
X143975691Y-109923926D01*
X143890695Y-109893939D01*
X143843867Y-109893926D01*
X143800710Y-109897867D01*
X143783166Y-109894819D01*
X143793067Y-109870387D01*
X143817110Y-109826699D01*
X143846805Y-109777731D01*
X143873661Y-109737460D01*
X143889189Y-109719864D01*
X143889460Y-109719830D01*
X143908865Y-109733314D01*
X143955671Y-109771497D01*
X144025793Y-109830784D01*
X144115144Y-109907578D01*
X144219636Y-109998285D01*
X144335183Y-110099308D01*
X144457699Y-110207052D01*
X144583096Y-110317921D01*
X144707289Y-110428320D01*
X144826191Y-110534652D01*
X144935714Y-110633322D01*
X145031774Y-110720735D01*
X145110281Y-110793295D01*
X145122293Y-110804556D01*
X145222569Y-110899948D01*
X145294357Y-110971248D01*
X145340988Y-111022286D01*
X145365793Y-111056894D01*
X145372102Y-111078902D01*
X146473482Y-111078902D01*
X146416567Y-111001300D01*
X146285717Y-110825039D01*
X146162662Y-110661674D01*
X146049765Y-110514551D01*
X145949392Y-110387014D01*
X145896462Y-110321648D01*
X145836644Y-110243100D01*
X145784603Y-110164585D01*
X145749095Y-110099651D01*
X145742503Y-110083523D01*
X145725396Y-110030465D01*
X145718295Y-109998777D01*
X145719278Y-109994833D01*
X145735257Y-110010861D01*
X145773212Y-110055787D01*
X145829414Y-110124871D01*
X145900136Y-110213374D01*
X145981648Y-110316559D01*
X146070223Y-110429685D01*
X146162131Y-110548014D01*
X146253645Y-110666807D01*
X146341035Y-110781326D01*
X146410403Y-110873250D01*
X146563444Y-111080776D01*
X146733535Y-111317543D01*
X146915800Y-111576574D01*
X147105367Y-111850895D01*
X147297360Y-112133533D01*
X147434940Y-112339138D01*
X147512012Y-112454495D01*
X147581042Y-112556701D01*
X147638703Y-112640919D01*
X147681667Y-112702316D01*
X147706607Y-112736057D01*
X147711518Y-112741037D01*
X147709587Y-112718798D01*
X147698776Y-112664131D01*
X147681175Y-112585493D01*
X147658874Y-112491342D01*
X147633962Y-112390137D01*
X147608529Y-112290337D01*
X147584663Y-112200400D01*
X147564454Y-112128784D01*
X147549992Y-112083949D01*
X147547965Y-112078921D01*
X147510019Y-111999180D01*
X147452837Y-111889264D01*
X147379703Y-111754843D01*
X147293903Y-111601589D01*
X147198720Y-111435173D01*
X147097439Y-111261265D01*
X146993345Y-111085537D01*
X146889720Y-110913659D01*
X146789851Y-110751303D01*
X146697022Y-110604140D01*
X146665815Y-110555750D01*
X146526138Y-110344176D01*
X146378775Y-110127357D01*
X146227240Y-109910053D01*
X146075046Y-109697025D01*
X145925704Y-109493033D01*
X145782729Y-109302839D01*
X145649633Y-109131202D01*
X145627453Y-109103720D01*
X144905296Y-109103720D01*
X144825773Y-109076409D01*
X144777317Y-109050742D01*
X144708248Y-109002481D01*
X144628137Y-108938715D01*
X144562934Y-108881674D01*
X144485512Y-108810363D01*
X144435881Y-108762026D01*
X144410278Y-108731414D01*
X144404940Y-108713280D01*
X144416103Y-108702377D01*
X144430299Y-108696725D01*
X144458685Y-108692101D01*
X144490271Y-108701586D01*
X144532899Y-108729722D01*
X144594408Y-108781049D01*
X144629221Y-108811924D01*
X144703842Y-108881200D01*
X144774104Y-108950682D01*
X144828225Y-109008582D01*
X144841379Y-109024183D01*
X144905296Y-109103720D01*
X145627453Y-109103720D01*
X145529929Y-108982885D01*
X145427130Y-108862647D01*
X145373347Y-108804208D01*
X145328263Y-108753846D01*
X145302027Y-108717776D01*
X145300204Y-108703672D01*
X145300441Y-108703667D01*
X145345577Y-108711198D01*
X145414668Y-108730604D01*
X145494058Y-108757101D01*
X145570090Y-108785906D01*
X145629107Y-108812237D01*
X145653999Y-108827493D01*
X145700569Y-108876030D01*
X145766910Y-108956389D01*
X145850256Y-109064557D01*
X145947839Y-109196520D01*
X146056894Y-109348267D01*
X146174651Y-109515785D01*
X146298345Y-109695060D01*
X146425209Y-109882079D01*
X146552475Y-110072831D01*
X146677377Y-110263301D01*
X146797146Y-110449478D01*
X146909018Y-110627348D01*
X147010223Y-110792898D01*
X147016808Y-110803874D01*
X147084375Y-110915736D01*
X147144530Y-111013588D01*
X147193967Y-111092197D01*
X147229384Y-111146332D01*
X147247477Y-111170762D01*
X147248999Y-111171556D01*
X147244523Y-111149291D01*
X147224593Y-111094765D01*
X147191852Y-111013990D01*
X147148945Y-110912975D01*
X147098517Y-110797729D01*
X147043211Y-110674263D01*
X146985672Y-110548587D01*
X146928543Y-110426710D01*
X146874470Y-110314641D01*
X146852294Y-110269922D01*
X146558198Y-109729570D01*
X146224099Y-109202831D01*
X146002802Y-108891096D01*
X145898216Y-108757683D01*
X145767242Y-108603419D01*
X145615980Y-108434593D01*
X145450529Y-108257497D01*
X145276988Y-108078423D01*
X145101455Y-107903661D01*
X144930029Y-107739503D01*
X144768809Y-107592239D01*
X144623895Y-107468162D01*
X144621264Y-107466009D01*
X144403490Y-107298552D01*
X144156757Y-107127164D01*
X143892890Y-106959276D01*
X143623709Y-106802319D01*
X143361038Y-106663724D01*
X143289061Y-106628644D01*
X142965095Y-106487895D01*
X142651680Y-106379620D01*
X142351154Y-106304176D01*
X142065857Y-106261919D01*
X141798129Y-106253203D01*
X141550308Y-106278386D01*
X141340543Y-106332268D01*
X141285605Y-106355335D01*
X141215495Y-106390544D01*
X141138566Y-106432906D01*
X141063173Y-106477433D01*
X140997670Y-106519135D01*
X140950411Y-106553025D01*
X140929750Y-106574113D01*
X140930126Y-106577348D01*
X140954251Y-106577971D01*
X141002035Y-106567951D01*
X141011735Y-106565245D01*
X141182923Y-106526063D01*
X141383803Y-106497023D01*
X141602877Y-106478499D01*
X141828646Y-106470865D01*
X142049611Y-106474498D01*
X142254274Y-106489770D01*
X142431135Y-106517057D01*
X142439083Y-106518753D01*
X142815019Y-106621280D01*
X143189552Y-106765402D01*
X143561151Y-106950377D01*
X143928284Y-107175468D01*
X144195916Y-107367220D01*
X144389855Y-107520740D01*
X144589839Y-107689552D01*
X144783914Y-107863110D01*
X144960125Y-108030866D01*
X145042583Y-108114229D01*
X145127237Y-108203444D01*
X145216288Y-108299727D01*
X145305077Y-108397762D01*
X145388944Y-108492235D01*
X145463231Y-108577833D01*
X145523278Y-108649242D01*
X145564425Y-108701149D01*
X145582015Y-108728238D01*
X145582333Y-108729824D01*
X145563927Y-108728723D01*
X145515181Y-108716419D01*
X145445802Y-108695431D01*
X145429618Y-108690188D01*
X145352825Y-108666051D01*
X145290452Y-108648305D01*
X145254441Y-108640316D01*
X145252066Y-108640167D01*
X145228620Y-108625598D01*
X145183036Y-108585912D01*
X145121844Y-108527137D01*
X145051577Y-108455301D01*
X145050239Y-108453893D01*
X144958688Y-108360066D01*
X144847326Y-108249895D01*
X144723361Y-108130155D01*
X144594000Y-108007619D01*
X144466452Y-107889058D01*
X144347926Y-107781247D01*
X144245627Y-107690957D01*
X144175578Y-107632041D01*
X143968996Y-107476346D01*
X143738989Y-107323060D01*
X143496182Y-107178230D01*
X143251204Y-107047905D01*
X143014680Y-106938133D01*
X142829467Y-106865938D01*
X142600521Y-106796917D01*
X142355287Y-106742307D01*
X142104844Y-106703542D01*
X141860272Y-106682052D01*
X141632653Y-106679272D01*
X141475063Y-106690883D01*
X141359891Y-106706931D01*
X141261967Y-106724589D01*
X141188156Y-106742303D01*
X141145323Y-106758524D01*
X141137333Y-106767232D01*
X141144999Y-106789171D01*
X141163913Y-106835454D01*
X141187950Y-106891821D01*
X141210984Y-106944013D01*
X141226890Y-106977768D01*
X141230075Y-106983131D01*
X141251750Y-106989362D01*
X141305903Y-107001859D01*
X141383500Y-107018594D01*
X141445703Y-107031496D01*
X141861044Y-107136319D01*
X142278996Y-107281003D01*
X142694921Y-107463698D01*
X143104181Y-107682558D01*
X143154439Y-107712246D01*
X143250474Y-107769325D01*
X143343467Y-107824140D01*
X143421572Y-107869734D01*
X143465666Y-107895058D01*
X143552128Y-107948650D01*
X143663538Y-108024909D01*
X143792970Y-108118646D01*
X143933494Y-108224674D01*
X144078183Y-108337802D01*
X144220108Y-108452843D01*
X144301750Y-108521217D01*
X144365250Y-108575144D01*
X144294265Y-108575905D01*
X144255780Y-108571014D01*
X144211586Y-108552667D01*
X144154387Y-108516578D01*
X144076888Y-108458459D01*
X144027350Y-108419079D01*
X143798299Y-108241821D01*
X143557325Y-108068047D01*
X143313421Y-107903699D01*
X143075580Y-107754714D01*
X142852797Y-107627035D01*
X142735416Y-107565778D01*
X142570980Y-107487809D01*
X142393570Y-107411094D01*
X142209715Y-107337850D01*
X142025940Y-107270294D01*
X141848775Y-107210643D01*
X141684745Y-107161114D01*
X141540379Y-107123924D01*
X141422205Y-107101290D01*
X141349796Y-107095148D01*
X141324583Y-107097289D01*
X141319725Y-107108185D01*
X141338283Y-107134253D01*
X141383322Y-107181912D01*
X141398676Y-107197543D01*
X141526056Y-107306088D01*
X141692853Y-107414094D01*
X141896161Y-107520109D01*
X142133073Y-107622685D01*
X142400684Y-107720370D01*
X142531283Y-107762638D01*
X142655416Y-107802626D01*
X142743912Y-107836781D01*
X142801884Y-107870735D01*
X142834447Y-107910119D01*
X142846714Y-107960564D01*
X142843799Y-108027702D01*
X142834143Y-108096133D01*
X142817404Y-108198090D01*
X142797056Y-108315173D01*
X142778754Y-108415320D01*
X142766931Y-108476066D01*
X142759824Y-108523537D01*
X142760665Y-108563578D01*
X142772690Y-108602031D01*
X142799134Y-108644740D01*
X142843230Y-108697551D01*
X142908213Y-108766305D01*
X142997317Y-108856847D01*
X143056023Y-108916269D01*
X143270795Y-109134083D01*
X143227132Y-109217852D01*
X143201619Y-109291930D01*
X143207352Y-109345413D01*
X143238547Y-109373028D01*
X143289422Y-109369501D01*
X143351828Y-109331571D01*
X143412968Y-109280125D01*
X143743714Y-109582179D01*
X143686452Y-109684632D01*
X143629191Y-109787085D01*
X143440019Y-109599917D01*
X143192548Y-109338353D01*
X142938961Y-109037205D01*
X142678518Y-108695578D01*
X142608031Y-108597833D01*
X142508191Y-108458460D01*
X142429573Y-108350341D01*
X142369340Y-108269898D01*
X142324654Y-108213553D01*
X142292679Y-108177729D01*
X142270576Y-108158848D01*
X142255509Y-108153333D01*
X142255477Y-108153333D01*
X142240716Y-108172896D01*
X142238200Y-108229098D01*
X142247425Y-108318212D01*
X142267887Y-108436508D01*
X142299084Y-108580258D01*
X142330058Y-108705764D01*
X142420785Y-109057112D01*
X142271184Y-109029295D01*
X142176593Y-109010150D01*
X142063180Y-108984947D01*
X141953006Y-108958620D01*
X141936024Y-108954346D01*
X141750465Y-108907215D01*
X141664193Y-108747232D01*
X141570238Y-108591684D01*
X141465055Y-108449686D01*
X141352692Y-108324250D01*
X141237194Y-108218388D01*
X141122607Y-108135110D01*
X141012978Y-108077426D01*
X140912352Y-108048349D01*
X140824776Y-108050889D01*
X140765670Y-108078577D01*
X140724281Y-108103197D01*
X140700494Y-108110327D01*
X140685185Y-108091492D01*
X140664304Y-108040460D01*
X140641307Y-107966392D01*
X140630191Y-107923972D01*
X140610317Y-107839040D01*
X140598429Y-107770349D01*
X140593819Y-107704410D01*
X140595777Y-107627734D01*
X140603594Y-107526830D01*
X140607229Y-107487100D01*
X140613593Y-107412500D01*
X140502333Y-107412500D01*
X140494589Y-107429922D01*
X140488222Y-107426611D01*
X140485689Y-107401491D01*
X140488222Y-107398389D01*
X140500806Y-107401294D01*
X140502333Y-107412500D01*
X140613593Y-107412500D01*
X140615590Y-107389094D01*
X140621107Y-107307605D01*
X140623300Y-107251207D01*
X140621736Y-107228514D01*
X140604458Y-107237246D01*
X140573513Y-107270096D01*
X140568246Y-107276656D01*
X140542219Y-107305556D01*
X140527667Y-107309362D01*
X140524683Y-107284757D01*
X140533363Y-107228429D01*
X140553800Y-107137060D01*
X140569349Y-107073969D01*
X140380877Y-107073969D01*
X140370895Y-107140365D01*
X140361814Y-107182494D01*
X140345173Y-107279013D01*
X140331844Y-107400603D01*
X140322247Y-107536230D01*
X140316803Y-107674857D01*
X140315935Y-107805451D01*
X140320063Y-107916975D01*
X140329608Y-107998395D01*
X140330505Y-108002752D01*
X140343279Y-108068800D01*
X140342685Y-108111060D01*
X140324267Y-108147126D01*
X140283570Y-108194594D01*
X140281292Y-108197116D01*
X140218430Y-108274072D01*
X140169571Y-108353841D01*
X140129931Y-108447058D01*
X140094729Y-108564357D01*
X140070136Y-108666625D01*
X140054798Y-108708734D01*
X140038225Y-108724833D01*
X140015509Y-108710179D01*
X139974247Y-108671812D01*
X139924782Y-108619570D01*
X139853315Y-108535567D01*
X139763805Y-108423248D01*
X139661516Y-108289641D01*
X139551711Y-108141771D01*
X139439653Y-107986663D01*
X139330605Y-107831344D01*
X139290057Y-107772271D01*
X139141270Y-107544202D01*
X139005199Y-107316272D01*
X138885173Y-107094894D01*
X138784518Y-106886484D01*
X138706562Y-106697457D01*
X138661864Y-106561249D01*
X138629293Y-106473373D01*
X138579583Y-106395144D01*
X138521027Y-106328416D01*
X138422519Y-106206270D01*
X138325202Y-106049447D01*
X138232767Y-105865528D01*
X138148904Y-105662096D01*
X138077303Y-105446732D01*
X138057387Y-105375804D01*
X138029400Y-105269345D01*
X138012971Y-105200147D01*
X138007941Y-105164792D01*
X138014153Y-105159860D01*
X138031448Y-105181935D01*
X138049788Y-105211167D01*
X138095726Y-105279761D01*
X138146625Y-105346382D01*
X138150251Y-105350701D01*
X138194939Y-105405670D01*
X138232553Y-105455602D01*
X138236881Y-105461826D01*
X138268135Y-105497087D01*
X138290681Y-105506060D01*
X138295702Y-105487318D01*
X138290308Y-105470458D01*
X138266964Y-105402865D01*
X138242401Y-105309456D01*
X138215744Y-105186184D01*
X138186120Y-105029006D01*
X138152656Y-104833874D01*
X138152042Y-104830167D01*
X138128515Y-104692752D01*
X138103878Y-104557175D01*
X138080149Y-104433978D01*
X138059346Y-104333706D01*
X138046273Y-104277495D01*
X137934326Y-103908595D01*
X137789935Y-103549208D01*
X137617552Y-103209493D01*
X137478996Y-102983375D01*
X137328044Y-102755833D01*
X137400688Y-102755833D01*
X137526382Y-102762199D01*
X137681762Y-102780000D01*
X137856350Y-102807289D01*
X138039669Y-102842118D01*
X138221243Y-102882541D01*
X138390594Y-102926612D01*
X138502083Y-102960493D01*
X138595691Y-102994081D01*
X138678115Y-103031503D01*
X138756655Y-103077834D01*
X138838611Y-103138150D01*
X138931284Y-103217527D01*
X139041975Y-103321040D01*
X139096324Y-103373645D01*
X139330731Y-103602077D01*
X139322957Y-103364163D01*
X139315183Y-103126250D01*
X139380289Y-103276502D01*
X139422462Y-103366363D01*
X139477214Y-103472867D01*
X139534576Y-103576830D01*
X139550762Y-103604585D01*
X139649537Y-103775284D01*
X139727583Y-103921065D01*
X139788724Y-104051499D01*
X139836783Y-104176156D01*
X139875581Y-104304606D01*
X139908942Y-104446419D01*
X139930404Y-104555000D01*
X139953585Y-104686257D01*
X139979732Y-104846523D01*
X140006846Y-105022767D01*
X140032930Y-105201958D01*
X140055987Y-105371064D01*
X140058587Y-105391083D01*
X140098883Y-105687666D01*
X140140512Y-105964472D01*
X140182811Y-106218051D01*
X140225116Y-106444954D01*
X140266766Y-106641734D01*
X140307096Y-106804941D01*
X140345445Y-106931127D01*
X140364017Y-106980093D01*
X140378529Y-107025609D01*
X140380877Y-107073969D01*
X140569349Y-107073969D01*
X140574600Y-107052667D01*
X140642516Y-106829347D01*
X140735004Y-106593820D01*
X140846074Y-106358322D01*
X140969736Y-106135089D01*
X140976619Y-106124588D01*
X140745477Y-106124588D01*
X140743458Y-106147821D01*
X140727641Y-106194382D01*
X140703978Y-106250156D01*
X140678420Y-106301026D01*
X140658263Y-106331455D01*
X140641385Y-106324066D01*
X140621592Y-106301557D01*
X140582566Y-106274063D01*
X140556746Y-106276580D01*
X140529274Y-106302897D01*
X140532499Y-106337642D01*
X140562099Y-106365460D01*
X140583543Y-106371726D01*
X140618907Y-106385667D01*
X140619385Y-106414059D01*
X140605595Y-106449333D01*
X140580502Y-106512086D01*
X140548799Y-106590600D01*
X140538392Y-106616238D01*
X140470583Y-106783059D01*
X140426243Y-106595071D01*
X140404618Y-106502043D01*
X140385340Y-106416722D01*
X140371587Y-106353253D01*
X140368564Y-106338292D01*
X140363686Y-106289696D01*
X140376706Y-106270872D01*
X140387408Y-106269500D01*
X140431442Y-106252101D01*
X140477329Y-106209675D01*
X140512181Y-106156880D01*
X140523500Y-106114743D01*
X140525632Y-106085233D01*
X140539087Y-106073240D01*
X140574448Y-106075975D01*
X140627584Y-106087337D01*
X140690209Y-106103417D01*
X140734313Y-106118387D01*
X140745477Y-106124588D01*
X140976619Y-106124588D01*
X141100000Y-105936357D01*
X141159580Y-105857676D01*
X141359048Y-105636500D01*
X141594135Y-105425601D01*
X141858666Y-105228520D01*
X142146466Y-105048801D01*
X142451359Y-104889987D01*
X142767171Y-104755619D01*
X143087726Y-104649241D01*
X143391583Y-104577228D01*
X143467756Y-104562730D01*
X143532632Y-104550095D01*
X143563617Y-104543830D01*
X143564542Y-104554397D01*
X143536909Y-104591035D01*
X143483177Y-104651007D01*
X143405806Y-104731573D01*
X143307256Y-104829995D01*
X143301440Y-104835705D01*
X143197565Y-104939321D01*
X143094999Y-105044699D01*
X143001131Y-105144024D01*
X142923352Y-105229482D01*
X142870418Y-105291547D01*
X142798974Y-105384283D01*
X142736493Y-105472141D01*
X142687064Y-105548662D01*
X142654777Y-105607389D01*
X142643720Y-105641863D01*
X142645461Y-105646850D01*
X142666823Y-105641234D01*
X142713257Y-105616654D01*
X142775061Y-105578290D01*
X142780324Y-105574817D01*
X142992254Y-105444654D01*
X143194436Y-105343943D01*
X143400784Y-105267036D01*
X143625213Y-105208283D01*
X143738542Y-105185763D01*
X143819475Y-105171946D01*
X143897156Y-105161218D01*
X143978615Y-105153199D01*
X144070884Y-105147510D01*
X144180993Y-105143771D01*
X144315975Y-105141601D01*
X144482861Y-105140622D01*
X144576916Y-105140462D01*
X144854978Y-105143208D01*
X145117116Y-105152607D01*
X145367721Y-105169710D01*
X145611183Y-105195567D01*
X145851893Y-105231228D01*
X146094241Y-105277744D01*
X146342618Y-105336165D01*
X146601414Y-105407541D01*
X146875019Y-105492922D01*
X147167824Y-105593359D01*
X147484219Y-105709902D01*
X147828595Y-105843602D01*
X148205342Y-105995507D01*
X148281083Y-106026571D01*
X148443324Y-106092255D01*
X148610422Y-106158100D01*
X148773228Y-106220630D01*
X148922594Y-106276368D01*
X149049371Y-106321840D01*
X149127750Y-106348285D01*
X149255209Y-106389544D01*
X149348050Y-106420372D01*
X149412014Y-106443116D01*
X149452842Y-106460125D01*
X149476274Y-106473749D01*
X149488051Y-106486335D01*
X149493119Y-106497773D01*
X149926160Y-106497773D01*
X149940266Y-106487367D01*
X149976675Y-106442894D01*
X149977091Y-106404926D01*
X149964655Y-106384906D01*
X149936859Y-106368741D01*
X149886312Y-106354027D01*
X149805620Y-106338362D01*
X149738242Y-106327282D01*
X149647335Y-106309109D01*
X149529757Y-106280111D01*
X149394718Y-106243115D01*
X149251429Y-106200946D01*
X149109100Y-106156430D01*
X148976941Y-106112394D01*
X148864163Y-106071664D01*
X148779977Y-106037067D01*
X148758316Y-106026592D01*
X148718489Y-105985271D01*
X148677687Y-105902511D01*
X148636123Y-105779186D01*
X148594006Y-105616173D01*
X148551546Y-105414349D01*
X148508954Y-105174590D01*
X148466440Y-104897771D01*
X148446684Y-104754328D01*
X148296529Y-104754328D01*
X148295128Y-104855749D01*
X148289039Y-104925079D01*
X148275912Y-105016821D01*
X148257754Y-105125731D01*
X148236108Y-105244345D01*
X148212517Y-105365202D01*
X148188524Y-105480838D01*
X148165673Y-105583791D01*
X148145507Y-105666598D01*
X148129568Y-105721797D01*
X148120176Y-105741666D01*
X148093898Y-105738907D01*
X148036544Y-105722362D01*
X147956076Y-105694631D01*
X147860453Y-105658310D01*
X147841108Y-105650604D01*
X147722645Y-105604098D01*
X147580407Y-105549855D01*
X147430624Y-105493981D01*
X147289527Y-105442581D01*
X147261697Y-105432634D01*
X147122027Y-105384301D01*
X146967125Y-105332940D01*
X146814194Y-105284128D01*
X146680437Y-105243444D01*
X146658447Y-105237046D01*
X146376083Y-105155668D01*
X146338305Y-105008792D01*
X146321690Y-104927178D01*
X146305583Y-104818429D01*
X146291990Y-104697718D01*
X146283928Y-104597333D01*
X146267328Y-104332750D01*
X146406372Y-103941167D01*
X146545416Y-103549583D01*
X146561402Y-103729500D01*
X146571368Y-103837825D01*
X146582528Y-103953322D01*
X146592572Y-104052119D01*
X146593152Y-104057583D01*
X146608916Y-104205750D01*
X146675959Y-104004667D01*
X146729567Y-103813460D01*
X146763043Y-103617960D01*
X146776112Y-103413222D01*
X146768500Y-103194302D01*
X146739930Y-102956258D01*
X146690129Y-102694144D01*
X146618821Y-102403018D01*
X146578841Y-102258417D01*
X146555477Y-102170494D01*
X146539713Y-102099109D01*
X146533282Y-102052992D01*
X146535579Y-102040253D01*
X146567973Y-102045934D01*
X146629424Y-102073232D01*
X146714522Y-102119187D01*
X146817855Y-102180838D01*
X146934012Y-102255226D01*
X146959069Y-102271882D01*
X147203541Y-102460487D01*
X147423256Y-102681221D01*
X147615667Y-102930175D01*
X147778225Y-103203437D01*
X147908380Y-103497096D01*
X148003584Y-103807242D01*
X148026268Y-103909417D01*
X148047446Y-104004092D01*
X148071426Y-104095811D01*
X148093360Y-104166166D01*
X148095325Y-104171506D01*
X148130222Y-104264262D01*
X148156707Y-104139756D01*
X148177145Y-104051299D01*
X148200244Y-103962192D01*
X148212415Y-103920000D01*
X148222952Y-103887626D01*
X148230927Y-103871868D01*
X148237020Y-103876992D01*
X148241911Y-103907262D01*
X148246282Y-103966943D01*
X148250813Y-104060299D01*
X148256185Y-104191596D01*
X148256326Y-104195167D01*
X148262284Y-104324874D01*
X148269410Y-104447814D01*
X148277040Y-104554395D01*
X148284509Y-104635022D01*
X148289320Y-104671079D01*
X148296529Y-104754328D01*
X148446684Y-104754328D01*
X148438180Y-104692583D01*
X148430561Y-104617033D01*
X148422757Y-104507738D01*
X148415218Y-104373283D01*
X148408393Y-104222252D01*
X148402732Y-104063228D01*
X148399959Y-103962585D01*
X148395772Y-103797159D01*
X148391887Y-103669198D01*
X148387844Y-103573837D01*
X148383184Y-103506216D01*
X148377448Y-103461471D01*
X148370177Y-103434739D01*
X148360911Y-103421159D01*
X148349191Y-103415867D01*
X148348300Y-103415688D01*
X148299231Y-103423904D01*
X148251966Y-103469320D01*
X148204679Y-103554013D01*
X148183847Y-103603121D01*
X148155993Y-103668065D01*
X148132504Y-103713669D01*
X148119268Y-103729500D01*
X148107387Y-103710775D01*
X148094426Y-103663649D01*
X148089875Y-103639542D01*
X148061631Y-103522266D01*
X148013402Y-103380440D01*
X147949112Y-103224448D01*
X147872687Y-103064676D01*
X147872626Y-103064557D01*
X147709555Y-102792592D01*
X147511775Y-102542230D01*
X147282732Y-102316733D01*
X147025870Y-102119361D01*
X146744635Y-101953377D01*
X146650688Y-101907717D01*
X146539350Y-101859478D01*
X146458305Y-101832981D01*
X146401887Y-101827628D01*
X146364429Y-101842824D01*
X146364429Y-101842824D01*
G37*
X146364429Y-101842824D02*
X146341517Y-101875145D01*
X146334459Y-101902068D01*
X146334989Y-101941167D01*
X146344258Y-101998865D01*
X146363416Y-102081584D01*
X146393614Y-102195747D01*
X146408819Y-102250854D01*
X146487417Y-102543771D01*
X146549570Y-102798047D01*
X146595347Y-103014021D01*
X146624817Y-103192030D01*
X146638046Y-103332415D01*
X146638635Y-103387073D01*
X146636915Y-103430063D01*
X146633132Y-103439418D01*
X146624736Y-103412449D01*
X146612098Y-103359083D01*
X146592429Y-103292151D01*
X146569420Y-103257755D01*
X146542250Y-103246775D01*
X146510522Y-103250684D01*
X146486286Y-103279332D01*
X146464871Y-103331441D01*
X146386748Y-103555133D01*
X146312584Y-103770234D01*
X146243599Y-103973023D01*
X146181015Y-104159775D01*
X146126050Y-104326767D01*
X146079927Y-104470275D01*
X146043864Y-104586577D01*
X146019083Y-104671948D01*
X146006804Y-104722665D01*
X146005667Y-104732454D01*
X145994521Y-104760244D01*
X145964900Y-104812818D01*
X145922525Y-104880225D01*
X145908717Y-104901052D01*
X145857616Y-104974011D01*
X145821043Y-105016437D01*
X145792405Y-105034488D01*
X145765842Y-105034502D01*
X145668224Y-105016941D01*
X145535181Y-105001738D01*
X145373559Y-104988996D01*
X145190208Y-104978817D01*
X144991975Y-104971305D01*
X144785708Y-104966562D01*
X144578255Y-104964691D01*
X144376463Y-104965795D01*
X144187180Y-104969976D01*
X144017255Y-104977337D01*
X143873534Y-104987981D01*
X143762866Y-105002011D01*
X143750369Y-105004257D01*
X143581781Y-105040966D01*
X143417807Y-105085626D01*
X143276404Y-105133297D01*
X143264583Y-105137887D01*
X143266913Y-105128770D01*
X143296237Y-105094200D01*
X143348944Y-105037966D01*
X143421419Y-104963860D01*
X143510051Y-104875674D01*
X143574171Y-104813028D01*
X143675224Y-104713605D01*
X143765925Y-104621789D01*
X143841799Y-104542322D01*
X143898368Y-104479947D01*
X143931156Y-104439405D01*
X143937412Y-104428207D01*
X143933089Y-104384102D01*
X143907785Y-104342387D01*
X143873514Y-104322270D01*
X143871078Y-104322166D01*
X143830488Y-104326387D01*
X143757018Y-104337945D01*
X143659159Y-104355190D01*
X143545397Y-104376467D01*
X143424223Y-104400125D01*
X143304124Y-104424510D01*
X143193589Y-104447969D01*
X143101107Y-104468851D01*
X143042333Y-104483527D01*
X142720244Y-104587389D01*
X142393405Y-104724082D01*
X142074072Y-104887666D01*
X141774495Y-105072202D01*
X141656607Y-105155191D01*
X141530297Y-105247888D01*
X141296773Y-105029700D01*
X141128864Y-104876524D01*
X140935051Y-104706055D01*
X140723913Y-104525554D01*
X140504028Y-104342285D01*
X140283977Y-104163510D01*
X140121333Y-104034667D01*
X140011515Y-103948199D01*
X139929358Y-103881324D01*
X139868892Y-103827922D01*
X139824147Y-103781877D01*
X139789152Y-103737071D01*
X139757938Y-103687386D01*
X139726148Y-103629722D01*
X139664564Y-103510039D01*
X139595802Y-103368655D01*
X139524703Y-103216252D01*
X139456108Y-103063514D01*
X139394856Y-102921123D01*
X139345788Y-102799764D01*
X139326015Y-102746604D01*
X139296848Y-102672832D01*
X139269735Y-102618761D01*
X139249367Y-102593333D01*
X139245194Y-102592652D01*
X139213876Y-102624425D01*
X139190774Y-102694394D01*
X139176486Y-102799113D01*
X139171611Y-102935137D01*
X139172768Y-103009833D01*
X139180009Y-103253250D01*
X139077921Y-103152865D01*
X138904875Y-103008190D01*
X138701721Y-102885476D01*
X138467078Y-102784261D01*
X138199568Y-102704085D01*
X137897810Y-102644488D01*
X137560426Y-102605007D01*
X137405152Y-102594164D01*
X137163015Y-102580335D01*
X137127062Y-102635206D01*
X137112966Y-102657399D01*
X137104992Y-102677686D01*
X137105629Y-102701377D01*
X137117371Y-102733782D01*
X137142707Y-102780212D01*
X137184130Y-102845977D01*
X137244129Y-102936388D01*
X137323943Y-103054896D01*
X137440266Y-103235825D01*
X137543101Y-103415269D01*
X137635908Y-103601002D01*
X137722147Y-103800800D01*
X137805277Y-104022437D01*
X137888758Y-104273687D01*
X137939062Y-104437248D01*
X137983952Y-104589716D01*
X138018611Y-104713627D01*
X138042686Y-104807162D01*
X138055824Y-104868502D01*
X138057675Y-104895830D01*
X138047884Y-104887327D01*
X138026100Y-104841175D01*
X138009496Y-104800641D01*
X137963598Y-104699766D01*
X137922057Y-104639945D01*
X137883962Y-104620227D01*
X137851791Y-104636065D01*
X137838540Y-104671329D01*
X137830141Y-104739403D01*
X137826556Y-104831048D01*
X137827748Y-104937024D01*
X137833681Y-105048091D01*
X137844317Y-105155010D01*
X137854130Y-105220142D01*
X137902764Y-105431326D01*
X137973043Y-105649533D01*
X138060592Y-105865135D01*
X138161038Y-106068504D01*
X138270007Y-106250011D01*
X138383127Y-106400029D01*
X138397407Y-106416161D01*
X138429438Y-106453910D01*
X138453416Y-106490935D01*
X138472442Y-106536062D01*
X138489618Y-106598120D01*
X138508046Y-106685939D01*
X138526106Y-106782491D01*
X138581210Y-107053090D01*
X138648197Y-107324368D01*
X138729391Y-107604005D01*
X138827113Y-107899682D01*
X138943687Y-108219078D01*
X139020733Y-108417917D01*
X139107101Y-108632445D01*
X139184699Y-108814643D01*
X139257568Y-108972529D01*
X139329746Y-109114121D01*
X139405273Y-109247438D01*
X139488189Y-109380499D01*
X139560026Y-109488436D01*
X139630821Y-109592170D01*
X139696351Y-109687654D01*
X139751634Y-109767672D01*
X139791691Y-109825007D01*
X139808191Y-109848033D01*
X139851391Y-109906465D01*
X139781855Y-110030024D01*
X139651965Y-110236848D01*
X139503643Y-110423882D01*
X139437511Y-110495977D01*
X139363683Y-110582238D01*
X139325652Y-110646740D01*
X139322442Y-110688693D01*
X139353073Y-110707308D01*
X139416570Y-110701796D01*
X139511955Y-110671366D01*
X139604923Y-110631206D01*
X139697811Y-110587994D01*
X139757816Y-110561336D01*
X139790240Y-110549514D01*
X139800384Y-110550809D01*
X139793553Y-110563502D01*
X139786437Y-110572373D01*
X139751976Y-110629517D01*
X139712312Y-110721118D01*
X139669638Y-110839952D01*
X139626148Y-110978796D01*
X139584036Y-111130424D01*
X139545494Y-111287613D01*
X139512718Y-111443138D01*
X139499038Y-111518841D01*
X139483857Y-111620020D01*
X139469381Y-111737126D01*
X139456288Y-111861830D01*
X139445255Y-111985800D01*
X139436958Y-112100709D01*
X139432076Y-112198225D01*
X139431286Y-112270018D01*
X139434958Y-112306856D01*
X139462860Y-112338670D01*
X139512199Y-112339399D01*
X139576848Y-112310087D01*
X139625398Y-112274396D01*
X139710638Y-112204472D01*
X139792323Y-112140548D01*
X139864619Y-112086821D01*
X139921694Y-112047490D01*
X139957712Y-112026753D01*
X139966913Y-112028635D01*
X139943960Y-112093871D01*
X139915970Y-112185455D01*
X139887150Y-112288425D01*
X139861709Y-112387817D01*
X139845395Y-112460750D01*
X139829710Y-112525662D01*
X139807649Y-112579799D01*
X139772438Y-112634815D01*
X139717303Y-112702369D01*
X139681187Y-112743325D01*
X139542238Y-112898901D01*
X139567364Y-113018492D01*
X139583806Y-113094244D01*
X139599000Y-113160138D01*
X139606190Y-113188802D01*
X139611785Y-113223541D01*
X139594682Y-113232581D01*
X139558403Y-113226823D01*
X139514460Y-113220132D01*
X139438514Y-113210960D01*
X139340738Y-113200452D01*
X139231306Y-113189750D01*
X139216458Y-113188377D01*
X138911157Y-113176292D01*
X138583464Y-113193005D01*
X138241227Y-113237693D01*
X137892294Y-113309528D01*
X137772426Y-113340286D01*
X137695705Y-113362288D01*
X137639016Y-113381052D01*
X137611168Y-113393555D01*
X137609994Y-113396050D01*
X137634369Y-113396999D01*
X137683662Y-113387863D01*
X137701556Y-113383325D01*
X137886807Y-113341416D01*
X138102807Y-113305797D01*
X138338306Y-113277424D01*
X138582057Y-113257258D01*
X138822811Y-113246256D01*
X139049320Y-113245376D01*
X139225058Y-113253516D01*
X139365474Y-113264632D01*
X139470399Y-113275163D01*
X139546563Y-113287578D01*
X139600699Y-113304348D01*
X139639537Y-113327943D01*
X139669809Y-113360834D01*
X139698246Y-113405491D01*
X139713816Y-113432889D01*
X139748902Y-113497514D01*
X139773704Y-113547437D01*
X139782666Y-113571152D01*
X139766211Y-113589204D01*
X139722271Y-113623874D01*
X139658985Y-113668907D01*
X139629768Y-113688626D01*
X139525742Y-113765804D01*
X139403442Y-113869690D01*
X139270158Y-113993249D01*
X139133185Y-114129449D01*
X138999813Y-114271257D01*
X138877336Y-114411639D01*
X138866097Y-114425172D01*
X138790149Y-114520049D01*
X138703235Y-114633477D01*
X138610749Y-114757927D01*
X138518082Y-114885869D01*
X138430628Y-115009776D01*
X138353778Y-115122118D01*
X138292926Y-115215367D01*
X138256746Y-115275917D01*
X138233331Y-115320593D01*
X138226995Y-115338766D01*
X138239064Y-115328879D01*
X138270863Y-115289378D01*
X138323718Y-115218707D01*
X138398955Y-115115311D01*
X138428137Y-115074833D01*
X138632104Y-114802154D01*
X138838583Y-114546620D01*
X139044031Y-114311994D01*
X139244902Y-114102037D01*
X139437651Y-113920512D01*
X139618734Y-113771179D01*
X139732760Y-113690358D01*
X139820436Y-113632894D01*
X140103176Y-113916433D01*
X140246782Y-114055281D01*
X140370883Y-114163058D01*
X140480603Y-114243127D01*
X140581064Y-114298850D01*
X140677388Y-114333589D01*
X140762964Y-114349491D01*
X140831516Y-114364138D01*
X140873947Y-114393971D01*
X140889435Y-114415773D01*
X140950029Y-114497661D01*
X141035958Y-114588360D01*
X141112727Y-114656884D01*
X141183135Y-114715186D01*
X141109847Y-114815634D01*
X141062590Y-114885600D01*
X141007055Y-114975754D01*
X140948627Y-115076390D01*
X140892696Y-115177802D01*
X140844647Y-115270283D01*
X140809869Y-115344127D01*
X140795645Y-115381750D01*
X140789443Y-115450338D01*
X140799144Y-115556161D01*
X140811135Y-115629102D01*
X140844899Y-115812955D01*
X140782239Y-115904269D01*
X140741141Y-115969557D01*
X140692072Y-116055257D01*
X140645217Y-116143538D01*
X140642440Y-116149042D01*
X140565301Y-116302500D01*
X140755749Y-116302500D01*
X140828290Y-116159625D01*
X140865859Y-116088528D01*
X140890342Y-116051320D01*
X140905922Y-116043241D01*
X140916615Y-116059083D01*
X140953542Y-116157888D01*
X140980098Y-116224029D01*
X141001269Y-116264294D01*
X141022038Y-116285471D01*
X141047390Y-116294346D01*
X141082310Y-116297706D01*
X141092387Y-116298425D01*
X141146272Y-116299832D01*
X141176961Y-116295570D01*
X141179666Y-116292771D01*
X141173324Y-116269138D01*
X141156024Y-116213534D01*
X141130358Y-116134094D01*
X141098917Y-116038952D01*
X141096683Y-116032262D01*
X141059550Y-115915083D01*
X141023876Y-115791955D01*
X140994289Y-115679413D01*
X140978568Y-115610373D01*
X140943437Y-115436829D01*
X141043745Y-115250540D01*
X141099968Y-115150641D01*
X141162519Y-115046508D01*
X141220542Y-114956025D01*
X141237662Y-114931048D01*
X141331271Y-114797846D01*
X141416919Y-114875225D01*
X141496922Y-114941011D01*
X141573380Y-114986415D01*
X141656466Y-115014325D01*
X141756349Y-115027633D01*
X141883201Y-115029228D01*
X141950841Y-115026935D01*
X142120825Y-115014885D01*
X142256511Y-114994345D01*
X142343833Y-114971583D01*
X142415076Y-114949219D01*
X142469766Y-114933184D01*
X142496099Y-114926940D01*
X142496127Y-114926940D01*
X142496325Y-114944160D01*
X142481775Y-114989070D01*
X142461735Y-115037792D01*
X142413643Y-115159104D01*
X142361293Y-115312761D01*
X142307356Y-115489347D01*
X142254508Y-115679445D01*
X142205421Y-115873638D01*
X142162768Y-116062509D01*
X142143228Y-116159625D01*
X142115918Y-116302500D01*
X142506673Y-116302500D01*
X142637645Y-116027581D01*
X142740285Y-115805129D01*
X142820250Y-115615973D01*
X142878272Y-115458133D01*
X142915081Y-115329629D01*
X142931057Y-115233045D01*
X142934103Y-115159546D01*
X142927148Y-115096948D01*
X142906882Y-115028495D01*
X142874914Y-114948955D01*
X142845822Y-114874425D01*
X142827567Y-114815151D01*
X142823133Y-114781320D01*
X142824773Y-114777797D01*
X142847265Y-114764440D01*
X142869920Y-114752005D01*
X142453875Y-114752005D01*
X142424035Y-114768650D01*
X142357862Y-114790001D01*
X142252778Y-114817457D01*
X142245074Y-114819355D01*
X142088500Y-114849077D01*
X141935859Y-114861944D01*
X141796776Y-114858017D01*
X141680876Y-114837354D01*
X141623643Y-114815542D01*
X141542234Y-114757732D01*
X141468336Y-114676540D01*
X141419763Y-114595193D01*
X141237804Y-114595193D01*
X141219611Y-114590565D01*
X141176868Y-114560096D01*
X141161560Y-114548090D01*
X141101202Y-114495084D01*
X141048618Y-114440274D01*
X141031901Y-114419230D01*
X141003180Y-114375284D01*
X140989381Y-114347072D01*
X140989166Y-114345386D01*
X141003930Y-114342330D01*
X141041345Y-114359053D01*
X141091101Y-114388774D01*
X141142883Y-114424712D01*
X141186380Y-114460087D01*
X141211279Y-114488117D01*
X141213273Y-114492750D01*
X141229609Y-114550185D01*
X141236922Y-114576010D01*
X141237804Y-114595193D01*
X141419763Y-114595193D01*
X141415410Y-114587903D01*
X141403347Y-114554714D01*
X141399001Y-114531875D01*
X141408110Y-114520377D01*
X141439084Y-114518561D01*
X141500335Y-114524770D01*
X141533974Y-114528974D01*
X141657944Y-114536254D01*
X141805031Y-114531237D01*
X141883193Y-114524043D01*
X142089302Y-114500981D01*
X142220557Y-114607185D01*
X142291616Y-114660056D01*
X142358879Y-114702261D01*
X142409363Y-114725778D01*
X142414876Y-114727240D01*
X142449963Y-114738669D01*
X142453875Y-114752005D01*
X142869920Y-114752005D01*
X142902213Y-114734281D01*
X142984513Y-114690044D01*
X143089062Y-114634458D01*
X143210757Y-114570249D01*
X143338666Y-114503190D01*
X143492622Y-114422186D01*
X143653103Y-114336809D01*
X143810442Y-114252271D01*
X143954968Y-114173782D01*
X144077013Y-114106551D01*
X144132416Y-114075489D01*
X144251642Y-114010904D01*
X144376233Y-113948328D01*
X144493769Y-113893692D01*
X144591830Y-113852925D01*
X144619250Y-113843031D01*
X144704663Y-113814921D01*
X144771413Y-113796981D01*
X144833047Y-113787576D01*
X144903107Y-113785071D01*
X144995140Y-113787831D01*
X145053166Y-113790651D01*
X145247379Y-113807034D01*
X145410338Y-113835831D01*
X145551817Y-113879013D01*
X145608791Y-113902633D01*
X145663504Y-113934275D01*
X145685999Y-113969861D01*
X145688166Y-113990974D01*
X145698919Y-114073655D01*
X145728571Y-114182355D01*
X145773212Y-114307427D01*
X145828934Y-114439228D01*
X145891828Y-114568110D01*
X145957984Y-114684430D01*
X145987662Y-114729939D01*
X146048745Y-114818961D01*
X145801545Y-114936464D01*
X145686691Y-114993457D01*
X145566083Y-115057285D01*
X145455464Y-115119417D01*
X145383130Y-115163194D01*
X145230475Y-115264603D01*
X145065335Y-115381335D01*
X144894266Y-115508183D01*
X144723825Y-115639941D01*
X144560565Y-115771401D01*
X144411044Y-115897357D01*
X144281816Y-116012603D01*
X144179436Y-116111931D01*
X144152097Y-116140944D01*
X144014136Y-116291917D01*
X144119986Y-116298283D01*
X144183709Y-116299641D01*
X144226429Y-116289070D01*
X144265560Y-116259035D01*
X144303178Y-116219040D01*
X144351722Y-116171035D01*
X144428391Y-116102289D01*
X144527487Y-116017517D01*
X144643307Y-115921433D01*
X144770153Y-115818750D01*
X144902324Y-115714183D01*
X145034120Y-115612447D01*
X145064686Y-115589258D01*
X145325950Y-115402693D01*
X145578792Y-115245453D01*
X145835514Y-115109953D01*
X145864694Y-115095966D01*
X146026883Y-115019928D01*
X146156042Y-114961802D01*
X146256662Y-114919901D01*
X146333239Y-114892540D01*
X146390264Y-114878033D01*
X146432231Y-114874694D01*
X146449061Y-114876704D01*
X146502379Y-114876327D01*
X146538794Y-114845032D01*
X146570078Y-114820761D01*
X146630169Y-114788418D01*
X146707556Y-114752841D01*
X146790727Y-114718865D01*
X146868172Y-114691326D01*
X146928381Y-114675063D01*
X146949027Y-114672667D01*
X146985436Y-114686630D01*
X147021666Y-114715000D01*
X147063267Y-114746951D01*
X147104203Y-114752226D01*
X147152256Y-114728534D01*
X147215207Y-114673583D01*
X147237333Y-114651500D01*
X147292627Y-114598763D01*
X147338841Y-114560842D01*
X147366269Y-114545671D01*
X147366797Y-114545650D01*
X147407312Y-114535146D01*
X147473723Y-114507040D01*
X147556167Y-114466397D01*
X147644784Y-114418277D01*
X147729713Y-114367744D01*
X147787147Y-114329844D01*
X147854360Y-114284163D01*
X147899009Y-114263441D01*
X147929232Y-114271263D01*
X147953166Y-114311214D01*
X147978952Y-114386881D01*
X147988752Y-114418667D01*
X148013832Y-114489644D01*
X148040095Y-114547789D01*
X148054834Y-114571336D01*
X148069597Y-114591553D01*
X148074989Y-114612159D01*
X148067955Y-114639243D01*
X148045440Y-114678893D01*
X148004389Y-114737196D01*
X147941747Y-114820243D01*
X147907506Y-114864953D01*
X147761933Y-115054639D01*
X147638691Y-115214524D01*
X147534360Y-115348405D01*
X147445521Y-115460081D01*
X147368754Y-115553351D01*
X147300641Y-115632013D01*
X147237761Y-115699868D01*
X147176695Y-115760712D01*
X147114023Y-115818345D01*
X147046326Y-115876566D01*
X146970185Y-115939173D01*
X146882179Y-116009966D01*
X146862916Y-116025390D01*
X146745828Y-116119062D01*
X146658705Y-116189242D01*
X146598696Y-116239181D01*
X146562951Y-116272129D01*
X146548617Y-116291336D01*
X146552843Y-116300053D01*
X146572779Y-116301530D01*
X146605572Y-116299018D01*
X146624294Y-116297410D01*
X146686881Y-116289110D01*
X146730884Y-116277276D01*
X146740711Y-116271381D01*
X146741031Y-116264116D01*
X146727354Y-116270627D01*
X146707846Y-116276675D01*
X146712942Y-116263092D01*
X146738341Y-116247722D01*
X146748084Y-116250562D01*
X146771216Y-116242720D01*
X146819547Y-116212309D01*
X146886007Y-116164168D01*
X146963531Y-116103132D01*
X146963580Y-116103092D01*
X147161658Y-115943265D01*
X147362245Y-115784870D01*
X147557705Y-115633777D01*
X147740403Y-115495857D01*
X147902703Y-115376977D01*
X147974166Y-115326268D01*
X148082159Y-115250157D01*
X148196054Y-115169014D01*
X148302264Y-115092564D01*
X148386916Y-115030749D01*
X148461258Y-114979181D01*
X148550709Y-114922279D01*
X148647859Y-114864147D01*
X148745300Y-114808888D01*
X148835622Y-114760605D01*
X148911415Y-114723403D01*
X148965271Y-114701384D01*
X148988316Y-114697689D01*
X149008210Y-114715346D01*
X149052379Y-114760531D01*
X149116998Y-114829108D01*
X149198245Y-114916939D01*
X149292295Y-115019890D01*
X149395325Y-115133822D01*
X149503512Y-115254601D01*
X149514468Y-115266898D01*
X149604853Y-115368389D01*
X149345135Y-115575235D01*
X149238081Y-115661109D01*
X149110813Y-115764166D01*
X148975585Y-115874425D01*
X148844653Y-115981907D01*
X148771591Y-116042290D01*
X148457765Y-116302500D01*
X150239000Y-116302500D01*
X150239000Y-115820243D01*
X150010256Y-115558663D01*
X149910743Y-115445978D01*
X149794623Y-115316247D01*
X149674313Y-115183244D01*
X149562229Y-115060742D01*
X149528715Y-115024485D01*
X149378354Y-114861628D01*
X149254969Y-114726348D01*
X149156061Y-114615833D01*
X149079130Y-114527275D01*
X149021678Y-114457864D01*
X148999694Y-114429746D01*
X148944957Y-114357983D01*
X149021919Y-114181950D01*
X149066953Y-114082700D01*
X149116322Y-113979713D01*
X149129892Y-113953000D01*
X148482166Y-113953000D01*
X148474422Y-113970422D01*
X148468055Y-113967111D01*
X148465522Y-113941991D01*
X148468055Y-113938889D01*
X148480639Y-113941794D01*
X148482166Y-113953000D01*
X149129892Y-113953000D01*
X149160634Y-113892486D01*
X149167916Y-113878917D01*
X149205716Y-113808808D01*
X149232193Y-113751948D01*
X149245141Y-113702735D01*
X149242354Y-113655569D01*
X149221626Y-113604851D01*
X149188646Y-113556546D01*
X148600768Y-113556546D01*
X148600308Y-113581048D01*
X148588085Y-113635425D01*
X148566510Y-113709663D01*
X148556250Y-113741333D01*
X148529809Y-113817911D01*
X148508191Y-113875306D01*
X148494776Y-113904754D01*
X148492434Y-113906717D01*
X148494397Y-113884672D01*
X148505327Y-113831777D01*
X148523084Y-113758030D01*
X148530096Y-113730750D01*
X148532920Y-113720071D01*
X148323964Y-113720071D01*
X148323172Y-113781214D01*
X148316022Y-113822750D01*
X148302984Y-113836421D01*
X148290314Y-113824535D01*
X148277400Y-113816865D01*
X148271454Y-113848046D01*
X148270824Y-113873142D01*
X148263072Y-113928809D01*
X148243235Y-114008486D01*
X148215964Y-114097298D01*
X148185910Y-114180369D01*
X148157724Y-114242826D01*
X148152291Y-114252233D01*
X148137138Y-114247316D01*
X148112339Y-114211713D01*
X148093051Y-114173898D01*
X148047147Y-114073984D01*
X148097414Y-113924108D01*
X148119897Y-113851512D01*
X148133866Y-113787232D01*
X148136356Y-113762083D01*
X147598113Y-113762083D01*
X147576814Y-113830718D01*
X147529113Y-113927385D01*
X147529019Y-113927560D01*
X147458613Y-114052572D01*
X147386791Y-114170213D01*
X147317445Y-114274984D01*
X147254468Y-114361389D01*
X147201754Y-114423930D01*
X147163194Y-114457110D01*
X147151253Y-114461000D01*
X147138534Y-114442016D01*
X147119168Y-114391361D01*
X147096588Y-114318477D01*
X147087736Y-114286375D01*
X147048907Y-114158132D01*
X146994899Y-114003793D01*
X146930265Y-113834717D01*
X146859557Y-113662262D01*
X146787327Y-113497785D01*
X146718128Y-113352646D01*
X146696807Y-113311068D01*
X146587750Y-113103054D01*
X146582755Y-113194652D01*
X146566455Y-113464060D01*
X146548052Y-113715379D01*
X146528003Y-113943972D01*
X146506763Y-114145200D01*
X146484786Y-114314426D01*
X146462528Y-114447012D01*
X146457471Y-114471583D01*
X146451695Y-114498146D01*
X146446661Y-114513327D01*
X146440984Y-114512558D01*
X146433276Y-114491274D01*
X146422153Y-114444909D01*
X146406228Y-114368896D01*
X146384114Y-114258668D01*
X146367486Y-114175153D01*
X146322724Y-113973677D01*
X146005666Y-113973677D01*
X145992556Y-113974882D01*
X145959236Y-113951098D01*
X145936875Y-113930683D01*
X145869590Y-113878882D01*
X145773156Y-113821987D01*
X145659366Y-113765668D01*
X145540014Y-113715594D01*
X145426892Y-113677436D01*
X145389824Y-113667674D01*
X145307692Y-113652187D01*
X145200752Y-113637700D01*
X145086512Y-113626415D01*
X145032000Y-113622655D01*
X144925520Y-113617799D01*
X144846250Y-113618533D01*
X144779255Y-113626444D01*
X144709602Y-113643124D01*
X144640416Y-113664334D01*
X144539527Y-113701510D01*
X144434628Y-113747797D01*
X144347632Y-113793488D01*
X144344083Y-113795620D01*
X144289259Y-113826943D01*
X144203596Y-113873523D01*
X144094105Y-113931658D01*
X143967799Y-113997646D01*
X143831689Y-114067787D01*
X143740833Y-114114080D01*
X143582235Y-114194672D01*
X143410369Y-114282292D01*
X143237084Y-114370880D01*
X143074229Y-114454376D01*
X142933651Y-114526720D01*
X142896563Y-114545876D01*
X142782144Y-114604557D01*
X142680262Y-114655896D01*
X142596984Y-114696909D01*
X142538375Y-114724616D01*
X142510501Y-114736033D01*
X142509527Y-114736167D01*
X142502904Y-114720953D01*
X142512422Y-114695225D01*
X142523663Y-114653638D01*
X142531567Y-114585086D01*
X142534333Y-114509909D01*
X142534333Y-114365534D01*
X142659915Y-114316839D01*
X142786992Y-114259000D01*
X142931415Y-114179199D01*
X143080415Y-114085222D01*
X143121349Y-114056044D01*
X142818360Y-114056044D01*
X142805680Y-114071546D01*
X142765946Y-114099185D01*
X142710212Y-114132671D01*
X142649534Y-114165710D01*
X142594969Y-114192014D01*
X142557573Y-114205289D01*
X142555500Y-114205620D01*
X142551564Y-114187188D01*
X142551739Y-114137720D01*
X142555500Y-114074711D01*
X142558159Y-114048224D01*
X142466665Y-114048224D01*
X142464928Y-114106297D01*
X142459819Y-114190727D01*
X142451753Y-114293630D01*
X142448396Y-114331589D01*
X142436521Y-114457297D01*
X142424968Y-114543610D01*
X142409913Y-114593264D01*
X142387535Y-114608995D01*
X142354012Y-114593540D01*
X142305521Y-114549632D01*
X142239374Y-114481195D01*
X142182305Y-114417737D01*
X142132667Y-114356104D01*
X142111344Y-114325084D01*
X141992294Y-114325084D01*
X141989691Y-114344794D01*
X141957092Y-114353755D01*
X141916308Y-114355167D01*
X141864566Y-114353598D01*
X141838314Y-114349655D01*
X141837597Y-114347726D01*
X141861795Y-114336519D01*
X141908818Y-114319261D01*
X141913583Y-114317643D01*
X141962355Y-114305463D01*
X141986178Y-114313866D01*
X141992294Y-114325084D01*
X142111344Y-114325084D01*
X142106367Y-114317845D01*
X142069985Y-114255616D01*
X142261924Y-114134629D01*
X142341030Y-114086294D01*
X142406394Y-114049229D01*
X142450248Y-114027659D01*
X142464613Y-114024391D01*
X142466665Y-114048224D01*
X142558159Y-114048224D01*
X142562763Y-114002387D01*
X142572309Y-113963519D01*
X142587857Y-113949252D01*
X142607966Y-113949748D01*
X142655585Y-113964599D01*
X142715777Y-113991267D01*
X142773022Y-114021910D01*
X142811799Y-114048686D01*
X142818360Y-114056044D01*
X143121349Y-114056044D01*
X143221222Y-113984856D01*
X143278811Y-113939435D01*
X143410723Y-113822556D01*
X143554623Y-113679706D01*
X143585773Y-113646083D01*
X143385815Y-113646083D01*
X143241513Y-113778375D01*
X143177147Y-113836200D01*
X143124601Y-113881202D01*
X143091469Y-113906982D01*
X143084466Y-113910667D01*
X143082726Y-113891529D01*
X143088771Y-113840283D01*
X143101362Y-113766180D01*
X143109315Y-113725458D01*
X143126807Y-113639597D01*
X143138866Y-113580879D01*
X143055687Y-113580879D01*
X143049140Y-113636772D01*
X143036193Y-113711757D01*
X143019158Y-113794941D01*
X143000348Y-113875435D01*
X142982073Y-113942348D01*
X142966646Y-113984788D01*
X142960411Y-113993637D01*
X142924553Y-113992891D01*
X142861502Y-113966370D01*
X142813989Y-113939639D01*
X142750571Y-113902995D01*
X142701140Y-113877264D01*
X142677650Y-113868333D01*
X142685769Y-113855818D01*
X142721063Y-113821717D01*
X142777899Y-113771200D01*
X142850643Y-113709434D01*
X142852697Y-113707723D01*
X142928246Y-113645980D01*
X142991293Y-113596598D01*
X143035250Y-113564590D01*
X143053524Y-113554968D01*
X143055687Y-113580879D01*
X143138866Y-113580879D01*
X143141445Y-113568325D01*
X143150938Y-113522777D01*
X143152829Y-113514040D01*
X143172020Y-113510048D01*
X143218943Y-113532375D01*
X143272282Y-113566956D01*
X143385815Y-113646083D01*
X143585773Y-113646083D01*
X143702602Y-113519982D01*
X143846755Y-113352481D01*
X143979173Y-113186301D01*
X144005541Y-113149881D01*
X143848213Y-113149881D01*
X143726546Y-113285908D01*
X143671165Y-113346202D01*
X143627196Y-113391024D01*
X143601445Y-113413566D01*
X143597722Y-113414778D01*
X143597450Y-113391942D01*
X143603645Y-113339019D01*
X143614795Y-113268482D01*
X143624614Y-113221864D01*
X143563346Y-113221864D01*
X143556285Y-113277699D01*
X143541909Y-113349540D01*
X143523080Y-113425253D01*
X143502659Y-113492702D01*
X143483506Y-113539753D01*
X143476110Y-113550987D01*
X143445647Y-113580398D01*
X143417755Y-113589218D01*
X143381444Y-113575720D01*
X143325722Y-113538176D01*
X143306852Y-113524375D01*
X143255081Y-113484365D01*
X143220755Y-113454138D01*
X143212492Y-113443415D01*
X143227921Y-113426749D01*
X143269118Y-113393294D01*
X143327193Y-113349420D01*
X143393256Y-113301500D01*
X143458420Y-113255904D01*
X143513794Y-113219003D01*
X143550491Y-113197169D01*
X143560233Y-113194171D01*
X143563346Y-113221864D01*
X143624614Y-113221864D01*
X143634090Y-113176877D01*
X143656591Y-113122340D01*
X143687662Y-113099658D01*
X143732672Y-113103621D01*
X143770413Y-113117374D01*
X143848213Y-113149881D01*
X144005541Y-113149881D01*
X144091949Y-113030538D01*
X144157142Y-112928950D01*
X144193791Y-112869082D01*
X144037166Y-112869082D01*
X144025377Y-112901148D01*
X143995863Y-112950550D01*
X143957407Y-113005176D01*
X143918792Y-113052916D01*
X143888802Y-113081658D01*
X143880467Y-113085167D01*
X143843904Y-113073531D01*
X143815568Y-113056510D01*
X143798309Y-113040042D01*
X143799580Y-113022633D01*
X143824436Y-112997788D01*
X143877930Y-112959012D01*
X143906772Y-112939305D01*
X143968900Y-112899343D01*
X144014953Y-112873967D01*
X144036528Y-112867702D01*
X144037166Y-112869082D01*
X144193791Y-112869082D01*
X144207657Y-112846432D01*
X144269501Y-112748336D01*
X144330345Y-112654188D01*
X144337698Y-112643015D01*
X144392292Y-112556558D01*
X144421989Y-112497842D01*
X144427966Y-112461257D01*
X144411400Y-112441191D01*
X144381719Y-112433115D01*
X144343832Y-112442434D01*
X144294234Y-112482730D01*
X144245794Y-112536285D01*
X144174576Y-112607588D01*
X144072096Y-112691149D01*
X143945442Y-112781301D01*
X143910166Y-112804639D01*
X143788903Y-112885118D01*
X143643039Y-112984217D01*
X143479111Y-113097304D01*
X143303653Y-113219750D01*
X143123202Y-113346923D01*
X142944293Y-113474194D01*
X142773461Y-113596932D01*
X142617244Y-113710506D01*
X142482175Y-113810287D01*
X142374791Y-113891642D01*
X142362879Y-113900878D01*
X142200155Y-114022151D01*
X142059039Y-114114126D01*
X141933008Y-114179138D01*
X141815535Y-114219523D01*
X141700096Y-114237616D01*
X141580167Y-114235751D01*
X141470282Y-114220304D01*
X141287336Y-114191223D01*
X141137389Y-114178310D01*
X141014419Y-114181317D01*
X140920904Y-114197673D01*
X140840754Y-114214107D01*
X140772308Y-114213857D01*
X140700421Y-114194645D01*
X140609950Y-114154195D01*
X140600546Y-114149519D01*
X140548833Y-114116536D01*
X140477747Y-114061779D01*
X140395302Y-113992510D01*
X140309512Y-113915990D01*
X140228389Y-113839482D01*
X140159946Y-113770248D01*
X140112197Y-113715550D01*
X140097085Y-113693242D01*
X140089785Y-113673446D01*
X140102628Y-113671430D01*
X140142231Y-113688243D01*
X140178258Y-113706119D01*
X140274104Y-113750511D01*
X140376799Y-113791425D01*
X140476655Y-113825715D01*
X140563981Y-113850235D01*
X140629088Y-113861840D01*
X140655049Y-113860930D01*
X140686527Y-113842761D01*
X140737154Y-113803186D01*
X140798657Y-113749911D01*
X140862768Y-113690644D01*
X140921213Y-113633093D01*
X140965722Y-113584965D01*
X140988025Y-113553968D01*
X140989166Y-113549570D01*
X140970642Y-113536282D01*
X140924774Y-113522525D01*
X140911376Y-113519784D01*
X140837347Y-113501914D01*
X140768732Y-113478683D01*
X140715230Y-113454288D01*
X140686536Y-113432929D01*
X140686159Y-113422265D01*
X140713023Y-113412836D01*
X140772692Y-113400275D01*
X140855921Y-113386326D01*
X140939204Y-113374559D01*
X141037162Y-113360608D01*
X141121343Y-113346381D01*
X141181766Y-113333706D01*
X141206754Y-113325651D01*
X141234713Y-113304011D01*
X141285132Y-113259971D01*
X141350075Y-113200600D01*
X141401452Y-113152251D01*
X141473477Y-113083008D01*
X141519256Y-113035513D01*
X141543371Y-113002500D01*
X141550401Y-112976702D01*
X141544929Y-112950854D01*
X141543638Y-112947583D01*
X141412584Y-112947583D01*
X141299140Y-113073778D01*
X141264157Y-113113635D01*
X141236474Y-113144286D01*
X141210203Y-113167823D01*
X141179456Y-113186339D01*
X141138345Y-113201927D01*
X141080983Y-113216679D01*
X141001481Y-113232688D01*
X140893952Y-113252047D01*
X140752508Y-113276848D01*
X140703416Y-113285514D01*
X140611394Y-113302736D01*
X140533767Y-113318964D01*
X140480876Y-113331946D01*
X140464700Y-113337553D01*
X140462717Y-113358530D01*
X140486887Y-113397210D01*
X140529808Y-113445484D01*
X140584082Y-113495239D01*
X140642309Y-113538365D01*
X140655128Y-113546284D01*
X140709876Y-113589745D01*
X140723623Y-113633762D01*
X140697496Y-113683067D01*
X140689742Y-113691707D01*
X140658875Y-113720309D01*
X140626364Y-113735528D01*
X140582308Y-113737969D01*
X140516802Y-113728238D01*
X140424272Y-113707943D01*
X140227586Y-113641474D01*
X140042616Y-113537772D01*
X139915842Y-113437288D01*
X139800450Y-113314296D01*
X139724765Y-113191278D01*
X139686359Y-113064131D01*
X139683768Y-113045340D01*
X139671017Y-112937676D01*
X139834124Y-112758016D01*
X139918978Y-112667970D01*
X139989030Y-112605984D01*
X140055688Y-112566876D01*
X140130359Y-112545461D01*
X140224450Y-112536556D01*
X140324994Y-112534951D01*
X140484592Y-112546313D01*
X140658465Y-112578249D01*
X140836211Y-112627231D01*
X141007427Y-112689730D01*
X141161713Y-112762215D01*
X141288664Y-112841157D01*
X141333167Y-112877013D01*
X141412584Y-112947583D01*
X141543638Y-112947583D01*
X141538564Y-112934739D01*
X141494080Y-112865790D01*
X141418055Y-112788895D01*
X141318667Y-112710759D01*
X141204093Y-112638089D01*
X141128540Y-112598490D01*
X140870868Y-112496695D01*
X140601939Y-112434572D01*
X140404919Y-112414055D01*
X140191089Y-112402073D01*
X140363083Y-112187995D01*
X140464691Y-112058632D01*
X140575989Y-111911907D01*
X140693065Y-111753414D01*
X140812008Y-111588746D01*
X140857008Y-111525132D01*
X140657356Y-111525132D01*
X140656823Y-111526815D01*
X140628249Y-111569947D01*
X140580823Y-111635612D01*
X140518786Y-111718446D01*
X140446376Y-111813082D01*
X140367830Y-111914156D01*
X140287388Y-112016303D01*
X140209289Y-112114157D01*
X140137770Y-112202353D01*
X140077071Y-112275525D01*
X140031429Y-112328310D01*
X140005084Y-112355340D01*
X140000519Y-112357575D01*
X140001168Y-112334067D01*
X140011559Y-112280349D01*
X140029585Y-112206849D01*
X140035179Y-112186088D01*
X140064585Y-112090849D01*
X140099263Y-111995792D01*
X140131776Y-111921279D01*
X140132196Y-111920448D01*
X140161242Y-111861456D01*
X140180360Y-111819424D01*
X140184833Y-111806572D01*
X140168077Y-111801442D01*
X140122642Y-111815216D01*
X140055777Y-111844410D01*
X139974730Y-111885538D01*
X139886749Y-111935116D01*
X139799084Y-111989657D01*
X139785970Y-111998345D01*
X139705561Y-112051584D01*
X139638734Y-112094844D01*
X139592871Y-112123411D01*
X139575571Y-112132667D01*
X139572462Y-112112926D01*
X139574648Y-112058568D01*
X139581463Y-111976886D01*
X139592240Y-111875172D01*
X139606313Y-111760722D01*
X139616176Y-111688167D01*
X139629548Y-111607991D01*
X139647359Y-111545255D01*
X139675754Y-111485824D01*
X139720879Y-111415563D01*
X139756766Y-111364799D01*
X139810755Y-111291043D01*
X139857711Y-111229495D01*
X139890790Y-111189005D01*
X139900375Y-111179094D01*
X139923016Y-111177830D01*
X139955082Y-111208498D01*
X139993298Y-111263220D01*
X140059159Y-111353066D01*
X140130830Y-111429864D01*
X140200450Y-111486575D01*
X140260157Y-111516164D01*
X140278847Y-111518833D01*
X140311539Y-111513410D01*
X140330288Y-111489845D01*
X140342561Y-111437193D01*
X140344936Y-111421941D01*
X140349232Y-111342063D01*
X140338439Y-111279357D01*
X140336298Y-111274201D01*
X140325179Y-111233737D01*
X140338846Y-111196587D01*
X140363926Y-111164718D01*
X140407054Y-111126124D01*
X140435775Y-111126797D01*
X140436248Y-111127250D01*
X140465166Y-111163713D01*
X140503719Y-111222812D01*
X140546660Y-111295039D01*
X140588742Y-111370890D01*
X140624716Y-111440860D01*
X140649337Y-111495442D01*
X140657356Y-111525132D01*
X140857008Y-111525132D01*
X140928906Y-111423496D01*
X140975589Y-111356070D01*
X140751781Y-111356070D01*
X140749607Y-111364897D01*
X140731193Y-111344725D01*
X140696756Y-111294932D01*
X140651052Y-111222783D01*
X140598832Y-111135540D01*
X140593282Y-111126002D01*
X140495635Y-110943219D01*
X140465663Y-110873250D01*
X140248333Y-110873250D01*
X140237750Y-110883833D01*
X140227166Y-110873250D01*
X140237750Y-110862667D01*
X140248333Y-110873250D01*
X140465663Y-110873250D01*
X140418969Y-110764245D01*
X140361025Y-110580234D01*
X140336332Y-110462430D01*
X140232752Y-110462430D01*
X140231882Y-110506958D01*
X140230520Y-110548447D01*
X140225414Y-110609772D01*
X140208591Y-110648265D01*
X140169800Y-110680674D01*
X140137208Y-110700884D01*
X140034047Y-110776154D01*
X139924653Y-110879456D01*
X139820159Y-111000214D01*
X139814416Y-111007617D01*
X139777125Y-111051928D01*
X139751415Y-111074866D01*
X139745007Y-111075026D01*
X139749027Y-111049763D01*
X139764696Y-110994308D01*
X139789177Y-110918246D01*
X139805267Y-110871396D01*
X139882701Y-110673838D01*
X139963032Y-110515462D01*
X140047908Y-110393132D01*
X140069734Y-110368137D01*
X140109461Y-110320147D01*
X140130937Y-110284719D01*
X140131755Y-110273366D01*
X140107631Y-110275414D01*
X140058416Y-110294031D01*
X140008923Y-110317961D01*
X139922212Y-110360683D01*
X139837653Y-110397650D01*
X139763464Y-110425836D01*
X139707860Y-110442216D01*
X139679060Y-110443761D01*
X139676833Y-110440273D01*
X139692222Y-110411967D01*
X139698339Y-110407373D01*
X139719306Y-110384702D01*
X139756743Y-110335646D01*
X139803892Y-110269214D01*
X139823256Y-110240834D01*
X139876878Y-110164334D01*
X139918020Y-110115816D01*
X139955926Y-110086927D01*
X139999837Y-110069312D01*
X140018709Y-110064169D01*
X140086615Y-110046288D01*
X140143973Y-110030185D01*
X140156314Y-110026446D01*
X140178196Y-110021981D01*
X140192603Y-110030223D01*
X140202152Y-110058671D01*
X140209460Y-110114828D01*
X140216599Y-110199278D01*
X140224478Y-110300289D01*
X140229498Y-110370329D01*
X140232107Y-110420632D01*
X140232752Y-110462430D01*
X140336332Y-110462430D01*
X140319544Y-110382339D01*
X140292266Y-110161714D01*
X140276933Y-109909511D01*
X140276020Y-109883708D01*
X140271152Y-109762911D01*
X140265370Y-109658241D01*
X140259173Y-109576422D01*
X140253061Y-109524177D01*
X140248068Y-109508000D01*
X140233284Y-109528030D01*
X140220904Y-109583631D01*
X140211805Y-109668067D01*
X140206865Y-109774603D01*
X140206233Y-109828749D01*
X140206000Y-109990747D01*
X140094875Y-109999368D01*
X140031040Y-110003199D01*
X139987128Y-110003729D01*
X139975687Y-110002168D01*
X139978471Y-109981406D01*
X139995630Y-109937582D01*
X140000616Y-109926798D01*
X140050758Y-109801025D01*
X140089197Y-109657059D01*
X140117250Y-109488031D01*
X140136236Y-109287069D01*
X140141873Y-109190500D01*
X140158311Y-108954427D01*
X140164403Y-108904750D01*
X140032364Y-108904750D01*
X140016491Y-109127000D01*
X140007162Y-109226925D01*
X139993521Y-109334288D01*
X139977059Y-109440954D01*
X139959265Y-109538787D01*
X139941631Y-109619652D01*
X139925644Y-109675414D01*
X139912797Y-109697938D01*
X139911896Y-109698059D01*
X139895023Y-109681425D01*
X139861932Y-109637776D01*
X139819138Y-109575811D01*
X139809717Y-109561573D01*
X139775089Y-109506219D01*
X139747570Y-109453623D01*
X139724228Y-109395147D01*
X139702129Y-109322151D01*
X139678340Y-109225994D01*
X139649930Y-109098038D01*
X139645675Y-109078295D01*
X139620935Y-108961937D01*
X139599766Y-108859851D01*
X139583631Y-108779295D01*
X139573991Y-108727528D01*
X139571896Y-108712073D01*
X139588751Y-108689642D01*
X139629583Y-108657304D01*
X139643868Y-108647834D01*
X139714944Y-108602586D01*
X139807014Y-108701399D01*
X139868392Y-108764108D01*
X139930096Y-108822166D01*
X139965723Y-108852481D01*
X140032364Y-108904750D01*
X140164403Y-108904750D01*
X140182500Y-108757194D01*
X140214919Y-108595934D01*
X140256048Y-108467783D01*
X140267394Y-108441360D01*
X140294542Y-108393887D01*
X140335835Y-108335043D01*
X140384245Y-108273211D01*
X140432748Y-108216771D01*
X140474316Y-108174106D01*
X140501923Y-108153595D01*
X140508188Y-108154124D01*
X140519267Y-108177989D01*
X140539291Y-108228676D01*
X140554595Y-108269750D01*
X140586829Y-108350416D01*
X140627643Y-108442566D01*
X140652837Y-108495175D01*
X140712472Y-108614767D01*
X140629968Y-108603700D01*
X140569403Y-108601165D01*
X140526695Y-108619442D01*
X140492701Y-108651724D01*
X140448898Y-108709417D01*
X140415807Y-108779533D01*
X140392307Y-108867965D01*
X140377278Y-108980604D01*
X140369601Y-109123343D01*
X140368156Y-109302073D01*
X140368189Y-109306917D01*
X140374492Y-109555324D01*
X140390730Y-109789746D01*
X140418414Y-110018921D01*
X140459056Y-110251582D01*
X140514167Y-110496467D01*
X140585257Y-110762310D01*
X140667675Y-111038062D01*
X140700827Y-111148305D01*
X140726970Y-111242339D01*
X140744492Y-111313736D01*
X140751781Y-111356070D01*
X140975589Y-111356070D01*
X141039849Y-111263258D01*
X141140924Y-111113624D01*
X141228220Y-110980189D01*
X141297827Y-110868546D01*
X141345832Y-110784287D01*
X141349081Y-110778000D01*
X141384824Y-110674213D01*
X141405313Y-110538745D01*
X141411345Y-110379088D01*
X141409832Y-110344083D01*
X141264333Y-110344083D01*
X141253750Y-110354667D01*
X141243166Y-110344083D01*
X141253750Y-110333500D01*
X141264333Y-110344083D01*
X141409832Y-110344083D01*
X141403856Y-110205903D01*
X141242523Y-110205903D01*
X141239889Y-110241030D01*
X141229902Y-110237691D01*
X141220304Y-110222375D01*
X141182104Y-110189938D01*
X141134293Y-110192518D01*
X141089037Y-110228828D01*
X141083382Y-110236859D01*
X141055276Y-110301247D01*
X141030890Y-110396565D01*
X141011371Y-110511486D01*
X140997867Y-110634684D01*
X140991526Y-110754834D01*
X140993494Y-110860609D01*
X141004921Y-110940684D01*
X141010316Y-110957871D01*
X141019697Y-111010633D01*
X140997230Y-111059120D01*
X140994441Y-111062902D01*
X140964210Y-111095703D01*
X140944429Y-111104438D01*
X140936955Y-111081500D01*
X140926564Y-111025258D01*
X140914708Y-110944515D01*
X140904294Y-110860880D01*
X140888606Y-110643477D01*
X140889069Y-110421412D01*
X140890847Y-110385312D01*
X140896384Y-110281404D01*
X140898183Y-110211450D01*
X140895216Y-110167153D01*
X140886451Y-110140220D01*
X140870860Y-110122356D01*
X140856899Y-110111906D01*
X140822229Y-110091226D01*
X140805793Y-110101417D01*
X140795879Y-110137147D01*
X140788628Y-110187435D01*
X140782236Y-110263928D01*
X140778035Y-110350502D01*
X140777911Y-110354667D01*
X140773528Y-110453661D01*
X140766636Y-110555084D01*
X140759494Y-110629833D01*
X140745675Y-110746250D01*
X140676910Y-110471083D01*
X140624399Y-110242765D01*
X140586006Y-110029721D01*
X140560027Y-109817879D01*
X140544755Y-109593165D01*
X140538484Y-109341507D01*
X140538377Y-109328083D01*
X140537855Y-109181838D01*
X140539025Y-109071121D01*
X140542363Y-108989146D01*
X140548342Y-108929125D01*
X140557438Y-108884270D01*
X140570125Y-108847794D01*
X140572316Y-108842742D01*
X140609182Y-108759567D01*
X140689806Y-108838294D01*
X140754409Y-108914237D01*
X140827508Y-109021317D01*
X140904266Y-109150490D01*
X140979846Y-109292716D01*
X141049414Y-109438951D01*
X141108131Y-109580153D01*
X141146968Y-109693005D01*
X141154478Y-109723817D01*
X141144398Y-109728710D01*
X141107932Y-109709834D01*
X141099001Y-109704717D01*
X141053484Y-109682206D01*
X141020699Y-109683077D01*
X140980386Y-109705956D01*
X140932999Y-109750554D01*
X140891885Y-109810610D01*
X140888202Y-109817961D01*
X140866578Y-109867531D01*
X140864959Y-109895017D01*
X140884073Y-109916025D01*
X140893084Y-109922758D01*
X140940968Y-109949648D01*
X140965299Y-109943954D01*
X140968000Y-109930588D01*
X140978733Y-109898348D01*
X141002427Y-109856135D01*
X141030738Y-109821537D01*
X141055008Y-109820443D01*
X141069253Y-109830421D01*
X141099142Y-109868327D01*
X141136557Y-109933463D01*
X141175546Y-110012928D01*
X141210155Y-110093823D01*
X141234431Y-110163248D01*
X141242523Y-110205903D01*
X141403856Y-110205903D01*
X141403718Y-110202731D01*
X141383231Y-110017167D01*
X141350681Y-109829885D01*
X141306865Y-109648378D01*
X141252582Y-109480135D01*
X141196908Y-109349250D01*
X141178021Y-109309234D01*
X141173880Y-109293243D01*
X141188000Y-109303337D01*
X141223894Y-109341576D01*
X141268142Y-109390999D01*
X141312908Y-109441143D01*
X141380815Y-109517063D01*
X141466730Y-109613027D01*
X141565522Y-109723305D01*
X141672056Y-109842166D01*
X141770473Y-109951916D01*
X141981554Y-110189489D01*
X142168337Y-110404851D01*
X142336847Y-110605329D01*
X142493114Y-110798247D01*
X142643163Y-110990933D01*
X142793024Y-111190712D01*
X142820784Y-111228455D01*
X142912657Y-111352848D01*
X142983654Y-111446144D01*
X143037323Y-111511820D01*
X143077215Y-111553354D01*
X143106877Y-111574225D01*
X143129859Y-111577912D01*
X143149709Y-111567893D01*
X143158719Y-111559686D01*
X143169282Y-111544765D01*
X143174287Y-111522224D01*
X143172888Y-111486219D01*
X143164236Y-111430904D01*
X143147483Y-111350434D01*
X143121782Y-111238965D01*
X143097377Y-111136711D01*
X143064714Y-110999212D01*
X142891697Y-110999212D01*
X142889213Y-111005884D01*
X142876225Y-110995407D01*
X142849439Y-110964088D01*
X142805563Y-110908232D01*
X142741303Y-110824146D01*
X142698268Y-110767417D01*
X142580211Y-110616534D01*
X142434062Y-110438454D01*
X142259338Y-110232609D01*
X142055558Y-109998436D01*
X141822238Y-109735369D01*
X141728747Y-109631065D01*
X141560000Y-109442328D01*
X141417077Y-109279957D01*
X141296676Y-109139594D01*
X141195496Y-109016882D01*
X141110237Y-108907465D01*
X141037597Y-108806984D01*
X140974276Y-108711084D01*
X140916973Y-108615406D01*
X140862386Y-108515594D01*
X140817971Y-108428873D01*
X140764623Y-108319882D01*
X140731179Y-108243165D01*
X140717191Y-108193873D01*
X140722209Y-108167161D01*
X140745786Y-108158181D01*
X140787473Y-108162087D01*
X140793375Y-108163138D01*
X140899794Y-108197933D01*
X141013737Y-108265943D01*
X141139037Y-108369620D01*
X141186073Y-108414579D01*
X141252270Y-108484138D01*
X141319539Y-108562089D01*
X141381698Y-108640353D01*
X141432568Y-108710847D01*
X141465965Y-108765491D01*
X141476000Y-108793626D01*
X141458941Y-108796770D01*
X141416297Y-108784689D01*
X141398667Y-108777756D01*
X141347490Y-108759557D01*
X141315176Y-108753985D01*
X141311447Y-108755331D01*
X141313203Y-108768299D01*
X141329453Y-108798511D01*
X141361642Y-108847949D01*
X141411217Y-108918596D01*
X141479627Y-109012434D01*
X141568316Y-109131446D01*
X141678734Y-109277616D01*
X141812326Y-109452924D01*
X141970539Y-109659355D01*
X141984349Y-109677333D01*
X142160370Y-109906738D01*
X142312033Y-110105092D01*
X142441031Y-110274712D01*
X142549057Y-110417916D01*
X142637807Y-110537021D01*
X142708972Y-110634343D01*
X142764247Y-110712200D01*
X142805326Y-110772909D01*
X142833902Y-110818786D01*
X142851669Y-110852148D01*
X142860321Y-110875313D01*
X142860449Y-110875840D01*
X142875527Y-110936269D01*
X142886967Y-110979083D01*
X142891697Y-110999212D01*
X143064714Y-110999212D01*
X143061410Y-110985308D01*
X143019994Y-110808083D01*
X142976717Y-110620572D01*
X142935168Y-110438312D01*
X142904477Y-110301750D01*
X142874461Y-110168745D01*
X142839871Y-110018317D01*
X142802062Y-109856096D01*
X142762387Y-109687708D01*
X142722202Y-109518784D01*
X142682860Y-109354951D01*
X142645716Y-109201838D01*
X142612124Y-109065072D01*
X142583439Y-108950284D01*
X142561014Y-108863100D01*
X142546205Y-108809149D01*
X142542561Y-108797694D01*
X142547194Y-108797152D01*
X142570929Y-108826805D01*
X142609800Y-108881351D01*
X142654274Y-108947083D01*
X142834547Y-109196315D01*
X143049804Y-109454538D01*
X143295304Y-109716110D01*
X143328936Y-109749810D01*
X143553234Y-109973023D01*
X143509711Y-110147970D01*
X143482833Y-110279758D01*
X143460121Y-110436256D01*
X143442904Y-110603064D01*
X143432508Y-110765782D01*
X143430264Y-110910009D01*
X143433129Y-110978259D01*
X143439119Y-111067145D01*
X143446104Y-111179679D01*
X143452945Y-111297227D01*
X143455784Y-111348876D01*
X143464013Y-111457902D01*
X143475014Y-111536818D01*
X143487978Y-111580475D01*
X143493136Y-111586676D01*
X143546990Y-111611743D01*
X143630489Y-111640191D01*
X143731494Y-111668605D01*
X143837867Y-111693571D01*
X143937333Y-111711652D01*
X144102462Y-111722136D01*
X144292115Y-111710865D01*
X144495589Y-111679557D01*
X144702178Y-111629933D01*
X144901178Y-111563711D01*
X144930452Y-111552154D01*
X145006807Y-111523974D01*
X145052949Y-111514360D01*
X145076033Y-111521988D01*
X145078107Y-111524787D01*
X145074449Y-111550705D01*
X145041905Y-111568222D01*
X145001810Y-111594116D01*
X144989713Y-111642828D01*
X144989666Y-111647597D01*
X144987204Y-111691455D01*
X144981400Y-111709333D01*
X144958694Y-111714317D01*
X144904311Y-111727725D01*
X144827525Y-111747245D01*
X144773625Y-111761170D01*
X144664725Y-111786502D01*
X144531665Y-111812923D01*
X144385259Y-111838734D01*
X144236318Y-111862235D01*
X144095657Y-111881723D01*
X143974087Y-111895499D01*
X143882423Y-111901863D01*
X143878416Y-111901965D01*
X143836669Y-111903863D01*
X143826833Y-111907634D01*
X143851693Y-111914190D01*
X143914034Y-111924443D01*
X143973666Y-111933192D01*
X144172373Y-111960433D01*
X144338575Y-111979926D01*
X144481285Y-111992193D01*
X144609517Y-111997754D01*
X144732284Y-111997131D01*
X144858600Y-111990845D01*
X144907774Y-111987209D01*
X145017645Y-111977860D01*
X145098350Y-111973008D01*
X145157325Y-111977281D01*
X145202005Y-111995303D01*
X145239828Y-112031701D01*
X145278230Y-112091101D01*
X145324647Y-112178129D01*
X145376866Y-112279018D01*
X145538392Y-112612272D01*
X145689949Y-112972856D01*
X145825712Y-113345972D01*
X145932949Y-113692146D01*
X145960588Y-113791902D01*
X145983397Y-113877645D01*
X145999148Y-113940753D01*
X146005616Y-113972606D01*
X146005666Y-113973677D01*
X146322724Y-113973677D01*
X146298296Y-113863731D01*
X146214453Y-113546841D01*
X146118531Y-113231689D01*
X146013105Y-112925479D01*
X145900748Y-112635418D01*
X145784034Y-112368711D01*
X145665539Y-112132564D01*
X145591788Y-112003809D01*
X145555313Y-111939225D01*
X145532144Y-111889135D01*
X145526923Y-111863691D01*
X145527396Y-111863048D01*
X145552963Y-111862880D01*
X145600230Y-111878756D01*
X145615067Y-111885456D01*
X145700367Y-111915241D01*
X145767238Y-111916408D01*
X145809578Y-111888983D01*
X145812230Y-111884665D01*
X145830582Y-111861614D01*
X145856629Y-111862571D01*
X145892657Y-111879373D01*
X145932222Y-111907787D01*
X145995115Y-111962492D01*
X146076323Y-112038329D01*
X146170832Y-112130143D01*
X146273629Y-112232777D01*
X146379702Y-112341073D01*
X146484037Y-112449875D01*
X146581621Y-112554026D01*
X146667441Y-112648369D01*
X146736483Y-112727748D01*
X146783735Y-112787005D01*
X146801347Y-112814113D01*
X146846425Y-112895092D01*
X146908238Y-112995524D01*
X146981292Y-113107513D01*
X147060092Y-113223164D01*
X147139146Y-113334580D01*
X147212958Y-113433867D01*
X147276035Y-113513128D01*
X147322883Y-113564468D01*
X147324566Y-113566037D01*
X147403695Y-113627210D01*
X147478205Y-113663703D01*
X147496590Y-113668397D01*
X147558701Y-113686521D01*
X147592308Y-113715883D01*
X147598113Y-113762083D01*
X148136356Y-113762083D01*
X148140698Y-113718245D01*
X148141768Y-113631526D01*
X148139039Y-113530242D01*
X148132584Y-113405720D01*
X148121695Y-113308392D01*
X148103880Y-113223163D01*
X148076648Y-113134938D01*
X148071222Y-113119455D01*
X148041652Y-113031470D01*
X148025793Y-112965484D01*
X148021449Y-112904264D01*
X148026425Y-112830577D01*
X148030147Y-112797053D01*
X148048250Y-112641447D01*
X148135652Y-112724883D01*
X148168101Y-112756931D01*
X148192761Y-112787049D01*
X148211174Y-112821752D01*
X148224886Y-112867555D01*
X148235438Y-112930975D01*
X148244374Y-113018526D01*
X148253238Y-113136723D01*
X148261101Y-113254500D01*
X148271022Y-113360712D01*
X148286067Y-113471914D01*
X148303131Y-113565440D01*
X148304610Y-113572000D01*
X148317933Y-113647580D01*
X148323964Y-113720071D01*
X148532920Y-113720071D01*
X148553845Y-113640961D01*
X148569953Y-113585393D01*
X148581187Y-113557231D01*
X148590309Y-113549662D01*
X148600086Y-113555869D01*
X148600768Y-113556546D01*
X149188646Y-113556546D01*
X149180748Y-113544978D01*
X149117516Y-113470352D01*
X149029723Y-113375371D01*
X148926658Y-113266561D01*
X148667133Y-112992872D01*
X148680483Y-112832644D01*
X148691283Y-112672745D01*
X148698850Y-112505203D01*
X148185833Y-112505203D01*
X148171556Y-112505875D01*
X148137081Y-112487991D01*
X148094940Y-112459844D01*
X148057666Y-112429726D01*
X148038664Y-112407833D01*
X148029454Y-112372888D01*
X148019412Y-112307893D01*
X148010322Y-112225051D01*
X148008015Y-112198138D01*
X147988737Y-112034702D01*
X147956894Y-111851757D01*
X147915814Y-111664304D01*
X147868824Y-111487342D01*
X147819251Y-111335872D01*
X147813203Y-111319905D01*
X147782756Y-111238138D01*
X147760369Y-111172487D01*
X147749002Y-111131949D01*
X147748620Y-111123490D01*
X147767370Y-111131359D01*
X147804521Y-111160797D01*
X147819297Y-111174252D01*
X147846012Y-111204287D01*
X147870143Y-111244689D01*
X147894508Y-111302509D01*
X147921923Y-111384797D01*
X147955207Y-111498601D01*
X147969705Y-111550583D01*
X147994417Y-111643796D01*
X148022840Y-111757234D01*
X148053303Y-111883519D01*
X148084135Y-112015270D01*
X148113665Y-112145109D01*
X148140223Y-112265655D01*
X148162137Y-112369530D01*
X148177738Y-112449354D01*
X148185355Y-112497748D01*
X148185833Y-112505203D01*
X148698850Y-112505203D01*
X148699632Y-112487902D01*
X148705360Y-112289438D01*
X148708294Y-112088672D01*
X148708265Y-111896928D01*
X148705101Y-111725525D01*
X148699195Y-111594310D01*
X148680180Y-111299369D01*
X148759450Y-111051846D01*
X148831417Y-110805550D01*
X148898832Y-110533031D01*
X148957840Y-110250395D01*
X148978462Y-110136758D01*
X149027722Y-109785930D01*
X149060329Y-109404555D01*
X149069512Y-109173914D01*
X148904137Y-109173914D01*
X148902911Y-109246992D01*
X148898533Y-109349250D01*
X148875749Y-109648679D01*
X148836888Y-109963822D01*
X148784516Y-110278127D01*
X148721202Y-110575042D01*
X148688385Y-110703917D01*
X148642630Y-110873250D01*
X148624439Y-110756833D01*
X148613696Y-110693829D01*
X148596622Y-110600355D01*
X148575280Y-110487434D01*
X148551735Y-110366088D01*
X148543206Y-110322917D01*
X148480605Y-110032874D01*
X148405616Y-109732881D01*
X148316123Y-109415254D01*
X148210013Y-109072312D01*
X148141769Y-108864013D01*
X148091045Y-108711394D01*
X148052658Y-108593799D01*
X148025402Y-108506143D01*
X148008073Y-108443340D01*
X147999466Y-108400306D01*
X147998377Y-108371956D01*
X148003601Y-108353203D01*
X148013932Y-108338964D01*
X148016679Y-108336028D01*
X148039829Y-108314944D01*
X148063007Y-108309611D01*
X148098245Y-108321630D01*
X148157573Y-108352600D01*
X148162841Y-108355466D01*
X148239751Y-108399596D01*
X148283587Y-108433485D01*
X148299622Y-108464834D01*
X148293126Y-108501342D01*
X148281026Y-108528087D01*
X148259883Y-108602299D01*
X148262823Y-108695300D01*
X148273005Y-108750687D01*
X148291566Y-108795368D01*
X148325812Y-108840841D01*
X148383049Y-108898603D01*
X148405412Y-108919688D01*
X148516981Y-109013634D01*
X148623987Y-109084149D01*
X148721329Y-109129072D01*
X148803903Y-109146244D01*
X148866607Y-109133507D01*
X148882783Y-109121708D01*
X148894455Y-109116789D01*
X148901446Y-109132352D01*
X148904137Y-109173914D01*
X149069512Y-109173914D01*
X149076400Y-109000955D01*
X149076052Y-108583452D01*
X149059401Y-108160371D01*
X149026562Y-107740034D01*
X148977654Y-107330762D01*
X148935464Y-107064100D01*
X148923530Y-106984192D01*
X148917998Y-106921136D01*
X148919693Y-106885746D01*
X148921583Y-106882260D01*
X148947851Y-106871472D01*
X149005187Y-106853699D01*
X149083525Y-106831960D01*
X149127750Y-106820463D01*
X149273825Y-106779012D01*
X149425553Y-106728410D01*
X149574263Y-106672212D01*
X149711283Y-106613972D01*
X149827942Y-106557245D01*
X149915568Y-106505587D01*
X149926160Y-106497773D01*
X149493119Y-106497773D01*
X149486749Y-106526098D01*
X149443154Y-106535982D01*
X149363180Y-106527505D01*
X149247671Y-106500742D01*
X149122553Y-106463793D01*
X148346143Y-106239580D01*
X147558125Y-106054715D01*
X146756702Y-105908866D01*
X145940074Y-105801697D01*
X145233083Y-105740796D01*
X145058151Y-105731513D01*
X144861463Y-105724990D01*
X144649428Y-105721125D01*
X144428453Y-105719815D01*
X144204946Y-105720959D01*
X143985316Y-105724456D01*
X143775970Y-105730203D01*
X143583317Y-105738098D01*
X143413765Y-105748040D01*
X143273721Y-105759926D01*
X143169953Y-105773593D01*
X143123683Y-105783334D01*
X143114311Y-105793479D01*
X143136766Y-105809973D01*
X143138203Y-105810818D01*
X143174837Y-105820063D01*
X143250469Y-105828823D01*
X143361764Y-105836853D01*
X143505388Y-105843906D01*
X143656166Y-105849117D01*
X143953954Y-105863847D01*
X144243352Y-105891341D01*
X144531972Y-105933059D01*
X144827426Y-105990462D01*
X145137325Y-106065010D01*
X145469280Y-106158165D01*
X145794000Y-106259383D01*
X146179245Y-106390418D01*
X146531127Y-106522893D01*
X146847539Y-106655909D01*
X147126372Y-106788568D01*
X147365516Y-106919972D01*
X147413250Y-106949032D01*
X147520025Y-107014658D01*
X147642887Y-107089096D01*
X147761292Y-107159932D01*
X147804833Y-107185670D01*
X147882513Y-107232869D01*
X147968223Y-107287374D01*
X148055438Y-107344711D01*
X148137632Y-107400408D01*
X148208278Y-107449992D01*
X148260851Y-107488990D01*
X148288824Y-107512930D01*
X148290206Y-107518333D01*
X148266874Y-107512881D01*
X148210828Y-107497972D01*
X148130061Y-107475779D01*
X148032565Y-107448474D01*
X148015621Y-107443684D01*
X147800496Y-107373007D01*
X147582214Y-107280583D01*
X147466166Y-107223869D01*
X146925743Y-106965458D01*
X146374114Y-106732883D01*
X145819844Y-106529380D01*
X145271495Y-106358185D01*
X144947333Y-106271936D01*
X144788597Y-106233889D01*
X144636132Y-106199764D01*
X144493470Y-106170074D01*
X144364140Y-106145333D01*
X144251673Y-106126054D01*
X144159601Y-106112751D01*
X144091452Y-106105938D01*
X144050758Y-106106128D01*
X144041050Y-106113836D01*
X144065857Y-106129574D01*
X144123686Y-106152108D01*
X144377258Y-106254899D01*
X144648620Y-106390995D01*
X144933753Y-106557414D01*
X145228638Y-106751178D01*
X145529256Y-106969307D01*
X145831588Y-107208822D01*
X146131616Y-107466744D01*
X146425320Y-107740092D01*
X146708681Y-108025887D01*
X146837376Y-108163917D01*
X147029084Y-108380663D01*
X147231182Y-108621569D01*
X147433385Y-108873856D01*
X147625407Y-109124741D01*
X147767463Y-109319625D01*
X147848238Y-109434983D01*
X147933031Y-109558866D01*
X148018132Y-109685566D01*
X148099828Y-109809373D01*
X148174407Y-109924577D01*
X148238157Y-110025468D01*
X148287366Y-110106337D01*
X148318321Y-110161472D01*
X148326482Y-110179506D01*
X148319683Y-110175021D01*
X148293086Y-110139844D01*
X148250041Y-110078731D01*
X148193897Y-109996432D01*
X148129245Y-109899583D01*
X147866851Y-109513789D01*
X147610873Y-109160840D01*
X147355138Y-108833164D01*
X147093470Y-108523186D01*
X146819695Y-108223336D01*
X146527638Y-107926040D01*
X146489609Y-107888750D01*
X146198733Y-107611550D01*
X145924719Y-107365268D01*
X145661693Y-107145109D01*
X145403780Y-106946281D01*
X145145106Y-106763992D01*
X144974673Y-106652670D01*
X144816162Y-106556614D01*
X144648550Y-106462954D01*
X144479207Y-106375213D01*
X144315503Y-106296914D01*
X144164807Y-106231583D01*
X144034491Y-106182743D01*
X143931923Y-106153918D01*
X143931333Y-106153797D01*
X143905190Y-106151140D01*
X143906400Y-106160557D01*
X143937749Y-106184415D01*
X144002022Y-106225080D01*
X144047750Y-106252678D01*
X144430841Y-106498154D01*
X144815609Y-106775960D01*
X145191671Y-107077844D01*
X145548650Y-107395557D01*
X145816386Y-107658532D01*
X146005513Y-107864829D01*
X146203912Y-108102267D01*
X146405462Y-108362549D01*
X146604045Y-108637380D01*
X146793542Y-108918464D01*
X146967832Y-109197506D01*
X147031197Y-109305436D01*
X147104757Y-109436794D01*
X147181782Y-109580702D01*
X147259743Y-109731806D01*
X147336107Y-109884751D01*
X147408345Y-110034182D01*
X147473924Y-110174744D01*
X147530314Y-110301082D01*
X147574984Y-110407841D01*
X147605402Y-110489666D01*
X147619038Y-110541203D01*
X147619473Y-110550034D01*
X147627652Y-110585951D01*
X147651483Y-110646396D01*
X147686002Y-110718925D01*
X147689764Y-110726197D01*
X147725233Y-110797853D01*
X147751126Y-110857041D01*
X147762374Y-110892070D01*
X147762500Y-110893973D01*
X147745622Y-110897469D01*
X147701319Y-110884449D01*
X147639087Y-110859108D01*
X147568421Y-110825644D01*
X147498817Y-110788251D01*
X147440723Y-110751794D01*
X147405817Y-110734771D01*
X147393828Y-110749543D01*
X147404679Y-110797468D01*
X147433953Y-110870172D01*
X147583195Y-111236597D01*
X147697870Y-111584236D01*
X147778908Y-111917373D01*
X147827241Y-112240289D01*
X147843799Y-112557266D01*
X147839428Y-112735917D01*
X147832920Y-112844580D01*
X147825292Y-112946093D01*
X147817553Y-113028230D01*
X147811485Y-113074583D01*
X147796720Y-113159250D01*
X147778409Y-113074583D01*
X147764175Y-113008101D01*
X147752456Y-112952275D01*
X147750847Y-112944421D01*
X147733879Y-112904879D01*
X147693963Y-112834751D01*
X147633461Y-112737382D01*
X147554740Y-112616117D01*
X147460164Y-112474301D01*
X147352098Y-112315278D01*
X147232907Y-112142394D01*
X147104955Y-111958992D01*
X147092906Y-111941899D01*
X146245555Y-111941899D01*
X146216897Y-111930624D01*
X146213805Y-111925956D01*
X146195395Y-111904406D01*
X146150986Y-111859667D01*
X146086043Y-111796874D01*
X146006032Y-111721161D01*
X145916418Y-111637661D01*
X145822666Y-111551508D01*
X145730243Y-111467835D01*
X145652285Y-111398517D01*
X145571236Y-111324657D01*
X145521744Y-111272919D01*
X145501272Y-111240334D01*
X145504404Y-111225786D01*
X145523504Y-111229198D01*
X145562920Y-111256298D01*
X145624486Y-111308698D01*
X145710036Y-111388011D01*
X145821404Y-111495849D01*
X145899833Y-111573376D01*
X146000409Y-111674318D01*
X146088641Y-111764718D01*
X146160796Y-111840594D01*
X146213138Y-111897966D01*
X146241933Y-111932853D01*
X146245555Y-111941899D01*
X147092906Y-111941899D01*
X146970609Y-111768419D01*
X146832231Y-111574018D01*
X146692189Y-111379135D01*
X146579744Y-111224180D01*
X145166342Y-111224180D01*
X145160120Y-111241664D01*
X145122056Y-111270921D01*
X145059613Y-111307990D01*
X144980249Y-111348915D01*
X144891428Y-111389735D01*
X144800609Y-111426493D01*
X144753547Y-111443198D01*
X144658473Y-111471662D01*
X144546009Y-111500345D01*
X144429711Y-111526280D01*
X144323136Y-111546498D01*
X144239842Y-111558034D01*
X144223248Y-111559267D01*
X144204620Y-111555995D01*
X144203225Y-111537657D01*
X144220370Y-111495691D01*
X144238616Y-111458561D01*
X144277967Y-111364191D01*
X144313218Y-111251407D01*
X144339887Y-111137340D01*
X144353492Y-111039120D01*
X144354354Y-111016186D01*
X144347653Y-110965402D01*
X144318793Y-110934936D01*
X144285875Y-110919260D01*
X144217083Y-110891064D01*
X144201301Y-111040464D01*
X144174621Y-111213373D01*
X144135233Y-111351307D01*
X144083935Y-111452726D01*
X144021526Y-111516089D01*
X143948805Y-111539855D01*
X143942265Y-111540000D01*
X143885434Y-111533674D01*
X143806742Y-111517182D01*
X143732479Y-111496816D01*
X143592666Y-111453632D01*
X143592732Y-111254250D01*
X143629741Y-111326748D01*
X143673576Y-111396527D01*
X143715695Y-111426223D01*
X143760500Y-111417642D01*
X143792107Y-111393376D01*
X143842807Y-111321859D01*
X143881969Y-111219392D01*
X143908392Y-111096075D01*
X143920877Y-110962010D01*
X143918226Y-110827297D01*
X143899239Y-110702038D01*
X143881435Y-110640935D01*
X143841262Y-110546782D01*
X143800888Y-110493674D01*
X143757574Y-110480401D01*
X143708582Y-110505751D01*
X143668631Y-110546791D01*
X143633837Y-110586523D01*
X143618303Y-110595656D01*
X143614530Y-110576393D01*
X143614611Y-110562666D01*
X143621191Y-110488258D01*
X143636739Y-110400729D01*
X143657975Y-110313253D01*
X143681621Y-110239004D01*
X143704397Y-110191157D01*
X143708331Y-110186165D01*
X143725969Y-110169013D01*
X143744400Y-110162927D01*
X143770641Y-110171046D01*
X143811712Y-110196508D01*
X143874631Y-110242453D01*
X143933027Y-110286655D01*
X144014826Y-110349501D01*
X144069504Y-110395327D01*
X144103806Y-110432517D01*
X144124473Y-110469457D01*
X144138250Y-110514530D01*
X144146754Y-110552392D01*
X144164932Y-110624475D01*
X144186230Y-110668410D01*
X144219550Y-110697989D01*
X144252624Y-110716434D01*
X144302998Y-110741398D01*
X144334439Y-110755595D01*
X144338508Y-110756833D01*
X144340831Y-110738089D01*
X144338703Y-110691015D01*
X144336775Y-110668473D01*
X144328349Y-110580113D01*
X144442049Y-110662175D01*
X144643644Y-110810795D01*
X144846849Y-110966327D01*
X145038021Y-111118184D01*
X145166342Y-111224180D01*
X146579744Y-111224180D01*
X146552846Y-111187114D01*
X146473482Y-111078902D01*
X145372102Y-111078902D01*
X145368409Y-111087636D01*
X145341273Y-111112287D01*
X145331033Y-111116160D01*
X145310776Y-111103417D01*
X145263577Y-111068588D01*
X145195399Y-111016223D01*
X145112202Y-110950871D01*
X145060635Y-110909785D01*
X144943325Y-110817264D01*
X144807414Y-110712285D01*
X144668759Y-110606981D01*
X144543218Y-110513484D01*
X144528693Y-110502833D01*
X144421447Y-110423292D01*
X144343192Y-110361976D01*
X144287950Y-110313250D01*
X144249745Y-110271476D01*
X144222601Y-110231019D01*
X144206149Y-110198679D01*
X144139069Y-110081050D01*
X144060365Y-109987881D01*
X143975691Y-109923926D01*
X143890695Y-109893939D01*
X143843867Y-109893926D01*
X143800710Y-109897867D01*
X143783166Y-109894819D01*
X143793067Y-109870387D01*
X143817110Y-109826699D01*
X143846805Y-109777731D01*
X143873661Y-109737460D01*
X143889189Y-109719864D01*
X143889460Y-109719830D01*
X143908865Y-109733314D01*
X143955671Y-109771497D01*
X144025793Y-109830784D01*
X144115144Y-109907578D01*
X144219636Y-109998285D01*
X144335183Y-110099308D01*
X144457699Y-110207052D01*
X144583096Y-110317921D01*
X144707289Y-110428320D01*
X144826191Y-110534652D01*
X144935714Y-110633322D01*
X145031774Y-110720735D01*
X145110281Y-110793295D01*
X145122293Y-110804556D01*
X145222569Y-110899948D01*
X145294357Y-110971248D01*
X145340988Y-111022286D01*
X145365793Y-111056894D01*
X145372102Y-111078902D01*
X146473482Y-111078902D01*
X146416567Y-111001300D01*
X146285717Y-110825039D01*
X146162662Y-110661674D01*
X146049765Y-110514551D01*
X145949392Y-110387014D01*
X145896462Y-110321648D01*
X145836644Y-110243100D01*
X145784603Y-110164585D01*
X145749095Y-110099651D01*
X145742503Y-110083523D01*
X145725396Y-110030465D01*
X145718295Y-109998777D01*
X145719278Y-109994833D01*
X145735257Y-110010861D01*
X145773212Y-110055787D01*
X145829414Y-110124871D01*
X145900136Y-110213374D01*
X145981648Y-110316559D01*
X146070223Y-110429685D01*
X146162131Y-110548014D01*
X146253645Y-110666807D01*
X146341035Y-110781326D01*
X146410403Y-110873250D01*
X146563444Y-111080776D01*
X146733535Y-111317543D01*
X146915800Y-111576574D01*
X147105367Y-111850895D01*
X147297360Y-112133533D01*
X147434940Y-112339138D01*
X147512012Y-112454495D01*
X147581042Y-112556701D01*
X147638703Y-112640919D01*
X147681667Y-112702316D01*
X147706607Y-112736057D01*
X147711518Y-112741037D01*
X147709587Y-112718798D01*
X147698776Y-112664131D01*
X147681175Y-112585493D01*
X147658874Y-112491342D01*
X147633962Y-112390137D01*
X147608529Y-112290337D01*
X147584663Y-112200400D01*
X147564454Y-112128784D01*
X147549992Y-112083949D01*
X147547965Y-112078921D01*
X147510019Y-111999180D01*
X147452837Y-111889264D01*
X147379703Y-111754843D01*
X147293903Y-111601589D01*
X147198720Y-111435173D01*
X147097439Y-111261265D01*
X146993345Y-111085537D01*
X146889720Y-110913659D01*
X146789851Y-110751303D01*
X146697022Y-110604140D01*
X146665815Y-110555750D01*
X146526138Y-110344176D01*
X146378775Y-110127357D01*
X146227240Y-109910053D01*
X146075046Y-109697025D01*
X145925704Y-109493033D01*
X145782729Y-109302839D01*
X145649633Y-109131202D01*
X145627453Y-109103720D01*
X144905296Y-109103720D01*
X144825773Y-109076409D01*
X144777317Y-109050742D01*
X144708248Y-109002481D01*
X144628137Y-108938715D01*
X144562934Y-108881674D01*
X144485512Y-108810363D01*
X144435881Y-108762026D01*
X144410278Y-108731414D01*
X144404940Y-108713280D01*
X144416103Y-108702377D01*
X144430299Y-108696725D01*
X144458685Y-108692101D01*
X144490271Y-108701586D01*
X144532899Y-108729722D01*
X144594408Y-108781049D01*
X144629221Y-108811924D01*
X144703842Y-108881200D01*
X144774104Y-108950682D01*
X144828225Y-109008582D01*
X144841379Y-109024183D01*
X144905296Y-109103720D01*
X145627453Y-109103720D01*
X145529929Y-108982885D01*
X145427130Y-108862647D01*
X145373347Y-108804208D01*
X145328263Y-108753846D01*
X145302027Y-108717776D01*
X145300204Y-108703672D01*
X145300441Y-108703667D01*
X145345577Y-108711198D01*
X145414668Y-108730604D01*
X145494058Y-108757101D01*
X145570090Y-108785906D01*
X145629107Y-108812237D01*
X145653999Y-108827493D01*
X145700569Y-108876030D01*
X145766910Y-108956389D01*
X145850256Y-109064557D01*
X145947839Y-109196520D01*
X146056894Y-109348267D01*
X146174651Y-109515785D01*
X146298345Y-109695060D01*
X146425209Y-109882079D01*
X146552475Y-110072831D01*
X146677377Y-110263301D01*
X146797146Y-110449478D01*
X146909018Y-110627348D01*
X147010223Y-110792898D01*
X147016808Y-110803874D01*
X147084375Y-110915736D01*
X147144530Y-111013588D01*
X147193967Y-111092197D01*
X147229384Y-111146332D01*
X147247477Y-111170762D01*
X147248999Y-111171556D01*
X147244523Y-111149291D01*
X147224593Y-111094765D01*
X147191852Y-111013990D01*
X147148945Y-110912975D01*
X147098517Y-110797729D01*
X147043211Y-110674263D01*
X146985672Y-110548587D01*
X146928543Y-110426710D01*
X146874470Y-110314641D01*
X146852294Y-110269922D01*
X146558198Y-109729570D01*
X146224099Y-109202831D01*
X146002802Y-108891096D01*
X145898216Y-108757683D01*
X145767242Y-108603419D01*
X145615980Y-108434593D01*
X145450529Y-108257497D01*
X145276988Y-108078423D01*
X145101455Y-107903661D01*
X144930029Y-107739503D01*
X144768809Y-107592239D01*
X144623895Y-107468162D01*
X144621264Y-107466009D01*
X144403490Y-107298552D01*
X144156757Y-107127164D01*
X143892890Y-106959276D01*
X143623709Y-106802319D01*
X143361038Y-106663724D01*
X143289061Y-106628644D01*
X142965095Y-106487895D01*
X142651680Y-106379620D01*
X142351154Y-106304176D01*
X142065857Y-106261919D01*
X141798129Y-106253203D01*
X141550308Y-106278386D01*
X141340543Y-106332268D01*
X141285605Y-106355335D01*
X141215495Y-106390544D01*
X141138566Y-106432906D01*
X141063173Y-106477433D01*
X140997670Y-106519135D01*
X140950411Y-106553025D01*
X140929750Y-106574113D01*
X140930126Y-106577348D01*
X140954251Y-106577971D01*
X141002035Y-106567951D01*
X141011735Y-106565245D01*
X141182923Y-106526063D01*
X141383803Y-106497023D01*
X141602877Y-106478499D01*
X141828646Y-106470865D01*
X142049611Y-106474498D01*
X142254274Y-106489770D01*
X142431135Y-106517057D01*
X142439083Y-106518753D01*
X142815019Y-106621280D01*
X143189552Y-106765402D01*
X143561151Y-106950377D01*
X143928284Y-107175468D01*
X144195916Y-107367220D01*
X144389855Y-107520740D01*
X144589839Y-107689552D01*
X144783914Y-107863110D01*
X144960125Y-108030866D01*
X145042583Y-108114229D01*
X145127237Y-108203444D01*
X145216288Y-108299727D01*
X145305077Y-108397762D01*
X145388944Y-108492235D01*
X145463231Y-108577833D01*
X145523278Y-108649242D01*
X145564425Y-108701149D01*
X145582015Y-108728238D01*
X145582333Y-108729824D01*
X145563927Y-108728723D01*
X145515181Y-108716419D01*
X145445802Y-108695431D01*
X145429618Y-108690188D01*
X145352825Y-108666051D01*
X145290452Y-108648305D01*
X145254441Y-108640316D01*
X145252066Y-108640167D01*
X145228620Y-108625598D01*
X145183036Y-108585912D01*
X145121844Y-108527137D01*
X145051577Y-108455301D01*
X145050239Y-108453893D01*
X144958688Y-108360066D01*
X144847326Y-108249895D01*
X144723361Y-108130155D01*
X144594000Y-108007619D01*
X144466452Y-107889058D01*
X144347926Y-107781247D01*
X144245627Y-107690957D01*
X144175578Y-107632041D01*
X143968996Y-107476346D01*
X143738989Y-107323060D01*
X143496182Y-107178230D01*
X143251204Y-107047905D01*
X143014680Y-106938133D01*
X142829467Y-106865938D01*
X142600521Y-106796917D01*
X142355287Y-106742307D01*
X142104844Y-106703542D01*
X141860272Y-106682052D01*
X141632653Y-106679272D01*
X141475063Y-106690883D01*
X141359891Y-106706931D01*
X141261967Y-106724589D01*
X141188156Y-106742303D01*
X141145323Y-106758524D01*
X141137333Y-106767232D01*
X141144999Y-106789171D01*
X141163913Y-106835454D01*
X141187950Y-106891821D01*
X141210984Y-106944013D01*
X141226890Y-106977768D01*
X141230075Y-106983131D01*
X141251750Y-106989362D01*
X141305903Y-107001859D01*
X141383500Y-107018594D01*
X141445703Y-107031496D01*
X141861044Y-107136319D01*
X142278996Y-107281003D01*
X142694921Y-107463698D01*
X143104181Y-107682558D01*
X143154439Y-107712246D01*
X143250474Y-107769325D01*
X143343467Y-107824140D01*
X143421572Y-107869734D01*
X143465666Y-107895058D01*
X143552128Y-107948650D01*
X143663538Y-108024909D01*
X143792970Y-108118646D01*
X143933494Y-108224674D01*
X144078183Y-108337802D01*
X144220108Y-108452843D01*
X144301750Y-108521217D01*
X144365250Y-108575144D01*
X144294265Y-108575905D01*
X144255780Y-108571014D01*
X144211586Y-108552667D01*
X144154387Y-108516578D01*
X144076888Y-108458459D01*
X144027350Y-108419079D01*
X143798299Y-108241821D01*
X143557325Y-108068047D01*
X143313421Y-107903699D01*
X143075580Y-107754714D01*
X142852797Y-107627035D01*
X142735416Y-107565778D01*
X142570980Y-107487809D01*
X142393570Y-107411094D01*
X142209715Y-107337850D01*
X142025940Y-107270294D01*
X141848775Y-107210643D01*
X141684745Y-107161114D01*
X141540379Y-107123924D01*
X141422205Y-107101290D01*
X141349796Y-107095148D01*
X141324583Y-107097289D01*
X141319725Y-107108185D01*
X141338283Y-107134253D01*
X141383322Y-107181912D01*
X141398676Y-107197543D01*
X141526056Y-107306088D01*
X141692853Y-107414094D01*
X141896161Y-107520109D01*
X142133073Y-107622685D01*
X142400684Y-107720370D01*
X142531283Y-107762638D01*
X142655416Y-107802626D01*
X142743912Y-107836781D01*
X142801884Y-107870735D01*
X142834447Y-107910119D01*
X142846714Y-107960564D01*
X142843799Y-108027702D01*
X142834143Y-108096133D01*
X142817404Y-108198090D01*
X142797056Y-108315173D01*
X142778754Y-108415320D01*
X142766931Y-108476066D01*
X142759824Y-108523537D01*
X142760665Y-108563578D01*
X142772690Y-108602031D01*
X142799134Y-108644740D01*
X142843230Y-108697551D01*
X142908213Y-108766305D01*
X142997317Y-108856847D01*
X143056023Y-108916269D01*
X143270795Y-109134083D01*
X143227132Y-109217852D01*
X143201619Y-109291930D01*
X143207352Y-109345413D01*
X143238547Y-109373028D01*
X143289422Y-109369501D01*
X143351828Y-109331571D01*
X143412968Y-109280125D01*
X143743714Y-109582179D01*
X143686452Y-109684632D01*
X143629191Y-109787085D01*
X143440019Y-109599917D01*
X143192548Y-109338353D01*
X142938961Y-109037205D01*
X142678518Y-108695578D01*
X142608031Y-108597833D01*
X142508191Y-108458460D01*
X142429573Y-108350341D01*
X142369340Y-108269898D01*
X142324654Y-108213553D01*
X142292679Y-108177729D01*
X142270576Y-108158848D01*
X142255509Y-108153333D01*
X142255477Y-108153333D01*
X142240716Y-108172896D01*
X142238200Y-108229098D01*
X142247425Y-108318212D01*
X142267887Y-108436508D01*
X142299084Y-108580258D01*
X142330058Y-108705764D01*
X142420785Y-109057112D01*
X142271184Y-109029295D01*
X142176593Y-109010150D01*
X142063180Y-108984947D01*
X141953006Y-108958620D01*
X141936024Y-108954346D01*
X141750465Y-108907215D01*
X141664193Y-108747232D01*
X141570238Y-108591684D01*
X141465055Y-108449686D01*
X141352692Y-108324250D01*
X141237194Y-108218388D01*
X141122607Y-108135110D01*
X141012978Y-108077426D01*
X140912352Y-108048349D01*
X140824776Y-108050889D01*
X140765670Y-108078577D01*
X140724281Y-108103197D01*
X140700494Y-108110327D01*
X140685185Y-108091492D01*
X140664304Y-108040460D01*
X140641307Y-107966392D01*
X140630191Y-107923972D01*
X140610317Y-107839040D01*
X140598429Y-107770349D01*
X140593819Y-107704410D01*
X140595777Y-107627734D01*
X140603594Y-107526830D01*
X140607229Y-107487100D01*
X140613593Y-107412500D01*
X140502333Y-107412500D01*
X140494589Y-107429922D01*
X140488222Y-107426611D01*
X140485689Y-107401491D01*
X140488222Y-107398389D01*
X140500806Y-107401294D01*
X140502333Y-107412500D01*
X140613593Y-107412500D01*
X140615590Y-107389094D01*
X140621107Y-107307605D01*
X140623300Y-107251207D01*
X140621736Y-107228514D01*
X140604458Y-107237246D01*
X140573513Y-107270096D01*
X140568246Y-107276656D01*
X140542219Y-107305556D01*
X140527667Y-107309362D01*
X140524683Y-107284757D01*
X140533363Y-107228429D01*
X140553800Y-107137060D01*
X140569349Y-107073969D01*
X140380877Y-107073969D01*
X140370895Y-107140365D01*
X140361814Y-107182494D01*
X140345173Y-107279013D01*
X140331844Y-107400603D01*
X140322247Y-107536230D01*
X140316803Y-107674857D01*
X140315935Y-107805451D01*
X140320063Y-107916975D01*
X140329608Y-107998395D01*
X140330505Y-108002752D01*
X140343279Y-108068800D01*
X140342685Y-108111060D01*
X140324267Y-108147126D01*
X140283570Y-108194594D01*
X140281292Y-108197116D01*
X140218430Y-108274072D01*
X140169571Y-108353841D01*
X140129931Y-108447058D01*
X140094729Y-108564357D01*
X140070136Y-108666625D01*
X140054798Y-108708734D01*
X140038225Y-108724833D01*
X140015509Y-108710179D01*
X139974247Y-108671812D01*
X139924782Y-108619570D01*
X139853315Y-108535567D01*
X139763805Y-108423248D01*
X139661516Y-108289641D01*
X139551711Y-108141771D01*
X139439653Y-107986663D01*
X139330605Y-107831344D01*
X139290057Y-107772271D01*
X139141270Y-107544202D01*
X139005199Y-107316272D01*
X138885173Y-107094894D01*
X138784518Y-106886484D01*
X138706562Y-106697457D01*
X138661864Y-106561249D01*
X138629293Y-106473373D01*
X138579583Y-106395144D01*
X138521027Y-106328416D01*
X138422519Y-106206270D01*
X138325202Y-106049447D01*
X138232767Y-105865528D01*
X138148904Y-105662096D01*
X138077303Y-105446732D01*
X138057387Y-105375804D01*
X138029400Y-105269345D01*
X138012971Y-105200147D01*
X138007941Y-105164792D01*
X138014153Y-105159860D01*
X138031448Y-105181935D01*
X138049788Y-105211167D01*
X138095726Y-105279761D01*
X138146625Y-105346382D01*
X138150251Y-105350701D01*
X138194939Y-105405670D01*
X138232553Y-105455602D01*
X138236881Y-105461826D01*
X138268135Y-105497087D01*
X138290681Y-105506060D01*
X138295702Y-105487318D01*
X138290308Y-105470458D01*
X138266964Y-105402865D01*
X138242401Y-105309456D01*
X138215744Y-105186184D01*
X138186120Y-105029006D01*
X138152656Y-104833874D01*
X138152042Y-104830167D01*
X138128515Y-104692752D01*
X138103878Y-104557175D01*
X138080149Y-104433978D01*
X138059346Y-104333706D01*
X138046273Y-104277495D01*
X137934326Y-103908595D01*
X137789935Y-103549208D01*
X137617552Y-103209493D01*
X137478996Y-102983375D01*
X137328044Y-102755833D01*
X137400688Y-102755833D01*
X137526382Y-102762199D01*
X137681762Y-102780000D01*
X137856350Y-102807289D01*
X138039669Y-102842118D01*
X138221243Y-102882541D01*
X138390594Y-102926612D01*
X138502083Y-102960493D01*
X138595691Y-102994081D01*
X138678115Y-103031503D01*
X138756655Y-103077834D01*
X138838611Y-103138150D01*
X138931284Y-103217527D01*
X139041975Y-103321040D01*
X139096324Y-103373645D01*
X139330731Y-103602077D01*
X139322957Y-103364163D01*
X139315183Y-103126250D01*
X139380289Y-103276502D01*
X139422462Y-103366363D01*
X139477214Y-103472867D01*
X139534576Y-103576830D01*
X139550762Y-103604585D01*
X139649537Y-103775284D01*
X139727583Y-103921065D01*
X139788724Y-104051499D01*
X139836783Y-104176156D01*
X139875581Y-104304606D01*
X139908942Y-104446419D01*
X139930404Y-104555000D01*
X139953585Y-104686257D01*
X139979732Y-104846523D01*
X140006846Y-105022767D01*
X140032930Y-105201958D01*
X140055987Y-105371064D01*
X140058587Y-105391083D01*
X140098883Y-105687666D01*
X140140512Y-105964472D01*
X140182811Y-106218051D01*
X140225116Y-106444954D01*
X140266766Y-106641734D01*
X140307096Y-106804941D01*
X140345445Y-106931127D01*
X140364017Y-106980093D01*
X140378529Y-107025609D01*
X140380877Y-107073969D01*
X140569349Y-107073969D01*
X140574600Y-107052667D01*
X140642516Y-106829347D01*
X140735004Y-106593820D01*
X140846074Y-106358322D01*
X140969736Y-106135089D01*
X140976619Y-106124588D01*
X140745477Y-106124588D01*
X140743458Y-106147821D01*
X140727641Y-106194382D01*
X140703978Y-106250156D01*
X140678420Y-106301026D01*
X140658263Y-106331455D01*
X140641385Y-106324066D01*
X140621592Y-106301557D01*
X140582566Y-106274063D01*
X140556746Y-106276580D01*
X140529274Y-106302897D01*
X140532499Y-106337642D01*
X140562099Y-106365460D01*
X140583543Y-106371726D01*
X140618907Y-106385667D01*
X140619385Y-106414059D01*
X140605595Y-106449333D01*
X140580502Y-106512086D01*
X140548799Y-106590600D01*
X140538392Y-106616238D01*
X140470583Y-106783059D01*
X140426243Y-106595071D01*
X140404618Y-106502043D01*
X140385340Y-106416722D01*
X140371587Y-106353253D01*
X140368564Y-106338292D01*
X140363686Y-106289696D01*
X140376706Y-106270872D01*
X140387408Y-106269500D01*
X140431442Y-106252101D01*
X140477329Y-106209675D01*
X140512181Y-106156880D01*
X140523500Y-106114743D01*
X140525632Y-106085233D01*
X140539087Y-106073240D01*
X140574448Y-106075975D01*
X140627584Y-106087337D01*
X140690209Y-106103417D01*
X140734313Y-106118387D01*
X140745477Y-106124588D01*
X140976619Y-106124588D01*
X141100000Y-105936357D01*
X141159580Y-105857676D01*
X141359048Y-105636500D01*
X141594135Y-105425601D01*
X141858666Y-105228520D01*
X142146466Y-105048801D01*
X142451359Y-104889987D01*
X142767171Y-104755619D01*
X143087726Y-104649241D01*
X143391583Y-104577228D01*
X143467756Y-104562730D01*
X143532632Y-104550095D01*
X143563617Y-104543830D01*
X143564542Y-104554397D01*
X143536909Y-104591035D01*
X143483177Y-104651007D01*
X143405806Y-104731573D01*
X143307256Y-104829995D01*
X143301440Y-104835705D01*
X143197565Y-104939321D01*
X143094999Y-105044699D01*
X143001131Y-105144024D01*
X142923352Y-105229482D01*
X142870418Y-105291547D01*
X142798974Y-105384283D01*
X142736493Y-105472141D01*
X142687064Y-105548662D01*
X142654777Y-105607389D01*
X142643720Y-105641863D01*
X142645461Y-105646850D01*
X142666823Y-105641234D01*
X142713257Y-105616654D01*
X142775061Y-105578290D01*
X142780324Y-105574817D01*
X142992254Y-105444654D01*
X143194436Y-105343943D01*
X143400784Y-105267036D01*
X143625213Y-105208283D01*
X143738542Y-105185763D01*
X143819475Y-105171946D01*
X143897156Y-105161218D01*
X143978615Y-105153199D01*
X144070884Y-105147510D01*
X144180993Y-105143771D01*
X144315975Y-105141601D01*
X144482861Y-105140622D01*
X144576916Y-105140462D01*
X144854978Y-105143208D01*
X145117116Y-105152607D01*
X145367721Y-105169710D01*
X145611183Y-105195567D01*
X145851893Y-105231228D01*
X146094241Y-105277744D01*
X146342618Y-105336165D01*
X146601414Y-105407541D01*
X146875019Y-105492922D01*
X147167824Y-105593359D01*
X147484219Y-105709902D01*
X147828595Y-105843602D01*
X148205342Y-105995507D01*
X148281083Y-106026571D01*
X148443324Y-106092255D01*
X148610422Y-106158100D01*
X148773228Y-106220630D01*
X148922594Y-106276368D01*
X149049371Y-106321840D01*
X149127750Y-106348285D01*
X149255209Y-106389544D01*
X149348050Y-106420372D01*
X149412014Y-106443116D01*
X149452842Y-106460125D01*
X149476274Y-106473749D01*
X149488051Y-106486335D01*
X149493119Y-106497773D01*
X149926160Y-106497773D01*
X149940266Y-106487367D01*
X149976675Y-106442894D01*
X149977091Y-106404926D01*
X149964655Y-106384906D01*
X149936859Y-106368741D01*
X149886312Y-106354027D01*
X149805620Y-106338362D01*
X149738242Y-106327282D01*
X149647335Y-106309109D01*
X149529757Y-106280111D01*
X149394718Y-106243115D01*
X149251429Y-106200946D01*
X149109100Y-106156430D01*
X148976941Y-106112394D01*
X148864163Y-106071664D01*
X148779977Y-106037067D01*
X148758316Y-106026592D01*
X148718489Y-105985271D01*
X148677687Y-105902511D01*
X148636123Y-105779186D01*
X148594006Y-105616173D01*
X148551546Y-105414349D01*
X148508954Y-105174590D01*
X148466440Y-104897771D01*
X148446684Y-104754328D01*
X148296529Y-104754328D01*
X148295128Y-104855749D01*
X148289039Y-104925079D01*
X148275912Y-105016821D01*
X148257754Y-105125731D01*
X148236108Y-105244345D01*
X148212517Y-105365202D01*
X148188524Y-105480838D01*
X148165673Y-105583791D01*
X148145507Y-105666598D01*
X148129568Y-105721797D01*
X148120176Y-105741666D01*
X148093898Y-105738907D01*
X148036544Y-105722362D01*
X147956076Y-105694631D01*
X147860453Y-105658310D01*
X147841108Y-105650604D01*
X147722645Y-105604098D01*
X147580407Y-105549855D01*
X147430624Y-105493981D01*
X147289527Y-105442581D01*
X147261697Y-105432634D01*
X147122027Y-105384301D01*
X146967125Y-105332940D01*
X146814194Y-105284128D01*
X146680437Y-105243444D01*
X146658447Y-105237046D01*
X146376083Y-105155668D01*
X146338305Y-105008792D01*
X146321690Y-104927178D01*
X146305583Y-104818429D01*
X146291990Y-104697718D01*
X146283928Y-104597333D01*
X146267328Y-104332750D01*
X146406372Y-103941167D01*
X146545416Y-103549583D01*
X146561402Y-103729500D01*
X146571368Y-103837825D01*
X146582528Y-103953322D01*
X146592572Y-104052119D01*
X146593152Y-104057583D01*
X146608916Y-104205750D01*
X146675959Y-104004667D01*
X146729567Y-103813460D01*
X146763043Y-103617960D01*
X146776112Y-103413222D01*
X146768500Y-103194302D01*
X146739930Y-102956258D01*
X146690129Y-102694144D01*
X146618821Y-102403018D01*
X146578841Y-102258417D01*
X146555477Y-102170494D01*
X146539713Y-102099109D01*
X146533282Y-102052992D01*
X146535579Y-102040253D01*
X146567973Y-102045934D01*
X146629424Y-102073232D01*
X146714522Y-102119187D01*
X146817855Y-102180838D01*
X146934012Y-102255226D01*
X146959069Y-102271882D01*
X147203541Y-102460487D01*
X147423256Y-102681221D01*
X147615667Y-102930175D01*
X147778225Y-103203437D01*
X147908380Y-103497096D01*
X148003584Y-103807242D01*
X148026268Y-103909417D01*
X148047446Y-104004092D01*
X148071426Y-104095811D01*
X148093360Y-104166166D01*
X148095325Y-104171506D01*
X148130222Y-104264262D01*
X148156707Y-104139756D01*
X148177145Y-104051299D01*
X148200244Y-103962192D01*
X148212415Y-103920000D01*
X148222952Y-103887626D01*
X148230927Y-103871868D01*
X148237020Y-103876992D01*
X148241911Y-103907262D01*
X148246282Y-103966943D01*
X148250813Y-104060299D01*
X148256185Y-104191596D01*
X148256326Y-104195167D01*
X148262284Y-104324874D01*
X148269410Y-104447814D01*
X148277040Y-104554395D01*
X148284509Y-104635022D01*
X148289320Y-104671079D01*
X148296529Y-104754328D01*
X148446684Y-104754328D01*
X148438180Y-104692583D01*
X148430561Y-104617033D01*
X148422757Y-104507738D01*
X148415218Y-104373283D01*
X148408393Y-104222252D01*
X148402732Y-104063228D01*
X148399959Y-103962585D01*
X148395772Y-103797159D01*
X148391887Y-103669198D01*
X148387844Y-103573837D01*
X148383184Y-103506216D01*
X148377448Y-103461471D01*
X148370177Y-103434739D01*
X148360911Y-103421159D01*
X148349191Y-103415867D01*
X148348300Y-103415688D01*
X148299231Y-103423904D01*
X148251966Y-103469320D01*
X148204679Y-103554013D01*
X148183847Y-103603121D01*
X148155993Y-103668065D01*
X148132504Y-103713669D01*
X148119268Y-103729500D01*
X148107387Y-103710775D01*
X148094426Y-103663649D01*
X148089875Y-103639542D01*
X148061631Y-103522266D01*
X148013402Y-103380440D01*
X147949112Y-103224448D01*
X147872687Y-103064676D01*
X147872626Y-103064557D01*
X147709555Y-102792592D01*
X147511775Y-102542230D01*
X147282732Y-102316733D01*
X147025870Y-102119361D01*
X146744635Y-101953377D01*
X146650688Y-101907717D01*
X146539350Y-101859478D01*
X146458305Y-101832981D01*
X146401887Y-101827628D01*
X146364429Y-101842824D01*
G36*
X141922269Y-113700804D02*
X141901982Y-113714959D01*
X141852023Y-113761976D01*
X141838938Y-113798434D01*
X141862687Y-113820512D01*
X141903073Y-113825356D01*
X141963852Y-113818519D01*
X142010458Y-113803138D01*
X142043642Y-113767073D01*
X142041866Y-113755754D01*
X142013720Y-113755754D01*
X141982963Y-113781298D01*
X141980068Y-113782504D01*
X141918476Y-113801240D01*
X141883677Y-113798715D01*
X141878166Y-113787900D01*
X141895818Y-113753494D01*
X141935987Y-113726601D01*
X141965817Y-113720167D01*
X142007042Y-113731168D01*
X142013720Y-113755754D01*
X142041866Y-113755754D01*
X142037366Y-113727086D01*
X142002523Y-113697585D01*
X141962751Y-113685549D01*
X141922269Y-113700804D01*
X141922269Y-113700804D01*
G37*
X141922269Y-113700804D02*
X141901982Y-113714959D01*
X141852023Y-113761976D01*
X141838938Y-113798434D01*
X141862687Y-113820512D01*
X141903073Y-113825356D01*
X141963852Y-113818519D01*
X142010458Y-113803138D01*
X142043642Y-113767073D01*
X142041866Y-113755754D01*
X142013720Y-113755754D01*
X141982963Y-113781298D01*
X141980068Y-113782504D01*
X141918476Y-113801240D01*
X141883677Y-113798715D01*
X141878166Y-113787900D01*
X141895818Y-113753494D01*
X141935987Y-113726601D01*
X141965817Y-113720167D01*
X142007042Y-113731168D01*
X142013720Y-113755754D01*
X142041866Y-113755754D01*
X142037366Y-113727086D01*
X142002523Y-113697585D01*
X141962751Y-113685549D01*
X141922269Y-113700804D01*
G36*
X142349202Y-113546356D02*
X142329024Y-113583499D01*
X142334430Y-113616243D01*
X142366122Y-113634093D01*
X142409170Y-113630629D01*
X142439949Y-113608381D01*
X142441623Y-113604763D01*
X142441891Y-113586289D01*
X142419528Y-113586289D01*
X142402588Y-113609280D01*
X142384917Y-113614333D01*
X142365382Y-113600132D01*
X142365000Y-113596694D01*
X142378808Y-113566019D01*
X142407470Y-113561760D01*
X142410631Y-113563455D01*
X142419528Y-113586289D01*
X142441891Y-113586289D01*
X142442291Y-113558823D01*
X142409075Y-113532452D01*
X142387182Y-113529667D01*
X142349202Y-113546356D01*
X142349202Y-113546356D01*
G37*
X142349202Y-113546356D02*
X142329024Y-113583499D01*
X142334430Y-113616243D01*
X142366122Y-113634093D01*
X142409170Y-113630629D01*
X142439949Y-113608381D01*
X142441623Y-113604763D01*
X142441891Y-113586289D01*
X142419528Y-113586289D01*
X142402588Y-113609280D01*
X142384917Y-113614333D01*
X142365382Y-113600132D01*
X142365000Y-113596694D01*
X142378808Y-113566019D01*
X142407470Y-113561760D01*
X142410631Y-113563455D01*
X142419528Y-113586289D01*
X142441891Y-113586289D01*
X142442291Y-113558823D01*
X142409075Y-113532452D01*
X142387182Y-113529667D01*
X142349202Y-113546356D01*
G36*
X141948580Y-113322618D02*
X141947963Y-113323292D01*
X141913635Y-113373493D01*
X141884741Y-113436765D01*
X141866566Y-113498222D01*
X141864394Y-113542980D01*
X141867327Y-113550419D01*
X141901655Y-113568831D01*
X141962381Y-113567960D01*
X142038713Y-113548750D01*
X142081328Y-113531675D01*
X142157517Y-113486027D01*
X142191732Y-113436783D01*
X142188570Y-113414049D01*
X142153333Y-113414049D01*
X142135021Y-113447940D01*
X142089178Y-113483697D01*
X142029443Y-113513330D01*
X141969455Y-113528849D01*
X141956115Y-113529587D01*
X141914746Y-113525128D01*
X141905455Y-113504694D01*
X141910694Y-113482042D01*
X141939828Y-113413249D01*
X141978965Y-113355839D01*
X142017147Y-113325118D01*
X142058106Y-113327770D01*
X142105905Y-113352430D01*
X142143030Y-113387661D01*
X142153333Y-113414049D01*
X142188570Y-113414049D01*
X142184248Y-113382976D01*
X142139659Y-113327572D01*
X142071723Y-113284068D01*
X142007665Y-113282408D01*
X141948580Y-113322618D01*
X141948580Y-113322618D01*
G37*
X141948580Y-113322618D02*
X141947963Y-113323292D01*
X141913635Y-113373493D01*
X141884741Y-113436765D01*
X141866566Y-113498222D01*
X141864394Y-113542980D01*
X141867327Y-113550419D01*
X141901655Y-113568831D01*
X141962381Y-113567960D01*
X142038713Y-113548750D01*
X142081328Y-113531675D01*
X142157517Y-113486027D01*
X142191732Y-113436783D01*
X142188570Y-113414049D01*
X142153333Y-113414049D01*
X142135021Y-113447940D01*
X142089178Y-113483697D01*
X142029443Y-113513330D01*
X141969455Y-113528849D01*
X141956115Y-113529587D01*
X141914746Y-113525128D01*
X141905455Y-113504694D01*
X141910694Y-113482042D01*
X141939828Y-113413249D01*
X141978965Y-113355839D01*
X142017147Y-113325118D01*
X142058106Y-113327770D01*
X142105905Y-113352430D01*
X142143030Y-113387661D01*
X142153333Y-113414049D01*
X142188570Y-113414049D01*
X142184248Y-113382976D01*
X142139659Y-113327572D01*
X142071723Y-113284068D01*
X142007665Y-113282408D01*
X141948580Y-113322618D01*
G36*
X142384419Y-113112444D02*
X142354526Y-113136377D01*
X142324667Y-113187079D01*
X142301671Y-113240155D01*
X142293362Y-113276616D01*
X142295351Y-113283629D01*
X142329116Y-113295844D01*
X142382436Y-113297485D01*
X142437441Y-113290144D01*
X142476261Y-113275410D01*
X142483659Y-113266871D01*
X142489931Y-113224333D01*
X142489365Y-113207999D01*
X142464505Y-113207999D01*
X142451139Y-113242142D01*
X142409631Y-113269771D01*
X142362272Y-113274420D01*
X142337622Y-113262400D01*
X142336031Y-113235607D01*
X142353021Y-113194188D01*
X142379161Y-113154504D01*
X142405024Y-113132921D01*
X142412354Y-113132701D01*
X142451870Y-113163014D01*
X142464505Y-113207999D01*
X142489365Y-113207999D01*
X142488287Y-113176913D01*
X142473687Y-113130732D01*
X142435889Y-113111993D01*
X142424302Y-113110324D01*
X142384419Y-113112444D01*
X142384419Y-113112444D01*
G37*
X142384419Y-113112444D02*
X142354526Y-113136377D01*
X142324667Y-113187079D01*
X142301671Y-113240155D01*
X142293362Y-113276616D01*
X142295351Y-113283629D01*
X142329116Y-113295844D01*
X142382436Y-113297485D01*
X142437441Y-113290144D01*
X142476261Y-113275410D01*
X142483659Y-113266871D01*
X142489931Y-113224333D01*
X142489365Y-113207999D01*
X142464505Y-113207999D01*
X142451139Y-113242142D01*
X142409631Y-113269771D01*
X142362272Y-113274420D01*
X142337622Y-113262400D01*
X142336031Y-113235607D01*
X142353021Y-113194188D01*
X142379161Y-113154504D01*
X142405024Y-113132921D01*
X142412354Y-113132701D01*
X142451870Y-113163014D01*
X142464505Y-113207999D01*
X142489365Y-113207999D01*
X142488287Y-113176913D01*
X142473687Y-113130732D01*
X142435889Y-113111993D01*
X142424302Y-113110324D01*
X142384419Y-113112444D01*
G36*
X142710955Y-111643003D02*
X142660061Y-111668007D01*
X142645866Y-111689826D01*
X142619702Y-111723372D01*
X142595364Y-111730500D01*
X142562536Y-111737517D01*
X142555970Y-111746375D01*
X142571222Y-111780017D01*
X142608335Y-111822631D01*
X142656686Y-111865471D01*
X142705647Y-111899792D01*
X142744593Y-111916847D01*
X142759865Y-111914191D01*
X142784555Y-111915214D01*
X142831811Y-111932621D01*
X142853611Y-111943073D01*
X142933084Y-111974270D01*
X142999654Y-111982931D01*
X143044422Y-111968631D01*
X143055845Y-111952750D01*
X143087385Y-111928689D01*
X143151823Y-111921000D01*
X143242933Y-111910555D01*
X143298517Y-111879621D01*
X143317498Y-111828802D01*
X143317500Y-111828286D01*
X143302851Y-111774915D01*
X143256778Y-111730019D01*
X143176089Y-111691769D01*
X143057593Y-111658339D01*
X142998952Y-111645919D01*
X142888398Y-111630965D01*
X142789733Y-111630324D01*
X142710955Y-111643003D01*
X142710955Y-111643003D01*
G37*
X142710955Y-111643003D02*
X142660061Y-111668007D01*
X142645866Y-111689826D01*
X142619702Y-111723372D01*
X142595364Y-111730500D01*
X142562536Y-111737517D01*
X142555970Y-111746375D01*
X142571222Y-111780017D01*
X142608335Y-111822631D01*
X142656686Y-111865471D01*
X142705647Y-111899792D01*
X142744593Y-111916847D01*
X142759865Y-111914191D01*
X142784555Y-111915214D01*
X142831811Y-111932621D01*
X142853611Y-111943073D01*
X142933084Y-111974270D01*
X142999654Y-111982931D01*
X143044422Y-111968631D01*
X143055845Y-111952750D01*
X143087385Y-111928689D01*
X143151823Y-111921000D01*
X143242933Y-111910555D01*
X143298517Y-111879621D01*
X143317498Y-111828802D01*
X143317500Y-111828286D01*
X143302851Y-111774915D01*
X143256778Y-111730019D01*
X143176089Y-111691769D01*
X143057593Y-111658339D01*
X142998952Y-111645919D01*
X142888398Y-111630965D01*
X142789733Y-111630324D01*
X142710955Y-111643003D01*
G36*
X147593166Y-110534583D02*
X147603750Y-110545167D01*
X147614333Y-110534583D01*
X147603750Y-110524000D01*
X147593166Y-110534583D01*
X147593166Y-110534583D01*
G37*
X147593166Y-110534583D02*
X147603750Y-110545167D01*
X147614333Y-110534583D01*
X147603750Y-110524000D01*
X147593166Y-110534583D01*
G36*
X148265667Y-108949422D02*
X148251547Y-108972200D01*
X148249333Y-109012749D01*
X148262683Y-109075024D01*
X148297536Y-109109477D01*
X148346101Y-109109814D01*
X148361005Y-109102987D01*
X148387977Y-109069129D01*
X148397089Y-109020724D01*
X148386184Y-108978451D01*
X148375124Y-108967502D01*
X148337649Y-108954443D01*
X148301040Y-108947997D01*
X148265667Y-108949422D01*
X148265667Y-108949422D01*
G37*
X148265667Y-108949422D02*
X148251547Y-108972200D01*
X148249333Y-109012749D01*
X148262683Y-109075024D01*
X148297536Y-109109477D01*
X148346101Y-109109814D01*
X148361005Y-109102987D01*
X148387977Y-109069129D01*
X148397089Y-109020724D01*
X148386184Y-108978451D01*
X148375124Y-108967502D01*
X148337649Y-108954443D01*
X148301040Y-108947997D01*
X148265667Y-108949422D01*
G36*
X139675760Y-108946035D02*
X139656449Y-108990370D01*
X139655666Y-109002592D01*
X139670439Y-109034191D01*
X139704367Y-109041655D01*
X139741866Y-109025036D01*
X139760310Y-109002222D01*
X139769306Y-108961520D01*
X139750472Y-108936131D01*
X139711386Y-108924951D01*
X139675760Y-108946035D01*
X139675760Y-108946035D01*
G37*
X139675760Y-108946035D02*
X139656449Y-108990370D01*
X139655666Y-109002592D01*
X139670439Y-109034191D01*
X139704367Y-109041655D01*
X139741866Y-109025036D01*
X139760310Y-109002222D01*
X139769306Y-108961520D01*
X139750472Y-108936131D01*
X139711386Y-108924951D01*
X139675760Y-108946035D01*
M02*
