G04 #@! TF.GenerationSoftware,KiCad,Pcbnew,(2017-01-15 revision 8ac4790)-makepkg*
G04 #@! TF.CreationDate,2017-10-15T11:46:18+02:00*
G04 #@! TF.ProjectId,Fallblatt-Controller,46616C6C626C6174742D436F6E74726F,1.1*
G04 #@! TF.FileFunction,Soldermask,Top*
G04 #@! TF.FilePolarity,Negative*
%FSLAX46Y46*%
G04 Gerber Fmt 4.6, Leading zero omitted, Abs format (unit mm)*
G04 Created by KiCad (PCBNEW (2017-01-15 revision 8ac4790)-makepkg) date 10/15/17 11:46:18*
%MOMM*%
%LPD*%
G01*
G04 APERTURE LIST*
%ADD10C,0.100000*%
%ADD11R,1.200000X1.400000*%
%ADD12C,8.400000*%
%ADD13C,5.400000*%
%ADD14C,4.400000*%
%ADD15C,3.400000*%
%ADD16R,1.150000X1.200000*%
%ADD17R,1.200000X1.150000*%
%ADD18R,2.000000X3.900000*%
%ADD19R,2.400000X1.900000*%
%ADD20R,2.400000X4.200000*%
%ADD21R,3.800000X1.900000*%
%ADD22R,3.900000X1.400000*%
%ADD23C,2.200000*%
%ADD24R,1.300000X1.200000*%
%ADD25R,0.900000X1.300000*%
%ADD26R,1.300000X0.900000*%
%ADD27R,1.500000X1.900000*%
%ADD28R,0.950000X2.000000*%
%ADD29R,2.000000X0.950000*%
%ADD30R,1.000000X1.950000*%
%ADD31R,4.400000X1.900000*%
%ADD32R,4.400000X2.100000*%
%ADD33R,1.400000X3.400000*%
%ADD34R,1.670000X4.000000*%
%ADD35R,1.600000X2.400000*%
G04 APERTURE END LIST*
D10*
D11*
X90940000Y-65615000D03*
X93480000Y-65615000D03*
X96020000Y-65615000D03*
X98560000Y-65615000D03*
X101100000Y-65615000D03*
X103640000Y-65615000D03*
X103640000Y-66885000D03*
X101100000Y-66885000D03*
X98560000Y-66885000D03*
X96020000Y-66885000D03*
X93480000Y-66885000D03*
X90940000Y-66885000D03*
X88400000Y-66885000D03*
X88400000Y-65615000D03*
X85860000Y-66885000D03*
X85860000Y-65615000D03*
D12*
X128500000Y-103000000D03*
X118000000Y-65500000D03*
X159750000Y-106750000D03*
D13*
X159500000Y-86000000D03*
D14*
X118000000Y-86500000D03*
D15*
X142000000Y-100500000D03*
X131000000Y-116500000D03*
X91500000Y-116500000D03*
X84500000Y-114500000D03*
X85500000Y-96500000D03*
X76500000Y-63000000D03*
D16*
X87638000Y-83924000D03*
X87638000Y-85424000D03*
D17*
X101969000Y-120904000D03*
X100469000Y-120904000D03*
D18*
X78500000Y-96868000D03*
X78500000Y-102268000D03*
D19*
X105816000Y-102856000D03*
X105816000Y-107456000D03*
X105816000Y-105156000D03*
D20*
X112116000Y-105156000D03*
D21*
X88500000Y-101750000D03*
X88500000Y-108450000D03*
D22*
X82750000Y-104100000D03*
X82750000Y-106100000D03*
D23*
X76100000Y-116500000D03*
X76100000Y-113960000D03*
X76100000Y-111420000D03*
X78640000Y-116500000D03*
X78640000Y-113960000D03*
X78640000Y-111420000D03*
D15*
X75250000Y-84750000D03*
X75250000Y-89750000D03*
D24*
X119872000Y-114300000D03*
X117872000Y-115250000D03*
X117872000Y-113350000D03*
D25*
X94349000Y-91821000D03*
X92849000Y-91821000D03*
D26*
X103886000Y-114796000D03*
X103886000Y-113296000D03*
X115268000Y-112522000D03*
X115268000Y-111022000D03*
X117856000Y-110248000D03*
X117856000Y-111748000D03*
D25*
X76586000Y-119888000D03*
X78086000Y-119888000D03*
X122948000Y-115316000D03*
X124448000Y-115316000D03*
X124448000Y-113284000D03*
X122948000Y-113284000D03*
D27*
X103640000Y-61800000D03*
X103640000Y-70700000D03*
X101100000Y-61800000D03*
X101100000Y-70700000D03*
X98560000Y-61800000D03*
X98560000Y-70700000D03*
X96020000Y-61800000D03*
X96020000Y-70700000D03*
X93480000Y-70700000D03*
X93480000Y-61800000D03*
X90940000Y-70700000D03*
X90940000Y-61800000D03*
X88400000Y-70700000D03*
X88400000Y-61800000D03*
X85860000Y-61800000D03*
X85860000Y-70700000D03*
D28*
X96788000Y-89698000D03*
X95988000Y-89698000D03*
X95188000Y-89698000D03*
X94388000Y-89698000D03*
X93588000Y-89698000D03*
X92788000Y-89698000D03*
X91988000Y-89698000D03*
X91188000Y-89698000D03*
D29*
X89738000Y-88248000D03*
X89738000Y-87448000D03*
X89738000Y-86648000D03*
X89738000Y-85848000D03*
X89738000Y-85048000D03*
X89738000Y-84248000D03*
X89738000Y-83448000D03*
X89738000Y-82648000D03*
D28*
X91188000Y-81198000D03*
X91988000Y-81198000D03*
X92788000Y-81198000D03*
X93588000Y-81198000D03*
X94388000Y-81198000D03*
X95188000Y-81198000D03*
X95988000Y-81198000D03*
X96788000Y-81198000D03*
D29*
X98238000Y-82648000D03*
X98238000Y-83448000D03*
X98238000Y-84248000D03*
X98238000Y-85048000D03*
X98238000Y-85848000D03*
X98238000Y-86648000D03*
X98238000Y-87448000D03*
X98238000Y-88248000D03*
D30*
X100405000Y-118950000D03*
X99135000Y-118950000D03*
X97865000Y-118950000D03*
X96595000Y-118950000D03*
X96595000Y-113550000D03*
X97865000Y-113550000D03*
X99135000Y-113550000D03*
X100405000Y-113550000D03*
D31*
X103378000Y-85558000D03*
X103378000Y-80558000D03*
D32*
X103378000Y-83058000D03*
D33*
X151350000Y-80000000D03*
X153150000Y-80000000D03*
X153150000Y-92000000D03*
X151350000Y-92000000D03*
D34*
X80790000Y-77450000D03*
X78250000Y-77450000D03*
X75710000Y-77450000D03*
X75710000Y-71050000D03*
X78250000Y-71050000D03*
X80790000Y-71050000D03*
D35*
X106460000Y-120396000D03*
X109000000Y-120396000D03*
X111540000Y-120396000D03*
X111540000Y-110236000D03*
X109000000Y-110236000D03*
X106460000Y-110236000D03*
D24*
X116427000Y-119695000D03*
X114427000Y-120645000D03*
X114427000Y-118745000D03*
D25*
X115939000Y-116967000D03*
X114439000Y-116967000D03*
M02*
