G04 #@! TF.GenerationSoftware,KiCad,Pcbnew,(2017-01-15 revision 8ac4790)-makepkg*
G04 #@! TF.CreationDate,2017-09-14T17:44:39+02:00*
G04 #@! TF.ProjectId,Fallblatt-Controller,46616C6C626C6174742D436F6E74726F,1.0*
G04 #@! TF.FileFunction,Copper,L1,Top,Signal*
G04 #@! TF.FilePolarity,Positive*
%FSLAX46Y46*%
G04 Gerber Fmt 4.6, Leading zero omitted, Abs format (unit mm)*
G04 Created by KiCad (PCBNEW (2017-01-15 revision 8ac4790)-makepkg) date 09/14/17 17:44:39*
%MOMM*%
%LPD*%
G01*
G04 APERTURE LIST*
%ADD10C,0.100000*%
%ADD11R,0.800000X1.000000*%
%ADD12R,0.750000X0.800000*%
%ADD13R,0.800000X0.750000*%
%ADD14R,1.600000X3.500000*%
%ADD15R,2.000000X1.500000*%
%ADD16R,2.000000X3.800000*%
%ADD17R,3.400000X1.500000*%
%ADD18R,3.500000X1.000000*%
%ADD19C,1.800000*%
%ADD20C,3.000000*%
%ADD21R,0.900000X0.800000*%
%ADD22R,0.500000X0.900000*%
%ADD23R,0.900000X0.500000*%
%ADD24R,1.100000X1.500000*%
%ADD25R,0.550000X1.600000*%
%ADD26R,1.600000X0.550000*%
%ADD27R,0.600000X1.550000*%
%ADD28R,4.000000X1.500000*%
%ADD29R,4.000000X1.700000*%
%ADD30R,1.000000X3.000000*%
%ADD31R,1.270000X3.600000*%
%ADD32R,1.200000X2.000000*%
%ADD33C,0.800000*%
%ADD34C,1.600000*%
%ADD35C,0.250000*%
%ADD36C,1.000000*%
%ADD37C,0.254000*%
G04 APERTURE END LIST*
D10*
D11*
X90940000Y-65615000D03*
X93480000Y-65615000D03*
X96020000Y-65615000D03*
X98560000Y-65615000D03*
X101100000Y-65615000D03*
X103640000Y-65615000D03*
X103640000Y-66885000D03*
X101100000Y-66885000D03*
X98560000Y-66885000D03*
X96020000Y-66885000D03*
X93480000Y-66885000D03*
X90940000Y-66885000D03*
X88400000Y-66885000D03*
X88400000Y-65615000D03*
X85860000Y-66885000D03*
X85860000Y-65615000D03*
D12*
X87638000Y-83924000D03*
X87638000Y-85424000D03*
D13*
X101969000Y-120904000D03*
X100469000Y-120904000D03*
D14*
X78500000Y-96868000D03*
X78500000Y-102268000D03*
D15*
X105816000Y-102856000D03*
X105816000Y-107456000D03*
X105816000Y-105156000D03*
D16*
X112116000Y-105156000D03*
D17*
X88500000Y-101750000D03*
X88500000Y-108450000D03*
D18*
X82750000Y-104100000D03*
X82750000Y-106100000D03*
D19*
X76100000Y-116500000D03*
X76100000Y-113960000D03*
X76100000Y-111420000D03*
X78640000Y-116500000D03*
X78640000Y-113960000D03*
X78640000Y-111420000D03*
D20*
X75250000Y-84750000D03*
X75250000Y-89750000D03*
D21*
X119872000Y-114300000D03*
X117872000Y-115250000D03*
X117872000Y-113350000D03*
D22*
X94349000Y-91821000D03*
X92849000Y-91821000D03*
D23*
X103886000Y-114796000D03*
X103886000Y-113296000D03*
X115268000Y-112522000D03*
X115268000Y-111022000D03*
X117856000Y-110248000D03*
X117856000Y-111748000D03*
D22*
X76586000Y-119888000D03*
X78086000Y-119888000D03*
X122948000Y-115316000D03*
X124448000Y-115316000D03*
X124448000Y-113284000D03*
X122948000Y-113284000D03*
D24*
X103640000Y-61800000D03*
X103640000Y-70700000D03*
X101100000Y-61800000D03*
X101100000Y-70700000D03*
X98560000Y-61800000D03*
X98560000Y-70700000D03*
X96020000Y-61800000D03*
X96020000Y-70700000D03*
X93480000Y-70700000D03*
X93480000Y-61800000D03*
X90940000Y-70700000D03*
X90940000Y-61800000D03*
X88400000Y-70700000D03*
X88400000Y-61800000D03*
X85860000Y-61800000D03*
X85860000Y-70700000D03*
D25*
X96788000Y-89698000D03*
X95988000Y-89698000D03*
X95188000Y-89698000D03*
X94388000Y-89698000D03*
X93588000Y-89698000D03*
X92788000Y-89698000D03*
X91988000Y-89698000D03*
X91188000Y-89698000D03*
D26*
X89738000Y-88248000D03*
X89738000Y-87448000D03*
X89738000Y-86648000D03*
X89738000Y-85848000D03*
X89738000Y-85048000D03*
X89738000Y-84248000D03*
X89738000Y-83448000D03*
X89738000Y-82648000D03*
D25*
X91188000Y-81198000D03*
X91988000Y-81198000D03*
X92788000Y-81198000D03*
X93588000Y-81198000D03*
X94388000Y-81198000D03*
X95188000Y-81198000D03*
X95988000Y-81198000D03*
X96788000Y-81198000D03*
D26*
X98238000Y-82648000D03*
X98238000Y-83448000D03*
X98238000Y-84248000D03*
X98238000Y-85048000D03*
X98238000Y-85848000D03*
X98238000Y-86648000D03*
X98238000Y-87448000D03*
X98238000Y-88248000D03*
D27*
X100405000Y-118950000D03*
X99135000Y-118950000D03*
X97865000Y-118950000D03*
X96595000Y-118950000D03*
X96595000Y-113550000D03*
X97865000Y-113550000D03*
X99135000Y-113550000D03*
X100405000Y-113550000D03*
D28*
X103378000Y-85558000D03*
X103378000Y-80558000D03*
D29*
X103378000Y-83058000D03*
D30*
X151350000Y-80000000D03*
X153150000Y-80000000D03*
X153150000Y-92000000D03*
X151350000Y-92000000D03*
D31*
X80790000Y-77450000D03*
X78250000Y-77450000D03*
X75710000Y-77450000D03*
X75710000Y-71050000D03*
X78250000Y-71050000D03*
X80790000Y-71050000D03*
D32*
X106460000Y-120396000D03*
X109000000Y-120396000D03*
X111540000Y-120396000D03*
X111540000Y-110236000D03*
X109000000Y-110236000D03*
X106460000Y-110236000D03*
D21*
X116427000Y-119695000D03*
X114427000Y-120645000D03*
X114427000Y-118745000D03*
D22*
X115939000Y-116967000D03*
X114439000Y-116967000D03*
D33*
X115824000Y-120904000D03*
D34*
X76750000Y-94000000D03*
X73200000Y-80400000D03*
D33*
X102870000Y-120904000D03*
X95377000Y-118999000D03*
D34*
X121412000Y-101981000D03*
D33*
X101000000Y-83000000D03*
X94500000Y-86500000D03*
X95500000Y-85000000D03*
D34*
X115443000Y-114935000D03*
D33*
X95123000Y-87503000D03*
X93498998Y-91821000D03*
D34*
X87630000Y-80899000D03*
X83185000Y-80899000D03*
X123952000Y-96393000D03*
X95123000Y-117221000D03*
D33*
X117856000Y-102235000D03*
D34*
X136779000Y-105537000D03*
D33*
X86106000Y-74676000D03*
X78232000Y-74676000D03*
D34*
X81788000Y-101854000D03*
X80645000Y-84709000D03*
D33*
X101092000Y-96774000D03*
X99060000Y-121031000D03*
X94615000Y-119888000D03*
X79277340Y-107217340D03*
X102108000Y-97663000D03*
X105664000Y-117856000D03*
X103886000Y-116078000D03*
X100076000Y-88551021D03*
X103632000Y-72390000D03*
X96647000Y-87503000D03*
X101092000Y-72390000D03*
X93599000Y-87503000D03*
X98552000Y-72390000D03*
X92837000Y-86614000D03*
X96012000Y-72390000D03*
X91948000Y-87503000D03*
X93472000Y-72390000D03*
X91186000Y-91440000D03*
X90932000Y-72390000D03*
X86741000Y-88265000D03*
X88392000Y-72390000D03*
X86614000Y-79121000D03*
X85852000Y-72390000D03*
X96647000Y-98298000D03*
X96647000Y-107061000D03*
X95123000Y-96774000D03*
X99187000Y-107061000D03*
X97917000Y-98298000D03*
X97917000Y-107061000D03*
X117221000Y-116967000D03*
X103124000Y-98552000D03*
D35*
X114427000Y-120645000D02*
X115565000Y-120645000D01*
X115565000Y-120645000D02*
X115824000Y-120904000D01*
D36*
X78500000Y-96868000D02*
X78500000Y-95750000D01*
X78500000Y-95750000D02*
X76750000Y-94000000D01*
X75710000Y-77450000D02*
X75710000Y-77890000D01*
X75710000Y-77890000D02*
X73200000Y-80400000D01*
D35*
X101969000Y-120904000D02*
X102870000Y-120904000D01*
X102997000Y-120904000D02*
X102870000Y-120904000D01*
X96595000Y-118950000D02*
X95426000Y-118950000D01*
X95426000Y-118950000D02*
X95377000Y-118999000D01*
X103378000Y-83058000D02*
X101058000Y-83058000D01*
X101058000Y-83058000D02*
X101000000Y-83000000D01*
X93848000Y-85848000D02*
X94500000Y-86500000D01*
X89738000Y-85848000D02*
X93848000Y-85848000D01*
X98238000Y-85048000D02*
X95548000Y-85048000D01*
X95548000Y-85048000D02*
X95500000Y-85000000D01*
X87638000Y-85424000D02*
X88062000Y-85848000D01*
X88062000Y-85848000D02*
X89738000Y-85848000D01*
X106836000Y-114710000D02*
X105422000Y-113296000D01*
X105422000Y-113296000D02*
X103886000Y-113296000D01*
X106836000Y-114935000D02*
X106836000Y-114710000D01*
D36*
X76100000Y-113960000D02*
X74827208Y-113960000D01*
X74827208Y-113960000D02*
X73533000Y-112665792D01*
X73533000Y-112665792D02*
X73533000Y-109982000D01*
X74247000Y-109268000D02*
X73533000Y-109982000D01*
X74250000Y-109268000D02*
X74247000Y-109268000D01*
X80141000Y-80899000D02*
X75184000Y-80899000D01*
X75184000Y-80899000D02*
X72263000Y-83820000D01*
X72263000Y-83820000D02*
X72263000Y-91821000D01*
X72263000Y-91821000D02*
X74295000Y-93853000D01*
X74295000Y-93853000D02*
X74295000Y-97113000D01*
X74295000Y-97113000D02*
X78500000Y-101318000D01*
X78500000Y-101318000D02*
X78500000Y-102268000D01*
X74250000Y-109268000D02*
X78500000Y-105018000D01*
X78500000Y-105018000D02*
X78500000Y-102268000D01*
X102821000Y-118950000D02*
X106836000Y-114935000D01*
X106836000Y-114935000D02*
X115443000Y-114935000D01*
X102821000Y-118950000D02*
X100405000Y-118950000D01*
D35*
X95522999Y-87103001D02*
X95522999Y-86251999D01*
X95522999Y-86251999D02*
X95119000Y-85848000D01*
X95123000Y-87503000D02*
X95522999Y-87103001D01*
X92849000Y-91821000D02*
X93498998Y-91821000D01*
D36*
X87630000Y-80899000D02*
X87630000Y-83916000D01*
X87630000Y-83916000D02*
X87638000Y-83924000D01*
X82550000Y-80899000D02*
X83185000Y-80899000D01*
D35*
X92710000Y-83439000D02*
X95119000Y-85848000D01*
X95119000Y-85848000D02*
X98238000Y-85848000D01*
X90797000Y-83439000D02*
X92710000Y-83439000D01*
X89738000Y-83448000D02*
X90788000Y-83448000D01*
X90788000Y-83448000D02*
X90797000Y-83439000D01*
X87638000Y-83924000D02*
X88114000Y-83448000D01*
X88114000Y-83448000D02*
X89738000Y-83448000D01*
D36*
X81153000Y-80899000D02*
X82550000Y-80899000D01*
X80141000Y-80899000D02*
X81153000Y-80899000D01*
X149733000Y-97282000D02*
X151350000Y-95665000D01*
X151350000Y-95665000D02*
X151350000Y-92000000D01*
X133731000Y-97282000D02*
X149733000Y-97282000D01*
X132842000Y-96393000D02*
X133731000Y-97282000D01*
X123952000Y-96393000D02*
X132842000Y-96393000D01*
X100405000Y-118950000D02*
X100405000Y-117884998D01*
X100405000Y-117884998D02*
X99741002Y-117221000D01*
X99741002Y-117221000D02*
X95123000Y-117221000D01*
D35*
X100405000Y-118950000D02*
X100405000Y-120840000D01*
X100405000Y-120840000D02*
X100469000Y-120904000D01*
D36*
X80141000Y-80899000D02*
X80790000Y-80250000D01*
X80790000Y-80250000D02*
X80790000Y-77450000D01*
X75250000Y-89750000D02*
X77371320Y-89750000D01*
X77371320Y-89750000D02*
X81407000Y-93785680D01*
X81407000Y-93785680D02*
X81407000Y-98806000D01*
X81407000Y-98806000D02*
X82423000Y-99822000D01*
X100782000Y-99822000D02*
X103816000Y-102856000D01*
X82423000Y-99822000D02*
X100782000Y-99822000D01*
X103816000Y-102856000D02*
X105816000Y-102856000D01*
D35*
X105816000Y-107456000D02*
X109160000Y-107456000D01*
X109160000Y-107456000D02*
X111540000Y-109836000D01*
X111540000Y-109836000D02*
X111540000Y-110236000D01*
X113792000Y-108458000D02*
X115268000Y-109934000D01*
X115268000Y-109934000D02*
X115268000Y-111022000D01*
X110998000Y-108458000D02*
X113792000Y-108458000D01*
X107696000Y-105156000D02*
X110998000Y-108458000D01*
X105816000Y-105156000D02*
X107696000Y-105156000D01*
D36*
X82750000Y-106100000D02*
X85500000Y-106100000D01*
X85500000Y-106100000D02*
X86444000Y-105156000D01*
X86444000Y-105156000D02*
X103816000Y-105156000D01*
X103816000Y-105156000D02*
X105816000Y-105156000D01*
D35*
X95504000Y-77470000D02*
X93588000Y-79386000D01*
X93588000Y-79386000D02*
X93588000Y-81198000D01*
X106172000Y-77470000D02*
X95504000Y-77470000D01*
X107315000Y-78613000D02*
X106172000Y-77470000D01*
X107315000Y-91694000D02*
X107315000Y-78613000D01*
X117856000Y-102235000D02*
X107315000Y-91694000D01*
D36*
X136779000Y-105537000D02*
X127000000Y-115316000D01*
X127000000Y-115316000D02*
X124448000Y-115316000D01*
X119380000Y-104902000D02*
X124448000Y-109970000D01*
X124448000Y-109970000D02*
X124448000Y-113284000D01*
X119380000Y-94615000D02*
X119380000Y-104902000D01*
X126873000Y-87122000D02*
X119380000Y-94615000D01*
X126873000Y-80137000D02*
X126873000Y-87122000D01*
X132842000Y-74168000D02*
X126873000Y-80137000D01*
X148018000Y-74168000D02*
X132842000Y-74168000D01*
X151350000Y-80000000D02*
X151350000Y-77500000D01*
X151350000Y-77500000D02*
X148018000Y-74168000D01*
D35*
X153150000Y-80000000D02*
X153150000Y-78250000D01*
X153162000Y-78238000D02*
X153162000Y-76708000D01*
X153150000Y-78250000D02*
X153162000Y-78238000D01*
X153162000Y-76708000D02*
X148717000Y-72263000D01*
X148717000Y-72263000D02*
X110363000Y-72263000D01*
X110363000Y-72263000D02*
X105918000Y-76708000D01*
X105918000Y-76708000D02*
X95377000Y-76708000D01*
X95377000Y-76708000D02*
X92788000Y-79297000D01*
X92788000Y-79297000D02*
X92788000Y-81198000D01*
X80790000Y-71050000D02*
X81675000Y-71050000D01*
X81675000Y-71050000D02*
X82296000Y-71671000D01*
X82296000Y-71671000D02*
X82296000Y-72263000D01*
X82296000Y-72263000D02*
X90805000Y-80772000D01*
X90805000Y-80772000D02*
X90805000Y-80815000D01*
X90805000Y-80815000D02*
X91188000Y-81198000D01*
X91188000Y-80563000D02*
X91188000Y-81198000D01*
X89738000Y-82123000D02*
X89738000Y-82648000D01*
X78250000Y-71050000D02*
X78250000Y-72215000D01*
X79822000Y-73787000D02*
X83073413Y-73787000D01*
X83073413Y-73787000D02*
X89738000Y-80451587D01*
X78250000Y-72215000D02*
X79822000Y-73787000D01*
X89738000Y-80451587D02*
X89738000Y-82123000D01*
X86106000Y-74676000D02*
X86671685Y-74676000D01*
X86671685Y-74676000D02*
X91988000Y-79992315D01*
X91988000Y-79992315D02*
X91988000Y-80148000D01*
X91988000Y-80148000D02*
X91988000Y-81198000D01*
X78250000Y-77450000D02*
X78250000Y-74694000D01*
X78250000Y-74694000D02*
X78232000Y-74676000D01*
X94349000Y-91821000D02*
X94349000Y-92021000D01*
X93406000Y-92964000D02*
X88646000Y-92964000D01*
X75710000Y-72215000D02*
X75710000Y-71050000D01*
X78924004Y-74295000D02*
X78580002Y-73950998D01*
X94349000Y-92021000D02*
X93406000Y-92964000D01*
X77445998Y-73950998D02*
X75710000Y-72215000D01*
X78580002Y-73950998D02*
X77445998Y-73950998D01*
X82042000Y-74295000D02*
X78924004Y-74295000D01*
X85373842Y-89691842D02*
X85373842Y-77626842D01*
X88646000Y-92964000D02*
X85373842Y-89691842D01*
X85373842Y-77626842D02*
X82042000Y-74295000D01*
X94388000Y-89698000D02*
X94388000Y-91782000D01*
X94388000Y-91782000D02*
X94349000Y-91821000D01*
D36*
X80645000Y-84709000D02*
X75291000Y-84709000D01*
X75291000Y-84709000D02*
X75250000Y-84750000D01*
X81788000Y-101854000D02*
X81788000Y-103138000D01*
X81788000Y-103138000D02*
X82750000Y-104100000D01*
X80604000Y-84750000D02*
X80645000Y-84709000D01*
D35*
X97865000Y-118950000D02*
X97865000Y-120067000D01*
X97865000Y-120067000D02*
X96901000Y-121031000D01*
X96901000Y-121031000D02*
X77529000Y-121031000D01*
X77529000Y-121031000D02*
X76586000Y-120088000D01*
X76586000Y-120088000D02*
X76586000Y-119888000D01*
X76586000Y-119888000D02*
X76586000Y-116986000D01*
X76586000Y-116986000D02*
X76100000Y-116500000D01*
X101600000Y-88139410D02*
X101600000Y-96266000D01*
X100108590Y-86648000D02*
X101600000Y-88139410D01*
X98238000Y-86648000D02*
X100108590Y-86648000D01*
X101491999Y-96374001D02*
X101092000Y-96774000D01*
X101600000Y-96266000D02*
X101491999Y-96374001D01*
X79236000Y-119888000D02*
X78086000Y-119888000D01*
X78086000Y-119888000D02*
X78086000Y-117054000D01*
X78086000Y-117054000D02*
X78640000Y-116500000D01*
X99060000Y-121031000D02*
X99060000Y-119025000D01*
X99060000Y-119025000D02*
X99135000Y-118950000D01*
X79236000Y-119888000D02*
X94615000Y-119888000D01*
X79277340Y-107217340D02*
X78640000Y-107854680D01*
X78640000Y-107854680D02*
X78640000Y-111420000D01*
X100711000Y-86614000D02*
X102108000Y-88011000D01*
X102108000Y-88011000D02*
X102108000Y-97663000D01*
X100711000Y-85671000D02*
X100711000Y-86614000D01*
X98238000Y-84248000D02*
X99288000Y-84248000D01*
X99288000Y-84248000D02*
X100711000Y-85671000D01*
X106460000Y-110236000D02*
X106460000Y-111486000D01*
X106460000Y-111486000D02*
X107496000Y-112522000D01*
X107496000Y-112522000D02*
X114568000Y-112522000D01*
X114568000Y-112522000D02*
X115268000Y-112522000D01*
X103886000Y-114796000D02*
X103886000Y-116078000D01*
X105664000Y-117856000D02*
X106460000Y-118652000D01*
X106460000Y-118652000D02*
X106460000Y-120396000D01*
X122948000Y-114288000D02*
X122948000Y-115316000D01*
X119872000Y-114300000D02*
X122936000Y-114300000D01*
X122936000Y-114300000D02*
X122948000Y-114288000D01*
X122948000Y-114288000D02*
X122948000Y-113284000D01*
X117856000Y-111748000D02*
X117856000Y-113334000D01*
X117856000Y-113334000D02*
X117872000Y-113350000D01*
X106680000Y-92837000D02*
X106680000Y-79121000D01*
X117856000Y-104013000D02*
X106680000Y-92837000D01*
X95631000Y-78232000D02*
X94388000Y-79475000D01*
X94388000Y-79475000D02*
X94388000Y-81198000D01*
X105791000Y-78232000D02*
X95631000Y-78232000D01*
X106680000Y-79121000D02*
X105791000Y-78232000D01*
X117856000Y-110248000D02*
X117856000Y-104013000D01*
X99772979Y-88248000D02*
X100076000Y-88551021D01*
X98238000Y-88248000D02*
X99772979Y-88248000D01*
X103640000Y-70700000D02*
X103640000Y-72382000D01*
X103640000Y-72382000D02*
X103632000Y-72390000D01*
X103640000Y-66885000D02*
X103640000Y-67635000D01*
X103640000Y-67635000D02*
X103640000Y-70700000D01*
X96788000Y-89698000D02*
X96788000Y-87644000D01*
X96788000Y-87644000D02*
X96647000Y-87503000D01*
X101100000Y-70700000D02*
X101100000Y-72382000D01*
X101100000Y-72382000D02*
X101092000Y-72390000D01*
X101100000Y-66885000D02*
X101100000Y-70700000D01*
X93599000Y-87503000D02*
X93599000Y-89687000D01*
X93599000Y-89687000D02*
X93588000Y-89698000D01*
X98560000Y-70700000D02*
X98560000Y-72382000D01*
X98560000Y-72382000D02*
X98552000Y-72390000D01*
X98560000Y-66885000D02*
X98560000Y-67635000D01*
X98560000Y-67635000D02*
X98560000Y-70700000D01*
X92837000Y-86614000D02*
X92837000Y-89649000D01*
X92837000Y-89649000D02*
X92788000Y-89698000D01*
X96020000Y-70700000D02*
X96020000Y-72382000D01*
X96020000Y-72382000D02*
X96012000Y-72390000D01*
X96020000Y-66885000D02*
X96020000Y-70700000D01*
X91948000Y-87503000D02*
X91948000Y-89658000D01*
X91948000Y-89658000D02*
X91988000Y-89698000D01*
X93480000Y-70700000D02*
X93480000Y-72382000D01*
X93480000Y-72382000D02*
X93472000Y-72390000D01*
X93480000Y-66885000D02*
X93480000Y-67635000D01*
X93480000Y-67635000D02*
X93480000Y-70700000D01*
X91186000Y-91440000D02*
X91186000Y-89700000D01*
X91186000Y-89700000D02*
X91188000Y-89698000D01*
X90940000Y-70700000D02*
X90940000Y-72382000D01*
X90940000Y-72382000D02*
X90932000Y-72390000D01*
X90940000Y-66885000D02*
X90940000Y-70700000D01*
X86741000Y-88265000D02*
X89721000Y-88265000D01*
X89721000Y-88265000D02*
X89738000Y-88248000D01*
X88400000Y-70700000D02*
X88400000Y-72382000D01*
X88400000Y-72382000D02*
X88392000Y-72390000D01*
X88400000Y-66885000D02*
X88400000Y-67635000D01*
X88400000Y-67635000D02*
X88400000Y-70700000D01*
X86214001Y-85960001D02*
X87702000Y-87448000D01*
X86614000Y-79121000D02*
X86214001Y-79520999D01*
X86214001Y-79520999D02*
X86214001Y-85960001D01*
X87702000Y-87448000D02*
X88688000Y-87448000D01*
X88688000Y-87448000D02*
X89738000Y-87448000D01*
X85860000Y-70700000D02*
X85860000Y-72382000D01*
X85860000Y-72382000D02*
X85852000Y-72390000D01*
X85860000Y-66885000D02*
X85860000Y-67635000D01*
X85860000Y-67635000D02*
X85860000Y-70700000D01*
X96647000Y-98298000D02*
X95988000Y-97639000D01*
X95988000Y-97639000D02*
X95988000Y-89698000D01*
X96595000Y-113550000D02*
X96595000Y-107113000D01*
X96595000Y-107113000D02*
X96647000Y-107061000D01*
X95123000Y-96774000D02*
X95123000Y-89763000D01*
X95123000Y-89763000D02*
X95188000Y-89698000D01*
X100405000Y-113550000D02*
X100405000Y-108279000D01*
X100405000Y-108279000D02*
X99187000Y-107061000D01*
X98238000Y-82648000D02*
X100038000Y-82648000D01*
X100038000Y-82648000D02*
X102128000Y-80558000D01*
X102128000Y-80558000D02*
X103378000Y-80558000D01*
X98238000Y-83448000D02*
X100018000Y-83448000D01*
X100018000Y-83448000D02*
X102128000Y-85558000D01*
X102128000Y-85558000D02*
X103378000Y-85558000D01*
X100272180Y-87448000D02*
X99288000Y-87448000D01*
X101092000Y-88267820D02*
X100272180Y-87448000D01*
X97917000Y-98298000D02*
X101092000Y-95123000D01*
X99288000Y-87448000D02*
X98238000Y-87448000D01*
X101092000Y-95123000D02*
X101092000Y-88267820D01*
X97865000Y-113550000D02*
X97865000Y-107113000D01*
X97865000Y-107113000D02*
X97917000Y-107061000D01*
X97865000Y-113550000D02*
X99135000Y-113550000D01*
X112522000Y-118745000D02*
X113472000Y-119695000D01*
X113472000Y-119695000D02*
X116427000Y-119695000D01*
X109401000Y-118745000D02*
X112522000Y-118745000D01*
X109000000Y-120396000D02*
X109000000Y-119146000D01*
X109000000Y-119146000D02*
X109401000Y-118745000D01*
X114427000Y-118745000D02*
X114427000Y-116979000D01*
X114427000Y-116979000D02*
X114439000Y-116967000D01*
X117221000Y-116967000D02*
X115939000Y-116967000D01*
X106045000Y-79502000D02*
X106045000Y-95631000D01*
X106045000Y-95631000D02*
X103124000Y-98552000D01*
X105410000Y-78867000D02*
X106045000Y-79502000D01*
X98069000Y-78867000D02*
X105410000Y-78867000D01*
X96788000Y-81198000D02*
X96788000Y-80148000D01*
X96788000Y-80148000D02*
X98069000Y-78867000D01*
D37*
G36*
X105076954Y-118732919D02*
X105457223Y-118890820D01*
X105473065Y-118890834D01*
X105402191Y-118938191D01*
X105261843Y-119148235D01*
X105212560Y-119396000D01*
X105212560Y-121290000D01*
X101514252Y-121290000D01*
X101516440Y-121279000D01*
X101516440Y-120529000D01*
X101467157Y-120281235D01*
X101336036Y-120085000D01*
X102821000Y-120085000D01*
X103255346Y-119998603D01*
X103623566Y-119752566D01*
X104860273Y-118515859D01*
X105076954Y-118732919D01*
X105076954Y-118732919D01*
G37*
X105076954Y-118732919D02*
X105457223Y-118890820D01*
X105473065Y-118890834D01*
X105402191Y-118938191D01*
X105261843Y-119148235D01*
X105212560Y-119396000D01*
X105212560Y-121290000D01*
X101514252Y-121290000D01*
X101516440Y-121279000D01*
X101516440Y-120529000D01*
X101467157Y-120281235D01*
X101336036Y-120085000D01*
X102821000Y-120085000D01*
X103255346Y-119998603D01*
X103623566Y-119752566D01*
X104860273Y-118515859D01*
X105076954Y-118732919D01*
G36*
X164290000Y-105600225D02*
X163681653Y-104127913D01*
X162378945Y-102822929D01*
X160676003Y-102115806D01*
X158832086Y-102114197D01*
X157127913Y-102818347D01*
X155822929Y-104121055D01*
X155115806Y-105823997D01*
X155114197Y-107667914D01*
X155818347Y-109372087D01*
X157121055Y-110677071D01*
X158823997Y-111384194D01*
X160667914Y-111385803D01*
X162372087Y-110681653D01*
X163677071Y-109378945D01*
X164290000Y-107902847D01*
X164290000Y-121290000D01*
X112787440Y-121290000D01*
X112787440Y-120085242D01*
X112934599Y-120232401D01*
X113181161Y-120397148D01*
X113472000Y-120455000D01*
X115453837Y-120455000D01*
X115519191Y-120552809D01*
X115729235Y-120693157D01*
X115977000Y-120742440D01*
X116877000Y-120742440D01*
X117124765Y-120693157D01*
X117334809Y-120552809D01*
X117475157Y-120342765D01*
X117524440Y-120095000D01*
X117524440Y-119295000D01*
X117475157Y-119047235D01*
X117334809Y-118837191D01*
X117124765Y-118696843D01*
X116877000Y-118647560D01*
X115977000Y-118647560D01*
X115729235Y-118696843D01*
X115524440Y-118833684D01*
X115524440Y-118345000D01*
X115475157Y-118097235D01*
X115403439Y-117989902D01*
X115441235Y-118015157D01*
X115689000Y-118064440D01*
X116189000Y-118064440D01*
X116436765Y-118015157D01*
X116646809Y-117874809D01*
X116660174Y-117854807D01*
X117014223Y-118001820D01*
X117425971Y-118002179D01*
X117806515Y-117844942D01*
X118097919Y-117554046D01*
X118255820Y-117173777D01*
X118256038Y-116922815D01*
X128864630Y-116922815D01*
X129188980Y-117707800D01*
X129789041Y-118308909D01*
X130573459Y-118634628D01*
X131422815Y-118635370D01*
X132207800Y-118311020D01*
X132808909Y-117710959D01*
X133134628Y-116926541D01*
X133135370Y-116077185D01*
X132811020Y-115292200D01*
X132210959Y-114691091D01*
X131426541Y-114365372D01*
X130577185Y-114364630D01*
X129792200Y-114688980D01*
X129191091Y-115289041D01*
X128865372Y-116073459D01*
X128864630Y-116922815D01*
X118256038Y-116922815D01*
X118256179Y-116762029D01*
X118098942Y-116381485D01*
X117808046Y-116090081D01*
X117427777Y-115932180D01*
X117016029Y-115931821D01*
X116659998Y-116078929D01*
X116646809Y-116059191D01*
X116467820Y-115939594D01*
X116658824Y-115748923D01*
X116877750Y-115221691D01*
X116878248Y-114650813D01*
X116660243Y-114123200D01*
X116256923Y-113719176D01*
X115729691Y-113500250D01*
X115158813Y-113499752D01*
X114631200Y-113717757D01*
X114548813Y-113800000D01*
X107000802Y-113800000D01*
X105959401Y-112758599D01*
X105712839Y-112593852D01*
X105422000Y-112536000D01*
X104715700Y-112536000D01*
X104583765Y-112447843D01*
X104336000Y-112398560D01*
X103436000Y-112398560D01*
X103188235Y-112447843D01*
X102978191Y-112588191D01*
X102837843Y-112798235D01*
X102788560Y-113046000D01*
X102788560Y-113546000D01*
X102837843Y-113793765D01*
X102978191Y-114003809D01*
X103041334Y-114046000D01*
X102978191Y-114088191D01*
X102837843Y-114298235D01*
X102788560Y-114546000D01*
X102788560Y-115046000D01*
X102837843Y-115293765D01*
X102978191Y-115503809D01*
X102998193Y-115517174D01*
X102851180Y-115871223D01*
X102850821Y-116282971D01*
X103008058Y-116663515D01*
X103254990Y-116910878D01*
X102350868Y-117815000D01*
X101526076Y-117815000D01*
X101453603Y-117450652D01*
X101207566Y-117082432D01*
X100543568Y-116418434D01*
X100485979Y-116379954D01*
X100175348Y-116172397D01*
X99741002Y-116086000D01*
X96017606Y-116086000D01*
X95936923Y-116005176D01*
X95409691Y-115786250D01*
X94838813Y-115785752D01*
X94311200Y-116003757D01*
X93907176Y-116407077D01*
X93688250Y-116934309D01*
X93687752Y-117505187D01*
X93905757Y-118032800D01*
X94309077Y-118436824D01*
X94836309Y-118655750D01*
X95407187Y-118656248D01*
X95934800Y-118438243D01*
X96017187Y-118356000D01*
X96917560Y-118356000D01*
X96917560Y-119725000D01*
X96953170Y-119904028D01*
X96586198Y-120271000D01*
X95576646Y-120271000D01*
X95649820Y-120094777D01*
X95650179Y-119683029D01*
X95492942Y-119302485D01*
X95202046Y-119011081D01*
X94821777Y-118853180D01*
X94410029Y-118852821D01*
X94029485Y-119010058D01*
X93911337Y-119128000D01*
X78892573Y-119128000D01*
X78846000Y-119058300D01*
X78846000Y-118035180D01*
X78943991Y-118035265D01*
X79508371Y-117802068D01*
X79940551Y-117370643D01*
X80126505Y-116922815D01*
X89364630Y-116922815D01*
X89688980Y-117707800D01*
X90289041Y-118308909D01*
X91073459Y-118634628D01*
X91922815Y-118635370D01*
X92707800Y-118311020D01*
X93308909Y-117710959D01*
X93634628Y-116926541D01*
X93635370Y-116077185D01*
X93311020Y-115292200D01*
X92710959Y-114691091D01*
X91926541Y-114365372D01*
X91077185Y-114364630D01*
X90292200Y-114688980D01*
X89691091Y-115289041D01*
X89365372Y-116073459D01*
X89364630Y-116922815D01*
X80126505Y-116922815D01*
X80174733Y-116806670D01*
X80175265Y-116196009D01*
X79942068Y-115631629D01*
X79510643Y-115199449D01*
X78946670Y-114965267D01*
X78336009Y-114964735D01*
X77771629Y-115197932D01*
X77369677Y-115599182D01*
X77000818Y-115229677D01*
X77308217Y-114922815D01*
X82364630Y-114922815D01*
X82688980Y-115707800D01*
X83289041Y-116308909D01*
X84073459Y-116634628D01*
X84922815Y-116635370D01*
X85707800Y-116311020D01*
X86308909Y-115710959D01*
X86634628Y-114926541D01*
X86635370Y-114077185D01*
X86311020Y-113292200D01*
X85710959Y-112691091D01*
X84926541Y-112365372D01*
X84077185Y-112364630D01*
X83292200Y-112688980D01*
X82691091Y-113289041D01*
X82365372Y-114073459D01*
X82364630Y-114922815D01*
X77308217Y-114922815D01*
X77400551Y-114830643D01*
X77634733Y-114266670D01*
X77635265Y-113656009D01*
X77402068Y-113091629D01*
X77000818Y-112689677D01*
X77370323Y-112320818D01*
X77769357Y-112720551D01*
X78333330Y-112954733D01*
X78943991Y-112955265D01*
X79508371Y-112722068D01*
X79940551Y-112290643D01*
X80174733Y-111726670D01*
X80175265Y-111116009D01*
X79942068Y-110551629D01*
X79510643Y-110119449D01*
X79400000Y-110073506D01*
X79400000Y-108252447D01*
X79482311Y-108252519D01*
X79862855Y-108095282D01*
X80154259Y-107804386D01*
X80197603Y-107700000D01*
X86152560Y-107700000D01*
X86152560Y-109200000D01*
X86201843Y-109447765D01*
X86342191Y-109657809D01*
X86552235Y-109798157D01*
X86800000Y-109847440D01*
X90200000Y-109847440D01*
X90447765Y-109798157D01*
X90657809Y-109657809D01*
X90798157Y-109447765D01*
X90847440Y-109200000D01*
X90847440Y-107700000D01*
X90798157Y-107452235D01*
X90657809Y-107242191D01*
X90447765Y-107101843D01*
X90200000Y-107052560D01*
X86800000Y-107052560D01*
X86552235Y-107101843D01*
X86342191Y-107242191D01*
X86201843Y-107452235D01*
X86152560Y-107700000D01*
X80197603Y-107700000D01*
X80312160Y-107424117D01*
X80312519Y-107012369D01*
X80155282Y-106631825D01*
X79864386Y-106340421D01*
X79484117Y-106182520D01*
X79072369Y-106182161D01*
X78848450Y-106274682D01*
X79302566Y-105820566D01*
X79548604Y-105452345D01*
X79635000Y-105018000D01*
X79635000Y-104557868D01*
X79757809Y-104475809D01*
X79898157Y-104265765D01*
X79947440Y-104018000D01*
X79947440Y-100518000D01*
X79898157Y-100270235D01*
X79757809Y-100060191D01*
X79547765Y-99919843D01*
X79300000Y-99870560D01*
X78657692Y-99870560D01*
X75430000Y-96642868D01*
X75430000Y-93853000D01*
X75343603Y-93418654D01*
X75097566Y-93050434D01*
X73398000Y-91350868D01*
X73398000Y-90858621D01*
X73438980Y-90957800D01*
X74039041Y-91558909D01*
X74823459Y-91884628D01*
X75672815Y-91885370D01*
X76457800Y-91561020D01*
X77017992Y-91001804D01*
X80272000Y-94255812D01*
X80272000Y-98806000D01*
X80358397Y-99240346D01*
X80456826Y-99387655D01*
X80604434Y-99608566D01*
X81440698Y-100444830D01*
X80976200Y-100636757D01*
X80572176Y-101040077D01*
X80353250Y-101567309D01*
X80352752Y-102138187D01*
X80570757Y-102665800D01*
X80653000Y-102748187D01*
X80653000Y-103068150D01*
X80542191Y-103142191D01*
X80401843Y-103352235D01*
X80352560Y-103600000D01*
X80352560Y-104600000D01*
X80401843Y-104847765D01*
X80542191Y-105057809D01*
X80605334Y-105100000D01*
X80542191Y-105142191D01*
X80401843Y-105352235D01*
X80352560Y-105600000D01*
X80352560Y-106600000D01*
X80401843Y-106847765D01*
X80542191Y-107057809D01*
X80752235Y-107198157D01*
X81000000Y-107247440D01*
X84500000Y-107247440D01*
X84562541Y-107235000D01*
X85500000Y-107235000D01*
X85934346Y-107148603D01*
X86302566Y-106902566D01*
X86914132Y-106291000D01*
X95953354Y-106291000D01*
X95770081Y-106473954D01*
X95612180Y-106854223D01*
X95611821Y-107265971D01*
X95769058Y-107646515D01*
X95835000Y-107712572D01*
X95835000Y-112320470D01*
X95696843Y-112527235D01*
X95647560Y-112775000D01*
X95647560Y-114325000D01*
X95696843Y-114572765D01*
X95837191Y-114782809D01*
X96047235Y-114923157D01*
X96295000Y-114972440D01*
X96895000Y-114972440D01*
X97142765Y-114923157D01*
X97230000Y-114864868D01*
X97317235Y-114923157D01*
X97565000Y-114972440D01*
X98165000Y-114972440D01*
X98412765Y-114923157D01*
X98500000Y-114864868D01*
X98587235Y-114923157D01*
X98835000Y-114972440D01*
X99435000Y-114972440D01*
X99682765Y-114923157D01*
X99770000Y-114864868D01*
X99857235Y-114923157D01*
X100105000Y-114972440D01*
X100705000Y-114972440D01*
X100952765Y-114923157D01*
X101162809Y-114782809D01*
X101303157Y-114572765D01*
X101352440Y-114325000D01*
X101352440Y-112775000D01*
X101303157Y-112527235D01*
X101165000Y-112320470D01*
X101165000Y-108279000D01*
X101107148Y-107988161D01*
X100942401Y-107741599D01*
X100222035Y-107021233D01*
X100222179Y-106856029D01*
X100064942Y-106475485D01*
X99880779Y-106291000D01*
X104309541Y-106291000D01*
X104319564Y-106306000D01*
X104217843Y-106458235D01*
X104168560Y-106706000D01*
X104168560Y-108206000D01*
X104217843Y-108453765D01*
X104358191Y-108663809D01*
X104568235Y-108804157D01*
X104816000Y-108853440D01*
X105351911Y-108853440D01*
X105261843Y-108988235D01*
X105212560Y-109236000D01*
X105212560Y-111236000D01*
X105261843Y-111483765D01*
X105402191Y-111693809D01*
X105612235Y-111834157D01*
X105824341Y-111876347D01*
X105922599Y-112023401D01*
X106958599Y-113059401D01*
X107205160Y-113224148D01*
X107496000Y-113282000D01*
X114438300Y-113282000D01*
X114570235Y-113370157D01*
X114818000Y-113419440D01*
X115718000Y-113419440D01*
X115965765Y-113370157D01*
X116175809Y-113229809D01*
X116316157Y-113019765D01*
X116365440Y-112772000D01*
X116365440Y-112272000D01*
X116316157Y-112024235D01*
X116175809Y-111814191D01*
X116112666Y-111772000D01*
X116175809Y-111729809D01*
X116316157Y-111519765D01*
X116365440Y-111272000D01*
X116365440Y-110772000D01*
X116316157Y-110524235D01*
X116175809Y-110314191D01*
X116028000Y-110215427D01*
X116028000Y-109934000D01*
X116018306Y-109885267D01*
X115970148Y-109643160D01*
X115805401Y-109396599D01*
X114329401Y-107920599D01*
X114082839Y-107755852D01*
X113792000Y-107698000D01*
X113143349Y-107698000D01*
X113363765Y-107654157D01*
X113573809Y-107513809D01*
X113714157Y-107303765D01*
X113763440Y-107056000D01*
X113763440Y-103256000D01*
X113714157Y-103008235D01*
X113573809Y-102798191D01*
X113363765Y-102657843D01*
X113116000Y-102608560D01*
X111116000Y-102608560D01*
X110868235Y-102657843D01*
X110658191Y-102798191D01*
X110517843Y-103008235D01*
X110468560Y-103256000D01*
X110468560Y-106853758D01*
X108233401Y-104618599D01*
X107986839Y-104453852D01*
X107696000Y-104396000D01*
X107461451Y-104396000D01*
X107414157Y-104158235D01*
X107312436Y-104006000D01*
X107414157Y-103853765D01*
X107463440Y-103606000D01*
X107463440Y-102106000D01*
X107414157Y-101858235D01*
X107273809Y-101648191D01*
X107063765Y-101507843D01*
X106816000Y-101458560D01*
X104816000Y-101458560D01*
X104568235Y-101507843D01*
X104358191Y-101648191D01*
X104309541Y-101721000D01*
X104286132Y-101721000D01*
X101584566Y-99019434D01*
X101381149Y-98883515D01*
X101216346Y-98773397D01*
X100782000Y-98687000D01*
X98876155Y-98687000D01*
X98951820Y-98504777D01*
X98951966Y-98337836D01*
X100131089Y-97158713D01*
X100214058Y-97359515D01*
X100504954Y-97650919D01*
X100885223Y-97808820D01*
X101072872Y-97808984D01*
X101072821Y-97867971D01*
X101230058Y-98248515D01*
X101520954Y-98539919D01*
X101901223Y-98697820D01*
X102088872Y-98697984D01*
X102088821Y-98756971D01*
X102246058Y-99137515D01*
X102536954Y-99428919D01*
X102917223Y-99586820D01*
X103328971Y-99587179D01*
X103709515Y-99429942D01*
X104000919Y-99139046D01*
X104158820Y-98758777D01*
X104158966Y-98591836D01*
X106582401Y-96168401D01*
X106747148Y-95921839D01*
X106805000Y-95631000D01*
X106805000Y-94036802D01*
X117096000Y-104327802D01*
X117096000Y-109441427D01*
X116948191Y-109540191D01*
X116807843Y-109750235D01*
X116758560Y-109998000D01*
X116758560Y-110498000D01*
X116807843Y-110745765D01*
X116948191Y-110955809D01*
X117011334Y-110998000D01*
X116948191Y-111040191D01*
X116807843Y-111250235D01*
X116758560Y-111498000D01*
X116758560Y-111998000D01*
X116807843Y-112245765D01*
X116948191Y-112455809D01*
X116983416Y-112479345D01*
X116964191Y-112492191D01*
X116823843Y-112702235D01*
X116774560Y-112950000D01*
X116774560Y-113750000D01*
X116823843Y-113997765D01*
X116964191Y-114207809D01*
X117174235Y-114348157D01*
X117422000Y-114397440D01*
X118322000Y-114397440D01*
X118569765Y-114348157D01*
X118774560Y-114211316D01*
X118774560Y-114700000D01*
X118823843Y-114947765D01*
X118964191Y-115157809D01*
X119174235Y-115298157D01*
X119422000Y-115347440D01*
X120322000Y-115347440D01*
X120569765Y-115298157D01*
X120779809Y-115157809D01*
X120845163Y-115060000D01*
X122050560Y-115060000D01*
X122050560Y-115766000D01*
X122099843Y-116013765D01*
X122240191Y-116223809D01*
X122450235Y-116364157D01*
X122698000Y-116413440D01*
X123198000Y-116413440D01*
X123445765Y-116364157D01*
X123655809Y-116223809D01*
X123698000Y-116160666D01*
X123740191Y-116223809D01*
X123950235Y-116364157D01*
X124198000Y-116413440D01*
X124259174Y-116413440D01*
X124448000Y-116451000D01*
X127000000Y-116451000D01*
X127434346Y-116364603D01*
X127802566Y-116118566D01*
X136948984Y-106972148D01*
X137063187Y-106972248D01*
X137590800Y-106754243D01*
X137994824Y-106350923D01*
X138213750Y-105823691D01*
X138214248Y-105252813D01*
X137996243Y-104725200D01*
X137592923Y-104321176D01*
X137065691Y-104102250D01*
X136494813Y-104101752D01*
X135967200Y-104319757D01*
X135563176Y-104723077D01*
X135344250Y-105250309D01*
X135344148Y-105366720D01*
X126529868Y-114181000D01*
X125163031Y-114181000D01*
X125206422Y-114116062D01*
X125250566Y-114086566D01*
X125496603Y-113718346D01*
X125583000Y-113284000D01*
X125583000Y-109970000D01*
X125496603Y-109535654D01*
X125250566Y-109167434D01*
X120515000Y-104431868D01*
X120515000Y-103917914D01*
X123864197Y-103917914D01*
X124568347Y-105622087D01*
X125871055Y-106927071D01*
X127573997Y-107634194D01*
X129417914Y-107635803D01*
X131122087Y-106931653D01*
X132427071Y-105628945D01*
X133134194Y-103926003D01*
X133135803Y-102082086D01*
X132431653Y-100377913D01*
X131128945Y-99072929D01*
X129426003Y-98365806D01*
X127582086Y-98364197D01*
X125877913Y-99068347D01*
X124572929Y-100371055D01*
X123865806Y-102073997D01*
X123864197Y-103917914D01*
X120515000Y-103917914D01*
X120515000Y-95085132D01*
X127675566Y-87924566D01*
X127807175Y-87727599D01*
X127921603Y-87556346D01*
X128008000Y-87122000D01*
X128008000Y-80607132D01*
X133312132Y-75303000D01*
X138871033Y-75303000D01*
X135196688Y-75967524D01*
X135011781Y-76040367D01*
X134938938Y-76069062D01*
X131646935Y-78186666D01*
X131447663Y-78379111D01*
X129216621Y-81595317D01*
X129106162Y-81849371D01*
X128275737Y-85674540D01*
X128273989Y-85774843D01*
X128270909Y-85951526D01*
X128967524Y-89803312D01*
X129021308Y-89939839D01*
X129069062Y-90061062D01*
X131186666Y-93353065D01*
X131379111Y-93552337D01*
X134595317Y-95783380D01*
X134717724Y-95836600D01*
X134849371Y-95893838D01*
X136015506Y-96147000D01*
X134201132Y-96147000D01*
X133644566Y-95590434D01*
X133485933Y-95484439D01*
X133276346Y-95344397D01*
X132842000Y-95258000D01*
X124846606Y-95258000D01*
X124765923Y-95177176D01*
X124238691Y-94958250D01*
X123667813Y-94957752D01*
X123140200Y-95175757D01*
X122736176Y-95579077D01*
X122517250Y-96106309D01*
X122516752Y-96677187D01*
X122734757Y-97204800D01*
X123138077Y-97608824D01*
X123665309Y-97827750D01*
X124236187Y-97828248D01*
X124763800Y-97610243D01*
X124846187Y-97528000D01*
X132371868Y-97528000D01*
X132928434Y-98084566D01*
X133296654Y-98330603D01*
X133731000Y-98417000D01*
X141450440Y-98417000D01*
X140792200Y-98688980D01*
X140191091Y-99289041D01*
X139865372Y-100073459D01*
X139864630Y-100922815D01*
X140188980Y-101707800D01*
X140789041Y-102308909D01*
X141573459Y-102634628D01*
X142422815Y-102635370D01*
X143207800Y-102311020D01*
X143808909Y-101710959D01*
X144134628Y-100926541D01*
X144135370Y-100077185D01*
X143811020Y-99292200D01*
X143210959Y-98691091D01*
X142550875Y-98417000D01*
X149733000Y-98417000D01*
X150167346Y-98330603D01*
X150535566Y-98084566D01*
X152152566Y-96467566D01*
X152398603Y-96099346D01*
X152411904Y-96032476D01*
X152485000Y-95665000D01*
X152485000Y-93562541D01*
X152497440Y-93500000D01*
X152497440Y-90624963D01*
X153669248Y-90391876D01*
X153925189Y-90285861D01*
X155222882Y-89418771D01*
X155418770Y-89222882D01*
X156285861Y-87925189D01*
X156317598Y-87848570D01*
X156391876Y-87669248D01*
X156523737Y-87006340D01*
X156840727Y-87773515D01*
X157721847Y-88656174D01*
X158873674Y-89134454D01*
X160120854Y-89135543D01*
X161273515Y-88659273D01*
X162156174Y-87778153D01*
X162634454Y-86626326D01*
X162635543Y-85379146D01*
X162159273Y-84226485D01*
X161278153Y-83343826D01*
X160126326Y-82865546D01*
X158879146Y-82864457D01*
X157726485Y-83340727D01*
X156843826Y-84221847D01*
X156523609Y-84993017D01*
X156391876Y-84330752D01*
X156285861Y-84074811D01*
X155418770Y-82777118D01*
X155326652Y-82685000D01*
X155222882Y-82581229D01*
X154164003Y-81873709D01*
X154248157Y-81747765D01*
X154297440Y-81500000D01*
X154297440Y-78500000D01*
X154248157Y-78252235D01*
X154107809Y-78042191D01*
X153922000Y-77918036D01*
X153922000Y-76708000D01*
X153864148Y-76417161D01*
X153864148Y-76417160D01*
X153699401Y-76170599D01*
X149254401Y-71725599D01*
X149007839Y-71560852D01*
X148717000Y-71503000D01*
X110363000Y-71503000D01*
X110072160Y-71560852D01*
X109825599Y-71725599D01*
X105603198Y-75948000D01*
X95377000Y-75948000D01*
X95086161Y-76005852D01*
X94839599Y-76170599D01*
X92250599Y-78759599D01*
X92085852Y-79006161D01*
X92084325Y-79013838D01*
X87209086Y-74138599D01*
X86962524Y-73973852D01*
X86843972Y-73950270D01*
X86693046Y-73799081D01*
X86312777Y-73641180D01*
X85901029Y-73640821D01*
X85520485Y-73798058D01*
X85229081Y-74088954D01*
X85219597Y-74111795D01*
X83056000Y-71948198D01*
X83056000Y-71671000D01*
X82998148Y-71380161D01*
X82833401Y-71133599D01*
X82212401Y-70512599D01*
X82072440Y-70419080D01*
X82072440Y-69950000D01*
X84662560Y-69950000D01*
X84662560Y-71450000D01*
X84711843Y-71697765D01*
X84852191Y-71907809D01*
X84914307Y-71949314D01*
X84817180Y-72183223D01*
X84816821Y-72594971D01*
X84974058Y-72975515D01*
X85264954Y-73266919D01*
X85645223Y-73424820D01*
X86056971Y-73425179D01*
X86437515Y-73267942D01*
X86728919Y-72977046D01*
X86886820Y-72596777D01*
X86887179Y-72185029D01*
X86793226Y-71957644D01*
X86867809Y-71907809D01*
X87008157Y-71697765D01*
X87057440Y-71450000D01*
X87057440Y-69950000D01*
X87008157Y-69702235D01*
X86867809Y-69492191D01*
X86657765Y-69351843D01*
X86620000Y-69344331D01*
X86620000Y-67908163D01*
X86666639Y-67877000D01*
X87593361Y-67877000D01*
X87640000Y-67908163D01*
X87640000Y-69344331D01*
X87602235Y-69351843D01*
X87392191Y-69492191D01*
X87251843Y-69702235D01*
X87202560Y-69950000D01*
X87202560Y-71450000D01*
X87251843Y-71697765D01*
X87392191Y-71907809D01*
X87454307Y-71949314D01*
X87357180Y-72183223D01*
X87356821Y-72594971D01*
X87514058Y-72975515D01*
X87804954Y-73266919D01*
X88185223Y-73424820D01*
X88596971Y-73425179D01*
X88977515Y-73267942D01*
X89268919Y-72977046D01*
X89426820Y-72596777D01*
X89427179Y-72185029D01*
X89333226Y-71957644D01*
X89407809Y-71907809D01*
X89548157Y-71697765D01*
X89597440Y-71450000D01*
X89597440Y-69950000D01*
X89548157Y-69702235D01*
X89407809Y-69492191D01*
X89197765Y-69351843D01*
X89160000Y-69344331D01*
X89160000Y-67908163D01*
X89206639Y-67877000D01*
X90133361Y-67877000D01*
X90180000Y-67908163D01*
X90180000Y-69344331D01*
X90142235Y-69351843D01*
X89932191Y-69492191D01*
X89791843Y-69702235D01*
X89742560Y-69950000D01*
X89742560Y-71450000D01*
X89791843Y-71697765D01*
X89932191Y-71907809D01*
X89994307Y-71949314D01*
X89897180Y-72183223D01*
X89896821Y-72594971D01*
X90054058Y-72975515D01*
X90344954Y-73266919D01*
X90725223Y-73424820D01*
X91136971Y-73425179D01*
X91517515Y-73267942D01*
X91808919Y-72977046D01*
X91966820Y-72596777D01*
X91967179Y-72185029D01*
X91873226Y-71957644D01*
X91947809Y-71907809D01*
X92088157Y-71697765D01*
X92137440Y-71450000D01*
X92137440Y-69950000D01*
X92088157Y-69702235D01*
X91947809Y-69492191D01*
X91737765Y-69351843D01*
X91700000Y-69344331D01*
X91700000Y-67908163D01*
X91746639Y-67877000D01*
X92673361Y-67877000D01*
X92720000Y-67908163D01*
X92720000Y-69344331D01*
X92682235Y-69351843D01*
X92472191Y-69492191D01*
X92331843Y-69702235D01*
X92282560Y-69950000D01*
X92282560Y-71450000D01*
X92331843Y-71697765D01*
X92472191Y-71907809D01*
X92534307Y-71949314D01*
X92437180Y-72183223D01*
X92436821Y-72594971D01*
X92594058Y-72975515D01*
X92884954Y-73266919D01*
X93265223Y-73424820D01*
X93676971Y-73425179D01*
X94057515Y-73267942D01*
X94348919Y-72977046D01*
X94506820Y-72596777D01*
X94507179Y-72185029D01*
X94413226Y-71957644D01*
X94487809Y-71907809D01*
X94628157Y-71697765D01*
X94677440Y-71450000D01*
X94677440Y-69950000D01*
X94628157Y-69702235D01*
X94487809Y-69492191D01*
X94277765Y-69351843D01*
X94240000Y-69344331D01*
X94240000Y-67908163D01*
X94286639Y-67877000D01*
X95213361Y-67877000D01*
X95260000Y-67908163D01*
X95260000Y-69344331D01*
X95222235Y-69351843D01*
X95012191Y-69492191D01*
X94871843Y-69702235D01*
X94822560Y-69950000D01*
X94822560Y-71450000D01*
X94871843Y-71697765D01*
X95012191Y-71907809D01*
X95074307Y-71949314D01*
X94977180Y-72183223D01*
X94976821Y-72594971D01*
X95134058Y-72975515D01*
X95424954Y-73266919D01*
X95805223Y-73424820D01*
X96216971Y-73425179D01*
X96597515Y-73267942D01*
X96888919Y-72977046D01*
X97046820Y-72596777D01*
X97047179Y-72185029D01*
X96953226Y-71957644D01*
X97027809Y-71907809D01*
X97168157Y-71697765D01*
X97217440Y-71450000D01*
X97217440Y-69950000D01*
X97168157Y-69702235D01*
X97027809Y-69492191D01*
X96817765Y-69351843D01*
X96780000Y-69344331D01*
X96780000Y-67908163D01*
X96826639Y-67877000D01*
X97753361Y-67877000D01*
X97800000Y-67908163D01*
X97800000Y-69344331D01*
X97762235Y-69351843D01*
X97552191Y-69492191D01*
X97411843Y-69702235D01*
X97362560Y-69950000D01*
X97362560Y-71450000D01*
X97411843Y-71697765D01*
X97552191Y-71907809D01*
X97614307Y-71949314D01*
X97517180Y-72183223D01*
X97516821Y-72594971D01*
X97674058Y-72975515D01*
X97964954Y-73266919D01*
X98345223Y-73424820D01*
X98756971Y-73425179D01*
X99137515Y-73267942D01*
X99428919Y-72977046D01*
X99586820Y-72596777D01*
X99587179Y-72185029D01*
X99493226Y-71957644D01*
X99567809Y-71907809D01*
X99708157Y-71697765D01*
X99757440Y-71450000D01*
X99757440Y-69950000D01*
X99708157Y-69702235D01*
X99567809Y-69492191D01*
X99357765Y-69351843D01*
X99320000Y-69344331D01*
X99320000Y-67908163D01*
X99366639Y-67877000D01*
X100293361Y-67877000D01*
X100340000Y-67908163D01*
X100340000Y-69344331D01*
X100302235Y-69351843D01*
X100092191Y-69492191D01*
X99951843Y-69702235D01*
X99902560Y-69950000D01*
X99902560Y-71450000D01*
X99951843Y-71697765D01*
X100092191Y-71907809D01*
X100154307Y-71949314D01*
X100057180Y-72183223D01*
X100056821Y-72594971D01*
X100214058Y-72975515D01*
X100504954Y-73266919D01*
X100885223Y-73424820D01*
X101296971Y-73425179D01*
X101677515Y-73267942D01*
X101968919Y-72977046D01*
X102126820Y-72596777D01*
X102127179Y-72185029D01*
X102033226Y-71957644D01*
X102107809Y-71907809D01*
X102248157Y-71697765D01*
X102297440Y-71450000D01*
X102297440Y-69950000D01*
X102248157Y-69702235D01*
X102107809Y-69492191D01*
X101897765Y-69351843D01*
X101860000Y-69344331D01*
X101860000Y-67908163D01*
X101906639Y-67877000D01*
X102833361Y-67877000D01*
X102880000Y-67908163D01*
X102880000Y-69344331D01*
X102842235Y-69351843D01*
X102632191Y-69492191D01*
X102491843Y-69702235D01*
X102442560Y-69950000D01*
X102442560Y-71450000D01*
X102491843Y-71697765D01*
X102632191Y-71907809D01*
X102694307Y-71949314D01*
X102597180Y-72183223D01*
X102596821Y-72594971D01*
X102754058Y-72975515D01*
X103044954Y-73266919D01*
X103425223Y-73424820D01*
X103836971Y-73425179D01*
X104217515Y-73267942D01*
X104508919Y-72977046D01*
X104666820Y-72596777D01*
X104667179Y-72185029D01*
X104573226Y-71957644D01*
X104647809Y-71907809D01*
X104788157Y-71697765D01*
X104837440Y-71450000D01*
X104837440Y-69950000D01*
X104788157Y-69702235D01*
X104647809Y-69492191D01*
X104437765Y-69351843D01*
X104400000Y-69344331D01*
X104400000Y-67908163D01*
X104446639Y-67877000D01*
X104500000Y-67877000D01*
X104548601Y-67867333D01*
X104589803Y-67839803D01*
X104617333Y-67798601D01*
X104627000Y-67750000D01*
X104627000Y-67649463D01*
X104638157Y-67632765D01*
X104687440Y-67385000D01*
X104687440Y-66417914D01*
X113364197Y-66417914D01*
X114068347Y-68122087D01*
X115371055Y-69427071D01*
X117073997Y-70134194D01*
X118917914Y-70135803D01*
X120622087Y-69431653D01*
X121927071Y-68128945D01*
X122634194Y-66426003D01*
X122635803Y-64582086D01*
X121931653Y-62877913D01*
X120628945Y-61572929D01*
X118926003Y-60865806D01*
X117082086Y-60864197D01*
X115377913Y-61568347D01*
X114072929Y-62871055D01*
X113365806Y-64573997D01*
X113364197Y-66417914D01*
X104687440Y-66417914D01*
X104687440Y-66385000D01*
X104638157Y-66137235D01*
X104627000Y-66120537D01*
X104627000Y-65250000D01*
X104617333Y-65201399D01*
X104589803Y-65160197D01*
X104548601Y-65132667D01*
X104500000Y-65123000D01*
X85000000Y-65123000D01*
X84951399Y-65132667D01*
X84910197Y-65160197D01*
X84882667Y-65201399D01*
X84873000Y-65250000D01*
X84873000Y-66120537D01*
X84861843Y-66137235D01*
X84812560Y-66385000D01*
X84812560Y-67385000D01*
X84861843Y-67632765D01*
X84873000Y-67649463D01*
X84873000Y-67750000D01*
X84882667Y-67798601D01*
X84910197Y-67839803D01*
X84951399Y-67867333D01*
X85000000Y-67877000D01*
X85053361Y-67877000D01*
X85100000Y-67908163D01*
X85100000Y-69344331D01*
X85062235Y-69351843D01*
X84852191Y-69492191D01*
X84711843Y-69702235D01*
X84662560Y-69950000D01*
X82072440Y-69950000D01*
X82072440Y-69250000D01*
X82023157Y-69002235D01*
X81882809Y-68792191D01*
X81672765Y-68651843D01*
X81425000Y-68602560D01*
X80155000Y-68602560D01*
X79907235Y-68651843D01*
X79697191Y-68792191D01*
X79556843Y-69002235D01*
X79520000Y-69187459D01*
X79483157Y-69002235D01*
X79342809Y-68792191D01*
X79132765Y-68651843D01*
X78885000Y-68602560D01*
X77615000Y-68602560D01*
X77367235Y-68651843D01*
X77157191Y-68792191D01*
X77016843Y-69002235D01*
X76980000Y-69187459D01*
X76943157Y-69002235D01*
X76802809Y-68792191D01*
X76592765Y-68651843D01*
X76345000Y-68602560D01*
X75075000Y-68602560D01*
X74827235Y-68651843D01*
X74617191Y-68792191D01*
X74476843Y-69002235D01*
X74427560Y-69250000D01*
X74427560Y-72850000D01*
X74476843Y-73097765D01*
X74617191Y-73307809D01*
X74827235Y-73448157D01*
X75075000Y-73497440D01*
X75917638Y-73497440D01*
X76908597Y-74488399D01*
X77155159Y-74653146D01*
X77197012Y-74661471D01*
X77196821Y-74880971D01*
X77289018Y-75104106D01*
X77157191Y-75192191D01*
X77016843Y-75402235D01*
X76967560Y-75650000D01*
X76967560Y-79250000D01*
X77016843Y-79497765D01*
X77157191Y-79707809D01*
X77241286Y-79764000D01*
X75184000Y-79764000D01*
X74749654Y-79850397D01*
X74507198Y-80012401D01*
X74381434Y-80096434D01*
X71460434Y-83017434D01*
X71214397Y-83385654D01*
X71128000Y-83820000D01*
X71128000Y-91821000D01*
X71214397Y-92255346D01*
X71457435Y-92619078D01*
X71460434Y-92623566D01*
X73160000Y-94323132D01*
X73160000Y-95155908D01*
X70502046Y-92497954D01*
X70271705Y-92344046D01*
X70000000Y-92290000D01*
X65710000Y-92290000D01*
X65710000Y-82210000D01*
X70000000Y-82210000D01*
X70271705Y-82155954D01*
X70502046Y-82002046D01*
X73502046Y-79002046D01*
X73655954Y-78771705D01*
X73710000Y-78500000D01*
X73710000Y-63422815D01*
X74364630Y-63422815D01*
X74688980Y-64207800D01*
X75289041Y-64808909D01*
X76073459Y-65134628D01*
X76922815Y-65135370D01*
X77707800Y-64811020D01*
X78308909Y-64210959D01*
X78634628Y-63426541D01*
X78635370Y-62577185D01*
X78311020Y-61792200D01*
X77710959Y-61191091D01*
X76926541Y-60865372D01*
X76077185Y-60864630D01*
X75292200Y-61188980D01*
X74691091Y-61789041D01*
X74365372Y-62573459D01*
X74364630Y-63422815D01*
X73710000Y-63422815D01*
X73710000Y-60710000D01*
X164290000Y-60710000D01*
X164290000Y-105600225D01*
X164290000Y-105600225D01*
G37*
X164290000Y-105600225D02*
X163681653Y-104127913D01*
X162378945Y-102822929D01*
X160676003Y-102115806D01*
X158832086Y-102114197D01*
X157127913Y-102818347D01*
X155822929Y-104121055D01*
X155115806Y-105823997D01*
X155114197Y-107667914D01*
X155818347Y-109372087D01*
X157121055Y-110677071D01*
X158823997Y-111384194D01*
X160667914Y-111385803D01*
X162372087Y-110681653D01*
X163677071Y-109378945D01*
X164290000Y-107902847D01*
X164290000Y-121290000D01*
X112787440Y-121290000D01*
X112787440Y-120085242D01*
X112934599Y-120232401D01*
X113181161Y-120397148D01*
X113472000Y-120455000D01*
X115453837Y-120455000D01*
X115519191Y-120552809D01*
X115729235Y-120693157D01*
X115977000Y-120742440D01*
X116877000Y-120742440D01*
X117124765Y-120693157D01*
X117334809Y-120552809D01*
X117475157Y-120342765D01*
X117524440Y-120095000D01*
X117524440Y-119295000D01*
X117475157Y-119047235D01*
X117334809Y-118837191D01*
X117124765Y-118696843D01*
X116877000Y-118647560D01*
X115977000Y-118647560D01*
X115729235Y-118696843D01*
X115524440Y-118833684D01*
X115524440Y-118345000D01*
X115475157Y-118097235D01*
X115403439Y-117989902D01*
X115441235Y-118015157D01*
X115689000Y-118064440D01*
X116189000Y-118064440D01*
X116436765Y-118015157D01*
X116646809Y-117874809D01*
X116660174Y-117854807D01*
X117014223Y-118001820D01*
X117425971Y-118002179D01*
X117806515Y-117844942D01*
X118097919Y-117554046D01*
X118255820Y-117173777D01*
X118256038Y-116922815D01*
X128864630Y-116922815D01*
X129188980Y-117707800D01*
X129789041Y-118308909D01*
X130573459Y-118634628D01*
X131422815Y-118635370D01*
X132207800Y-118311020D01*
X132808909Y-117710959D01*
X133134628Y-116926541D01*
X133135370Y-116077185D01*
X132811020Y-115292200D01*
X132210959Y-114691091D01*
X131426541Y-114365372D01*
X130577185Y-114364630D01*
X129792200Y-114688980D01*
X129191091Y-115289041D01*
X128865372Y-116073459D01*
X128864630Y-116922815D01*
X118256038Y-116922815D01*
X118256179Y-116762029D01*
X118098942Y-116381485D01*
X117808046Y-116090081D01*
X117427777Y-115932180D01*
X117016029Y-115931821D01*
X116659998Y-116078929D01*
X116646809Y-116059191D01*
X116467820Y-115939594D01*
X116658824Y-115748923D01*
X116877750Y-115221691D01*
X116878248Y-114650813D01*
X116660243Y-114123200D01*
X116256923Y-113719176D01*
X115729691Y-113500250D01*
X115158813Y-113499752D01*
X114631200Y-113717757D01*
X114548813Y-113800000D01*
X107000802Y-113800000D01*
X105959401Y-112758599D01*
X105712839Y-112593852D01*
X105422000Y-112536000D01*
X104715700Y-112536000D01*
X104583765Y-112447843D01*
X104336000Y-112398560D01*
X103436000Y-112398560D01*
X103188235Y-112447843D01*
X102978191Y-112588191D01*
X102837843Y-112798235D01*
X102788560Y-113046000D01*
X102788560Y-113546000D01*
X102837843Y-113793765D01*
X102978191Y-114003809D01*
X103041334Y-114046000D01*
X102978191Y-114088191D01*
X102837843Y-114298235D01*
X102788560Y-114546000D01*
X102788560Y-115046000D01*
X102837843Y-115293765D01*
X102978191Y-115503809D01*
X102998193Y-115517174D01*
X102851180Y-115871223D01*
X102850821Y-116282971D01*
X103008058Y-116663515D01*
X103254990Y-116910878D01*
X102350868Y-117815000D01*
X101526076Y-117815000D01*
X101453603Y-117450652D01*
X101207566Y-117082432D01*
X100543568Y-116418434D01*
X100485979Y-116379954D01*
X100175348Y-116172397D01*
X99741002Y-116086000D01*
X96017606Y-116086000D01*
X95936923Y-116005176D01*
X95409691Y-115786250D01*
X94838813Y-115785752D01*
X94311200Y-116003757D01*
X93907176Y-116407077D01*
X93688250Y-116934309D01*
X93687752Y-117505187D01*
X93905757Y-118032800D01*
X94309077Y-118436824D01*
X94836309Y-118655750D01*
X95407187Y-118656248D01*
X95934800Y-118438243D01*
X96017187Y-118356000D01*
X96917560Y-118356000D01*
X96917560Y-119725000D01*
X96953170Y-119904028D01*
X96586198Y-120271000D01*
X95576646Y-120271000D01*
X95649820Y-120094777D01*
X95650179Y-119683029D01*
X95492942Y-119302485D01*
X95202046Y-119011081D01*
X94821777Y-118853180D01*
X94410029Y-118852821D01*
X94029485Y-119010058D01*
X93911337Y-119128000D01*
X78892573Y-119128000D01*
X78846000Y-119058300D01*
X78846000Y-118035180D01*
X78943991Y-118035265D01*
X79508371Y-117802068D01*
X79940551Y-117370643D01*
X80126505Y-116922815D01*
X89364630Y-116922815D01*
X89688980Y-117707800D01*
X90289041Y-118308909D01*
X91073459Y-118634628D01*
X91922815Y-118635370D01*
X92707800Y-118311020D01*
X93308909Y-117710959D01*
X93634628Y-116926541D01*
X93635370Y-116077185D01*
X93311020Y-115292200D01*
X92710959Y-114691091D01*
X91926541Y-114365372D01*
X91077185Y-114364630D01*
X90292200Y-114688980D01*
X89691091Y-115289041D01*
X89365372Y-116073459D01*
X89364630Y-116922815D01*
X80126505Y-116922815D01*
X80174733Y-116806670D01*
X80175265Y-116196009D01*
X79942068Y-115631629D01*
X79510643Y-115199449D01*
X78946670Y-114965267D01*
X78336009Y-114964735D01*
X77771629Y-115197932D01*
X77369677Y-115599182D01*
X77000818Y-115229677D01*
X77308217Y-114922815D01*
X82364630Y-114922815D01*
X82688980Y-115707800D01*
X83289041Y-116308909D01*
X84073459Y-116634628D01*
X84922815Y-116635370D01*
X85707800Y-116311020D01*
X86308909Y-115710959D01*
X86634628Y-114926541D01*
X86635370Y-114077185D01*
X86311020Y-113292200D01*
X85710959Y-112691091D01*
X84926541Y-112365372D01*
X84077185Y-112364630D01*
X83292200Y-112688980D01*
X82691091Y-113289041D01*
X82365372Y-114073459D01*
X82364630Y-114922815D01*
X77308217Y-114922815D01*
X77400551Y-114830643D01*
X77634733Y-114266670D01*
X77635265Y-113656009D01*
X77402068Y-113091629D01*
X77000818Y-112689677D01*
X77370323Y-112320818D01*
X77769357Y-112720551D01*
X78333330Y-112954733D01*
X78943991Y-112955265D01*
X79508371Y-112722068D01*
X79940551Y-112290643D01*
X80174733Y-111726670D01*
X80175265Y-111116009D01*
X79942068Y-110551629D01*
X79510643Y-110119449D01*
X79400000Y-110073506D01*
X79400000Y-108252447D01*
X79482311Y-108252519D01*
X79862855Y-108095282D01*
X80154259Y-107804386D01*
X80197603Y-107700000D01*
X86152560Y-107700000D01*
X86152560Y-109200000D01*
X86201843Y-109447765D01*
X86342191Y-109657809D01*
X86552235Y-109798157D01*
X86800000Y-109847440D01*
X90200000Y-109847440D01*
X90447765Y-109798157D01*
X90657809Y-109657809D01*
X90798157Y-109447765D01*
X90847440Y-109200000D01*
X90847440Y-107700000D01*
X90798157Y-107452235D01*
X90657809Y-107242191D01*
X90447765Y-107101843D01*
X90200000Y-107052560D01*
X86800000Y-107052560D01*
X86552235Y-107101843D01*
X86342191Y-107242191D01*
X86201843Y-107452235D01*
X86152560Y-107700000D01*
X80197603Y-107700000D01*
X80312160Y-107424117D01*
X80312519Y-107012369D01*
X80155282Y-106631825D01*
X79864386Y-106340421D01*
X79484117Y-106182520D01*
X79072369Y-106182161D01*
X78848450Y-106274682D01*
X79302566Y-105820566D01*
X79548604Y-105452345D01*
X79635000Y-105018000D01*
X79635000Y-104557868D01*
X79757809Y-104475809D01*
X79898157Y-104265765D01*
X79947440Y-104018000D01*
X79947440Y-100518000D01*
X79898157Y-100270235D01*
X79757809Y-100060191D01*
X79547765Y-99919843D01*
X79300000Y-99870560D01*
X78657692Y-99870560D01*
X75430000Y-96642868D01*
X75430000Y-93853000D01*
X75343603Y-93418654D01*
X75097566Y-93050434D01*
X73398000Y-91350868D01*
X73398000Y-90858621D01*
X73438980Y-90957800D01*
X74039041Y-91558909D01*
X74823459Y-91884628D01*
X75672815Y-91885370D01*
X76457800Y-91561020D01*
X77017992Y-91001804D01*
X80272000Y-94255812D01*
X80272000Y-98806000D01*
X80358397Y-99240346D01*
X80456826Y-99387655D01*
X80604434Y-99608566D01*
X81440698Y-100444830D01*
X80976200Y-100636757D01*
X80572176Y-101040077D01*
X80353250Y-101567309D01*
X80352752Y-102138187D01*
X80570757Y-102665800D01*
X80653000Y-102748187D01*
X80653000Y-103068150D01*
X80542191Y-103142191D01*
X80401843Y-103352235D01*
X80352560Y-103600000D01*
X80352560Y-104600000D01*
X80401843Y-104847765D01*
X80542191Y-105057809D01*
X80605334Y-105100000D01*
X80542191Y-105142191D01*
X80401843Y-105352235D01*
X80352560Y-105600000D01*
X80352560Y-106600000D01*
X80401843Y-106847765D01*
X80542191Y-107057809D01*
X80752235Y-107198157D01*
X81000000Y-107247440D01*
X84500000Y-107247440D01*
X84562541Y-107235000D01*
X85500000Y-107235000D01*
X85934346Y-107148603D01*
X86302566Y-106902566D01*
X86914132Y-106291000D01*
X95953354Y-106291000D01*
X95770081Y-106473954D01*
X95612180Y-106854223D01*
X95611821Y-107265971D01*
X95769058Y-107646515D01*
X95835000Y-107712572D01*
X95835000Y-112320470D01*
X95696843Y-112527235D01*
X95647560Y-112775000D01*
X95647560Y-114325000D01*
X95696843Y-114572765D01*
X95837191Y-114782809D01*
X96047235Y-114923157D01*
X96295000Y-114972440D01*
X96895000Y-114972440D01*
X97142765Y-114923157D01*
X97230000Y-114864868D01*
X97317235Y-114923157D01*
X97565000Y-114972440D01*
X98165000Y-114972440D01*
X98412765Y-114923157D01*
X98500000Y-114864868D01*
X98587235Y-114923157D01*
X98835000Y-114972440D01*
X99435000Y-114972440D01*
X99682765Y-114923157D01*
X99770000Y-114864868D01*
X99857235Y-114923157D01*
X100105000Y-114972440D01*
X100705000Y-114972440D01*
X100952765Y-114923157D01*
X101162809Y-114782809D01*
X101303157Y-114572765D01*
X101352440Y-114325000D01*
X101352440Y-112775000D01*
X101303157Y-112527235D01*
X101165000Y-112320470D01*
X101165000Y-108279000D01*
X101107148Y-107988161D01*
X100942401Y-107741599D01*
X100222035Y-107021233D01*
X100222179Y-106856029D01*
X100064942Y-106475485D01*
X99880779Y-106291000D01*
X104309541Y-106291000D01*
X104319564Y-106306000D01*
X104217843Y-106458235D01*
X104168560Y-106706000D01*
X104168560Y-108206000D01*
X104217843Y-108453765D01*
X104358191Y-108663809D01*
X104568235Y-108804157D01*
X104816000Y-108853440D01*
X105351911Y-108853440D01*
X105261843Y-108988235D01*
X105212560Y-109236000D01*
X105212560Y-111236000D01*
X105261843Y-111483765D01*
X105402191Y-111693809D01*
X105612235Y-111834157D01*
X105824341Y-111876347D01*
X105922599Y-112023401D01*
X106958599Y-113059401D01*
X107205160Y-113224148D01*
X107496000Y-113282000D01*
X114438300Y-113282000D01*
X114570235Y-113370157D01*
X114818000Y-113419440D01*
X115718000Y-113419440D01*
X115965765Y-113370157D01*
X116175809Y-113229809D01*
X116316157Y-113019765D01*
X116365440Y-112772000D01*
X116365440Y-112272000D01*
X116316157Y-112024235D01*
X116175809Y-111814191D01*
X116112666Y-111772000D01*
X116175809Y-111729809D01*
X116316157Y-111519765D01*
X116365440Y-111272000D01*
X116365440Y-110772000D01*
X116316157Y-110524235D01*
X116175809Y-110314191D01*
X116028000Y-110215427D01*
X116028000Y-109934000D01*
X116018306Y-109885267D01*
X115970148Y-109643160D01*
X115805401Y-109396599D01*
X114329401Y-107920599D01*
X114082839Y-107755852D01*
X113792000Y-107698000D01*
X113143349Y-107698000D01*
X113363765Y-107654157D01*
X113573809Y-107513809D01*
X113714157Y-107303765D01*
X113763440Y-107056000D01*
X113763440Y-103256000D01*
X113714157Y-103008235D01*
X113573809Y-102798191D01*
X113363765Y-102657843D01*
X113116000Y-102608560D01*
X111116000Y-102608560D01*
X110868235Y-102657843D01*
X110658191Y-102798191D01*
X110517843Y-103008235D01*
X110468560Y-103256000D01*
X110468560Y-106853758D01*
X108233401Y-104618599D01*
X107986839Y-104453852D01*
X107696000Y-104396000D01*
X107461451Y-104396000D01*
X107414157Y-104158235D01*
X107312436Y-104006000D01*
X107414157Y-103853765D01*
X107463440Y-103606000D01*
X107463440Y-102106000D01*
X107414157Y-101858235D01*
X107273809Y-101648191D01*
X107063765Y-101507843D01*
X106816000Y-101458560D01*
X104816000Y-101458560D01*
X104568235Y-101507843D01*
X104358191Y-101648191D01*
X104309541Y-101721000D01*
X104286132Y-101721000D01*
X101584566Y-99019434D01*
X101381149Y-98883515D01*
X101216346Y-98773397D01*
X100782000Y-98687000D01*
X98876155Y-98687000D01*
X98951820Y-98504777D01*
X98951966Y-98337836D01*
X100131089Y-97158713D01*
X100214058Y-97359515D01*
X100504954Y-97650919D01*
X100885223Y-97808820D01*
X101072872Y-97808984D01*
X101072821Y-97867971D01*
X101230058Y-98248515D01*
X101520954Y-98539919D01*
X101901223Y-98697820D01*
X102088872Y-98697984D01*
X102088821Y-98756971D01*
X102246058Y-99137515D01*
X102536954Y-99428919D01*
X102917223Y-99586820D01*
X103328971Y-99587179D01*
X103709515Y-99429942D01*
X104000919Y-99139046D01*
X104158820Y-98758777D01*
X104158966Y-98591836D01*
X106582401Y-96168401D01*
X106747148Y-95921839D01*
X106805000Y-95631000D01*
X106805000Y-94036802D01*
X117096000Y-104327802D01*
X117096000Y-109441427D01*
X116948191Y-109540191D01*
X116807843Y-109750235D01*
X116758560Y-109998000D01*
X116758560Y-110498000D01*
X116807843Y-110745765D01*
X116948191Y-110955809D01*
X117011334Y-110998000D01*
X116948191Y-111040191D01*
X116807843Y-111250235D01*
X116758560Y-111498000D01*
X116758560Y-111998000D01*
X116807843Y-112245765D01*
X116948191Y-112455809D01*
X116983416Y-112479345D01*
X116964191Y-112492191D01*
X116823843Y-112702235D01*
X116774560Y-112950000D01*
X116774560Y-113750000D01*
X116823843Y-113997765D01*
X116964191Y-114207809D01*
X117174235Y-114348157D01*
X117422000Y-114397440D01*
X118322000Y-114397440D01*
X118569765Y-114348157D01*
X118774560Y-114211316D01*
X118774560Y-114700000D01*
X118823843Y-114947765D01*
X118964191Y-115157809D01*
X119174235Y-115298157D01*
X119422000Y-115347440D01*
X120322000Y-115347440D01*
X120569765Y-115298157D01*
X120779809Y-115157809D01*
X120845163Y-115060000D01*
X122050560Y-115060000D01*
X122050560Y-115766000D01*
X122099843Y-116013765D01*
X122240191Y-116223809D01*
X122450235Y-116364157D01*
X122698000Y-116413440D01*
X123198000Y-116413440D01*
X123445765Y-116364157D01*
X123655809Y-116223809D01*
X123698000Y-116160666D01*
X123740191Y-116223809D01*
X123950235Y-116364157D01*
X124198000Y-116413440D01*
X124259174Y-116413440D01*
X124448000Y-116451000D01*
X127000000Y-116451000D01*
X127434346Y-116364603D01*
X127802566Y-116118566D01*
X136948984Y-106972148D01*
X137063187Y-106972248D01*
X137590800Y-106754243D01*
X137994824Y-106350923D01*
X138213750Y-105823691D01*
X138214248Y-105252813D01*
X137996243Y-104725200D01*
X137592923Y-104321176D01*
X137065691Y-104102250D01*
X136494813Y-104101752D01*
X135967200Y-104319757D01*
X135563176Y-104723077D01*
X135344250Y-105250309D01*
X135344148Y-105366720D01*
X126529868Y-114181000D01*
X125163031Y-114181000D01*
X125206422Y-114116062D01*
X125250566Y-114086566D01*
X125496603Y-113718346D01*
X125583000Y-113284000D01*
X125583000Y-109970000D01*
X125496603Y-109535654D01*
X125250566Y-109167434D01*
X120515000Y-104431868D01*
X120515000Y-103917914D01*
X123864197Y-103917914D01*
X124568347Y-105622087D01*
X125871055Y-106927071D01*
X127573997Y-107634194D01*
X129417914Y-107635803D01*
X131122087Y-106931653D01*
X132427071Y-105628945D01*
X133134194Y-103926003D01*
X133135803Y-102082086D01*
X132431653Y-100377913D01*
X131128945Y-99072929D01*
X129426003Y-98365806D01*
X127582086Y-98364197D01*
X125877913Y-99068347D01*
X124572929Y-100371055D01*
X123865806Y-102073997D01*
X123864197Y-103917914D01*
X120515000Y-103917914D01*
X120515000Y-95085132D01*
X127675566Y-87924566D01*
X127807175Y-87727599D01*
X127921603Y-87556346D01*
X128008000Y-87122000D01*
X128008000Y-80607132D01*
X133312132Y-75303000D01*
X138871033Y-75303000D01*
X135196688Y-75967524D01*
X135011781Y-76040367D01*
X134938938Y-76069062D01*
X131646935Y-78186666D01*
X131447663Y-78379111D01*
X129216621Y-81595317D01*
X129106162Y-81849371D01*
X128275737Y-85674540D01*
X128273989Y-85774843D01*
X128270909Y-85951526D01*
X128967524Y-89803312D01*
X129021308Y-89939839D01*
X129069062Y-90061062D01*
X131186666Y-93353065D01*
X131379111Y-93552337D01*
X134595317Y-95783380D01*
X134717724Y-95836600D01*
X134849371Y-95893838D01*
X136015506Y-96147000D01*
X134201132Y-96147000D01*
X133644566Y-95590434D01*
X133485933Y-95484439D01*
X133276346Y-95344397D01*
X132842000Y-95258000D01*
X124846606Y-95258000D01*
X124765923Y-95177176D01*
X124238691Y-94958250D01*
X123667813Y-94957752D01*
X123140200Y-95175757D01*
X122736176Y-95579077D01*
X122517250Y-96106309D01*
X122516752Y-96677187D01*
X122734757Y-97204800D01*
X123138077Y-97608824D01*
X123665309Y-97827750D01*
X124236187Y-97828248D01*
X124763800Y-97610243D01*
X124846187Y-97528000D01*
X132371868Y-97528000D01*
X132928434Y-98084566D01*
X133296654Y-98330603D01*
X133731000Y-98417000D01*
X141450440Y-98417000D01*
X140792200Y-98688980D01*
X140191091Y-99289041D01*
X139865372Y-100073459D01*
X139864630Y-100922815D01*
X140188980Y-101707800D01*
X140789041Y-102308909D01*
X141573459Y-102634628D01*
X142422815Y-102635370D01*
X143207800Y-102311020D01*
X143808909Y-101710959D01*
X144134628Y-100926541D01*
X144135370Y-100077185D01*
X143811020Y-99292200D01*
X143210959Y-98691091D01*
X142550875Y-98417000D01*
X149733000Y-98417000D01*
X150167346Y-98330603D01*
X150535566Y-98084566D01*
X152152566Y-96467566D01*
X152398603Y-96099346D01*
X152411904Y-96032476D01*
X152485000Y-95665000D01*
X152485000Y-93562541D01*
X152497440Y-93500000D01*
X152497440Y-90624963D01*
X153669248Y-90391876D01*
X153925189Y-90285861D01*
X155222882Y-89418771D01*
X155418770Y-89222882D01*
X156285861Y-87925189D01*
X156317598Y-87848570D01*
X156391876Y-87669248D01*
X156523737Y-87006340D01*
X156840727Y-87773515D01*
X157721847Y-88656174D01*
X158873674Y-89134454D01*
X160120854Y-89135543D01*
X161273515Y-88659273D01*
X162156174Y-87778153D01*
X162634454Y-86626326D01*
X162635543Y-85379146D01*
X162159273Y-84226485D01*
X161278153Y-83343826D01*
X160126326Y-82865546D01*
X158879146Y-82864457D01*
X157726485Y-83340727D01*
X156843826Y-84221847D01*
X156523609Y-84993017D01*
X156391876Y-84330752D01*
X156285861Y-84074811D01*
X155418770Y-82777118D01*
X155326652Y-82685000D01*
X155222882Y-82581229D01*
X154164003Y-81873709D01*
X154248157Y-81747765D01*
X154297440Y-81500000D01*
X154297440Y-78500000D01*
X154248157Y-78252235D01*
X154107809Y-78042191D01*
X153922000Y-77918036D01*
X153922000Y-76708000D01*
X153864148Y-76417161D01*
X153864148Y-76417160D01*
X153699401Y-76170599D01*
X149254401Y-71725599D01*
X149007839Y-71560852D01*
X148717000Y-71503000D01*
X110363000Y-71503000D01*
X110072160Y-71560852D01*
X109825599Y-71725599D01*
X105603198Y-75948000D01*
X95377000Y-75948000D01*
X95086161Y-76005852D01*
X94839599Y-76170599D01*
X92250599Y-78759599D01*
X92085852Y-79006161D01*
X92084325Y-79013838D01*
X87209086Y-74138599D01*
X86962524Y-73973852D01*
X86843972Y-73950270D01*
X86693046Y-73799081D01*
X86312777Y-73641180D01*
X85901029Y-73640821D01*
X85520485Y-73798058D01*
X85229081Y-74088954D01*
X85219597Y-74111795D01*
X83056000Y-71948198D01*
X83056000Y-71671000D01*
X82998148Y-71380161D01*
X82833401Y-71133599D01*
X82212401Y-70512599D01*
X82072440Y-70419080D01*
X82072440Y-69950000D01*
X84662560Y-69950000D01*
X84662560Y-71450000D01*
X84711843Y-71697765D01*
X84852191Y-71907809D01*
X84914307Y-71949314D01*
X84817180Y-72183223D01*
X84816821Y-72594971D01*
X84974058Y-72975515D01*
X85264954Y-73266919D01*
X85645223Y-73424820D01*
X86056971Y-73425179D01*
X86437515Y-73267942D01*
X86728919Y-72977046D01*
X86886820Y-72596777D01*
X86887179Y-72185029D01*
X86793226Y-71957644D01*
X86867809Y-71907809D01*
X87008157Y-71697765D01*
X87057440Y-71450000D01*
X87057440Y-69950000D01*
X87008157Y-69702235D01*
X86867809Y-69492191D01*
X86657765Y-69351843D01*
X86620000Y-69344331D01*
X86620000Y-67908163D01*
X86666639Y-67877000D01*
X87593361Y-67877000D01*
X87640000Y-67908163D01*
X87640000Y-69344331D01*
X87602235Y-69351843D01*
X87392191Y-69492191D01*
X87251843Y-69702235D01*
X87202560Y-69950000D01*
X87202560Y-71450000D01*
X87251843Y-71697765D01*
X87392191Y-71907809D01*
X87454307Y-71949314D01*
X87357180Y-72183223D01*
X87356821Y-72594971D01*
X87514058Y-72975515D01*
X87804954Y-73266919D01*
X88185223Y-73424820D01*
X88596971Y-73425179D01*
X88977515Y-73267942D01*
X89268919Y-72977046D01*
X89426820Y-72596777D01*
X89427179Y-72185029D01*
X89333226Y-71957644D01*
X89407809Y-71907809D01*
X89548157Y-71697765D01*
X89597440Y-71450000D01*
X89597440Y-69950000D01*
X89548157Y-69702235D01*
X89407809Y-69492191D01*
X89197765Y-69351843D01*
X89160000Y-69344331D01*
X89160000Y-67908163D01*
X89206639Y-67877000D01*
X90133361Y-67877000D01*
X90180000Y-67908163D01*
X90180000Y-69344331D01*
X90142235Y-69351843D01*
X89932191Y-69492191D01*
X89791843Y-69702235D01*
X89742560Y-69950000D01*
X89742560Y-71450000D01*
X89791843Y-71697765D01*
X89932191Y-71907809D01*
X89994307Y-71949314D01*
X89897180Y-72183223D01*
X89896821Y-72594971D01*
X90054058Y-72975515D01*
X90344954Y-73266919D01*
X90725223Y-73424820D01*
X91136971Y-73425179D01*
X91517515Y-73267942D01*
X91808919Y-72977046D01*
X91966820Y-72596777D01*
X91967179Y-72185029D01*
X91873226Y-71957644D01*
X91947809Y-71907809D01*
X92088157Y-71697765D01*
X92137440Y-71450000D01*
X92137440Y-69950000D01*
X92088157Y-69702235D01*
X91947809Y-69492191D01*
X91737765Y-69351843D01*
X91700000Y-69344331D01*
X91700000Y-67908163D01*
X91746639Y-67877000D01*
X92673361Y-67877000D01*
X92720000Y-67908163D01*
X92720000Y-69344331D01*
X92682235Y-69351843D01*
X92472191Y-69492191D01*
X92331843Y-69702235D01*
X92282560Y-69950000D01*
X92282560Y-71450000D01*
X92331843Y-71697765D01*
X92472191Y-71907809D01*
X92534307Y-71949314D01*
X92437180Y-72183223D01*
X92436821Y-72594971D01*
X92594058Y-72975515D01*
X92884954Y-73266919D01*
X93265223Y-73424820D01*
X93676971Y-73425179D01*
X94057515Y-73267942D01*
X94348919Y-72977046D01*
X94506820Y-72596777D01*
X94507179Y-72185029D01*
X94413226Y-71957644D01*
X94487809Y-71907809D01*
X94628157Y-71697765D01*
X94677440Y-71450000D01*
X94677440Y-69950000D01*
X94628157Y-69702235D01*
X94487809Y-69492191D01*
X94277765Y-69351843D01*
X94240000Y-69344331D01*
X94240000Y-67908163D01*
X94286639Y-67877000D01*
X95213361Y-67877000D01*
X95260000Y-67908163D01*
X95260000Y-69344331D01*
X95222235Y-69351843D01*
X95012191Y-69492191D01*
X94871843Y-69702235D01*
X94822560Y-69950000D01*
X94822560Y-71450000D01*
X94871843Y-71697765D01*
X95012191Y-71907809D01*
X95074307Y-71949314D01*
X94977180Y-72183223D01*
X94976821Y-72594971D01*
X95134058Y-72975515D01*
X95424954Y-73266919D01*
X95805223Y-73424820D01*
X96216971Y-73425179D01*
X96597515Y-73267942D01*
X96888919Y-72977046D01*
X97046820Y-72596777D01*
X97047179Y-72185029D01*
X96953226Y-71957644D01*
X97027809Y-71907809D01*
X97168157Y-71697765D01*
X97217440Y-71450000D01*
X97217440Y-69950000D01*
X97168157Y-69702235D01*
X97027809Y-69492191D01*
X96817765Y-69351843D01*
X96780000Y-69344331D01*
X96780000Y-67908163D01*
X96826639Y-67877000D01*
X97753361Y-67877000D01*
X97800000Y-67908163D01*
X97800000Y-69344331D01*
X97762235Y-69351843D01*
X97552191Y-69492191D01*
X97411843Y-69702235D01*
X97362560Y-69950000D01*
X97362560Y-71450000D01*
X97411843Y-71697765D01*
X97552191Y-71907809D01*
X97614307Y-71949314D01*
X97517180Y-72183223D01*
X97516821Y-72594971D01*
X97674058Y-72975515D01*
X97964954Y-73266919D01*
X98345223Y-73424820D01*
X98756971Y-73425179D01*
X99137515Y-73267942D01*
X99428919Y-72977046D01*
X99586820Y-72596777D01*
X99587179Y-72185029D01*
X99493226Y-71957644D01*
X99567809Y-71907809D01*
X99708157Y-71697765D01*
X99757440Y-71450000D01*
X99757440Y-69950000D01*
X99708157Y-69702235D01*
X99567809Y-69492191D01*
X99357765Y-69351843D01*
X99320000Y-69344331D01*
X99320000Y-67908163D01*
X99366639Y-67877000D01*
X100293361Y-67877000D01*
X100340000Y-67908163D01*
X100340000Y-69344331D01*
X100302235Y-69351843D01*
X100092191Y-69492191D01*
X99951843Y-69702235D01*
X99902560Y-69950000D01*
X99902560Y-71450000D01*
X99951843Y-71697765D01*
X100092191Y-71907809D01*
X100154307Y-71949314D01*
X100057180Y-72183223D01*
X100056821Y-72594971D01*
X100214058Y-72975515D01*
X100504954Y-73266919D01*
X100885223Y-73424820D01*
X101296971Y-73425179D01*
X101677515Y-73267942D01*
X101968919Y-72977046D01*
X102126820Y-72596777D01*
X102127179Y-72185029D01*
X102033226Y-71957644D01*
X102107809Y-71907809D01*
X102248157Y-71697765D01*
X102297440Y-71450000D01*
X102297440Y-69950000D01*
X102248157Y-69702235D01*
X102107809Y-69492191D01*
X101897765Y-69351843D01*
X101860000Y-69344331D01*
X101860000Y-67908163D01*
X101906639Y-67877000D01*
X102833361Y-67877000D01*
X102880000Y-67908163D01*
X102880000Y-69344331D01*
X102842235Y-69351843D01*
X102632191Y-69492191D01*
X102491843Y-69702235D01*
X102442560Y-69950000D01*
X102442560Y-71450000D01*
X102491843Y-71697765D01*
X102632191Y-71907809D01*
X102694307Y-71949314D01*
X102597180Y-72183223D01*
X102596821Y-72594971D01*
X102754058Y-72975515D01*
X103044954Y-73266919D01*
X103425223Y-73424820D01*
X103836971Y-73425179D01*
X104217515Y-73267942D01*
X104508919Y-72977046D01*
X104666820Y-72596777D01*
X104667179Y-72185029D01*
X104573226Y-71957644D01*
X104647809Y-71907809D01*
X104788157Y-71697765D01*
X104837440Y-71450000D01*
X104837440Y-69950000D01*
X104788157Y-69702235D01*
X104647809Y-69492191D01*
X104437765Y-69351843D01*
X104400000Y-69344331D01*
X104400000Y-67908163D01*
X104446639Y-67877000D01*
X104500000Y-67877000D01*
X104548601Y-67867333D01*
X104589803Y-67839803D01*
X104617333Y-67798601D01*
X104627000Y-67750000D01*
X104627000Y-67649463D01*
X104638157Y-67632765D01*
X104687440Y-67385000D01*
X104687440Y-66417914D01*
X113364197Y-66417914D01*
X114068347Y-68122087D01*
X115371055Y-69427071D01*
X117073997Y-70134194D01*
X118917914Y-70135803D01*
X120622087Y-69431653D01*
X121927071Y-68128945D01*
X122634194Y-66426003D01*
X122635803Y-64582086D01*
X121931653Y-62877913D01*
X120628945Y-61572929D01*
X118926003Y-60865806D01*
X117082086Y-60864197D01*
X115377913Y-61568347D01*
X114072929Y-62871055D01*
X113365806Y-64573997D01*
X113364197Y-66417914D01*
X104687440Y-66417914D01*
X104687440Y-66385000D01*
X104638157Y-66137235D01*
X104627000Y-66120537D01*
X104627000Y-65250000D01*
X104617333Y-65201399D01*
X104589803Y-65160197D01*
X104548601Y-65132667D01*
X104500000Y-65123000D01*
X85000000Y-65123000D01*
X84951399Y-65132667D01*
X84910197Y-65160197D01*
X84882667Y-65201399D01*
X84873000Y-65250000D01*
X84873000Y-66120537D01*
X84861843Y-66137235D01*
X84812560Y-66385000D01*
X84812560Y-67385000D01*
X84861843Y-67632765D01*
X84873000Y-67649463D01*
X84873000Y-67750000D01*
X84882667Y-67798601D01*
X84910197Y-67839803D01*
X84951399Y-67867333D01*
X85000000Y-67877000D01*
X85053361Y-67877000D01*
X85100000Y-67908163D01*
X85100000Y-69344331D01*
X85062235Y-69351843D01*
X84852191Y-69492191D01*
X84711843Y-69702235D01*
X84662560Y-69950000D01*
X82072440Y-69950000D01*
X82072440Y-69250000D01*
X82023157Y-69002235D01*
X81882809Y-68792191D01*
X81672765Y-68651843D01*
X81425000Y-68602560D01*
X80155000Y-68602560D01*
X79907235Y-68651843D01*
X79697191Y-68792191D01*
X79556843Y-69002235D01*
X79520000Y-69187459D01*
X79483157Y-69002235D01*
X79342809Y-68792191D01*
X79132765Y-68651843D01*
X78885000Y-68602560D01*
X77615000Y-68602560D01*
X77367235Y-68651843D01*
X77157191Y-68792191D01*
X77016843Y-69002235D01*
X76980000Y-69187459D01*
X76943157Y-69002235D01*
X76802809Y-68792191D01*
X76592765Y-68651843D01*
X76345000Y-68602560D01*
X75075000Y-68602560D01*
X74827235Y-68651843D01*
X74617191Y-68792191D01*
X74476843Y-69002235D01*
X74427560Y-69250000D01*
X74427560Y-72850000D01*
X74476843Y-73097765D01*
X74617191Y-73307809D01*
X74827235Y-73448157D01*
X75075000Y-73497440D01*
X75917638Y-73497440D01*
X76908597Y-74488399D01*
X77155159Y-74653146D01*
X77197012Y-74661471D01*
X77196821Y-74880971D01*
X77289018Y-75104106D01*
X77157191Y-75192191D01*
X77016843Y-75402235D01*
X76967560Y-75650000D01*
X76967560Y-79250000D01*
X77016843Y-79497765D01*
X77157191Y-79707809D01*
X77241286Y-79764000D01*
X75184000Y-79764000D01*
X74749654Y-79850397D01*
X74507198Y-80012401D01*
X74381434Y-80096434D01*
X71460434Y-83017434D01*
X71214397Y-83385654D01*
X71128000Y-83820000D01*
X71128000Y-91821000D01*
X71214397Y-92255346D01*
X71457435Y-92619078D01*
X71460434Y-92623566D01*
X73160000Y-94323132D01*
X73160000Y-95155908D01*
X70502046Y-92497954D01*
X70271705Y-92344046D01*
X70000000Y-92290000D01*
X65710000Y-92290000D01*
X65710000Y-82210000D01*
X70000000Y-82210000D01*
X70271705Y-82155954D01*
X70502046Y-82002046D01*
X73502046Y-79002046D01*
X73655954Y-78771705D01*
X73710000Y-78500000D01*
X73710000Y-63422815D01*
X74364630Y-63422815D01*
X74688980Y-64207800D01*
X75289041Y-64808909D01*
X76073459Y-65134628D01*
X76922815Y-65135370D01*
X77707800Y-64811020D01*
X78308909Y-64210959D01*
X78634628Y-63426541D01*
X78635370Y-62577185D01*
X78311020Y-61792200D01*
X77710959Y-61191091D01*
X76926541Y-60865372D01*
X76077185Y-60864630D01*
X75292200Y-61188980D01*
X74691091Y-61789041D01*
X74365372Y-62573459D01*
X74364630Y-63422815D01*
X73710000Y-63422815D01*
X73710000Y-60710000D01*
X164290000Y-60710000D01*
X164290000Y-105600225D01*
G36*
X94738287Y-86542089D02*
X94537485Y-86625058D01*
X94360947Y-86801288D01*
X94186046Y-86626081D01*
X93872103Y-86495721D01*
X93872179Y-86409029D01*
X93714942Y-86028485D01*
X93424046Y-85737081D01*
X93043777Y-85579180D01*
X92632029Y-85578821D01*
X92251485Y-85736058D01*
X91960081Y-86026954D01*
X91802180Y-86407223D01*
X91802127Y-86467873D01*
X91743029Y-86467821D01*
X91362485Y-86625058D01*
X91185440Y-86801794D01*
X91185440Y-86373000D01*
X91136157Y-86125235D01*
X90995809Y-85915191D01*
X90895251Y-85848000D01*
X90995809Y-85780809D01*
X91136157Y-85570765D01*
X91185440Y-85323000D01*
X91185440Y-84773000D01*
X91160576Y-84648000D01*
X91185440Y-84523000D01*
X91185440Y-84199000D01*
X92395198Y-84199000D01*
X94738287Y-86542089D01*
X94738287Y-86542089D01*
G37*
X94738287Y-86542089D02*
X94537485Y-86625058D01*
X94360947Y-86801288D01*
X94186046Y-86626081D01*
X93872103Y-86495721D01*
X93872179Y-86409029D01*
X93714942Y-86028485D01*
X93424046Y-85737081D01*
X93043777Y-85579180D01*
X92632029Y-85578821D01*
X92251485Y-85736058D01*
X91960081Y-86026954D01*
X91802180Y-86407223D01*
X91802127Y-86467873D01*
X91743029Y-86467821D01*
X91362485Y-86625058D01*
X91185440Y-86801794D01*
X91185440Y-86373000D01*
X91136157Y-86125235D01*
X90995809Y-85915191D01*
X90895251Y-85848000D01*
X90995809Y-85780809D01*
X91136157Y-85570765D01*
X91185440Y-85323000D01*
X91185440Y-84773000D01*
X91160576Y-84648000D01*
X91185440Y-84523000D01*
X91185440Y-84199000D01*
X92395198Y-84199000D01*
X94738287Y-86542089D01*
G36*
X87015235Y-84922157D02*
X87176020Y-84954139D01*
X87203655Y-84972604D01*
X87638000Y-85059000D01*
X88072345Y-84972604D01*
X88099980Y-84954139D01*
X88260765Y-84922157D01*
X88290560Y-84902248D01*
X88290560Y-85323000D01*
X88339843Y-85570765D01*
X88480191Y-85780809D01*
X88580749Y-85848000D01*
X88480191Y-85915191D01*
X88339843Y-86125235D01*
X88290560Y-86373000D01*
X88290560Y-86688000D01*
X88016802Y-86688000D01*
X86974001Y-85645199D01*
X86974001Y-84894605D01*
X87015235Y-84922157D01*
X87015235Y-84922157D01*
G37*
X87015235Y-84922157D02*
X87176020Y-84954139D01*
X87203655Y-84972604D01*
X87638000Y-85059000D01*
X88072345Y-84972604D01*
X88099980Y-84954139D01*
X88260765Y-84922157D01*
X88290560Y-84902248D01*
X88290560Y-85323000D01*
X88339843Y-85570765D01*
X88480191Y-85780809D01*
X88580749Y-85848000D01*
X88480191Y-85915191D01*
X88339843Y-86125235D01*
X88290560Y-86373000D01*
X88290560Y-86688000D01*
X88016802Y-86688000D01*
X86974001Y-85645199D01*
X86974001Y-84894605D01*
X87015235Y-84922157D01*
G36*
X96513000Y-82645440D02*
X96790560Y-82645440D01*
X96790560Y-82923000D01*
X96815424Y-83048000D01*
X96790560Y-83173000D01*
X96790560Y-83723000D01*
X96815424Y-83848000D01*
X96790560Y-83973000D01*
X96790560Y-84523000D01*
X96839843Y-84770765D01*
X96980191Y-84980809D01*
X97080749Y-85048000D01*
X97020885Y-85088000D01*
X95433802Y-85088000D01*
X93247401Y-82901599D01*
X93000839Y-82736852D01*
X92710000Y-82679000D01*
X91185440Y-82679000D01*
X91185440Y-82645440D01*
X91463000Y-82645440D01*
X91588000Y-82620576D01*
X91713000Y-82645440D01*
X92263000Y-82645440D01*
X92388000Y-82620576D01*
X92513000Y-82645440D01*
X93063000Y-82645440D01*
X93188000Y-82620576D01*
X93313000Y-82645440D01*
X93863000Y-82645440D01*
X93988000Y-82620576D01*
X94113000Y-82645440D01*
X94663000Y-82645440D01*
X94788000Y-82620576D01*
X94913000Y-82645440D01*
X95463000Y-82645440D01*
X95588000Y-82620576D01*
X95713000Y-82645440D01*
X96263000Y-82645440D01*
X96388000Y-82620576D01*
X96513000Y-82645440D01*
X96513000Y-82645440D01*
G37*
X96513000Y-82645440D02*
X96790560Y-82645440D01*
X96790560Y-82923000D01*
X96815424Y-83048000D01*
X96790560Y-83173000D01*
X96790560Y-83723000D01*
X96815424Y-83848000D01*
X96790560Y-83973000D01*
X96790560Y-84523000D01*
X96839843Y-84770765D01*
X96980191Y-84980809D01*
X97080749Y-85048000D01*
X97020885Y-85088000D01*
X95433802Y-85088000D01*
X93247401Y-82901599D01*
X93000839Y-82736852D01*
X92710000Y-82679000D01*
X91185440Y-82679000D01*
X91185440Y-82645440D01*
X91463000Y-82645440D01*
X91588000Y-82620576D01*
X91713000Y-82645440D01*
X92263000Y-82645440D01*
X92388000Y-82620576D01*
X92513000Y-82645440D01*
X93063000Y-82645440D01*
X93188000Y-82620576D01*
X93313000Y-82645440D01*
X93863000Y-82645440D01*
X93988000Y-82620576D01*
X94113000Y-82645440D01*
X94663000Y-82645440D01*
X94788000Y-82620576D01*
X94913000Y-82645440D01*
X95463000Y-82645440D01*
X95588000Y-82620576D01*
X95713000Y-82645440D01*
X96263000Y-82645440D01*
X96388000Y-82620576D01*
X96513000Y-82645440D01*
G36*
X105285000Y-84160560D02*
X101805362Y-84160560D01*
X100702802Y-83058000D01*
X101805362Y-81955440D01*
X105285000Y-81955440D01*
X105285000Y-84160560D01*
X105285000Y-84160560D01*
G37*
X105285000Y-84160560D02*
X101805362Y-84160560D01*
X100702802Y-83058000D01*
X101805362Y-81955440D01*
X105285000Y-81955440D01*
X105285000Y-84160560D01*
M02*
